M48
;Layer_Color=9474304
;FILE_FORMAT=4:4
METRIC,LZ
;TYPE=PLATED
T1F00S00C0.6000
T2F00S00C0.8000
T3F00S00C1.0000
;TYPE=NON_PLATED
T4F00S00C4.0000
%
T01
X024125Y005625
X02425Y00675
X024375Y007
Y007625
X025125Y0075
Y007875
X025Y00725
X02525Y006875
X025875Y007
X02575Y00725
X026Y00775
Y0065
X026125Y00575
X026375Y005875
X025125Y004875
X024875
X02375
X0235Y005
X02325Y004875
X02225
X022
X02175
X021
X02075Y0055
X0205Y005625
X020125Y00575
X020375Y00625
Y0065
X020125
X019875Y006375
X02Y006875
X020375Y007
X02025Y00725
Y007875
X02075Y0075
X02125
X022Y00725
X02225Y007375
X022125Y00775
X02275Y007875
X022875Y007625
X023625Y00775
X02375Y0075
X0235Y007375
X023625Y007125
Y00675
X02375Y0065
X023625Y00625
X023Y006375
X022875Y006625
X022125Y006875
Y00625
X02Y004875
X0185625Y004875
X01825Y00575
X018875Y005875
X019125Y006
X01925Y00625
X019125Y00725
X01925Y007625
X019Y00775
X01825Y007875
X018375Y007375
X0185Y007
X017875Y007125
X017625Y006875
X017Y007625
X017125Y0055
X017375Y005375
X016875Y00525
X016625Y005125
X016375Y005
X01725Y00475
X01975Y007125
X019125Y008
X019Y008625
X018875Y009125
X019125Y0095
X019Y00975
X018875Y01
X01875Y01025
X019125Y010125
X01925Y0105
X018625Y010625
X018375Y011125
X0185Y011375
X01925
X019Y011875
X01975Y011
X018375Y009875
X01825Y00925
X017875Y009
X017625Y008875
X0175Y00825
X01775Y008125
X018125Y008375
X018375Y0085
X0175Y00975
Y010375
X016375Y011
X016625Y01125
X016875Y0115
X017Y01175
X019875
X02025Y01125
X02075Y0115
X0215
X022125Y01125
X022875Y011125
X0235Y010875
X02375Y011625
Y011875
X0235Y009375
Y009125
X02375
X023375Y00875
Y008375
X023125Y008875
X0225Y008625
X02225Y0085
Y00826658
X022Y008375
Y008
X0215Y0085
Y009
X021375Y0095
X022Y009625
X0215Y01025
X02075Y01075
X020125Y009625
Y00875
X02075
X021
Y0085
X02075Y008375
X02425Y0085
Y009
X024375Y00925
X024625Y0095
X02475Y01
X024875Y01025
X025Y0105
X025125Y011
X02525Y011375
X024375
X024125Y0115
Y010875
X023875Y010625
X024125Y010125
Y00975
X023875Y009625
X025125Y00975
X025Y00875
X02475Y008875
X024625Y008625
X024375Y008
X02575Y00825
X025875Y008625
X02575Y011
X0255Y01075
X02575Y0125
Y013
X0245Y0135
X024375Y014
X0245Y012125
X02375Y01275
X0235Y01325
X023625Y0135
X023Y013625
X02275Y0135
Y014
Y01425
X022125Y014375
X0215Y014
X021375Y01325
X0215Y012875
X021375Y0125
X022Y013
X022875
X023Y01325
X02275Y01275
X02325Y012
X02025
X02Y012
X020375Y012625
X020125Y013375
X020625Y0135
X0205Y013875
X020875Y01475
X02075Y015125
X022625
X023Y01525
X019375
X01875Y014375
X0185Y014125
X018375Y013625
X0175Y013125
X017125Y013
X01775Y012625
X017375Y012
X019125Y012375
X01975
Y012875
X01725Y01425
T02
X024Y006125
Y0065
Y00675
Y007
Y00725
Y0075
Y00775
X02475
Y0075
Y00725
Y007
Y00675
Y0065
X0255
Y00675
Y007
Y00725
Y0075
Y00775
X02625
Y0075
Y00725
Y007
Y00675
Y0065
Y005375
X02325Y006125
Y0065
Y00675
Y007
Y00725
Y0075
Y00775
X0225
Y0075
Y00725
Y007
Y00675
Y0065
Y006125
X02175Y0065
Y00675
Y007
Y00725
Y0075
Y00775
X021
Y0075
Y00725
Y007
Y00675
Y0065
Y006125
X02125
Y00575
X02175
X01875Y006125
X018
X017625Y0095
Y010625
X016125Y0095
X021
Y00975
Y01
Y01025
Y0105
Y01075
Y011
Y01125
X02175
Y011
Y01075
Y0105
Y01025
Y01
Y00975
Y0095
Y008875
X02125
X021Y008
X02175
X0225
X02325
X024
X02475
X0255
Y00825
X02625
Y008
X02625Y01175
X02525
X0245
X024
Y0111875
X02525Y012125
X02525Y0125
Y012875
Y01325
Y013625
Y014
X02525Y014375
X02625
X02625Y014
Y013625
Y01325
Y012875
Y0125
X02625Y012125
X02325Y0125
Y01275
Y013
Y01325
Y0135
Y01375
Y014
Y01425
Y015
X0225Y01425
Y014
Y01375
Y0135
Y01325
Y013
Y01275
Y0125
X02175
Y01275
Y013
Y01325
Y0135
Y01375
Y014
X021
Y01375
Y0135
Y01325
Y013
Y01275
Y0125
X021875Y0121875
X02175Y015
X02125
X0195Y012875
X019
X017625
T03
X02545Y005375
X02575
X02325
X0195Y0065
Y00675
Y007
Y00725
Y0075
Y00775
X01875
Y0075
Y00725
Y007
Y00675
Y0065
Y008
Y00825
Y0085
Y00875
X0195
Y0085
Y00825
Y008
Y0095
Y00975
Y01
Y01025
Y0105
Y01075
Y011
Y01125
Y0115
Y01175
X018
Y0115
Y01125
Y011
Y01075
Y0105
Y01025
Y01
Y00975
Y0095
X0225Y0095
Y00975
Y01
Y01025
Y0105
Y01075
Y011
Y01125
Y0115
Y01175
X02325
Y0115
Y01125
Y011
Y01075
Y0105
Y01025
Y01
Y00975
Y0095
X02625
Y00975
Y01
Y01025
Y0105
Y01075
Y011
X0265
X02675
Y01075
X0265
Y0105
X02675
Y01025
X0265
Y01
X02675
Y00975
X0265
Y0095
X02675
Y00925
X0265
X02625
Y009
X0265
X02675
Y00875
X0265
X02625
X02475Y0125
Y01275
Y013
Y01325
Y0135
Y01375
Y014
Y01425
Y0145
Y01475
X024
Y0145
Y01425
Y014
Y01375
Y0135
Y01325
Y013
Y01275
Y0125
X0195Y01225
Y012
X018
Y01225
T04
X02684Y01535
X01614
X00384
M30
