G04*
G04 #@! TF.GenerationSoftware,Altium Limited,Altium Designer,23.6.0 (18)*
G04*
G04 Layer_Physical_Order=2*
G04 Layer_Color=16711680*
%FSLAX44Y44*%
%MOMM*%
G71*
G04*
G04 #@! TF.SameCoordinates,C29565D8-60D5-49ED-BB5B-75923638C719*
G04*
G04*
G04 #@! TF.FilePolarity,Positive*
G04*
G01*
G75*
%ADD13C,0.2500*%
G04:AMPARAMS|DCode=27|XSize=1.2mm|YSize=8mm|CornerRadius=0.6mm|HoleSize=0mm|Usage=FLASHONLY|Rotation=0.000|XOffset=0mm|YOffset=0mm|HoleType=Round|Shape=RoundedRectangle|*
%AMROUNDEDRECTD27*
21,1,1.2000,6.8000,0,0,0.0*
21,1,0.0000,8.0000,0,0,0.0*
1,1,1.2000,0.0000,-3.4000*
1,1,1.2000,0.0000,-3.4000*
1,1,1.2000,0.0000,3.4000*
1,1,1.2000,0.0000,3.4000*
%
%ADD27ROUNDEDRECTD27*%
%ADD28R,1.7000X11.0000*%
%ADD29C,0.5000*%
%ADD30C,1.0000*%
%ADD31C,3.0000*%
%ADD32C,1.5000*%
%ADD33C,1.0000*%
%ADD34C,0.5001*%
%ADD36C,1.6000*%
%ADD37R,1.6000X1.6000*%
%ADD38C,3.0000*%
%ADD39C,4.0000*%
%ADD40R,1.6000X1.6000*%
%ADD41C,2.0000*%
%ADD42R,1.8000X1.8000*%
%ADD43C,1.8000*%
%ADD44C,1.5000*%
%ADD45C,1.2000*%
%ADD46C,1.2000*%
%ADD47R,1.7500X2.9000*%
D13*
X475000Y612500D02*
Y706250D01*
Y612500D02*
X487500Y600000D01*
X712500Y612500D02*
Y900000D01*
Y612500D02*
X725000Y600000D01*
X650000Y531250D02*
X687500Y568750D01*
Y606250D01*
X700000Y618750D01*
X687500Y625000D02*
Y812500D01*
X700000Y618750D02*
Y675000D01*
X1418750Y812500D02*
X1425000Y806250D01*
X1400000Y812500D02*
X1418750D01*
X1425000Y762500D02*
Y806250D01*
X1412500Y750000D02*
Y800000D01*
X1387500D02*
X1400000Y812500D01*
X1425000Y762500D02*
X1437500Y750000D01*
X1987500Y568750D02*
Y662500D01*
X1975000Y431250D02*
Y556250D01*
X1987500Y568750D01*
X2000000Y550000D02*
X2012500Y562500D01*
X2000000Y303999D02*
Y550000D01*
X2012500Y562500D02*
Y900000D01*
X2089467Y873033D02*
X2100000Y862500D01*
X2089467Y992467D02*
X2090750Y993750D01*
X2089467Y873033D02*
Y992467D01*
X2100000Y825000D02*
Y862500D01*
X2081250Y850000D02*
Y1037500D01*
X2087500Y556250D02*
Y843750D01*
X2081250Y850000D02*
X2087500Y843750D01*
Y556250D02*
X2100000Y543750D01*
X1862500Y934250D02*
Y1281250D01*
X1856250Y928000D02*
X1862500Y934250D01*
X1987500Y687500D02*
Y814464D01*
X1975000Y826964D02*
X1987500Y814464D01*
X1925000Y1100000D02*
Y1225000D01*
X1888965Y1231250D02*
X1918750D01*
X1925000Y1225000D01*
X1887500Y1193750D02*
X1913523Y1219773D01*
X1925000Y1100000D02*
X1931250Y1093750D01*
X1937500Y1131250D02*
X1956250Y1150000D01*
Y1193750D01*
X1937500Y1212500D02*
X1956250Y1193750D01*
X1937500Y1212500D02*
Y1243750D01*
X1931250Y1093750D02*
X1950000D01*
X1960750Y938964D02*
Y1083000D01*
X1950000Y1093750D02*
X1960750Y1083000D01*
X2043750Y925000D02*
Y926214D01*
X2038750Y931215D02*
X2043750Y926214D01*
X2038750Y931215D02*
Y1119990D01*
X2012500Y931250D02*
Y962500D01*
X2001750Y973250D02*
Y1085703D01*
Y973250D02*
X2012500Y962500D01*
X2000000Y918750D02*
X2012500Y931250D01*
X2025000Y912500D02*
Y943750D01*
X2012500Y900000D02*
X2025000Y912500D01*
X1768750Y1243750D02*
Y1254251D01*
X1806250Y1291751D01*
Y1337500D01*
X1762500Y1068750D02*
Y1231250D01*
X1758960Y1234790D02*
Y1254075D01*
Y1234790D02*
X1762500Y1231250D01*
X1850000Y937500D02*
Y1293750D01*
X1793750Y856250D02*
Y928000D01*
Y856250D02*
X1806250Y843750D01*
Y650000D02*
Y843750D01*
X1750000Y587500D02*
X1762500D01*
X1768750Y593750D02*
Y643750D01*
X1762500Y587500D02*
X1768750Y593750D01*
Y643750D02*
X1775000Y650000D01*
X1737500Y575000D02*
X1750000Y587500D01*
X1687500Y543750D02*
Y737500D01*
X1675000Y750000D02*
X1687500Y737500D01*
X1662500Y562500D02*
Y662500D01*
X1650000Y675000D02*
X1662500Y662500D01*
X1600000Y450000D02*
Y554785D01*
Y450000D02*
X1612500Y437500D01*
X736422Y981250D02*
X794889D01*
X793750D02*
Y1050000D01*
X800000Y1056250D01*
X794889Y981250D02*
X825000Y951139D01*
X999860Y1018750D02*
X1012435Y1006175D01*
X900000Y1018750D02*
X999860D01*
X937500Y993750D02*
X1125010D01*
X1137435Y1006175D01*
X2400000Y1367285D02*
Y1393750D01*
Y1367285D02*
X2425000Y1342285D01*
X2087500Y1281250D02*
Y1331250D01*
X2062500Y1356250D02*
X2087500Y1331250D01*
X2312500Y1282715D02*
X2350000Y1320215D01*
X2312500Y1211036D02*
Y1282715D01*
X2350000Y1320215D02*
Y1393750D01*
X1866088Y583912D02*
Y890162D01*
X1878325Y571675D02*
X1890825D01*
X1866088Y583912D02*
X1878325Y571675D01*
X1874353Y587500D02*
X1925000D01*
X1872888Y588965D02*
Y1200035D01*
Y588965D02*
X1874353Y587500D01*
X1873182Y1204432D02*
X1875000Y1206250D01*
X1872888Y1200035D02*
X1873182Y1200330D01*
X1925000Y337500D02*
Y587500D01*
X1873182Y1200330D02*
Y1204432D01*
X1850000Y906250D02*
X1866088Y890162D01*
X1900000Y343750D02*
Y562500D01*
X1890825Y571675D02*
X1900000Y562500D01*
X2343750Y297750D02*
Y375000D01*
X2343000Y297000D02*
X2343750Y297750D01*
X2237500Y456250D02*
X2293750Y400000D01*
X2237500Y456250D02*
Y487500D01*
X2287500Y437500D02*
X2325000D01*
X2262500Y462500D02*
X2287500Y437500D01*
X2293750Y400000D02*
X2362500D01*
X2375000Y412500D01*
X1090598Y1293659D02*
Y1359348D01*
X1100000Y1368750D01*
Y1343750D02*
X1106250Y1337500D01*
Y1250000D02*
Y1337500D01*
X1087435Y1081175D02*
Y1081315D01*
X1537000Y587500D02*
X1537500Y588000D01*
Y650000D01*
X1562500Y1106250D02*
X1587500Y1131250D01*
Y1206250D02*
X1637500Y1256250D01*
X1587500Y1131250D02*
Y1206250D01*
X1556250Y1200000D02*
Y1218750D01*
X1423332Y1179572D02*
X1535822D01*
X1556250Y1200000D01*
X1525000Y1193750D02*
Y1343750D01*
X1375010Y1131250D02*
X1423332Y1179572D01*
X1525000Y1343750D02*
X1537500Y1356250D01*
X1287500Y1206250D02*
X1300000Y1193750D01*
X1287500Y1343750D02*
X1300000Y1356250D01*
X1287500Y1206250D02*
Y1343750D01*
X213500Y773008D02*
Y840628D01*
X200000Y568750D02*
Y699363D01*
X212500Y841628D02*
Y862500D01*
X200000Y699363D02*
X203250Y702613D01*
X212500Y841628D02*
X213500Y840628D01*
X212500Y772008D02*
X213500Y773008D01*
X203250Y702613D02*
Y835797D01*
X204250Y836796D01*
X212500Y700000D02*
Y772008D01*
X206250Y437500D02*
X231250Y462500D01*
X206250Y325000D02*
Y437500D01*
X1306462Y848499D02*
X1306572Y848608D01*
X1306462Y737378D02*
Y848499D01*
X1308374Y650460D02*
X1308757Y650843D01*
X1308374Y612218D02*
Y650460D01*
X1307992Y611836D02*
X1308374Y612218D01*
X1337500Y650000D02*
Y675000D01*
X349901Y1006141D02*
X349935Y1006175D01*
X349901Y949713D02*
Y1006141D01*
X349801Y949613D02*
X349901Y949713D01*
X1159984Y1091234D02*
Y1118587D01*
X1150000Y1081250D02*
X1159984Y1091234D01*
X1159787Y1118784D02*
X1159984Y1118587D01*
X1180110Y1155110D02*
X1206250Y1181250D01*
X1180110Y1131365D02*
Y1155110D01*
X1146333Y1058833D02*
X1169603Y1082103D01*
Y1169603D02*
X1193750Y1193750D01*
X1169603Y1082103D02*
Y1169603D01*
X1150000Y1093750D02*
Y1212500D01*
X1137500Y1225000D02*
X1150000Y1212500D01*
X1112500Y1093750D02*
X1150000D01*
X837000Y462500D02*
X837250Y462750D01*
Y662250D02*
X837500Y662500D01*
X837250Y462750D02*
Y662250D01*
X325000Y993750D02*
Y1188000D01*
X368750Y1189212D02*
X375000Y1195462D01*
X368750Y1037500D02*
Y1189212D01*
X375000Y1195462D02*
Y1196750D01*
X675000Y1118740D02*
Y1196750D01*
X274935Y1081175D02*
X287500Y1068610D01*
Y925000D02*
Y1068610D01*
X275010Y1131250D02*
X300000Y1106260D01*
Y968750D02*
X325000Y993750D01*
X300000Y1018750D02*
Y1106260D01*
X312500Y1056250D02*
Y1268750D01*
X325000Y1281250D01*
X2200000Y1243750D02*
X2200889Y1244639D01*
Y1302244D01*
X2201779Y1303134D01*
X2212448Y1218801D02*
Y1333133D01*
Y1218801D02*
X2225000Y1206250D01*
X2125000Y1243750D02*
Y1343750D01*
X1100000Y1106250D02*
X1110586Y1116836D01*
X1110586Y1174984D02*
X1110586Y1174984D01*
Y1116836D02*
Y1174984D01*
X1110586Y1174984D02*
Y1231874D01*
X847902Y575992D02*
X848226Y576316D01*
Y699413D01*
X848550Y699737D01*
X463250Y324250D02*
Y349250D01*
Y324250D02*
X487500Y300000D01*
X412500Y400000D02*
X463250Y349250D01*
X1806250Y862500D02*
X1816522Y852228D01*
X1806250Y862500D02*
Y1236155D01*
X1812500Y875000D02*
Y1131250D01*
Y875000D02*
X1827201Y860299D01*
X1150000Y825000D02*
X1150452Y825452D01*
Y901116D01*
X1150903Y901568D01*
X1450000Y901245D02*
X1450472Y901717D01*
X1450000Y762500D02*
Y901245D01*
Y762500D02*
X1462500Y750000D01*
X1062500Y862500D02*
Y912500D01*
X1087500Y850000D02*
X1100000Y862500D01*
X2100000Y893750D02*
Y1056250D01*
X2250000Y831250D02*
Y918750D01*
X2257124Y850874D02*
X2262500Y856250D01*
X2268750Y841179D02*
Y843750D01*
X2265393Y837822D02*
X2268750Y841179D01*
X2243750Y537500D02*
X2257124Y550874D01*
Y850874D01*
X2262500Y856250D02*
Y981250D01*
X2250000Y993750D02*
X2262500Y981250D01*
X2225000Y806250D02*
X2250000Y831250D01*
X2236250Y907467D02*
X2237478Y906239D01*
X2236250Y907467D02*
Y1330000D01*
X1388303Y928947D02*
X1389107Y929750D01*
X1388303Y825803D02*
Y928947D01*
X1387500Y825000D02*
X1388303Y825803D01*
X1314382Y968750D02*
X1336035D01*
X1193750Y931250D02*
X1336035D01*
Y968750D02*
X1337500Y967286D01*
X1336035Y931250D02*
X1337500Y932714D01*
Y967286D01*
X1175000Y825000D02*
Y909500D01*
X1175000Y825000D02*
X1175000Y825000D01*
X968750Y900000D02*
Y968750D01*
X956541Y980959D02*
X968750Y968750D01*
X955959Y980959D02*
X956541D01*
X775000Y825000D02*
Y868750D01*
X750000Y850000D02*
Y887500D01*
X537500Y825000D02*
X537500Y825000D01*
X537500Y825000D02*
Y887500D01*
X675000Y900000D02*
Y1018750D01*
X675000Y900000D02*
X675000Y900000D01*
X475000Y762500D02*
Y900000D01*
X462500Y750000D02*
X475000Y762500D01*
X487500Y851526D02*
X487500Y853598D01*
X487500Y825000D02*
Y851526D01*
X487500Y853598D02*
X490500Y862500D01*
X1062500Y912500D02*
X1100000Y950000D01*
X1075000Y800000D02*
Y893750D01*
X1118750Y937500D01*
X1825000Y881250D02*
X1850000Y856250D01*
X1825000Y881250D02*
Y918750D01*
X1737500D02*
Y1031250D01*
X2034250Y884500D02*
X2062500Y856250D01*
X2012500Y1056250D02*
X2034250Y1034500D01*
Y884500D02*
Y1034500D01*
X2038750Y1119990D02*
X2049935Y1131175D01*
X1968750Y906541D02*
Y1200000D01*
Y906541D02*
X1969041Y906250D01*
X1084917Y972988D02*
Y978667D01*
X1087500Y981250D01*
X1062500Y950571D02*
X1084917Y972988D01*
X825000Y903250D02*
Y951139D01*
X1043750Y900000D02*
Y981250D01*
X1291870Y946159D02*
X1297529Y940500D01*
X1291341Y946159D02*
X1291870D01*
X1297529Y940500D02*
X1300000D01*
X1287500Y950000D02*
X1291341Y946159D01*
X1287500Y950000D02*
Y1106250D01*
X1303346Y1131250D02*
X1337360D01*
X1312500Y1081250D02*
X1325000Y1093750D01*
X1300000Y983132D02*
Y1127904D01*
Y983132D02*
X1314382Y968750D01*
X1262510Y1131240D02*
X1287500Y1106250D01*
X1300000Y1127904D02*
X1303346Y1131250D01*
X1937502Y343747D02*
Y931247D01*
Y343747D02*
X1950000Y331250D01*
X1931250Y937500D02*
X1937502Y931247D01*
X1931250Y937500D02*
X1959285D01*
X1960750Y938964D01*
X2175000Y637500D02*
Y931250D01*
X2068750Y925000D02*
Y926289D01*
X2075000Y932539D01*
Y1006240D01*
X2156250Y938964D02*
Y1143750D01*
X2143750Y937500D02*
X2154785D01*
X2156250Y938964D01*
X1912500Y375000D02*
Y568750D01*
X1518750Y925000D02*
Y1100010D01*
X2156250Y1143750D02*
X2168675Y1156175D01*
X2087500Y1068750D02*
X2100000Y1056250D01*
X2080518Y1038232D02*
X2081250Y1037500D01*
X2075000Y1043750D02*
X2080518Y1038232D01*
X2050000Y1031240D02*
X2075000Y1006240D01*
X2009797Y1093750D02*
X2029785D01*
X2001750Y1085703D02*
X2009797Y1093750D01*
X2029785D02*
X2031250Y1095214D01*
X2025000Y1118750D02*
Y1306250D01*
X2012500Y1106250D02*
X2025000Y1118750D01*
X2031250Y1167286D02*
X2062500Y1198536D01*
X2037500Y1281250D02*
X2062500Y1256250D01*
Y1198536D02*
Y1256250D01*
X2031250Y1095214D02*
Y1167286D01*
X1981250Y1175000D02*
X1987500Y1181250D01*
X1975000Y826964D02*
X1981250Y833214D01*
Y1175000D01*
X1875000Y1245214D02*
X1888965Y1231250D01*
X1887500Y1118815D02*
X1900033Y1106283D01*
X1887500Y1118815D02*
Y1193750D01*
X1859750Y521500D02*
Y865250D01*
X1837500Y887500D02*
X1859750Y865250D01*
Y521500D02*
X1875000Y506250D01*
X1837500Y887500D02*
Y925000D01*
X1850000Y937500D01*
X1599935Y1131175D02*
X1612500Y1143740D01*
X1806250Y1236155D02*
X1813172Y1243077D01*
X1725000Y1043750D02*
X1737500Y1031250D01*
X1650000Y912500D02*
X1687500Y875000D01*
X1651465Y1031250D02*
X1674860D01*
X1650000Y912500D02*
Y1029786D01*
X1651465Y1031250D01*
X1637500Y893750D02*
Y1043740D01*
Y893750D02*
X1662500Y868750D01*
X1637500Y1043740D02*
X1674935Y1081175D01*
X1712510Y1131250D02*
X1725000Y1118760D01*
X1413024Y825524D02*
Y907738D01*
X1413548Y908263D01*
X1412500Y825000D02*
X1413024Y825524D01*
X2062500Y706250D02*
Y856250D01*
X2156250Y893750D02*
X2165509Y903008D01*
X2200000Y812500D02*
Y837500D01*
X2225000Y862500D02*
Y1043750D01*
X2200000Y837500D02*
X2225000Y862500D01*
Y587500D02*
Y806250D01*
X2165509Y903008D02*
Y1134258D01*
X2187500Y575000D02*
X2212500D01*
X2150000Y543750D02*
Y850000D01*
X2150000Y850000D01*
X1625000Y825000D02*
Y1181250D01*
X1612500Y1143740D02*
Y1206250D01*
X1637500Y1256250D02*
Y1318750D01*
X350000Y606250D02*
X362500Y593750D01*
X662435Y1106175D02*
X675000Y1118740D01*
X262500Y550000D02*
Y775000D01*
X275000Y425000D02*
Y537500D01*
X262500Y550000D02*
X275000Y537500D01*
X287500Y550000D02*
Y700000D01*
Y550000D02*
X300000Y537500D01*
Y425000D02*
Y537500D01*
X225000Y350000D02*
X237500Y362500D01*
Y450000D01*
X312500Y362500D02*
Y543750D01*
X300000Y350000D02*
X312500Y362500D01*
X337500D02*
Y531250D01*
X325000Y350000D02*
X337500Y362500D01*
X697785Y466535D02*
X787500Y556250D01*
X691535Y466535D02*
X697785D01*
X687500Y462500D02*
X691535Y466535D01*
X1475000Y612500D02*
Y837500D01*
X1462500Y600000D02*
X1475000Y612500D01*
Y837500D02*
X1487500Y850000D01*
X1137500Y1056250D02*
X1140083Y1058833D01*
X1146333D01*
X837435Y1031185D02*
X851673Y1045423D01*
Y1182923D01*
X837435Y1031175D02*
Y1031185D01*
X1012500Y1281250D02*
Y1331250D01*
X1037500Y1356250D01*
X1337510Y1106250D02*
X1353391Y1122131D01*
Y1172141D02*
X1381250Y1200000D01*
X1353391Y1122131D02*
Y1172141D01*
X1325000Y1093750D02*
X1362500D01*
X1425000Y1231250D02*
Y1343750D01*
X1437500Y1356250D01*
X1400000Y1256250D02*
Y1343750D01*
X1412500Y1356250D01*
X1500000Y1293750D02*
Y1381250D01*
X1487500Y1281250D02*
X1500000Y1293750D01*
X2237500Y575000D02*
X2237500D01*
X2230750Y581750D02*
X2237500Y575000D01*
X2230750Y581750D02*
Y581750D01*
X2225000Y587500D02*
X2230750Y581750D01*
X2175000Y637500D02*
X2187500Y625000D01*
X2168675Y1156175D02*
X2187435D01*
X2187510Y1031250D02*
X2212500D01*
X2212500Y1031250D01*
Y1031250D02*
Y1067286D01*
Y962500D02*
Y1031250D01*
Y1067286D02*
X2225000Y1079786D01*
Y1206250D01*
X2212500Y1131240D02*
Y1181250D01*
X2187435Y1106175D02*
X2212500Y1131240D01*
X1875000Y1245214D02*
Y1343750D01*
X1862500Y1356250D02*
X1875000Y1343750D01*
X1836768Y1393018D02*
X2025732D01*
X2037500Y1356250D02*
Y1381250D01*
X2025732Y1393018D02*
X2037500Y1381250D01*
X1825710Y1381960D02*
X1836768Y1393018D01*
X1825710Y1351366D02*
Y1381960D01*
X1075000Y1006250D02*
X1087360D01*
X1050000Y1031250D02*
X1075000Y1006250D01*
X1100000Y1068750D02*
Y1106250D01*
X1087500Y1056250D02*
X1100000Y1068750D01*
X851673Y1182923D02*
X862500Y1193750D01*
X762500D02*
Y1206250D01*
X812500Y1256250D02*
Y1343750D01*
X762500Y1206250D02*
X812500Y1256250D01*
X662500Y1243750D02*
Y1318750D01*
X700000Y1356250D01*
X762500Y1293750D02*
Y1406250D01*
X750000Y1281250D02*
X762500Y1293750D01*
X912510Y1081250D02*
X937510Y1056250D01*
X975000D01*
X1025000Y1068750D02*
Y1206250D01*
X1012500Y1218750D02*
X1025000Y1206250D01*
X1062500D02*
X1075000Y1218750D01*
X1062500Y1093750D02*
Y1206250D01*
X1162500Y1231250D02*
X1175000Y1218750D01*
X1162500Y1231250D02*
Y1343750D01*
X1137500Y1081250D02*
X1150000D01*
X2087500Y1068750D02*
Y1175000D01*
X1987500Y662500D02*
X2000000Y675000D01*
X2062500Y375000D02*
Y662500D01*
X2050000Y675000D02*
X2062500Y662500D01*
X2037500Y375000D02*
Y737500D01*
X2025000Y750000D02*
X2037500Y737500D01*
X1962500Y375000D02*
Y737500D01*
X1975000Y750000D01*
Y675000D02*
X1987500Y687500D01*
X1075000Y337500D02*
Y375000D01*
X1125000Y425000D01*
X1150000Y350000D02*
Y387500D01*
X1162500Y400000D01*
Y442285D01*
Y381250D02*
X1175000Y393750D01*
X1162500Y325000D02*
Y381250D01*
X1175000Y393750D02*
Y425000D01*
X1125000Y350000D02*
X1137500Y362500D01*
Y431250D01*
X1450219Y431031D02*
X1451561Y361927D01*
X1452292Y360208D02*
X1462500Y350000D01*
X1451580Y360920D02*
X1452292Y360208D01*
X1451561Y361927D02*
X1451580Y360920D01*
X1425000Y325000D02*
Y412500D01*
X1412500Y425000D02*
X1425000Y412500D01*
X362500Y787500D02*
Y918750D01*
X375000Y931250D02*
Y1031250D01*
X362500Y918750D02*
X375000Y931250D01*
X337500Y787500D02*
Y918750D01*
X362500Y943750D02*
Y1018760D01*
X337500Y918750D02*
X362500Y943750D01*
X425000Y462500D02*
Y931250D01*
X400000Y956250D02*
Y1062500D01*
Y956250D02*
X425000Y931250D01*
X450000Y731250D02*
Y937500D01*
X462500Y950000D02*
Y1181250D01*
X450000Y937500D02*
X462500Y950000D01*
X475000Y937500D02*
Y1168750D01*
X462500Y825000D02*
Y925000D01*
X475000Y937500D01*
X662505Y1031245D02*
X675000Y1018750D01*
X600000Y1081250D02*
X610075Y1071175D01*
Y1021175D02*
X624935Y1006315D01*
X610075Y1021175D02*
Y1071175D01*
X549935Y1106175D02*
X565317Y1090792D01*
Y1040932D02*
X587500Y1018750D01*
X565317Y1040932D02*
Y1090792D01*
X575000Y1063964D02*
X600000Y1038964D01*
X575000Y1063964D02*
Y1143750D01*
X450000Y1343750D02*
X462500Y1356250D01*
X450000Y1243750D02*
Y1343750D01*
Y1193750D02*
X462500Y1206250D01*
X450000Y1106250D02*
Y1193750D01*
X500000Y1268750D02*
Y1306250D01*
X487500Y1256250D02*
X500000Y1268750D01*
X487500Y1181250D02*
Y1256250D01*
X700000Y912500D02*
X712500Y900000D01*
X737500Y612500D02*
Y900000D01*
X712500Y925000D02*
X737500Y900000D01*
X975000Y637500D02*
Y818750D01*
X962500Y825000D02*
X965083Y822417D01*
X971333D01*
X975000Y818750D01*
X937500Y825000D02*
X950000Y812500D01*
Y487500D02*
Y812500D01*
X300000Y600000D02*
X312500Y612500D01*
Y693750D01*
X337500Y612500D02*
Y762500D01*
Y612500D02*
X350000Y600000D01*
Y600000D02*
Y606250D01*
X587500Y425000D02*
X618750D01*
X630183Y436433D02*
Y830183D01*
X618750Y425000D02*
X630183Y436433D01*
X623985Y448985D02*
Y848985D01*
X612500Y437500D02*
X623985Y448985D01*
X987500Y425000D02*
Y575000D01*
X975000Y362500D02*
Y462500D01*
X962500Y350000D02*
X975000Y362500D01*
X887500Y400000D02*
X912500Y425000D01*
X887500Y350000D02*
Y400000D01*
X812500Y387500D02*
Y568750D01*
X800000Y581250D02*
X812500Y568750D01*
X656250Y443750D02*
X750000D01*
X650000Y450000D02*
Y531250D01*
Y450000D02*
X656250Y443750D01*
X750000D02*
X756250D01*
X772417Y427583D02*
X775000Y425000D01*
X766167Y427583D02*
X772417D01*
X750000Y443750D02*
X766167Y427583D01*
X762500Y593750D02*
Y737500D01*
X687500Y518750D02*
X762500Y593750D01*
Y737500D02*
X775000Y750000D01*
X787500Y556250D02*
Y812500D01*
X737500Y612500D02*
X750000Y600000D01*
X825000Y687500D02*
Y868750D01*
X875000Y918750D01*
X787500Y812500D02*
X800000Y825000D01*
X762500Y762500D02*
Y837500D01*
X750000Y750000D02*
X762500Y762500D01*
X687500Y812500D02*
X700000Y825000D01*
X662500Y637500D02*
Y812500D01*
X675000Y825000D01*
X600000Y475000D02*
Y812500D01*
X612500Y825000D01*
X630183Y830183D02*
X650000Y850000D01*
X623985Y848985D02*
X625000Y850000D01*
X575000Y512500D02*
Y618750D01*
X562500Y631250D02*
X575000Y618750D01*
X562500Y631250D02*
Y675000D01*
X550000Y612500D02*
Y925000D01*
Y612500D02*
X562500Y600000D01*
X487500Y750000D02*
X500000Y762500D01*
Y837500D01*
X512500Y850000D01*
X531250Y943750D02*
Y1206250D01*
Y943750D02*
X550000Y925000D01*
X575000Y700000D02*
Y925000D01*
X600000Y950000D02*
Y1038964D01*
X575000Y925000D02*
X600000Y950000D01*
X827568Y671318D02*
X837500Y681250D01*
X825000Y337500D02*
X826818Y339318D01*
Y342965D01*
X827568Y343714D01*
Y671318D01*
X500000Y587500D02*
X512500Y600000D01*
X500000Y512500D02*
Y587500D01*
X525000Y362500D02*
Y475000D01*
Y362500D02*
X537500Y350000D01*
X550000Y362500D02*
Y562500D01*
Y362500D02*
X562500Y350000D01*
X675000D02*
Y400000D01*
X700000Y425000D01*
X775000Y350000D02*
X812500Y387500D01*
X875000Y612500D02*
Y737500D01*
X887500Y750000D01*
X975000Y512500D02*
Y618750D01*
X900000Y506250D02*
X912500Y493750D01*
X900000Y506250D02*
Y662500D01*
X887500Y506250D02*
Y600000D01*
X868750Y487500D02*
X887500Y506250D01*
X875000Y612500D02*
X887500Y600000D01*
X900000Y662500D02*
X912500Y675000D01*
X925000Y625000D02*
Y762500D01*
X912500Y775000D02*
X925000Y762500D01*
X1087500Y717286D02*
Y850000D01*
Y717286D02*
X1112500Y692286D01*
Y456250D02*
Y692286D01*
Y717286D02*
Y775000D01*
Y717286D02*
X1125000Y704786D01*
X1112500Y775000D02*
X1162500D01*
X1125000Y675000D02*
Y704786D01*
X1125000Y729786D02*
Y750000D01*
Y729786D02*
X1137500Y717286D01*
Y668750D02*
Y717286D01*
X1200000Y656250D02*
X1225000D01*
X1187500Y668750D02*
Y775000D01*
Y668750D02*
X1200000Y656250D01*
X1250000Y512500D02*
Y575000D01*
X1225000Y600000D02*
X1250000Y575000D01*
X1225000Y600000D02*
Y656250D01*
X1212500Y700000D02*
X1225000D01*
X1250000Y675000D01*
X1150000Y454785D02*
X1162500Y442285D01*
X1150000Y454785D02*
Y575000D01*
X1431250Y450000D02*
X1450219Y431031D01*
X1400000Y456250D02*
X1406250Y450000D01*
X1431250D01*
X1387500Y650000D02*
X1412500Y675000D01*
X1387500Y600000D02*
Y650000D01*
X1387500Y600000D02*
X1412500Y575000D01*
Y462500D02*
Y575000D01*
X1398535Y438965D02*
X1423535D01*
X1375000Y462500D02*
Y850000D01*
Y462500D02*
X1398535Y438965D01*
X1423535D02*
X1437500Y425000D01*
X1400000Y456250D02*
Y562500D01*
X1362500Y300000D02*
X1425000D01*
X1325000Y337500D02*
Y337500D01*
Y337500D02*
X1331750Y330750D01*
X1331750D02*
X1362500Y300000D01*
X1331750Y330750D02*
X1331750D01*
X1500000Y662500D02*
Y737500D01*
X1487500Y750000D02*
X1500000Y737500D01*
X1512500Y675000D02*
X1537500Y650000D01*
X1500000Y662500D02*
X1512500Y650000D01*
X1587500Y387500D02*
Y412500D01*
X1581250Y381250D02*
X1581250D01*
X1587500Y387500D01*
X1575000Y375000D02*
X1581250Y381250D01*
X1975000Y1256250D02*
Y1343750D01*
X1962500Y1356250D02*
X1975000Y1343750D01*
X1937500Y1356250D02*
X1950000Y1368750D01*
X1993750D02*
X2000000Y1362500D01*
X1950000Y1368750D02*
X1993750D01*
X2000000Y1268750D02*
Y1362500D01*
Y1268750D02*
X2012500Y1256250D01*
X2050000Y1350000D02*
Y1418750D01*
X2062500Y1431250D01*
X2075000Y1306250D02*
Y1325000D01*
X2050000Y1350000D02*
X2075000Y1325000D01*
X2068750Y1300000D02*
X2075000Y1306250D01*
X2056250Y1300000D02*
X2068750D01*
X2037500Y1318750D02*
X2056250Y1300000D01*
X2018750Y1318750D02*
X2037500D01*
X2012500Y1312500D02*
X2018750Y1318750D01*
X2012500Y1281250D02*
Y1312500D01*
X2136231Y1217481D02*
X2137500Y1218750D01*
X2129981Y1217481D02*
X2136231D01*
X2087500Y1175000D02*
X2129981Y1217481D01*
X2175000Y1143750D02*
X2198535D01*
X2200000Y1145214D01*
Y1218750D01*
X2165509Y1134258D02*
X2175000Y1143750D01*
X2281250Y1056250D02*
Y1192286D01*
X2256250Y1043750D02*
X2268750D01*
X2281250Y1056250D01*
X2293755Y1050005D02*
Y1087495D01*
X2275000Y1031250D02*
X2293755Y1050005D01*
Y1087495D02*
X2312435Y1106175D01*
X2412500Y993750D02*
Y1181250D01*
X2400000Y981250D02*
X2412500Y993750D01*
X2462435Y1081175D02*
X2475000Y1093740D01*
Y1118750D01*
X2462500Y1131250D02*
X2475000Y1118750D01*
X2375000Y1281250D02*
Y1393750D01*
Y1281250D02*
X2387500Y1268750D01*
Y1031250D02*
Y1268750D01*
X2250000Y1093750D02*
X2262500Y1081250D01*
X2250000Y1093750D02*
Y1204786D01*
X2262500Y1217286D01*
X1912500Y1281250D02*
Y1293750D01*
X1925000Y1306250D01*
X1962500Y1243750D02*
Y1281250D01*
Y1243750D02*
X1975000Y1231250D01*
X2012500Y1218750D02*
Y1256250D01*
X2000000Y1206250D02*
X2012500Y1218750D01*
X2100000Y1106250D02*
Y1162500D01*
Y1106250D02*
X2100005Y1106245D01*
X2100000Y1162500D02*
X2143750Y1206250D01*
X2100005Y1106245D02*
X2124995D01*
X2143750Y1206250D02*
X2162500D01*
X2262500Y1217286D02*
Y1281250D01*
X2250000Y1293750D02*
X2262500Y1281250D01*
X2236250Y1330000D02*
X2300000Y1393750D01*
X2400000Y1206250D02*
X2412500Y1218750D01*
X2400000Y1131250D02*
Y1206250D01*
X2412500Y1181250D02*
X2425000Y1193750D01*
Y993750D02*
Y1156250D01*
X2437500Y1168750D01*
Y1268750D01*
X2300000Y1211035D02*
Y1243750D01*
X2281250Y1192286D02*
X2300000Y1211035D01*
X2312500Y1211036D02*
X2325000Y1198536D01*
X2312435Y1081175D02*
X2323535D01*
X2325000Y1082639D01*
Y1198536D01*
X2250000Y993750D02*
Y1037500D01*
X2256250Y1043750D01*
X2262500Y1031250D02*
X2275000D01*
X2200000Y812500D02*
X2212500Y800000D01*
Y725000D02*
Y800000D01*
X2265393Y672107D02*
Y837822D01*
Y672107D02*
X2277901Y659598D01*
X2325000Y437500D02*
X2418750D01*
X2434534Y415466D02*
X2437500Y412500D01*
X2434534Y415466D02*
Y421716D01*
X2418750Y437500D02*
X2434534Y421716D01*
X2167999Y297000D02*
Y382001D01*
X2150000Y400000D02*
X2167999Y382001D01*
X1975000Y431250D02*
X1987500Y418750D01*
X1833758Y528742D02*
X1862500Y500000D01*
X1837500Y578778D02*
Y581250D01*
X1833758Y528742D02*
Y575036D01*
X1837500Y578778D01*
X1807154Y499096D02*
X1825000Y481250D01*
X1807154Y499096D02*
Y607154D01*
X1827201Y627201D01*
X1875000Y343750D02*
Y506250D01*
X1862500Y375000D02*
Y500000D01*
X1850000Y303999D02*
Y493750D01*
X1825000Y518750D02*
X1850000Y493750D01*
X1825000Y518750D02*
Y587500D01*
Y304000D02*
Y481250D01*
X1816334Y508666D02*
X1837500Y487500D01*
Y375000D02*
Y487500D01*
X1816334Y508666D02*
Y597584D01*
X1768750Y350000D02*
Y468750D01*
X1737500Y500000D02*
Y575000D01*
Y500000D02*
X1768750Y468750D01*
X1787500Y375000D02*
Y468750D01*
X1750000Y506250D02*
X1787500Y468750D01*
X1750000Y506250D02*
Y568750D01*
X1762500Y506250D02*
X1800000Y468750D01*
X1762500Y506250D02*
Y562500D01*
X1800000Y303999D02*
Y468750D01*
X1812500Y375000D02*
Y475000D01*
X1775000Y512500D02*
Y556250D01*
Y512500D02*
X1812500Y475000D01*
X1762500Y562500D02*
X1774130Y574130D01*
X1786630D02*
X1800000Y587500D01*
X1774130Y574130D02*
X1786630D01*
X1816334Y597584D02*
X1837500Y618750D01*
X1800000D02*
X1816522Y635272D01*
Y852228D01*
X1827201Y627201D02*
Y860299D01*
X1887355Y375145D02*
X1887500Y375000D01*
X1887355Y375145D02*
Y555814D01*
X1887209Y555959D02*
X1887355Y555814D01*
X1712500Y412500D02*
Y643750D01*
Y412500D02*
X1750000Y375000D01*
X1793001Y297000D02*
X1800000Y303999D01*
X1843001Y297000D02*
X1850000Y303999D01*
X1818000Y297000D02*
X1825000Y304000D01*
X1800000Y587500D02*
Y618750D01*
X1850000Y612500D02*
Y856250D01*
X1825000Y587500D02*
X1850000Y612500D01*
X1837500Y618750D02*
Y850000D01*
X1700000Y656250D02*
Y675000D01*
Y656250D02*
X1712500Y643750D01*
Y668750D02*
X1725000Y656250D01*
X1712500Y668750D02*
Y775000D01*
X1725000Y600000D02*
Y656250D01*
X1587500D02*
Y712500D01*
Y656250D02*
X1600000Y643750D01*
X1587500Y712500D02*
X1600000Y725000D01*
X1687500Y800000D02*
X1712500Y775000D01*
X1662500Y725000D02*
Y868750D01*
X1637500Y693750D02*
Y812500D01*
X1625000Y825000D02*
X1637500Y812500D01*
X1662500Y1118610D02*
X1674860Y1106250D01*
X1662500Y1118610D02*
Y1312500D01*
X1383525Y1189775D02*
X1452275D01*
X1362500Y1168750D02*
X1383525Y1189775D01*
X1452275D02*
X1498731Y1236231D01*
X1362500Y1093750D02*
X1437500D01*
X1450000Y1106250D01*
X1487510Y1131250D02*
X1518750Y1100010D01*
X1381250Y1200000D02*
X1443750D01*
X1362500Y1093750D02*
Y1168750D01*
X1637500Y1318750D02*
X1650000Y1331250D01*
X1725000Y1043750D02*
Y1118760D01*
X1712500Y1192286D02*
Y1431250D01*
Y1192286D02*
X1737500Y1167286D01*
Y1056250D02*
Y1167286D01*
Y1243750D02*
Y1343750D01*
Y1243750D02*
X1750000Y1231250D01*
Y1112500D02*
Y1231250D01*
X1743750Y1050000D02*
X1768750D01*
X1775000Y1056250D01*
X1737500Y1056250D02*
X1743750Y1050000D01*
X1775000Y1056250D02*
Y1218750D01*
X1818750Y1262500D01*
X1830750Y1274500D02*
X1837500Y1281250D01*
X1787500Y1250000D02*
X1788769Y1251269D01*
X1830750Y1274500D02*
Y1274500D01*
X1818750Y1262500D02*
X1818750D01*
X1830750Y1274500D01*
X1788769Y1251269D02*
Y1257519D01*
X1837500Y1281250D02*
X1837500D01*
X1758960Y1254075D02*
X1761790Y1256905D01*
Y1343040D01*
X1775000Y1356250D01*
X1725000Y1356250D02*
X1775000Y1406250D01*
X1775000D01*
Y1431250D01*
X1725000Y1356250D02*
X1737500Y1343750D01*
X1662500Y1312500D02*
X1675000Y1325000D01*
X1612500Y1293750D02*
Y1384790D01*
Y1293750D02*
X1625000Y1281250D01*
X1512500Y1218750D02*
Y1281250D01*
X1498731Y1242481D02*
X1500000Y1243750D01*
X1498731Y1236231D02*
Y1242481D01*
X1443750Y1200000D02*
X1475000Y1231250D01*
X1243750Y1124860D02*
Y1168750D01*
X1275000Y1200000D02*
Y1256250D01*
X1243750Y1168750D02*
X1275000Y1200000D01*
X1231250Y1112360D02*
Y1175000D01*
Y1112360D02*
X1262430Y1081180D01*
X1262425Y1081175D02*
X1262435D01*
X1262430Y1081180D02*
X1262435Y1081175D01*
X1243750Y1124860D02*
X1262435Y1106175D01*
X1243750Y1011184D02*
Y1062500D01*
X1213817Y981250D02*
X1243750Y1011184D01*
X1231175Y1024925D02*
Y1062585D01*
X1212500Y1006250D02*
X1231175Y1024925D01*
X1212510Y1081250D02*
X1231175Y1062585D01*
X1250000Y1193750D02*
Y1243750D01*
X1231250Y1175000D02*
X1250000Y1193750D01*
X1187500Y1268750D02*
Y1406250D01*
X1137500Y1225000D02*
Y1318750D01*
X1075000Y1093750D02*
Y1112500D01*
X1081250Y1118750D02*
X1093750D01*
X1075000Y1112500D02*
X1081250Y1118750D01*
X1093750D02*
X1100000Y1125000D01*
Y1243750D01*
X1000000Y1256250D02*
X1037500Y1218750D01*
Y1118750D02*
Y1218750D01*
X1050000Y1206250D02*
Y1243750D01*
X1012500Y1281250D02*
X1050000Y1243750D01*
Y1031250D02*
Y1206250D01*
X1000000Y1256250D02*
Y1418750D01*
X875000Y1043750D02*
Y1106250D01*
Y1043750D02*
X900000Y1018750D01*
X1043750Y1006250D02*
Y1018750D01*
X1018750Y1043750D02*
X1043750Y1018750D01*
X1006250Y1043750D02*
X1018750D01*
X976169Y1073831D02*
X1006250Y1043750D01*
X944919Y1073831D02*
X976169D01*
X1025000Y1068750D02*
X1037500Y1056250D01*
X893750Y1049860D02*
Y1250000D01*
X900000Y1256250D01*
Y1331250D01*
X587500Y1256250D02*
X612500Y1281250D01*
Y1293750D01*
X587500Y1106250D02*
Y1256250D01*
X600000Y1106110D02*
Y1250000D01*
X625000Y1275000D02*
Y1368750D01*
X600000Y1250000D02*
X625000Y1275000D01*
X612565Y1143685D02*
Y1243815D01*
X637500Y1268750D02*
Y1318750D01*
X612565Y1243815D02*
X637500Y1268750D01*
X643750Y1025000D02*
Y1206250D01*
X700000Y1262500D01*
X643750Y1025000D02*
X662500Y1006250D01*
X687500Y993750D02*
Y1031260D01*
X662510Y1056250D02*
X687500Y1031260D01*
X818750Y1243750D02*
X850000Y1275000D01*
Y1306250D01*
X818750Y1074860D02*
Y1243750D01*
Y1074860D02*
X837435Y1056175D01*
X737500Y956250D02*
X802639D01*
X725000Y968750D02*
Y1012500D01*
Y968750D02*
X737500Y956250D01*
X731250Y1018750D02*
X743750D01*
X725000Y1012500D02*
X731250Y1018750D01*
X743750D02*
X756250Y1031250D01*
Y1150000D01*
X800000Y1193750D01*
X687500Y1106240D02*
Y1206250D01*
X662435Y1081175D02*
X687500Y1106240D01*
Y1206250D02*
X712500Y1231250D01*
X600000Y1106110D02*
X624935Y1081175D01*
X612565Y1143685D02*
X625000Y1131250D01*
X500000Y1118740D02*
Y1231250D01*
X487435Y1106175D02*
X500000Y1118740D01*
X512500Y1106240D02*
Y1143750D01*
X487435Y1081175D02*
X512500Y1106240D01*
X487500Y1056250D02*
X512500Y1031250D01*
Y993750D02*
Y1031250D01*
X562500Y1237500D02*
Y1256250D01*
X531250Y1206250D02*
X562500Y1237500D01*
X337500Y1118740D02*
X349935Y1131175D01*
X337500Y981250D02*
Y1118740D01*
X368750Y1037500D02*
X375000Y1031250D01*
X350010Y1031250D02*
X362500Y1018760D01*
X412435Y1081175D02*
X425000Y1093740D01*
X412510Y1131250D02*
X425000Y1118760D01*
Y1093740D02*
Y1118760D01*
X456250Y725000D02*
X456250D01*
X450000Y731250D02*
X456250Y725000D01*
X456250D02*
X475000Y706250D01*
X462500Y675000D02*
Y700000D01*
X400000D02*
Y837500D01*
X375000Y675000D02*
X400000Y700000D01*
X387500Y1075000D02*
X400000Y1062500D01*
X337500Y762500D02*
X362500Y787500D01*
X300000Y875000D02*
Y968750D01*
X325000Y850000D02*
Y968750D01*
X337500Y981250D01*
X250000Y1243750D02*
Y1306250D01*
X212500Y1343750D02*
X212500D01*
X219250Y1337000D01*
Y1337000D02*
Y1337000D01*
Y1337000D02*
X250000Y1306250D01*
X237500Y1075000D02*
Y1218750D01*
X250000Y825000D02*
Y1062500D01*
X237500Y1075000D02*
X250000Y1062500D01*
X237500Y781250D02*
X260750Y804500D01*
Y1017000D01*
X237500Y562500D02*
Y781250D01*
X275000Y806250D02*
Y825000D01*
X274925Y1031175D02*
X274935D01*
X260750Y1017000D02*
X274925Y1031175D01*
X250000Y781250D02*
X275000Y806250D01*
X250000Y750000D02*
Y781250D01*
X287500Y718750D02*
Y862500D01*
Y718750D02*
X312500Y693750D01*
Y712500D02*
Y837500D01*
Y712500D02*
X325000Y700000D01*
X200000Y568750D02*
X231250Y537500D01*
X412500Y400000D02*
Y775000D01*
X1812500Y1218750D02*
X1825000Y1231250D01*
X725000Y709500D02*
Y750000D01*
X937500Y1356250D02*
Y1418750D01*
X349935Y1056175D02*
Y1081175D01*
X1650000Y425000D02*
Y525000D01*
X1443750Y262500D02*
X1445000Y263750D01*
X2284151Y659598D02*
X2287500Y656250D01*
X2277901Y659598D02*
X2284151D01*
X2264250Y539250D02*
Y595500D01*
X2289242Y620492D01*
X2272510Y528760D02*
Y566260D01*
X2289863Y583613D01*
X2306250Y750000D02*
Y881250D01*
X2286362Y730112D02*
X2306250Y750000D01*
X2293750Y768750D02*
Y868750D01*
X2273341Y701659D02*
Y823341D01*
X2281250Y831250D02*
Y856250D01*
X2273341Y823341D02*
X2281250Y831250D01*
X2250000Y506250D02*
X2272510Y528760D01*
X2250000Y525000D02*
X2264250Y539250D01*
X2273341Y701659D02*
X2287500Y687500D01*
X2248250Y560750D02*
Y789250D01*
X2237500Y800000D02*
X2248250Y789250D01*
X949860Y1093750D02*
X975000D01*
X2225000Y525000D02*
X2250000D01*
X2150000Y468750D02*
Y493750D01*
X2206250Y550000D02*
X2237500D01*
X2150000Y493750D02*
X2206250Y550000D01*
X2237500D02*
X2248250Y560750D01*
X2176269Y501269D02*
X2212500Y537500D01*
X2243750D01*
X2225000Y506250D02*
X2250000D01*
X2176269Y470019D02*
Y501269D01*
X1612500Y518750D02*
Y687500D01*
X2087500Y375000D02*
Y510750D01*
X1675000Y518750D02*
Y600000D01*
X1625000Y412500D02*
Y537500D01*
X1812500Y1131250D02*
Y1218750D01*
X2425000Y1193750D02*
Y1342285D01*
X1062500Y587500D02*
Y775000D01*
X512500Y425000D02*
Y543750D01*
X262500Y1112425D02*
Y1206250D01*
Y1112425D02*
X266092Y1108833D01*
X272277D02*
X274935Y1106175D01*
X266092Y1108833D02*
X272277D01*
X300000Y1281250D02*
Y1306250D01*
X325000Y1331250D02*
Y1356250D01*
X300000Y1306250D02*
X325000Y1331250D01*
X712500Y925000D02*
Y1212500D01*
X750000Y1250000D02*
Y1281250D01*
X712500Y1212500D02*
X750000Y1250000D01*
X662435Y1206185D02*
X687500Y1231250D01*
X700000Y1262500D02*
Y1281250D01*
X2362500Y956250D02*
X2375000Y968750D01*
Y1243750D01*
X2175000Y468750D02*
X2176269Y470019D01*
X2137500Y375000D02*
Y531250D01*
X2100000Y337500D02*
Y543750D01*
X1987500Y456250D02*
Y551465D01*
X2000000Y563965D01*
Y600000D01*
X1993001Y297000D02*
X2000000Y303999D01*
X981250Y981250D02*
X993750Y968750D01*
Y900000D02*
Y968750D01*
X312500Y862500D02*
Y937500D01*
X875000Y918750D02*
Y1025000D01*
X837500Y681250D02*
Y787500D01*
X862500Y946750D02*
Y1081250D01*
X1200000Y825000D02*
Y850000D01*
X1762500Y837500D02*
Y968750D01*
X1774957Y981207D02*
X1787467D01*
X1762500Y968750D02*
X1774957Y981207D01*
X1750166Y987666D02*
X1768750Y1006250D01*
X1750166Y843916D02*
Y987666D01*
X1768750Y1006250D02*
X1787360D01*
X1787435Y1006175D01*
X1737500Y812500D02*
Y831250D01*
X1750166Y843916D01*
X2187505Y1031245D02*
X2187510Y1031250D01*
X893750Y1049860D02*
X912435Y1031175D01*
X1262510Y1131240D02*
Y1131250D01*
X912500Y1106250D02*
X944919Y1073831D01*
X775000Y1093750D02*
X800000D01*
X775000Y1056250D02*
X800000D01*
X1225000Y656250D02*
Y675000D01*
X1674860Y1031250D02*
X1674935Y1031175D01*
X1337360Y1131250D02*
X1337435Y1131175D01*
X662435Y1156175D02*
Y1206185D01*
X1243750Y1062500D02*
X1262425Y1081175D01*
X1225000Y1193750D02*
Y1256250D01*
X912500Y1206250D02*
Y1231250D01*
X1650000Y1331250D02*
Y1356250D01*
X1675000Y1325000D02*
Y1356250D01*
Y1281250D02*
Y1303540D01*
X1750000Y1258960D02*
Y1281250D01*
X1950000Y1243750D02*
Y1296460D01*
X1825000Y1293750D02*
Y1331250D01*
X1834790Y1308960D02*
Y1342287D01*
Y1308960D02*
X1850000Y1293750D01*
X1788769Y1257519D02*
X1825000Y1293750D01*
X1825710Y1351366D02*
X1834790Y1342287D01*
X1625000Y1318326D02*
Y1356250D01*
X1624888Y1318213D02*
X1625000Y1318326D01*
X1462500Y1256250D02*
Y1281250D01*
X2124995Y1106245D02*
X2125000Y1106240D01*
X1812533Y1131283D02*
X1825033D01*
X1812500Y1131250D02*
X1812533Y1131283D01*
X2050000Y825000D02*
Y850000D01*
X2000000Y825000D02*
Y850000D01*
X2350000Y1006250D02*
Y1243750D01*
X2337500Y1056250D02*
Y1231250D01*
X2412500Y1218750D02*
Y1318750D01*
X2325000Y1243750D02*
X2337500Y1231250D01*
X1768750Y718750D02*
Y781250D01*
X1737500Y812500D02*
X1768750Y781250D01*
X325000Y1356250D02*
Y1431250D01*
X231250Y462500D02*
Y537500D01*
X250000Y425000D02*
Y506250D01*
X325000D02*
Y600000D01*
X350000Y425000D02*
Y581250D01*
X362500Y475000D02*
Y593750D01*
X250000Y537500D02*
Y600000D01*
X350000Y312500D02*
Y350000D01*
X275000Y625000D02*
Y675000D01*
X400000Y500000D02*
Y625000D01*
X300000Y825000D02*
Y850000D01*
X312500Y862500D01*
Y837500D02*
X325000Y850000D01*
X287500Y862500D02*
X300000Y875000D01*
X462500Y1206250D02*
Y1281250D01*
X475000Y1168750D02*
X487500Y1181250D01*
X450000Y1031250D02*
Y1056250D01*
X387500Y1075000D02*
Y1106250D01*
X462500Y425000D02*
Y475000D01*
X487500Y425000D02*
Y487500D01*
X275000Y712500D02*
X287500Y700000D01*
X387500Y1056250D02*
X387500Y725000D01*
X475000Y1193750D02*
Y1393750D01*
X462500Y1181250D02*
X475000Y1193750D01*
X437500Y543750D02*
Y600000D01*
X512500Y750000D02*
Y800000D01*
X562500Y750000D02*
Y787500D01*
X437500Y750000D02*
Y787500D01*
X725000Y1356250D02*
X737500Y1368750D01*
Y1393750D01*
X712500Y1231250D02*
Y1381250D01*
X675000Y750000D02*
Y775000D01*
X700000Y912500D02*
Y1143750D01*
X612500Y675000D02*
Y762500D01*
X700000Y325000D02*
Y350000D01*
X756250Y443750D02*
X762500Y450000D01*
X650000Y700000D02*
Y750000D01*
X750000Y850000D02*
X762500Y837500D01*
X775000Y625000D02*
Y675000D01*
X812500Y1343750D02*
X825000Y1356250D01*
X837500Y1156240D02*
Y1243750D01*
X837435Y1156175D02*
X837500Y1156240D01*
X862500Y1193750D02*
Y1381250D01*
X912435Y1131175D02*
X949860Y1093750D01*
X987575Y1131175D02*
X1012435D01*
X912500Y1206250D02*
X987575Y1131175D01*
X912500Y1231250D02*
Y1281250D01*
X787500Y462500D02*
Y525000D01*
X912500Y775000D02*
Y825000D01*
X962500Y631250D02*
X975000Y618750D01*
X962500Y631250D02*
Y675000D01*
X1012500Y750000D02*
Y825000D01*
X987500Y675000D02*
Y700000D01*
X1112500Y456250D02*
X1137500Y431250D01*
X962500Y1356250D02*
Y1393750D01*
X987500Y1356250D02*
Y1381250D01*
Y1231250D02*
Y1281250D01*
X1087360Y1006250D02*
X1087435Y1006175D01*
X1062500Y1356250D02*
Y1393750D01*
X1175000Y1356250D02*
Y1381250D01*
X1162500Y1393750D02*
X1175000Y1381250D01*
X1100000Y1368750D02*
Y1393750D01*
X1075000Y1093750D02*
X1087435Y1081315D01*
X1100000Y1243750D02*
X1106250Y1250000D01*
X1150000Y1356250D02*
X1162500Y1343750D01*
X1193750Y1193750D02*
Y1262500D01*
X1187500Y1268750D02*
X1193750Y1262500D01*
X1200000Y1281250D02*
Y1318750D01*
X1212500Y1343750D02*
Y1393750D01*
Y1343750D02*
X1225000Y1331250D01*
Y1281250D02*
Y1331250D01*
X1206250Y1262500D02*
X1225000Y1281250D01*
X1206250Y1181250D02*
Y1262500D01*
X1225000Y1256250D02*
X1237500Y1268750D01*
Y1343750D01*
X1225000Y1356250D02*
X1237500Y1343750D01*
X1275000Y1281250D02*
Y1306250D01*
X1337500Y1293750D02*
Y1343750D01*
X1387500Y1306250D02*
Y1356250D01*
X1462500D02*
Y1381250D01*
X1487500Y1331250D02*
Y1356250D01*
X1625000D02*
X1637500Y1368750D01*
Y1393750D01*
X1487500Y675000D02*
Y700000D01*
X1250000Y750000D02*
Y825000D01*
X1237500Y712500D02*
Y812500D01*
X1225000Y825000D02*
X1237500Y812500D01*
X1250000Y600000D02*
Y675000D01*
X1125000Y600000D02*
Y656250D01*
X1137500Y668750D01*
X1162500Y475000D02*
Y612500D01*
X1175000Y625000D01*
Y675000D01*
Y350000D02*
X1187500Y362500D01*
Y487500D01*
X1600000Y600000D02*
Y643750D01*
Y725000D02*
Y750000D01*
X1612500Y687500D02*
X1625000Y700000D01*
Y750000D01*
X1362500Y600000D02*
Y637500D01*
X1487500Y600000D02*
Y650000D01*
X1437500Y775000D02*
Y825000D01*
X1362500Y750000D02*
Y787500D01*
X1487500D02*
Y825000D01*
X1512500Y787500D02*
Y825000D01*
X1625000Y575000D02*
Y600000D01*
X1700000D02*
Y625000D01*
X1625000Y675000D02*
Y681250D01*
X1637500Y693750D01*
X1700000Y750000D02*
Y762500D01*
X1687500Y775000D02*
X1700000Y762500D01*
X1725000Y725000D02*
Y750000D01*
X2050000D02*
Y800000D01*
X1787500Y787500D02*
Y825000D01*
X2187500Y575000D02*
Y625000D01*
X2012500Y375000D02*
Y518750D01*
X2112500Y375000D02*
Y525000D01*
X2075000Y337500D02*
Y400000D01*
X2125000Y337500D02*
Y400000D01*
X2075000Y1043750D02*
Y1106250D01*
X2187500Y1231250D02*
X2200000Y1218750D01*
X2187500Y1231250D02*
Y1281250D01*
X2225000Y1243750D02*
Y1368750D01*
X2275000Y1243750D02*
Y1281250D01*
X2150000Y1243750D02*
Y1356250D01*
X1937500Y1243750D02*
Y1281250D01*
X1925000Y1243750D02*
X1937500D01*
X1650000Y750000D02*
Y775000D01*
X1725000Y543750D02*
Y581250D01*
X1737500Y593750D01*
Y768750D01*
X1700000Y806250D02*
X1737500Y768750D01*
X1700000Y806250D02*
Y825000D01*
X1687500Y800000D02*
Y875000D01*
X1725000Y1218750D02*
Y1281250D01*
X1787500Y600000D02*
Y631250D01*
Y675000D02*
Y700000D01*
X1768750Y718750D02*
X1787500Y700000D01*
X1775000Y825000D02*
X1787500D01*
X1762500Y837500D02*
X1775000Y825000D01*
Y650000D02*
X1806250D01*
X1768750Y350000D02*
X1775000Y343750D01*
X1975000Y337500D02*
Y400000D01*
X1968750Y1200000D02*
X1987500Y1218750D01*
Y1243750D01*
X1975000Y1256250D02*
X1987500Y1243750D01*
X2050000Y600000D02*
Y637500D01*
X1787500Y725000D02*
Y750000D01*
X1987500Y375000D02*
Y418750D01*
X2325000Y412500D02*
Y437500D01*
X2000000Y1231250D02*
Y1250000D01*
X1987500Y1262500D02*
X2000000Y1250000D01*
X1987500Y1262500D02*
Y1281250D01*
X1037500D02*
Y1306250D01*
X775000Y1331250D02*
Y1356250D01*
X325000Y425000D02*
Y481250D01*
X1200000Y300000D02*
Y350000D01*
X1150000Y650000D02*
Y675000D01*
D27*
X2393000Y122000D02*
D03*
X2418001D02*
D03*
X2367999D02*
D03*
X2293000D02*
D03*
X2317999D02*
D03*
X2343000D02*
D03*
X2443000D02*
D03*
X2243000D02*
D03*
X2117999D02*
D03*
X1993001D02*
D03*
X2018000D02*
D03*
X2043001D02*
D03*
X2068000D02*
D03*
X2093001D02*
D03*
X2143001D02*
D03*
X2167999D02*
D03*
X2193000D02*
D03*
X2217999D02*
D03*
X2267999D02*
D03*
X1943001D02*
D03*
X1718000D02*
D03*
X1742999D02*
D03*
X1768000D02*
D03*
X1793001D02*
D03*
X1818000D02*
D03*
X1843001D02*
D03*
X1868000D02*
D03*
X1893001D02*
D03*
X1918000D02*
D03*
X1968000D02*
D03*
D28*
X2443000Y297000D02*
D03*
X2418001D02*
D03*
X2393000D02*
D03*
X2367999D02*
D03*
X2343000D02*
D03*
X2317999D02*
D03*
X2293000D02*
D03*
X2267999D02*
D03*
X2243000D02*
D03*
X2217999D02*
D03*
X2193000D02*
D03*
X2167999D02*
D03*
X2143001D02*
D03*
X2117999D02*
D03*
X2093001D02*
D03*
X2068000D02*
D03*
X2043001D02*
D03*
X2018000D02*
D03*
X1993001D02*
D03*
X1968000D02*
D03*
X1943001D02*
D03*
X1918000D02*
D03*
X1893001D02*
D03*
X1868000D02*
D03*
X1843001D02*
D03*
X1818000D02*
D03*
X1793001D02*
D03*
X1768000D02*
D03*
X1742999D02*
D03*
X1718000D02*
D03*
D29*
X450000Y518750D02*
Y662500D01*
X437500Y675000D02*
X450000Y662500D01*
X437500Y506250D02*
X450000Y518750D01*
X437500Y425000D02*
Y506250D01*
X2100000Y750000D02*
X2125000Y725000D01*
X2100000Y700000D02*
Y750000D01*
Y700000D02*
X2118750Y681250D01*
X1925000Y750000D02*
Y782606D01*
X1922000Y785606D02*
Y787500D01*
Y785606D02*
X1925000Y782606D01*
X1600000Y1281250D02*
Y1356250D01*
X2237500Y387500D02*
X2251512Y401511D01*
X2279738D02*
X2293750Y387500D01*
X2251512Y401511D02*
X2279738D01*
X2293750Y387500D02*
X2396250D01*
X2413750Y370000D01*
X2225000Y1393750D02*
Y1431250D01*
X2185255Y1008355D02*
X2187430Y1006180D01*
X1674935Y1156175D02*
X1693675D01*
X2187500Y775000D02*
Y956071D01*
X1750000Y712500D02*
X1768750Y693750D01*
X1575000Y700000D02*
Y800000D01*
X1337435Y1156250D02*
Y1168685D01*
X1075000Y1143610D02*
X1087435Y1131175D01*
X1012360Y1156250D02*
Y1156390D01*
X725000Y1043610D02*
X737435Y1031175D01*
X587500Y493750D02*
Y631250D01*
X819988Y369988D02*
Y592512D01*
X1562500Y493750D02*
Y662500D01*
X1575000Y675000D01*
X1550000Y700000D02*
X1575000Y675000D01*
Y1381250D02*
Y1431250D01*
Y1381250D02*
X1600000Y1356250D01*
X175000Y525000D02*
X181250D01*
X1550000Y481250D02*
X1562500Y493750D01*
X1922000Y605500D02*
Y637500D01*
X1950000D02*
Y675000D01*
X2262435Y1131175D02*
Y1156175D01*
X1362500Y1218750D02*
Y1356250D01*
X2193750Y962500D02*
Y962679D01*
Y962321D02*
Y962500D01*
X1670000Y290000D02*
Y334000D01*
X1673500Y337500D01*
X1606250D02*
X1639000D01*
X429750Y300000D02*
X450000D01*
X375000D02*
X395250D01*
X473500Y1425000D02*
X531250D01*
X537500Y1431250D01*
X407750Y1425000D02*
X439000D01*
X401500Y1431250D02*
X407750Y1425000D01*
X375000Y1431250D02*
X401500D01*
X2275000D02*
Y1456250D01*
X2275000Y1393750D02*
Y1431250D01*
X2223500D02*
X2225000D01*
Y1456250D01*
X2217250Y1425000D02*
X2223500Y1431250D01*
X2133144Y1425000D02*
X2182750D01*
X2126894Y1431250D02*
X2133144Y1425000D01*
X2125000Y1431250D02*
X2126894D01*
X2187500Y968929D02*
Y1006250D01*
Y968929D02*
X2193750Y962679D01*
X1994500Y955500D02*
Y957679D01*
Y955500D02*
X2000000Y950000D01*
X1993750Y958429D02*
X1994500Y957679D01*
X1993750Y958429D02*
Y1137500D01*
X1437500Y950000D02*
X1443000Y955500D01*
X1445179D01*
X1445929Y956250D01*
X1450000D01*
X1462500Y968750D01*
X1372023Y981250D02*
X1375000D01*
X1293750Y1131250D02*
X1318750Y1156250D01*
X1293750Y981250D02*
X1325000Y950000D01*
X1293750Y981250D02*
Y1131250D01*
X2112500Y950000D02*
X2131250D01*
X2143750Y962500D01*
Y1137490D01*
X2125000Y1156240D02*
X2143750Y1137490D01*
X2050000Y981240D02*
X2062500Y968740D01*
Y950000D02*
Y968740D01*
X1993750Y1137500D02*
X2012500Y1156250D01*
X1937500Y962500D02*
Y981250D01*
Y962500D02*
X1950000Y950000D01*
X1912500Y975000D02*
Y1143815D01*
X1887500Y950000D02*
X1912500Y975000D01*
X1900033Y1156283D02*
X1912500Y1143815D01*
X1825033Y962467D02*
Y981283D01*
Y962467D02*
X1837500Y950000D01*
X1775000D02*
X1799467Y974467D01*
Y1144207D01*
X1787467Y1156207D02*
X1799467Y1144207D01*
X1712467Y962533D02*
Y981207D01*
Y962533D02*
X1725000Y950000D01*
X1693750D02*
Y1156175D01*
Y912500D02*
Y950000D01*
X1662500D02*
X1693750D01*
X1600033Y962467D02*
Y981283D01*
Y962467D02*
X1612500Y950000D01*
X1537500D02*
X1550000D01*
X1487500Y962500D02*
Y981250D01*
Y962500D02*
X1500000Y950000D01*
X1450000Y1156250D02*
X1462500Y1143750D01*
X1450000Y1156250D02*
X1450000D01*
X1462500Y968750D02*
Y1143750D01*
X1337435Y1156250D02*
X1337500D01*
X1318750D02*
X1337435D01*
X1262500Y962500D02*
Y981250D01*
Y962500D02*
X1275000Y950000D01*
X1062500Y1281250D02*
X1087500Y1256250D01*
X1075000Y1143610D02*
Y1168750D01*
X2187500Y675000D02*
X2187571Y675071D01*
X2199500Y699500D02*
Y763000D01*
X2187571Y675071D02*
Y687571D01*
X2199500Y699500D01*
X2025000Y1343750D02*
Y1378321D01*
X1837500Y1356250D02*
Y1378321D01*
X1840429Y1381250D01*
X2022071D01*
X2025000Y1378321D01*
X993680Y1174930D02*
Y1175063D01*
X975000Y1193743D02*
Y1456250D01*
X993680Y1174930D02*
X1006860Y1161750D01*
X1007000D01*
X975000Y1193743D02*
X993680Y1175063D01*
X1007000Y1161750D02*
X1012360Y1156390D01*
X1312500Y1168750D02*
X1362500Y1218750D01*
X1337435Y1168685D02*
X1375000Y1206250D01*
X1922895Y672895D02*
X1925000Y675000D01*
X812500Y600000D02*
X819988Y592512D01*
X812500Y600000D02*
Y737500D01*
X800000Y750000D02*
X812500Y737500D01*
X575000Y643750D02*
Y687500D01*
Y643750D02*
X587500Y631250D01*
X800000Y350000D02*
X819988Y369988D01*
X575000Y362500D02*
X587500Y350000D01*
X575000Y362500D02*
Y481250D01*
X637500Y437500D02*
X650000Y425000D01*
X637500Y664679D02*
X647821Y675000D01*
X637500Y437500D02*
Y664679D01*
X647821Y675000D02*
X650000D01*
X750000Y375000D02*
Y425000D01*
X725000Y350000D02*
X750000Y375000D01*
X1025000Y762500D02*
X1037500Y750000D01*
X1025000Y762500D02*
Y968750D01*
X1037500Y600000D02*
X1039605Y602105D01*
X1225000Y750000D02*
Y784571D01*
X1175000Y750000D02*
Y784571D01*
X1177929Y787500D01*
X1222071D01*
X1225000Y784571D01*
X1172023Y750000D02*
X1175000D01*
X1166745Y744722D02*
X1172023Y750000D01*
X1165429Y744722D02*
X1166745D01*
X1162500Y741793D02*
X1165429Y744722D01*
X1162500Y637500D02*
Y741793D01*
X1212500Y262500D02*
Y493750D01*
X1175000Y531250D02*
Y600000D01*
Y531250D02*
X1212500Y493750D01*
X1200000Y531250D02*
X1237500Y493750D01*
X1200000Y531250D02*
Y600000D01*
X1237500Y362500D02*
Y493750D01*
X1225000Y350000D02*
X1237500Y362500D01*
X1437500Y600000D02*
Y650000D01*
X1462500Y675000D01*
X1425000Y475000D02*
Y662500D01*
X1437500Y675000D01*
X1550000Y425000D02*
Y481250D01*
X1587500Y331250D02*
Y343750D01*
X1550000Y381250D02*
X1587500Y343750D01*
X1550000Y381250D02*
Y425000D01*
X2118750Y575000D02*
X2137500D01*
X2100000Y600000D02*
X2102105Y597895D01*
Y591645D02*
Y597895D01*
Y591645D02*
X2118750Y575000D01*
X2100000Y600000D02*
Y637500D01*
X2118750Y656250D02*
Y681250D01*
X2100000Y637500D02*
X2118750Y656250D01*
X2187500Y775000D02*
X2199500Y763000D01*
X2050000Y1318750D02*
X2062500D01*
X2025000Y1343750D02*
X2050000Y1318750D01*
X2175000Y1011528D02*
Y1056175D01*
X2178173Y1008355D02*
X2185255D01*
X2175000Y1011528D02*
X2178173Y1008355D01*
X2175000Y1056175D02*
X2187435D01*
X2185405Y1129145D02*
X2187435Y1131175D01*
X2178173Y1129145D02*
X2185405D01*
X2175000Y1125972D02*
X2178173Y1129145D01*
X2175000Y1056175D02*
Y1125972D01*
X2393750Y1281250D02*
X2393750D01*
X2400000Y1275000D01*
Y1243750D02*
Y1275000D01*
X2387500Y1287500D02*
X2393750Y1281250D01*
X2387500Y1287500D02*
Y1456250D01*
X2187500Y956071D02*
X2193750Y962321D01*
X1712500Y812500D02*
X1750000Y775000D01*
Y769095D02*
Y775000D01*
Y769095D02*
X1750172Y768922D01*
Y750172D02*
Y768922D01*
X1750000Y750000D02*
X1750172Y750172D01*
X1575000Y800000D02*
X1600000Y825000D01*
X1550000Y700000D02*
Y800000D01*
X1575000Y825000D01*
X1712500Y812500D02*
Y893750D01*
X1693750Y912500D02*
X1712500Y893750D01*
X1687500Y1190429D02*
X1690429Y1187500D01*
X1690821D01*
X1687500Y1190429D02*
Y1456250D01*
X1690821Y1187500D02*
X1693750Y1184571D01*
Y1156250D02*
Y1184571D01*
X725000Y1043610D02*
Y1131250D01*
X262500Y1293750D02*
Y1368750D01*
Y1293750D02*
X275000Y1281250D01*
X237500Y800000D02*
Y912500D01*
X212500Y937500D02*
X218000Y932000D01*
Y932000D02*
Y932000D01*
Y932000D02*
X237500Y912500D01*
X225000Y787500D02*
X237500Y800000D01*
X225000Y750000D02*
Y787500D01*
X375000Y600000D02*
Y631250D01*
X362500Y643750D02*
X375000Y631250D01*
X362500Y643750D02*
Y737500D01*
X1425000Y475000D02*
X1437500Y462500D01*
Y600000D02*
X1474500Y563000D01*
Y429971D02*
Y563000D01*
Y429971D02*
X1475000Y331250D01*
X1150000Y600000D02*
Y625000D01*
X1162500Y637500D01*
X725000Y1206250D02*
X787500Y1268750D01*
Y1456250D01*
X725000Y1131250D02*
Y1206250D01*
X1525000Y262500D02*
Y462500D01*
X1012500Y981250D02*
X1025000Y968750D01*
X1550000Y425000D02*
X1562500D01*
X2125000Y725000D02*
X2137500D01*
X1600000Y675000D02*
X1600000Y675000D01*
X1600000Y675000D02*
Y700000D01*
X225000Y825000D02*
Y875000D01*
X212500Y887500D02*
X225000Y875000D01*
X800000Y600000D02*
X812500D01*
X812500Y600000D01*
X1750000Y712500D02*
Y750000D01*
X737500Y1131250D02*
X737500Y1131250D01*
X725000Y1131250D02*
X737500D01*
X1693675Y1156175D02*
X1693750Y1156250D01*
X1674935Y1156175D02*
X1675010Y1156250D01*
X1125000Y1350000D02*
Y1356250D01*
X300000Y262500D02*
Y300000D01*
X362500Y737500D02*
X375000Y750000D01*
Y1431250D02*
Y1456250D01*
X250000Y1381250D02*
X262500Y1368750D01*
X650000Y1281250D02*
Y1356250D01*
X587500Y687500D02*
Y750000D01*
X575000Y687500D02*
X587500D01*
X575000Y481250D02*
X587500Y493750D01*
X650000Y350000D02*
Y425000D01*
X637500Y687500D02*
X650000Y675000D01*
X637500Y687500D02*
Y800000D01*
X650000Y812500D01*
Y825000D01*
X875000Y1156250D02*
Y1356250D01*
X887500D01*
X1012500Y600000D02*
Y675000D01*
X1075000Y1168750D02*
X1087500Y1181250D01*
Y1256250D01*
X1118750Y1287500D02*
X1125000Y1281250D01*
X1375000Y1206250D02*
Y1456250D01*
X1525000Y1431250D02*
Y1456250D01*
X1462500Y825000D02*
Y862500D01*
X1487500Y887500D01*
X1537500D01*
X1512500Y750000D02*
X1537500D01*
X1950000Y787500D02*
Y825000D01*
X1768750Y662500D02*
Y693750D01*
X1750000Y643750D02*
X1768750Y662500D01*
X1750000Y637500D02*
Y643750D01*
Y600000D02*
Y637500D01*
X1887500Y700000D02*
Y725000D01*
X2462500Y412500D02*
X2500000D01*
D30*
X1275000Y262500D02*
Y350000D01*
X587500Y1393750D02*
Y1456250D01*
X1537500Y950000D02*
Y1131250D01*
Y887500D02*
Y950000D01*
X1550000Y600000D02*
Y675000D01*
Y550000D02*
Y600000D01*
X1306250Y300000D02*
Y381250D01*
X1325000Y400000D02*
Y437500D01*
X1306250Y381250D02*
X1325000Y400000D01*
X1275000Y350000D02*
Y387500D01*
X1293750Y406250D02*
Y443750D01*
X1275000Y387500D02*
X1293750Y406250D01*
X1037500Y750000D02*
X1053713Y733786D01*
X1039605Y608355D02*
X1053713Y622463D01*
Y733786D01*
X1067124Y1284250D02*
X1067698D01*
X1077580Y1294133D01*
Y1433830D02*
Y1456250D01*
X1064124Y1281250D02*
X1067124Y1284250D01*
X1077580Y1294133D02*
Y1428669D01*
X1075000Y1431250D02*
X1077580Y1433830D01*
X1062500Y1281250D02*
X1064124D01*
X1075000Y1431250D02*
X1077580Y1428669D01*
X1525000Y525000D02*
X1550000Y550000D01*
X1537500Y687500D02*
X1550000Y675000D01*
X1537500Y1131250D02*
X1562500Y1156250D01*
X1562500Y1156250D02*
X1573983Y1167733D01*
Y1244767D01*
X1537500Y1281250D02*
X1573983Y1244767D01*
X1775000Y1281250D02*
X1792958Y1299207D01*
Y1456250D01*
X2062500Y1281250D02*
X2081250Y1262500D01*
X2093750D02*
X2106250Y1275000D01*
X2081250Y1262500D02*
X2093750D01*
X1556250Y1343750D02*
Y1456250D01*
X1537500Y1281250D02*
Y1325000D01*
X1556250Y1343750D01*
X1300000Y1281250D02*
X1318750Y1300000D01*
Y1456250D01*
X175000Y937500D02*
X212500D01*
X181250Y525000D02*
X212500D01*
X1525000Y462500D02*
Y525000D01*
X1322000Y440500D02*
X1325000Y437500D01*
X1321868Y446358D02*
X1322000Y446226D01*
X1321868Y446358D02*
Y809368D01*
X1337500Y825000D01*
X1322000Y440500D02*
Y446226D01*
X1337500Y825000D02*
Y843750D01*
X1362500Y868750D02*
Y950000D01*
X1337500Y843750D02*
X1362500Y868750D01*
X1275000Y462500D02*
X1293750Y443750D01*
X1187500Y1106250D02*
X1195318Y1114067D01*
Y1139057D02*
X1212435Y1156175D01*
X1195318Y1114067D02*
Y1139057D01*
X1075000Y700000D02*
X1100000Y675000D01*
X1075000Y700000D02*
Y750000D01*
X1050000Y287500D02*
Y366617D01*
X1098852Y415468D01*
Y423852D01*
X1100000Y425000D01*
Y675000D01*
X853132Y434368D02*
X862500Y425000D01*
X853132Y546882D02*
X862500Y556250D01*
X853132Y434368D02*
Y546882D01*
X862500Y350000D02*
Y425000D01*
X2462435Y1156175D02*
Y1181175D01*
X912435Y924935D02*
Y1006250D01*
X537500Y1317500D02*
Y1356250D01*
X513138Y1293138D02*
X537500Y1317500D01*
X512500Y1281250D02*
X513138Y1281888D01*
Y1293138D01*
X1606250Y337500D02*
Y418750D01*
Y318750D02*
Y337500D01*
X375000Y300000D02*
Y350000D01*
Y262500D02*
Y300000D01*
X1362500Y971727D02*
X1372023Y981250D01*
X1362500Y950000D02*
Y971727D01*
Y950000D02*
X1387500D01*
X1912500Y825000D02*
Y956250D01*
X1937500Y981250D01*
X2125000Y1156240D02*
X2150010Y1181250D01*
X2287500Y543750D02*
X2325000D01*
X437500Y825000D02*
Y968750D01*
X1137500Y862500D02*
Y943750D01*
X1187500Y993750D01*
X1906250Y750000D02*
Y818750D01*
X1912500Y825000D01*
X1906250Y693750D02*
Y750000D01*
Y693750D02*
X1925000Y675000D01*
X1906250Y618750D02*
Y650000D01*
X1922895Y666645D01*
Y672895D01*
X1887500Y600000D02*
X1906250Y618750D01*
X1012500Y350000D02*
X1037500Y375000D01*
Y581250D01*
X937500Y350000D02*
Y400000D01*
X962500Y425000D01*
X937500Y287500D02*
Y350000D01*
X587500Y262500D02*
Y350000D01*
X800000Y262500D02*
Y350000D01*
X1006250Y581250D02*
X1037500D01*
X987500Y600000D02*
X1006250Y581250D01*
X862500Y600000D02*
Y675000D01*
Y556250D02*
Y600000D01*
X1039605Y602105D02*
Y608355D01*
X1037500Y581250D02*
Y600000D01*
X1293750Y618750D02*
Y731250D01*
X1275000Y750000D02*
X1293750Y731250D01*
X1275000Y600000D02*
X1293750Y618750D01*
X1225000Y300000D02*
Y350000D01*
X1275000Y462500D02*
Y600000D01*
X1575000Y450000D02*
Y600000D01*
Y450000D02*
X1606250Y418750D01*
Y318750D02*
X1625000Y300000D01*
Y262500D02*
Y300000D01*
X2106250Y1275000D02*
Y1456250D01*
X2150010Y1181250D02*
X2162500D01*
X2187500Y1206250D01*
X1125000Y1198870D02*
X1137500Y1186370D01*
Y1156250D02*
Y1186370D01*
X1125000Y1198870D02*
Y1281250D01*
X825000D02*
Y1331250D01*
X843750Y1350000D01*
X606250Y1318750D02*
Y1375000D01*
X587500Y1393750D02*
X606250Y1375000D01*
X587500Y1300000D02*
X606250Y1318750D01*
X587500Y1281250D02*
Y1300000D01*
X400000Y375000D02*
Y456250D01*
X375000Y350000D02*
X400000Y375000D01*
X1445000Y263750D02*
Y300000D01*
X862500Y875000D02*
X912435Y924935D01*
X1912500Y825000D02*
X1925000D01*
X1537500Y750000D02*
Y887500D01*
Y687500D02*
Y750000D01*
X1012500Y262500D02*
Y350000D01*
X375000Y481250D02*
Y600000D01*
X1125000Y1356250D02*
Y1431250D01*
X862500Y825000D02*
Y875000D01*
Y750000D02*
Y825000D01*
Y675000D02*
Y750000D01*
X375000Y481250D02*
X400000Y456250D01*
X437500Y1281250D02*
Y1356250D01*
X537500D02*
Y1431250D01*
X843750Y1350000D02*
Y1450000D01*
X862500Y287500D02*
Y350000D01*
X1100000Y750000D02*
Y825000D01*
X1137500Y862500D01*
X1187500Y993750D02*
Y1106250D01*
X912500Y1356250D02*
Y1456250D01*
X1118750Y1343750D02*
X1125000Y1350000D01*
X1118750Y1287500D02*
Y1343750D01*
X1562500Y262500D02*
Y350000D01*
X1887500Y750000D02*
X1906250D01*
X2125000Y1393750D02*
Y1431250D01*
X2462500Y1243750D02*
X2500000D01*
D31*
X2325000Y462500D02*
X2500000D01*
X2325000D02*
Y543750D01*
X2500000Y412500D02*
Y462500D01*
X787500Y1456250D02*
X912500D01*
X175000Y525000D02*
Y937500D01*
X1077580Y1456250D02*
X1318750D01*
X975000D02*
X1077580D01*
X1687500D02*
X1792958D01*
X2106250D01*
X1525000D02*
X1556250D01*
X1687500D01*
X1318750D02*
X1375000D01*
X2418417Y370000D02*
X2442929D01*
X2413750D02*
X2418417D01*
X2488284Y850000D02*
X2500000Y861716D01*
Y1243750D01*
X2336716Y850000D02*
X2488284D01*
X2442929Y370000D02*
X2488284D01*
X2500000Y381716D02*
Y412500D01*
X2488284Y370000D02*
X2500000Y381716D01*
X2275000Y1456250D02*
X2387500D01*
X2225000D02*
X2275000D01*
X2106250D02*
X2225000D01*
X1443750Y262500D02*
X1525000D01*
X1275000D02*
X1443750D01*
X2325000Y543750D02*
Y838284D01*
X2336716Y850000D01*
X587500Y1456250D02*
X787500D01*
X181250Y1381250D02*
X250000D01*
X175000Y1375000D02*
X181250Y1381250D01*
X2436716D02*
X2488284D01*
X2500000Y1369534D01*
Y1243750D02*
Y1369534D01*
X2425000Y1392966D02*
X2436716Y1381250D01*
X2425000Y1392966D02*
Y1456250D01*
X2387500D02*
X2425000D01*
X1375000D02*
X1525000D01*
X912500D02*
X975000D01*
X375000D02*
X587500D01*
X250000D02*
X375000D01*
X1562500Y262500D02*
X1625000D01*
X1525000D02*
X1562500D01*
X1212500D02*
X1275000D01*
X1012500D02*
X1212500D01*
X800000D02*
X1012500D01*
X587500D02*
X800000D01*
X375000D02*
X587500D01*
X300000D02*
X375000D01*
X175000D02*
X300000D01*
X175000Y1375000D02*
X175000Y937500D01*
Y262500D02*
Y525000D01*
X250000Y1381250D02*
Y1456250D01*
D32*
X2392911Y297090D02*
X2394000Y298179D01*
Y350250D02*
X2413750Y370000D01*
X2394000Y298179D02*
Y350250D01*
X2418417Y297416D02*
Y370000D01*
X2442929Y337241D02*
Y370000D01*
D33*
X2443000Y158002D02*
Y245301D01*
X2418001Y158002D02*
Y250301D01*
D34*
X2367999Y159001D02*
Y250301D01*
X2393000Y158002D02*
Y245301D01*
X2243000Y159001D02*
Y250301D01*
X2167999Y158002D02*
Y245301D01*
X2193000Y158002D02*
Y245301D01*
X2217999Y158002D02*
Y245301D01*
X2267999Y158002D02*
Y245301D01*
X2293000Y159001D02*
Y245301D01*
X2317999Y158002D02*
Y245301D01*
X2343000Y158002D02*
Y245301D01*
X2117999Y158002D02*
Y250301D01*
X2143001Y158002D02*
Y250301D01*
X2093001Y158002D02*
Y250301D01*
X2068000Y158002D02*
Y245301D01*
X2043001Y158002D02*
Y245301D01*
X2018000Y158002D02*
Y250301D01*
X1993001Y158002D02*
Y245301D01*
X1968000Y159001D02*
Y250301D01*
X1943001Y162000D02*
Y245301D01*
X1918000Y161002D02*
Y245301D01*
X1893001Y158002D02*
Y245301D01*
X1868000Y160001D02*
Y245301D01*
X1843001Y159001D02*
Y250301D01*
X1818000Y158002D02*
Y245301D01*
X1793001Y158002D02*
Y245301D01*
X1768000Y160001D02*
Y250301D01*
X1742999Y158002D02*
Y245301D01*
X1718000Y160001D02*
Y245301D01*
D36*
X1925000Y825000D02*
D03*
X1950000D02*
D03*
X2000000D02*
D03*
X1975000D02*
D03*
X2025000D02*
D03*
X2050000D02*
D03*
X2075000D02*
D03*
X2100000D02*
D03*
Y750000D02*
D03*
X2075000D02*
D03*
X2050000D02*
D03*
X2025000D02*
D03*
X1975000D02*
D03*
X2000000D02*
D03*
X1950000D02*
D03*
X1925000Y675000D02*
D03*
X1950000D02*
D03*
X2000000D02*
D03*
X1975000D02*
D03*
X2025000D02*
D03*
X2050000D02*
D03*
X2075000D02*
D03*
X2100000D02*
D03*
Y600000D02*
D03*
X2075000D02*
D03*
X2050000D02*
D03*
X2025000D02*
D03*
X1975000D02*
D03*
X2000000D02*
D03*
X1950000D02*
D03*
X462500Y825000D02*
D03*
X437500D02*
D03*
X487500D02*
D03*
X512500D02*
D03*
X537500D02*
D03*
X562500D02*
D03*
X587500D02*
D03*
Y750000D02*
D03*
X562500D02*
D03*
X537500D02*
D03*
X487500D02*
D03*
X512500D02*
D03*
X462500D02*
D03*
X2012500Y1156250D02*
D03*
Y1131250D02*
D03*
Y1081250D02*
D03*
Y1106250D02*
D03*
Y1056250D02*
D03*
Y1031250D02*
D03*
Y1006250D02*
D03*
Y981250D02*
D03*
X1937500D02*
D03*
Y1006250D02*
D03*
Y1031250D02*
D03*
Y1056250D02*
D03*
Y1106250D02*
D03*
Y1081250D02*
D03*
Y1131250D02*
D03*
X250000Y350000D02*
D03*
X300000D02*
D03*
X275000D02*
D03*
X325000D02*
D03*
X350000D02*
D03*
X375000D02*
D03*
Y425000D02*
D03*
X350000D02*
D03*
X325000D02*
D03*
X300000D02*
D03*
X275000D02*
D03*
X225000D02*
D03*
X250000D02*
D03*
X1625000Y300000D02*
D03*
X1445000D02*
D03*
X2125000Y1393750D02*
D03*
X2150000D02*
D03*
X2200000D02*
D03*
X2175000D02*
D03*
X2225000D02*
D03*
X2250000D02*
D03*
X2300000D02*
D03*
X2275000D02*
D03*
X2150000Y1243750D02*
D03*
X2200000D02*
D03*
X2175000D02*
D03*
X2225000D02*
D03*
X2250000D02*
D03*
X2275000D02*
D03*
X2300000D02*
D03*
X2325000D02*
D03*
X2350000D02*
D03*
X2375000D02*
D03*
X2400000D02*
D03*
X2375000Y1393750D02*
D03*
X2400000D02*
D03*
X2350000D02*
D03*
X2325000D02*
D03*
X1837500Y1356250D02*
D03*
X1862500D02*
D03*
X1887500D02*
D03*
X1912500D02*
D03*
X1862500Y1281250D02*
D03*
X1912500D02*
D03*
X1887500D02*
D03*
X1937500D02*
D03*
X1962500D02*
D03*
X1987500D02*
D03*
X2012500D02*
D03*
X2037500D02*
D03*
X2062500D02*
D03*
Y1356250D02*
D03*
X2037500D02*
D03*
X1987500D02*
D03*
X2012500D02*
D03*
X1962500D02*
D03*
X1937500D02*
D03*
X1412500Y350000D02*
D03*
X1462500D02*
D03*
X1437500D02*
D03*
X1487500D02*
D03*
X1512500D02*
D03*
X1537500D02*
D03*
X1562500D02*
D03*
Y425000D02*
D03*
X1537500D02*
D03*
X1512500D02*
D03*
X1487500D02*
D03*
X1437500D02*
D03*
X1462500D02*
D03*
X1412500D02*
D03*
X1387500D02*
D03*
X1125000Y350000D02*
D03*
X1175000D02*
D03*
X1150000D02*
D03*
X1200000D02*
D03*
X1225000D02*
D03*
X1250000D02*
D03*
X1275000D02*
D03*
Y425000D02*
D03*
X1250000D02*
D03*
X1225000D02*
D03*
X1200000D02*
D03*
X1150000D02*
D03*
X1175000D02*
D03*
X1125000D02*
D03*
X1100000D02*
D03*
X675000D02*
D03*
X650000D02*
D03*
X700000D02*
D03*
X725000D02*
D03*
X750000D02*
D03*
X775000D02*
D03*
X800000D02*
D03*
Y350000D02*
D03*
X775000D02*
D03*
X750000D02*
D03*
X700000D02*
D03*
X725000D02*
D03*
X675000D02*
D03*
X887500Y425000D02*
D03*
X862500D02*
D03*
X912500D02*
D03*
X937500D02*
D03*
X962500D02*
D03*
X987500D02*
D03*
X1012500D02*
D03*
Y350000D02*
D03*
X987500D02*
D03*
X962500D02*
D03*
X912500D02*
D03*
X937500D02*
D03*
X887500D02*
D03*
X462500D02*
D03*
X512500D02*
D03*
X487500D02*
D03*
X537500D02*
D03*
X562500D02*
D03*
X587500D02*
D03*
Y425000D02*
D03*
X562500D02*
D03*
X537500D02*
D03*
X512500D02*
D03*
X487500D02*
D03*
X437500D02*
D03*
X462500D02*
D03*
Y675000D02*
D03*
X437500D02*
D03*
X487500D02*
D03*
X512500D02*
D03*
X537500D02*
D03*
X562500D02*
D03*
X587500D02*
D03*
Y600000D02*
D03*
X562500D02*
D03*
X537500D02*
D03*
X487500D02*
D03*
X512500D02*
D03*
X462500D02*
D03*
X250000D02*
D03*
X300000D02*
D03*
X275000D02*
D03*
X325000D02*
D03*
X350000D02*
D03*
X375000D02*
D03*
Y675000D02*
D03*
X350000D02*
D03*
X325000D02*
D03*
X300000D02*
D03*
X275000D02*
D03*
X225000D02*
D03*
X250000D02*
D03*
X675000D02*
D03*
X650000D02*
D03*
X700000D02*
D03*
X725000D02*
D03*
X750000D02*
D03*
X775000D02*
D03*
X800000D02*
D03*
Y600000D02*
D03*
X775000D02*
D03*
X750000D02*
D03*
X700000D02*
D03*
X725000D02*
D03*
X675000D02*
D03*
X1600000Y750000D02*
D03*
X1650000D02*
D03*
X1625000D02*
D03*
X1675000D02*
D03*
X1700000D02*
D03*
X1725000D02*
D03*
X1750000D02*
D03*
Y825000D02*
D03*
X1725000D02*
D03*
X1700000D02*
D03*
X1675000D02*
D03*
X1625000D02*
D03*
X1650000D02*
D03*
X1600000D02*
D03*
X1575000D02*
D03*
X1600000Y600000D02*
D03*
X1650000D02*
D03*
X1625000D02*
D03*
X1675000D02*
D03*
X1700000D02*
D03*
X1725000D02*
D03*
X1750000D02*
D03*
Y675000D02*
D03*
X1725000D02*
D03*
X1700000D02*
D03*
X1675000D02*
D03*
X1625000D02*
D03*
X1650000D02*
D03*
X1600000D02*
D03*
X1575000D02*
D03*
X1362500Y600000D02*
D03*
X1412500D02*
D03*
X1387500D02*
D03*
X1437500D02*
D03*
X1462500D02*
D03*
X1487500D02*
D03*
X1512500D02*
D03*
Y675000D02*
D03*
X1487500D02*
D03*
X1462500D02*
D03*
X1437500D02*
D03*
X1387500D02*
D03*
X1412500D02*
D03*
X1362500D02*
D03*
X1337500D02*
D03*
X1362500Y750000D02*
D03*
X1412500D02*
D03*
X1387500D02*
D03*
X1437500D02*
D03*
X1462500D02*
D03*
X1487500D02*
D03*
X1512500D02*
D03*
Y825000D02*
D03*
X1487500D02*
D03*
X1462500D02*
D03*
X1437500D02*
D03*
X1387500D02*
D03*
X1412500D02*
D03*
X1362500D02*
D03*
X1337500D02*
D03*
X887500Y600000D02*
D03*
X937500D02*
D03*
X912500D02*
D03*
X962500D02*
D03*
X987500D02*
D03*
X1012500D02*
D03*
X1037500D02*
D03*
Y675000D02*
D03*
X1012500D02*
D03*
X987500D02*
D03*
X962500D02*
D03*
X912500D02*
D03*
X937500D02*
D03*
X887500D02*
D03*
X862500D02*
D03*
X1125000Y600000D02*
D03*
X1175000D02*
D03*
X1150000D02*
D03*
X1200000D02*
D03*
X1225000D02*
D03*
X1250000D02*
D03*
X1275000D02*
D03*
Y675000D02*
D03*
X1250000D02*
D03*
X1225000D02*
D03*
X1200000D02*
D03*
X1150000D02*
D03*
X1175000D02*
D03*
X1125000D02*
D03*
X1100000D02*
D03*
X1125000Y750000D02*
D03*
X1175000D02*
D03*
X1150000D02*
D03*
X1200000D02*
D03*
X1225000D02*
D03*
X1250000D02*
D03*
X1275000D02*
D03*
Y825000D02*
D03*
X1250000D02*
D03*
X1225000D02*
D03*
X1200000D02*
D03*
X1150000D02*
D03*
X1175000D02*
D03*
X1125000D02*
D03*
X1100000D02*
D03*
X887500Y750000D02*
D03*
X937500D02*
D03*
X912500D02*
D03*
X962500D02*
D03*
X987500D02*
D03*
X1012500D02*
D03*
X1037500D02*
D03*
Y825000D02*
D03*
X1012500D02*
D03*
X987500D02*
D03*
X962500D02*
D03*
X912500D02*
D03*
X937500D02*
D03*
X887500D02*
D03*
X862500D02*
D03*
X675000Y750000D02*
D03*
X725000D02*
D03*
X700000D02*
D03*
X750000D02*
D03*
X775000D02*
D03*
X800000D02*
D03*
Y825000D02*
D03*
X775000D02*
D03*
X750000D02*
D03*
X725000D02*
D03*
X700000D02*
D03*
X650000D02*
D03*
X675000D02*
D03*
X250000Y750000D02*
D03*
X300000D02*
D03*
X275000D02*
D03*
X325000D02*
D03*
X350000D02*
D03*
X375000D02*
D03*
Y825000D02*
D03*
X350000D02*
D03*
X325000D02*
D03*
X300000D02*
D03*
X275000D02*
D03*
X225000D02*
D03*
X250000D02*
D03*
X2462500Y981250D02*
D03*
Y956250D02*
D03*
Y906250D02*
D03*
Y931250D02*
D03*
X2312500Y906250D02*
D03*
Y931250D02*
D03*
Y956250D02*
D03*
Y981250D02*
D03*
Y1006250D02*
D03*
Y1031250D02*
D03*
Y1056250D02*
D03*
Y1081250D02*
D03*
Y1131250D02*
D03*
Y1106250D02*
D03*
Y1156250D02*
D03*
X2462500Y1031250D02*
D03*
Y1006250D02*
D03*
Y1056250D02*
D03*
Y1081250D02*
D03*
Y1131250D02*
D03*
Y1106250D02*
D03*
Y1156250D02*
D03*
Y1181250D02*
D03*
X2187500Y1131250D02*
D03*
Y1081250D02*
D03*
Y1106250D02*
D03*
Y1056250D02*
D03*
Y1031250D02*
D03*
Y1006250D02*
D03*
X2262500D02*
D03*
Y1031250D02*
D03*
Y1056250D02*
D03*
Y1081250D02*
D03*
Y1106250D02*
D03*
Y1156250D02*
D03*
Y1131250D02*
D03*
X1600033Y1131283D02*
D03*
Y1081283D02*
D03*
Y1106283D02*
D03*
Y1056283D02*
D03*
Y1031283D02*
D03*
Y1006283D02*
D03*
Y981283D02*
D03*
X1675033D02*
D03*
Y1006283D02*
D03*
Y1031283D02*
D03*
Y1056283D02*
D03*
Y1106283D02*
D03*
Y1081283D02*
D03*
Y1131283D02*
D03*
Y1156283D02*
D03*
X1712467Y1131207D02*
D03*
Y1081207D02*
D03*
Y1106207D02*
D03*
Y1056207D02*
D03*
Y1031207D02*
D03*
Y1006207D02*
D03*
Y981207D02*
D03*
X1787467D02*
D03*
Y1006207D02*
D03*
Y1031207D02*
D03*
Y1056207D02*
D03*
Y1106207D02*
D03*
Y1081207D02*
D03*
Y1131207D02*
D03*
Y1156207D02*
D03*
X1825033Y1131283D02*
D03*
Y1081283D02*
D03*
Y1106283D02*
D03*
Y1056283D02*
D03*
Y1031283D02*
D03*
Y1006283D02*
D03*
Y981283D02*
D03*
X1900033D02*
D03*
Y1006283D02*
D03*
Y1031283D02*
D03*
Y1056283D02*
D03*
Y1106283D02*
D03*
Y1081283D02*
D03*
Y1131283D02*
D03*
Y1156283D02*
D03*
X2050000Y1131240D02*
D03*
Y1081240D02*
D03*
Y1106240D02*
D03*
Y1056240D02*
D03*
Y1031240D02*
D03*
Y1006240D02*
D03*
Y981240D02*
D03*
X2125000D02*
D03*
Y1006240D02*
D03*
Y1031240D02*
D03*
Y1056240D02*
D03*
Y1106240D02*
D03*
Y1081240D02*
D03*
Y1131240D02*
D03*
Y1156240D02*
D03*
X1487500Y1131250D02*
D03*
Y1081250D02*
D03*
Y1106250D02*
D03*
Y1056250D02*
D03*
Y1031250D02*
D03*
Y1006250D02*
D03*
Y981250D02*
D03*
X1562500D02*
D03*
Y1006250D02*
D03*
Y1031250D02*
D03*
Y1056250D02*
D03*
Y1106250D02*
D03*
Y1081250D02*
D03*
Y1131250D02*
D03*
Y1156250D02*
D03*
X1375000Y1131250D02*
D03*
Y1081250D02*
D03*
Y1106250D02*
D03*
Y1056250D02*
D03*
Y1031250D02*
D03*
Y1006250D02*
D03*
Y981250D02*
D03*
X1450000D02*
D03*
Y1006250D02*
D03*
Y1031250D02*
D03*
Y1056250D02*
D03*
Y1106250D02*
D03*
Y1081250D02*
D03*
Y1131250D02*
D03*
Y1156250D02*
D03*
X1262500Y1131250D02*
D03*
Y1081250D02*
D03*
Y1106250D02*
D03*
Y1056250D02*
D03*
Y1031250D02*
D03*
Y1006250D02*
D03*
Y981250D02*
D03*
X1337500D02*
D03*
Y1006250D02*
D03*
Y1031250D02*
D03*
Y1056250D02*
D03*
Y1106250D02*
D03*
Y1081250D02*
D03*
Y1131250D02*
D03*
Y1156250D02*
D03*
X1137500Y1131250D02*
D03*
Y1081250D02*
D03*
Y1106250D02*
D03*
Y1056250D02*
D03*
Y1031250D02*
D03*
Y1006250D02*
D03*
Y981250D02*
D03*
X1212500D02*
D03*
Y1006250D02*
D03*
Y1031250D02*
D03*
Y1056250D02*
D03*
Y1106250D02*
D03*
Y1081250D02*
D03*
Y1131250D02*
D03*
Y1156250D02*
D03*
X1012500Y1131250D02*
D03*
Y1081250D02*
D03*
Y1106250D02*
D03*
Y1056250D02*
D03*
Y1031250D02*
D03*
Y1006250D02*
D03*
Y981250D02*
D03*
X1087500D02*
D03*
Y1006250D02*
D03*
Y1031250D02*
D03*
Y1056250D02*
D03*
Y1106250D02*
D03*
Y1081250D02*
D03*
Y1131250D02*
D03*
Y1156250D02*
D03*
X837500Y1131250D02*
D03*
Y1081250D02*
D03*
Y1106250D02*
D03*
Y1056250D02*
D03*
Y1031250D02*
D03*
Y1006250D02*
D03*
Y981250D02*
D03*
X912500D02*
D03*
Y1006250D02*
D03*
Y1031250D02*
D03*
Y1056250D02*
D03*
Y1106250D02*
D03*
Y1081250D02*
D03*
Y1131250D02*
D03*
Y1156250D02*
D03*
X662500Y1131250D02*
D03*
Y1081250D02*
D03*
Y1106250D02*
D03*
Y1056250D02*
D03*
Y1031250D02*
D03*
Y1006250D02*
D03*
Y981250D02*
D03*
X737500D02*
D03*
Y1006250D02*
D03*
Y1031250D02*
D03*
Y1056250D02*
D03*
Y1106250D02*
D03*
Y1081250D02*
D03*
Y1131250D02*
D03*
Y1156250D02*
D03*
X550000Y1131250D02*
D03*
Y1081250D02*
D03*
Y1106250D02*
D03*
Y1056250D02*
D03*
Y1031250D02*
D03*
Y1006250D02*
D03*
Y981250D02*
D03*
X625000D02*
D03*
Y1006250D02*
D03*
Y1031250D02*
D03*
Y1056250D02*
D03*
Y1106250D02*
D03*
Y1081250D02*
D03*
Y1131250D02*
D03*
Y1156250D02*
D03*
X487500Y1131250D02*
D03*
Y1156250D02*
D03*
Y1106250D02*
D03*
Y1081250D02*
D03*
Y1056250D02*
D03*
Y1031250D02*
D03*
Y1006250D02*
D03*
X412500D02*
D03*
Y1031250D02*
D03*
Y1056250D02*
D03*
Y1106250D02*
D03*
Y1081250D02*
D03*
Y1131250D02*
D03*
X275000D02*
D03*
Y1081250D02*
D03*
Y1106250D02*
D03*
Y1056250D02*
D03*
Y1031250D02*
D03*
Y1006250D02*
D03*
X350000D02*
D03*
Y1031250D02*
D03*
Y1056250D02*
D03*
Y1081250D02*
D03*
Y1106250D02*
D03*
Y1156250D02*
D03*
Y1131250D02*
D03*
X1625000Y1281250D02*
D03*
X1675000D02*
D03*
X1650000D02*
D03*
X1700000D02*
D03*
X1725000D02*
D03*
X1750000D02*
D03*
X1775000D02*
D03*
Y1356250D02*
D03*
X1750000D02*
D03*
X1725000D02*
D03*
X1700000D02*
D03*
X1650000D02*
D03*
X1675000D02*
D03*
X1625000D02*
D03*
X1600000D02*
D03*
X1387500Y1281250D02*
D03*
X1437500D02*
D03*
X1412500D02*
D03*
X1462500D02*
D03*
X1487500D02*
D03*
X1512500D02*
D03*
X1537500D02*
D03*
Y1356250D02*
D03*
X1512500D02*
D03*
X1487500D02*
D03*
X1462500D02*
D03*
X1412500D02*
D03*
X1437500D02*
D03*
X1387500D02*
D03*
X1362500D02*
D03*
X1150000Y1281250D02*
D03*
X1200000D02*
D03*
X1175000D02*
D03*
X1225000D02*
D03*
X1250000D02*
D03*
X1275000D02*
D03*
X1300000D02*
D03*
Y1356250D02*
D03*
X1275000D02*
D03*
X1250000D02*
D03*
X1225000D02*
D03*
X1175000D02*
D03*
X1200000D02*
D03*
X1150000D02*
D03*
X1125000D02*
D03*
X912500Y1281250D02*
D03*
X962500D02*
D03*
X937500D02*
D03*
X987500D02*
D03*
X1012500D02*
D03*
X1037500D02*
D03*
X1062500D02*
D03*
Y1356250D02*
D03*
X1037500D02*
D03*
X1012500D02*
D03*
X987500D02*
D03*
X937500D02*
D03*
X962500D02*
D03*
X912500D02*
D03*
X887500D02*
D03*
X675000Y1281250D02*
D03*
X725000D02*
D03*
X700000D02*
D03*
X750000D02*
D03*
X775000D02*
D03*
X800000D02*
D03*
X825000D02*
D03*
Y1356250D02*
D03*
X800000D02*
D03*
X775000D02*
D03*
X750000D02*
D03*
X700000D02*
D03*
X725000D02*
D03*
X675000D02*
D03*
X650000D02*
D03*
X462500Y1281250D02*
D03*
X512500D02*
D03*
X487500D02*
D03*
X537500D02*
D03*
X562500D02*
D03*
X587500D02*
D03*
Y1356250D02*
D03*
X562500D02*
D03*
X537500D02*
D03*
X512500D02*
D03*
X487500D02*
D03*
X437500D02*
D03*
X462500D02*
D03*
X300000Y1281250D02*
D03*
X325000D02*
D03*
X350000D02*
D03*
X275000Y1356250D02*
D03*
X300000D02*
D03*
X325000D02*
D03*
X350000D02*
D03*
D37*
X1925000Y750000D02*
D03*
Y600000D02*
D03*
X437500Y750000D02*
D03*
X2112500Y950000D02*
D03*
X2062500D02*
D03*
X2000000D02*
D03*
X1950000D02*
D03*
X1887500D02*
D03*
X1837500D02*
D03*
X1775000D02*
D03*
X1725000D02*
D03*
X1662500D02*
D03*
X1612500D02*
D03*
X1550000D02*
D03*
X1500000D02*
D03*
X1437500D02*
D03*
X1387500D02*
D03*
X1325000D02*
D03*
X1275000D02*
D03*
X225000Y350000D02*
D03*
X1425000Y300000D02*
D03*
X2125000Y1243750D02*
D03*
X1887500Y825000D02*
D03*
X1787500D02*
D03*
X587500Y1431250D02*
D03*
X537500D02*
D03*
X1125000D02*
D03*
X1075000D02*
D03*
X1575000D02*
D03*
X1525000D02*
D03*
X2325000D02*
D03*
X2275000D02*
D03*
X1837500Y1281250D02*
D03*
X1275000Y300000D02*
D03*
X1225000D02*
D03*
X300000D02*
D03*
X250000D02*
D03*
X687500Y462500D02*
D03*
X787500D02*
D03*
X687500Y518750D02*
D03*
X787500D02*
D03*
X1787500Y700000D02*
D03*
X1887500D02*
D03*
X1787500Y675000D02*
D03*
X1887500D02*
D03*
X1787500Y637500D02*
D03*
X1887500D02*
D03*
X1787500Y600000D02*
D03*
X1887500D02*
D03*
X1787500Y787500D02*
D03*
X1887500D02*
D03*
X1787500Y725000D02*
D03*
X1887500D02*
D03*
X1787500Y750000D02*
D03*
X1887500D02*
D03*
X325000Y1431250D02*
D03*
X375000D02*
D03*
X250000Y1243750D02*
D03*
X350000D02*
D03*
X1387500Y350000D02*
D03*
X1100000D02*
D03*
X650000D02*
D03*
X862500D02*
D03*
X437500D02*
D03*
Y600000D02*
D03*
X225000D02*
D03*
X650000D02*
D03*
X1575000Y750000D02*
D03*
Y600000D02*
D03*
X1337500D02*
D03*
Y750000D02*
D03*
X862500Y600000D02*
D03*
X1100000D02*
D03*
Y750000D02*
D03*
X862500D02*
D03*
X650000D02*
D03*
X225000D02*
D03*
X1600000Y1281250D02*
D03*
X1362500D02*
D03*
X1125000D02*
D03*
X887500D02*
D03*
X650000D02*
D03*
X437500Y1281250D02*
D03*
D38*
X2490000Y540000D02*
D03*
X2400000D02*
D03*
X2490000Y780000D02*
D03*
X2400000D02*
D03*
D39*
X2490000Y1430000D02*
D03*
X190000D02*
D03*
D40*
X1937500Y1156250D02*
D03*
X212500Y525000D02*
D03*
Y475000D02*
D03*
Y937500D02*
D03*
Y887500D02*
D03*
Y1243750D02*
D03*
Y1343750D02*
D03*
X2462500Y1293750D02*
D03*
Y1243750D02*
D03*
X2237500Y575000D02*
D03*
Y675000D02*
D03*
X2262500Y387500D02*
D03*
Y487500D02*
D03*
X2237500Y387500D02*
D03*
Y487500D02*
D03*
X2212500Y387500D02*
D03*
Y487500D02*
D03*
X1325000Y337500D02*
D03*
Y437500D02*
D03*
X2212500Y575000D02*
D03*
Y675000D02*
D03*
X2187500Y575000D02*
D03*
Y675000D02*
D03*
X2162500Y575000D02*
D03*
Y675000D02*
D03*
X2137500Y575000D02*
D03*
Y675000D02*
D03*
X2212500Y725000D02*
D03*
Y825000D02*
D03*
X2187500Y725000D02*
D03*
Y825000D02*
D03*
X2162500Y725000D02*
D03*
Y825000D02*
D03*
X2137500Y725000D02*
D03*
Y825000D02*
D03*
X800000Y1193750D02*
D03*
Y1093750D02*
D03*
X950000Y1193750D02*
D03*
Y1093750D02*
D03*
Y1056250D02*
D03*
Y956250D02*
D03*
X800000Y1056250D02*
D03*
Y956250D02*
D03*
X2312500Y1181250D02*
D03*
X2187500Y1156250D02*
D03*
X1600033Y1156283D02*
D03*
X1712467Y1156207D02*
D03*
X1825033Y1156283D02*
D03*
X2050000Y1156240D02*
D03*
X1487500Y1156250D02*
D03*
X1375000D02*
D03*
X1262500D02*
D03*
X1137500D02*
D03*
X1012500D02*
D03*
X837500D02*
D03*
X662500D02*
D03*
X550000D02*
D03*
X412500D02*
D03*
X275000D02*
D03*
Y1281250D02*
D03*
D41*
X2287500Y656250D02*
D03*
Y693750D02*
D03*
Y731250D02*
D03*
Y618750D02*
D03*
Y581250D02*
D03*
Y543750D02*
D03*
Y768750D02*
D03*
D42*
X2412500Y412500D02*
D03*
X2325000D02*
D03*
D43*
X2437500D02*
D03*
X2462500D02*
D03*
X2350000D02*
D03*
X2375000D02*
D03*
D44*
X775000Y1093750D02*
D03*
Y1056250D02*
D03*
X975000Y1093750D02*
D03*
Y1056250D02*
D03*
X662500Y518750D02*
D03*
Y462500D02*
D03*
D45*
X687500Y625000D02*
D03*
X1412500Y800000D02*
D03*
X1913523Y1219773D02*
D03*
X1768750Y1243750D02*
D03*
X2343750Y375000D02*
D03*
X2262500Y462500D02*
D03*
X1100000Y1343750D02*
D03*
X1090571Y1293631D02*
D03*
X1537000Y587500D02*
D03*
X1556250Y1218750D02*
D03*
X1525000Y1193750D02*
D03*
X1806250Y1337500D02*
D03*
X204250Y836796D02*
D03*
X206250Y325000D02*
D03*
X1306572Y848608D02*
D03*
X1306462Y737378D02*
D03*
X1308757Y650843D02*
D03*
X1307992Y611836D02*
D03*
X1337500Y650000D02*
D03*
X1922000Y637500D02*
D03*
X1950000D02*
D03*
X349801Y949613D02*
D03*
X1180110Y1131365D02*
D03*
X1159787Y1118784D02*
D03*
X837000Y462500D02*
D03*
X325000Y1188000D02*
D03*
X675000Y1196750D02*
D03*
X375000D02*
D03*
X312500Y1056250D02*
D03*
X2201779Y1303134D02*
D03*
X2212448Y1333133D02*
D03*
X2125000Y1343750D02*
D03*
X1110586Y1231874D02*
D03*
X848550Y699737D02*
D03*
X847902Y575992D02*
D03*
X487500Y300000D02*
D03*
X1150903Y901568D02*
D03*
X1450472Y901717D02*
D03*
X1100000Y862500D02*
D03*
X1062500D02*
D03*
X2100000Y893750D02*
D03*
X2237478Y906239D02*
D03*
X1389107Y929750D02*
D03*
X1175000Y909500D02*
D03*
X775000Y868750D02*
D03*
X750000Y887500D02*
D03*
X537500D02*
D03*
X675000Y900000D02*
D03*
X475000D02*
D03*
X490500Y862500D02*
D03*
X1118750Y937500D02*
D03*
X1100000Y950000D02*
D03*
X2043750Y925000D02*
D03*
X2000000Y918750D02*
D03*
X1825000D02*
D03*
X1737500D02*
D03*
X2025000Y943750D02*
D03*
X1969041Y906250D02*
D03*
X1793750Y928000D02*
D03*
X1193750Y931250D02*
D03*
X1300000Y940500D02*
D03*
X1312500Y1081250D02*
D03*
X1850000Y906250D02*
D03*
X1856250Y928000D02*
D03*
X2175000Y931250D02*
D03*
X2068750Y925000D02*
D03*
X2143750Y937500D02*
D03*
X1922000Y787500D02*
D03*
X1931250Y937500D02*
D03*
X1912500Y375000D02*
D03*
Y568750D02*
D03*
X1518750Y925000D02*
D03*
X2090750Y993750D02*
D03*
X1062500Y950571D02*
D03*
X1413548Y908263D02*
D03*
X2156250Y893750D02*
D03*
X2150000Y543750D02*
D03*
X1625000Y1181250D02*
D03*
X1612500Y1206250D02*
D03*
X1300000Y1193750D02*
D03*
X437500Y968750D02*
D03*
X612500Y437500D02*
D03*
X1387500Y800000D02*
D03*
X2025000Y1306250D02*
D03*
X2100000Y1106250D02*
D03*
X1887209Y555959D02*
D03*
X1787500Y1250000D02*
D03*
X1750000Y1112500D02*
D03*
X1012500Y1218750D02*
D03*
X1050000Y1031250D02*
D03*
X587500Y1018750D02*
D03*
X612500Y1293750D02*
D03*
X462500Y700000D02*
D03*
X262500Y775000D02*
D03*
X1612500Y437500D02*
D03*
Y1384790D02*
D03*
X912500Y493750D02*
D03*
X1850000Y1206250D02*
D03*
X1825000Y1231250D02*
D03*
X1437500Y462500D02*
D03*
X725000Y709500D02*
D03*
X462500Y1206250D02*
D03*
X1187500Y1406250D02*
D03*
X937500Y1418750D02*
D03*
X762500Y1406250D02*
D03*
X1000000Y1418750D02*
D03*
X2150000Y400000D02*
D03*
X1650000Y425000D02*
D03*
X1475000Y331250D02*
D03*
X1587500D02*
D03*
X2237500Y800000D02*
D03*
X1612500Y518750D02*
D03*
X2087500Y510750D02*
D03*
X1250000Y512500D02*
D03*
X975000D02*
D03*
X950000Y487500D02*
D03*
X1675000Y518750D02*
D03*
X1987500Y456250D02*
D03*
X1412500Y462500D02*
D03*
X975000D02*
D03*
X868750Y487500D02*
D03*
X1625000Y543750D02*
D03*
X1650000Y531250D02*
D03*
X1525000Y462500D02*
D03*
X312500Y937500D02*
D03*
X287500Y925000D02*
D03*
X837500Y787500D02*
D03*
X862500Y946750D02*
D03*
X1200000Y850000D02*
D03*
X1487500D02*
D03*
X1375000D02*
D03*
X2212500Y962500D02*
D03*
X2193750D02*
D03*
X2225000Y1043750D02*
D03*
X875000Y1025000D02*
D03*
X650000Y850000D02*
D03*
X625000D02*
D03*
X2362500Y956250D02*
D03*
X2400000Y981250D02*
D03*
X1400000Y568750D02*
D03*
X1212500Y700000D02*
D03*
X1225000Y1193750D02*
D03*
X912500Y1231250D02*
D03*
X1925000Y1306250D02*
D03*
X1950000Y1296460D02*
D03*
X1825000Y1331250D02*
D03*
X1813172Y1243077D02*
D03*
X1624888Y1318213D02*
D03*
X2062500Y1318750D02*
D03*
X1462500Y1256250D02*
D03*
X1475000Y1231250D02*
D03*
X1425000D02*
D03*
X2050000Y850000D02*
D03*
X2000000D02*
D03*
X2400000Y1131250D02*
D03*
X1987500Y1181250D02*
D03*
X700000Y1143750D02*
D03*
X687500Y993750D02*
D03*
X1425000Y325000D02*
D03*
X1750000Y637500D02*
D03*
X1700000Y625000D02*
D03*
X1662500Y725000D02*
D03*
X1600000D02*
D03*
Y700000D02*
D03*
X1575000D02*
D03*
X1487500D02*
D03*
X1187500Y993750D02*
D03*
X437500Y543750D02*
D03*
X525000Y475000D02*
D03*
X762500Y450000D02*
D03*
X1150000Y575000D02*
D03*
X1162500Y475000D02*
D03*
X1187500Y487500D02*
D03*
X1575000Y375000D02*
D03*
X1587500Y412500D02*
D03*
X1625000D02*
D03*
X1150000Y650000D02*
D03*
X1237500Y712500D02*
D03*
X1725000Y725000D02*
D03*
X1975000Y400000D02*
D03*
X2075000D02*
D03*
X2125000D02*
D03*
X1750000Y375000D02*
D03*
X1787500D02*
D03*
X1812500D02*
D03*
X1837500D02*
D03*
X1862500D02*
D03*
X1887500D02*
D03*
X1962500D02*
D03*
X1987500D02*
D03*
X2012500D02*
D03*
X2037500D02*
D03*
X2062500D02*
D03*
X2087500D02*
D03*
X2112500D02*
D03*
X2137500D02*
D03*
X2150000Y468750D02*
D03*
X2175000D02*
D03*
X2212500Y1181250D02*
D03*
X2150000Y850000D02*
D03*
X1687500Y775000D02*
D03*
X1650000D02*
D03*
X1362500Y637500D02*
D03*
X1487500Y650000D02*
D03*
X1512500D02*
D03*
X1600000Y556250D02*
D03*
X1625000Y575000D02*
D03*
X1662500Y562500D02*
D03*
X1687500Y543750D02*
D03*
X1725000D02*
D03*
X1750000Y568750D02*
D03*
X1775000Y556250D02*
D03*
X1837500Y581250D02*
D03*
X2012500Y518750D02*
D03*
X2112500Y531250D02*
D03*
X2137500D02*
D03*
X2187500Y625000D02*
D03*
X2050000Y637500D02*
D03*
X2062500Y706250D02*
D03*
X2050000Y800000D02*
D03*
X1950000Y787500D02*
D03*
X2387500Y1031250D02*
D03*
X2425000Y993750D02*
D03*
X2350000Y1006250D02*
D03*
X2337500Y1056250D02*
D03*
X2437500Y1268750D02*
D03*
X2412500Y1318750D02*
D03*
X2275000Y1281250D02*
D03*
X2250000Y1293750D02*
D03*
X2225000Y1368750D02*
D03*
X2187500Y1281250D02*
D03*
X2150000Y1356250D02*
D03*
X2187500Y1206250D02*
D03*
X2162500D02*
D03*
X2137500Y1218750D02*
D03*
X2075000Y1106250D02*
D03*
X1362500Y787500D02*
D03*
X1437500Y775000D02*
D03*
X1487500Y787500D02*
D03*
X1512500D02*
D03*
X1762500Y1068750D02*
D03*
X2125000Y1431250D02*
D03*
X2062500D02*
D03*
X2087500Y1281250D02*
D03*
X2037500Y1193750D02*
D03*
X2000000Y1206250D02*
D03*
Y1231250D02*
D03*
X1975000D02*
D03*
X1950000Y1243750D02*
D03*
X1925000D02*
D03*
X1875000Y1206250D02*
D03*
X1837500Y850000D02*
D03*
X1700000Y1218750D02*
D03*
X1725000D02*
D03*
X1775000Y1431250D02*
D03*
X1712500D02*
D03*
X1637500Y1393750D02*
D03*
X1462500Y1381250D02*
D03*
X1500000D02*
D03*
X1487500Y1331250D02*
D03*
X1512500Y1218750D02*
D03*
X1500000Y1243750D02*
D03*
X1400000Y1256250D02*
D03*
X1387500Y1306250D02*
D03*
X1062500Y1093750D02*
D03*
X1337500Y1343750D02*
D03*
Y1293750D02*
D03*
X1187500Y775000D02*
D03*
X1162500D02*
D03*
X1075000Y750000D02*
D03*
X1062500Y775000D02*
D03*
X1075000Y800000D02*
D03*
X1312500Y1168750D02*
D03*
X1275000Y1306250D02*
D03*
Y1256250D02*
D03*
X1250000Y1243750D02*
D03*
X1112500Y1093750D02*
D03*
X1175000Y1218750D02*
D03*
X1162500Y1393750D02*
D03*
X1212500D02*
D03*
X1200000Y1318750D02*
D03*
X1137500D02*
D03*
X1100000Y1393750D02*
D03*
X1062500D02*
D03*
X962500D02*
D03*
X987500Y1381250D02*
D03*
X1037500Y1306250D02*
D03*
X1075000Y1218750D02*
D03*
X1050000Y1206250D02*
D03*
X987500Y1231250D02*
D03*
X1037500Y1118750D02*
D03*
Y1056250D02*
D03*
X937500Y993750D02*
D03*
X900000Y1331250D02*
D03*
X575000Y1143750D02*
D03*
X387500Y1056250D02*
D03*
Y1106250D02*
D03*
X512500Y1143750D02*
D03*
X862500Y1081250D02*
D03*
X875000Y1106250D02*
D03*
Y1156250D02*
D03*
X862500Y1381250D02*
D03*
X850000Y1306250D02*
D03*
X837500Y1243750D02*
D03*
X762500Y1193750D02*
D03*
X687500Y1231250D02*
D03*
X662500Y1243750D02*
D03*
X712500Y1381250D02*
D03*
X737500Y1393750D02*
D03*
X775000Y1331250D02*
D03*
X637500Y1318750D02*
D03*
X500000Y1306250D02*
D03*
X625000Y1368750D02*
D03*
X562500Y1256250D02*
D03*
X600000Y1081250D02*
D03*
X587500Y1106250D02*
D03*
X450000Y1031250D02*
D03*
Y1056250D02*
D03*
Y1106250D02*
D03*
Y1131250D02*
D03*
X500000Y1231250D02*
D03*
X475000Y1393750D02*
D03*
X450000Y1243750D02*
D03*
X237500Y1218750D02*
D03*
X262500Y1206250D02*
D03*
X300000Y1018750D02*
D03*
X912500Y775000D02*
D03*
X925000Y625000D02*
D03*
X975000Y637500D02*
D03*
X987500Y700000D02*
D03*
X1062500Y587500D02*
D03*
X987500Y575000D02*
D03*
X837500Y662500D02*
D03*
X825000Y687500D02*
D03*
X775000Y625000D02*
D03*
X800000Y581250D02*
D03*
X675000Y775000D02*
D03*
X650000Y700000D02*
D03*
X662500Y637500D02*
D03*
X612500Y675000D02*
D03*
Y762500D02*
D03*
Y825000D02*
D03*
X575000Y700000D02*
D03*
X562500Y787500D02*
D03*
X512500Y800000D02*
D03*
Y993750D02*
D03*
Y850000D02*
D03*
X437500Y787500D02*
D03*
X412500Y775000D02*
D03*
X400000Y837500D02*
D03*
X212500Y862500D02*
D03*
X337500Y787500D02*
D03*
X387500Y725000D02*
D03*
X212500Y700000D02*
D03*
X275000Y712500D02*
D03*
X325000Y700000D02*
D03*
X275000Y625000D02*
D03*
X400000D02*
D03*
X350000Y581250D02*
D03*
X237500Y562500D02*
D03*
X575000Y512500D02*
D03*
X600000Y475000D02*
D03*
X550000Y568750D02*
D03*
X512500Y543750D02*
D03*
X500000Y512500D02*
D03*
X487500Y487500D02*
D03*
X425000Y462500D02*
D03*
X462500Y475000D02*
D03*
X400000Y500000D02*
D03*
X362500Y475000D02*
D03*
X250000Y506250D02*
D03*
Y537500D02*
D03*
X312500Y543750D02*
D03*
X337500Y531250D02*
D03*
X325000Y506250D02*
D03*
Y481250D02*
D03*
X237500Y450000D02*
D03*
X1075000Y337500D02*
D03*
X1162500Y325000D02*
D03*
X1200000Y300000D02*
D03*
X937500Y287500D02*
D03*
X862500D02*
D03*
X825000Y337500D02*
D03*
X700000Y325000D02*
D03*
X350000Y312500D02*
D03*
D46*
X1550000Y600000D02*
D03*
X1306250Y300000D02*
D03*
X1050000Y287500D02*
D03*
X1670000Y290000D02*
D03*
X450000Y300000D02*
D03*
X2250000Y918750D02*
D03*
X2268750Y843750D02*
D03*
X968750Y900000D02*
D03*
X825000Y903250D02*
D03*
X1043750Y900000D02*
D03*
X1762500Y700000D02*
D03*
X2281250Y856250D02*
D03*
X2306250Y881250D02*
D03*
X2293750Y868750D02*
D03*
X2225000Y506250D02*
D03*
Y525000D02*
D03*
X750000Y518750D02*
D03*
X981250Y981250D02*
D03*
X993750Y900000D02*
D03*
X1043750Y981250D02*
D03*
Y1006250D02*
D03*
X955959Y980959D02*
D03*
X1650000Y1331250D02*
D03*
X1675000Y1325000D02*
D03*
Y1303540D02*
D03*
X1750000Y1258960D02*
D03*
D47*
X473573Y1424213D02*
D03*
X439073D02*
D03*
X395250Y300000D02*
D03*
X429750D02*
D03*
X1673500Y337500D02*
D03*
X1639000D02*
D03*
X2217163Y1424108D02*
D03*
X2182663D02*
D03*
M02*
