M48
;Layer_Color=9474304
;FILE_FORMAT=4:4
METRIC,LZ
;TYPE=PLATED
T1F00S00C0.6000
T2F00S00C0.8000
T3F00S00C1.0000
;TYPE=NON_PLATED
T4F00S00C3.0000
T5F00S00C4.0000
%
T01
X0020625Y00325
X0035Y003125
X0045Y003
X004875
X007Y00325
X00825Y003375
X008625Y002875
X009375
X0105Y002875
X01075Y003375
X011625Y00325
X012Y003
X0130625Y003
X01425Y00325
X01475Y0033125
X01575Y00375
X015875Y0033125
X0167Y0029
X0175Y00375
X017875
X018125
X018375
X018625
X018875
X019125
X019625
X019875
X020125
X020375
X020625
X020875
X021125
X021375
X0234375Y00375
X022625Y004625
X02225Y0050625
Y00525
X021375Y0053125
X0215Y0054375
X021125Y0053125
X020875Y0051075
X020125Y0051875
X019875Y0045625
X02075Y004
X02125
X0215
Y0046875
X02175
X021875Y00625
X0205Y006375
X020625Y0070625
X0195Y006375
X01922
X019125Y0056875
X01887209Y00555959
X018375Y0058125
X01775Y0055625
X0175Y0056875
X01725Y0054375
X016875
X01675Y0051875
X0165Y0053125
X01625Y0054375
Y00575
X016Y0055625
X016125Y0051875
Y004375
X01625Y004125
X0165Y00425
X015875Y004125
X016625Y005625
X017Y00625
X0175Y006375
X017625Y007
X01725Y00725
X016625
X016
Y007
X0165Y00775
X016875
X01922Y007875
X0195
X01975Y004
X01525Y004625
X014375
X014125
X014Y0056875
X013625Y006375
X013375Y0065
X01308757Y00650843
X01307992Y00611836
X01306462Y00737378
X012375Y007125
X012125Y007
X0125Y005125
X01537Y005875
X0155Y006
X015125Y0065
X014875
Y007
X01575
X015125Y007875
X014875
X014375Y00775
X013625Y007875
X011875Y00775
X011625
X010625
X01075Y0075
X009875Y007
X00975Y006375
X00925Y00625
X009875Y00575
X00975Y005125
X0095Y004875
X009125Y0049375
X0086875Y004875
X00837Y004625
X00847902Y00575992
X008Y0058125
X008375Y006625
X00825Y006875
X0084855Y00699737
X008375Y007875
X009125Y00775
X010625Y005875
X0115Y00575
Y0065
X011625Y00475
X011875Y004875
X00975Y004625
X007625Y0045
X0075Y0051875
X00775Y00625
X006875
X006625Y006375
X0065Y007
X006125Y00675
X00575Y007
X006125Y007625
X00675Y00775
X00725Y007095
X005625Y007875
X004375
X004125Y00775
X004625Y007
X004Y00625
X004375Y0054375
X005125
X005Y005125
X004875Y004875
X004625Y00475
X00425Y004625
X004Y005
X00525Y00475
X006
X006125Y004375
X00575Y005125
X0055Y0056875
X0035Y0058125
X003375Y0053125
X003125Y0054375
X00325Y0050625
Y0048125
X003625Y00475
X0025Y0050625
Y005375
X002375Y005625
X00275Y00625
Y007125
X00325Y007
X003875Y00725
X003375Y007875
X002625Y00775
X002125Y007
X002375Y0045
X0020425Y00836796
X002125Y008625
X002875Y00925
X003125Y009375
X00349801Y00949613
X003Y0101875
X003125Y0105625
X003875
Y0110625
X00325Y01188
X0045Y0113125
Y0110625
Y0105625
Y0103125
X004375Y0096875
X005125Y0099375
X005875Y0101875
X006Y0108125
X005875Y0110625
X00575Y0114375
X005125
X007
X006875Y0099375
X00675Y009
X0065Y0085
X00625
X006125Y00825
X005125Y008
Y0085
X004905Y008625
X00475Y009
X005375Y008875
X004Y008375
X0075Y008875
X00775Y0086875
X00825Y0090325
X008625Y0094675
X00875Y01025
X008625Y0108125
X00875Y0110625
Y0115625
X010375Y0111875
X010625Y0109375
X011125
X01159787Y01118784
X0118011Y01131365
X011875Y0099375
X01175Y009095
X01150903Y00901568
X0111875Y009375
X011Y0095
X010625Y00950571
X0104375Y0098125
Y0100625
X0105Y0103125
X010375Y0105625
X0098125Y0098125
X00955959Y00980959
X009375Y0099375
X0096875Y009
X0099375
X0104375
X010625Y008625
X011
X01075Y008
X012Y0085
X0119375Y0093125
X013Y009405
X01306572Y00848608
X01375Y0085
X013875Y008
X014125
X01413548Y00908263
X01450472Y00901717
X014875Y0085
X0151875Y00925
X01389107Y0092975
X013125Y0108125
Y0116875
X01625Y0118125
X0175Y011125
X017625Y0106875
X0179375Y00928
X01825Y0091875
X0185Y0090625
X0185625Y00928
X0193125Y009375
X01969041Y0090625
X018375Y0085
X017375Y0091875
X02
X0204375Y00925
X0206875
X021Y0089375
X0215625
X0215Y0085
X0214375Y009375
X02175Y0093125
X0219375Y009625
X022125
X02237478Y00906239
X0225Y0091875
X0226875Y0084375
X0228125Y0085625
X0229375Y0086875
X0230625Y0088125
X023625Y0095625
X0235Y0100625
X023375Y0105625
X02225Y0104375
X022125Y0118125
X021Y0110625
X02075
X0209075Y0099375
X02025Y0094375
X02Y0085
X0205
Y008
X022375Y008
X019875Y0118125
X024Y0113125
X023875Y0103125
X024Y0098125
X02425Y0099375
X024375Y0126875
X024125Y0131875
X02275Y0128125
X0225Y0129375
X02201779Y01303134
X021875Y0128125
Y0120625
X021625
X021375Y0121875
X020875Y0128125
X020625Y0131875
X02025Y0130625
X02Y0123125
Y0120625
X020375Y0119375
X02125Y0134375
X0215Y0135625
X02212448Y01333133
X02225Y0136875
X02125Y0143125
X020625
X0195Y0129646
X01925Y0130625
Y0124375
X0195
X01975Y0123125
X01913523Y01219773
X01875Y0120625
X0185
X01825Y0123125
X01813172Y01243077
X017875Y0125
X0176875Y0124375
X0175Y0125896
X01725Y0121875
X017
X016125Y0120625
X01624888Y01318213
X0165Y0133125
X01675Y01325
Y0130354
X016375Y0139375
X016125Y0138479
X017125Y0143125
X01775
X0180625Y013375
X01825Y0133125
X014875Y0133125
X015Y0138125
X014625
Y0125625
X01475Y0123125
X015Y0124375
X015125Y0121875
X01525Y0119375
X0155625Y0121875
X01425Y0123125
X014Y0125625
X013875Y0130625
X013375Y0129375
Y0134375
X01275Y0130625
Y0125625
X0125Y0124375
X01225Y0119375
X013
X012Y0131875
X012125Y0139375
X011875Y0140625
X011625Y0139375
X011
X010625
X011Y0134375
X01090571Y01293631
X010375Y0130625
X010125Y0121875
X009875Y0123125
X009125
X008375Y0124375
X0085Y0130625
X009Y0133125
X008625Y0138125
X009375Y0141875
X009625Y0139375
X009875Y0138125
X01Y0141875
X011375Y0131875
X01110586Y01231874
X01075Y0121875
X0105Y0120625
X01175Y0121875
X007625Y0119375
X00675Y0119675
X006875Y0123125
X006625Y0124375
X006125Y0129375
X006375Y0131875
X00625Y0136875
X007125Y0138125
X007375Y0139375
X007625Y0140625
X00775Y0133125
X005625Y0125625
X005Y0123125
X004625Y0120625
X0045Y0124375
X005Y0130625
X00475Y0139375
X00375Y0119675
X002625Y0120625
X002375Y0121875
T02
X0025Y003
Y0035
X00225
X00275
X003
X00325
X0035
X00375
X003Y003
X004375Y0035
X004625
X004875
X005125
X005375
X005625
X005875
X0065
X00675
X007
X00725
X0075
X00775
X008
X008625
X008875
X009125
X009375
X009625
X009875
X010125
X011
X01125
X0115
X01175
X012
X01225
X0125
X01275
X01275Y003
X01225
X01325Y003375
X013875Y0035
X014125
X014375
X014625
X014875
X015125
X015375
X015625
X022125Y003875
X022375
X022625
Y004875
X022375
X022125
X022125Y00575
X021875Y00575
X021625Y00575
X021375
X021Y006
X02075
X0205
X02025
X02
Y00675
X02025
X0205
X02075
X021
X021375Y00675
X021625
X021875Y00675
X022125Y00675
X022375Y00675
X022125Y00725
X021875Y00725
X021625
X021375Y00725
X021Y0075
X02075
X0205
X02025
X02
X022375Y00575
X01975Y006
X0195
X01925
X018875
Y006375
Y00675
Y007
Y00725
Y0075
X01925Y0075
X0195
X01975
Y00675
X0195
X01925
X017875
Y007
Y00725
Y0075
X0175Y0075
X01725
X017
X01675
X0165
X01625
X016
Y00675
X01625
X0165
X01675
X017
X01725
X0175
X017875Y006375
Y006
X0175
X01725
X017
X01675
X0165
X01625
X016
X017875Y007875
X018875
X01575Y0075
X015125
X014875
X014625
X014375
X014125
X013875
X013625
X013375
X01275
X0125
X01225
X012
Y00675
X01225
X0125
X01275
X013375
X013625
X013875
X014125
X014375
X014625
X014875
X015125
X01575
Y006
X015125
X014875
X014625
X014375
X014125
X013875
X013625
X013375
X01275
X0125
X01225
X012
X012Y00425
X01225
X0125
X01275
X01325Y004375
X013875Y00425
X014125
X014375
X014625
X014875
X015125
X015375
X015625
X01175
X0115
X01125
X011
X010125
X009875
X009625
X009375
X009125
X008875
X008625
X008
Y006
X008625
X008875
X009125
X009375
X009625
X009875
X010125
X010375
X011
X01125
X0115
X01175
Y00675
X0115
X01125
X011
X010375
X010125
X009875
X009625
X009375
X009125
X008875
X008625
X008
Y0075
X008625
X008875
X009125
X009375
X009625
X009875
X010125
X010375
X011
X01125
X0115
X01175
X00775
X0075
X00725
X007
X00675
X0065
X005875
X005625
X005375
X005125
X004875
X004625
X004375
Y00675
X004625
X004875
X005125
X005375
X005625
X005875
X0065
X00675
X007
X00725
X0075
X00775
Y006
X0075
X00725
X007
X00675
X0065
X005875
X005625
X005375
X005125
X004875
X004625
X004375
Y00425
X004625
X004875
X005125
X005375
X005625
X005875
X0065
X00675
X007
X00725
X0075
X00775
X007875Y004625
Y0051875
X006875
X006625
Y004625
X006875Y004625
X00375Y00425
X0035
X00325
X003
X00275
X0025
X00225
X002125Y00475
Y00525
X00225Y006
X0025
X00275
X003
X00325
X0035
X00375
Y00675
X0035
X00325
X003
X00275
X0025
X00225
Y0075
X0025
X00275
X003
X00325
X0035
X00375
Y00825
X0035
X00325
X003
X00275
X0025
X00225
X002125Y008875
Y009375
X00275Y0100625
Y0103125
Y0105625
Y0108125
Y0110625
Y0113125
Y0115625
X0035
Y0113125
Y0110625
Y0108125
Y0105625
Y0103125
Y0100625
X004125
Y0103125
Y0105625
Y0108125
Y0110625
Y0113125
Y0115625
X004875
Y0113125
Y0110625
Y0108125
Y0105625
Y0103125
Y0100625
X0055
Y0103125
Y0105625
Y0108125
Y0110625
Y0113125
Y0115625
X00625
Y0113125
Y0110625
Y0108125
Y0105625
Y0103125
Y0100625
Y0098125
X006625
Y0100625
Y0103125
Y0105625
Y0108125
Y0110625
Y0113125
Y0115625
X007375
Y0113125
Y0110625
Y0108125
Y0105625
Y0103125
Y0100625
Y0098125
X00775Y0105625
Y0109375
Y00825
X0075
X00725
X007
X00675
X0065
X005875
X005625
X005375
X005125
X004875
X004625
X004375
X0055Y0098125
X008Y0095625
X008375Y0098125
Y0100625
Y0103125
Y0105625
Y0108125
Y0110625
Y0113125
Y0115625
X009125
Y0113125
Y0110625
Y0108125
Y0105625
Y0103125
Y0100625
Y0098125
X0095Y0095625
X010125Y0098125
Y0100625
Y0103125
Y0105625
Y0108125
Y0110625
Y0113125
Y0115625
X010875
Y0113125
Y0110625
Y0108125
Y0105625
Y0103125
Y0100625
Y0098125
X011375
Y0100625
Y0103125
Y0105625
Y0108125
Y0110625
Y0113125
Y0115625
X00975Y0109375
X0095Y0109375
Y0105625
X00975
X008Y0105625
Y0109375
Y00825
X008625
X008875
X009125
X009375
X009625
X009875
X010125
X010375
X011
X01125
X0115
X01175
X012
X01225
X0125
X01275
X013375
X013625
X013875
X014125
X014375
X014625
X014875
X015125
X01575
X0155Y0095
X015625Y0098125
Y0100625
Y0103125
Y0105625
Y0108125
Y0110625
Y0113125
Y0115625
X014875
Y0113125
Y0110625
Y0108125
Y0105625
Y0103125
Y0100625
Y0098125
X0145
Y0100625
Y0103125
Y0105625
Y0108125
Y0110625
Y0113125
Y0115625
X01375
Y0113125
Y0110625
Y0108125
Y0105625
Y0103125
Y0100625
Y0098125
X013375
Y0100625
Y0103125
Y0105625
Y0108125
Y0110625
Y0113125
Y0115625
X012625
Y0113125
Y0110625
Y0108125
Y0105625
Y0103125
Y0100625
Y0098125
X01275Y0095
X01325
X013875
X014375
X015
X012125Y0098125
Y0100625
Y0103125
Y0105625
Y0108125
Y0110625
Y0113125
Y0115625
X01600033Y01156283
Y01131283
Y01106283
Y01081283
Y01056283
Y01031283
Y01006283
Y00981283
X016125Y0095
X016625
X01675033Y00981283
Y01006283
Y01031283
Y01056283
Y01081283
Y01106283
Y01131283
Y01156283
X01712467Y01156207
Y01131207
Y01106207
Y01081207
Y01056207
Y01031207
Y01006207
Y00981207
X01725Y0095
X01775
X01787467Y00981207
Y01006207
Y01031207
Y01056207
Y01081207
Y01106207
Y01131207
Y01156207
X01825033Y01156283
Y01131283
Y01106283
Y01081283
Y01056283
Y01031283
Y01006283
Y00981283
X018375Y0095
X018875
X01900033Y00981283
Y01006283
Y01031283
Y01056283
Y01081283
Y01106283
Y01131283
Y01156283
X019375Y0115625
Y0113125
Y0110625
Y0108125
Y0105625
Y0103125
Y0100625
Y0098125
X0195Y0095
Y00825
X01925
X018875
X01975
X017875
X0175
X01725
X017
X01675
X0165
X01625
X016
X02
X02025
X0205
X02075
X021
X021375
X021625Y00825
X021875
X022125Y00825
X021875Y0100625
Y0103125
Y0105625
Y0108125
Y0110625
Y0113125
Y0115625
X02125Y0115624
Y0113124
Y0110624
Y0108124
Y0105624
Y0103124
Y0100624
Y0098124
X021125Y0095
X020625
X0205Y0098124
Y0100624
Y0103124
Y0105624
Y0108124
Y0110624
Y0113124
Y0115624
X020125Y0115625
Y0113125
Y0110625
Y0108125
Y0105625
Y0103125
Y0100625
Y0098125
X02Y0095
X022625Y0100625
Y0103125
Y0105625
Y0108125
Y0110625
Y0113125
Y0115625
X024625Y0124375
Y0129375
X02325Y0143125
X02275
X01775Y0135625
X0175
X01725
X017
X01675
X0165
X01625
X016
Y0128125
X01625
X0165
X01675
X017
X01725
X0175
X01775
X015375
X015125
X014875
X014625
X014375
X014125
X013875
X013625
X013
X01275
X0125
X01225
X012
Y0135625
X01225
X0125
X01275
X013
X013625
X013875
X014125
X014375
X014625
X014875
X015125
X015375
X01525Y0143125
X01575
X01125
X01075
X010625Y0135625
X010375
X010125
X009875
X009625
X009375
X009125
X008875
X00825
X008
Y0128125
X00825
X008875
X009125
X009375
X009625
X009875
X010125
X010375
X010625
X01125
X0115
X01175
Y0135625
X0115
X01125
X0095Y0119375
X008
X00775Y0128125
X0075
X00725
X007
X00675
X0065
X005875Y0128125
X005625
X005375
X005125
X004875
X004625
X004375
Y0135625
X004625
X004875
X005125
X005375
X005625
X005875
X0065Y0135625
X00675
X007
X00725
X0075
X00775
X005875Y0143125
X005375
X00375
X00325
Y0135625
X003
X00275
X002125Y0134375
Y0124375
X0025
X00275Y0128125
X003
X00325
X0035
Y0124375
Y0135625
T03
X01425Y003
X01445
X01625
X024125Y004125
X024375
X024625
X02375
X0235
X02325
X022875Y0054375
Y0058125
Y0061875
Y0065625
Y0069375
Y0073125
Y0076875
X023125Y0090625
Y0093125
Y0095625
Y0098125
Y0100625
Y0103125
Y0105625
Y0108125
Y0110625
Y0113125
Y0115625
Y0118125
X024625
Y0115625
Y0113125
Y0110625
Y0108125
Y0105625
Y0103125
Y0100625
Y0098125
Y0095625
Y0093125
Y0090625
X024Y0124375
Y0139375
X02375
X0235
X02325
X023
X02275
X0225
X02225
X022
X02175
X0215
X02125
X020625Y0135625
X020375
X020125
X019875
Y0128125
X020125
X020375
X020625
X02125Y0124375
X0215
X02175
X022
X02225
X0225
X02275
X023
X02325
X0235
X02375
X019625Y0128125
X019375
X019125
X018875
X018625
X018375
Y0135625
X018625
X018875
X019125
X019375
X019625
T04
X024Y0054
X0249
Y0078
X024
T05
X0249Y0143
X0019
M30
