M48
;Layer_Color=9474304
;FILE_FORMAT=4:4
METRIC,LZ
;TYPE=PLATED
T1F00S00C0.6000
T2F00S00C0.8000
T3F00S00C1.0000
;TYPE=NON_PLATED
T4F00S00C4.0000
%
T01
X024125Y005625
X02425Y006
Y00625
X024Y006125
X02425Y00675
X024375Y007
Y007625
X025125Y0075
Y007875
X025Y00725
X02575
X025875Y00675
Y006125
X026125Y00625
Y00575
X026375Y005875
X02625Y005375
X025625Y005625
X0255Y006125
X02525Y006625
X025125Y004875
X024875
X026Y007875
X023625Y00775
X02375Y0075
X0235Y007375
X023625Y007125
Y00675
X02375Y0065
X023625Y00625
X02325Y006125
X023Y006375
X022875Y006625
X0225Y006125
X022125Y00625
Y006875
X022Y00725
X02225Y007375
X022125Y00775
X02275Y007875
X022875Y007625
X02125Y0075
X02075
X02025Y00725
X020375Y007
Y0065
Y00625
X020125Y0065
X019875Y006375
X02Y006875
X020125Y00575
X0205Y005625
X02075Y0055
X021Y006125
X02125
X021Y004875
X02175
X022
X02225
X02325
X0235Y005
X02375Y004875
X02
X02025Y007875
X01975Y007125
X019125Y00725
X01925Y007625
X019Y00775
X01825Y007875
X018375Y007375
X0185Y007
X017875Y007125
X017625Y006875
X018Y006125
X01825Y00575
X018875Y005875
X01875Y006125
X019125Y006
X01925Y00625
X018375Y004875
X01725Y00475
X017375Y005375
X017125Y0055
X016875Y00525
X016625Y005125
X016375Y005
X017Y007625
X0175Y00825
X01775Y008125
X018125Y008375
X018375Y0085
X019Y008625
X018875Y009125
X019125Y0095
X019Y00975
X018875Y01
X01875Y01025
X019125Y010125
X01925Y0105
X018625Y010625
X018375Y011125
X0185Y011375
X01925
X019Y011875
X01975Y011
X018375Y009875
X01825Y00925
X017875Y009
X017625Y008875
Y0095
X0175Y00975
Y010375
X017625Y010625
X016375Y011
X016625Y01125
X016875Y0115
X017Y01175
X016125Y0095
X019125Y008
X020125Y00875
X02075
X021
Y0085
X02075Y008375
X0215Y0085
Y009
X021375Y0095
X022Y009625
X0215Y01025
Y0115
X02075
Y01075
X02025Y01125
X019875Y01175
X020125Y009625
X022Y008375
X02225Y00826658
Y0085
X0225Y008625
X023125Y008875
X023375Y00875
X0235Y009125
Y009375
X02375Y009125
X0235Y00825
X02325Y008375
X023625Y008
X022
X022125Y01125
X022875Y011125
X0235Y010875
X02375Y011625
Y011875
X024125Y0115
X024Y01125
X024125Y010875
X023875Y010625
X024125Y010125
Y00975
X023875Y009625
X024625Y0095
X024375Y00925
X02425Y009
Y0085
X024625Y008625
X02475Y008875
X025Y00875
X025875Y008625
X02575Y00825
X024375Y008
X02475Y01
X024875Y01025
X025Y0105
X025125Y011
X02525Y011375
X024375
X02575Y011
X0255Y01075
X025125Y00975
X0245Y012125
Y0135
X024375Y014
X02575Y013
Y0125
X02375Y01275
X0235Y01325
X023625Y0135
X023Y013625
X02275Y0135
Y014
Y01425
X022125Y014375
X0215Y014
X021375Y01325
X0215Y012875
X021375Y0125
X021875Y01225
X022Y013
X022875
X023Y01325
X02275Y01275
X02325Y012125
Y015
X023Y01525
X022625Y015125
X02075
X020875Y01475
X0205Y013875
X020625Y0135
X020125Y013375
X020375Y012625
X02025Y012125
X02Y012
X01975Y012375
Y012875
X019125Y012375
X01775Y012625
X0175Y013125
X017125Y013
X017375Y012
X01725Y01425
X0185Y014125
X01875Y014375
X018375Y013625
X019375Y01525
T02
X024Y0065
Y00675
Y007
Y00725
Y0075
Y00775
X02475
Y0075
Y00725
Y007
Y00675
Y0065
X0255
Y00675
Y007
Y00725
Y0075
Y00775
X02625
Y0075
Y00725
Y007
Y00675
Y0065
X02325
Y00675
Y007
Y00725
Y0075
Y00775
X0225
Y0075
Y00725
Y007
Y00675
Y0065
X02175
Y00675
Y007
Y00725
Y0075
Y00775
X021
Y0075
Y00725
Y007
Y00675
Y0065
X02125Y00575
X02175
Y008
X0225
X02325
X021
X02125Y008875
X02175
Y0095
Y00975
Y01
Y01025
Y0105
Y01075
Y011
Y01125
X021
Y011
Y01075
Y0105
Y01025
Y01
Y00975
Y0095
X024Y008
X02475
X0255
Y00825
X02625
Y008
X02625Y01175
X02525
X0245
X024
X02525Y012125
X02525Y0125
Y012875
Y01325
Y013625
Y014
X02525Y014375
X02625
X02625Y014
Y013625
Y01325
Y012875
Y0125
X02625Y012125
X02325Y0125
Y01275
Y013
Y01325
Y0135
Y01375
Y014
Y01425
X0225
Y014
Y01375
Y0135
Y01325
Y013
Y01275
Y0125
X02175
Y01275
Y013
Y01325
Y0135
Y01375
Y014
X021
Y01375
Y0135
Y01325
Y013
Y01275
Y0125
X02125Y015
X02175
X0195Y012875
X019
T03
X02575Y005375
X02325
X0195Y0065
Y00675
Y007
Y00725
Y0075
Y00775
X01875
Y0075
Y00725
Y007
Y00675
Y0065
Y008
Y00825
Y0085
Y00875
X0195
Y0085
Y00825
Y008
Y0095
Y00975
Y01
Y01025
Y0105
Y01075
Y011
Y01125
Y0115
Y01175
X018
Y0115
Y01125
Y011
Y01075
Y0105
Y01025
Y01
Y00975
Y0095
X0225Y0095
Y00975
Y01
Y01025
Y0105
Y01075
Y011
Y01125
Y0115
Y01175
X02325
Y0115
Y01125
Y011
Y01075
Y0105
Y01025
Y01
Y00975
Y0095
X02625
Y00975
Y01
Y01025
Y0105
Y01075
Y011
X0265
X02675
Y01075
X0265
Y0105
X02675
Y01025
X0265
Y01
X02675
Y00975
X0265
Y0095
X02675
Y00925
X0265
X02625
Y009
X0265
X02675
Y00875
X0265
X02625
X02475Y0125
Y01275
Y013
Y01325
Y0135
Y01375
Y014
Y01425
Y0145
Y01475
X024
Y0145
Y01425
Y014
Y01375
Y0135
Y01325
Y013
Y01275
Y0125
X0195Y01225
Y012
X018
Y01225
T04
X02684Y01535
X00384
M30
