G04*
G04 #@! TF.GenerationSoftware,Altium Limited,Altium Designer,23.6.0 (18)*
G04*
G04 Layer_Physical_Order=2*
G04 Layer_Color=16711680*
%FSLAX44Y44*%
%MOMM*%
G71*
G04*
G04 #@! TF.SameCoordinates,35715F93-6BA4-45ED-89E8-8F7F27010EA2*
G04*
G04*
G04 #@! TF.FilePolarity,Positive*
G04*
G01*
G75*
%ADD12C,0.2540*%
%ADD20R,1.7000X11.0000*%
G04:AMPARAMS|DCode=21|XSize=1.2mm|YSize=8mm|CornerRadius=0.6mm|HoleSize=0mm|Usage=FLASHONLY|Rotation=0.000|XOffset=0mm|YOffset=0mm|HoleType=Round|Shape=RoundedRectangle|*
%AMROUNDEDRECTD21*
21,1,1.2000,6.8000,0,0,0.0*
21,1,0.0000,8.0000,0,0,0.0*
1,1,1.2000,0.0000,-3.4000*
1,1,1.2000,0.0000,-3.4000*
1,1,1.2000,0.0000,3.4000*
1,1,1.2000,0.0000,3.4000*
%
%ADD21ROUNDEDRECTD21*%
%ADD22C,0.5001*%
%ADD23C,1.0000*%
%ADD24C,1.0000*%
%ADD25C,0.2500*%
%ADD26C,0.5500*%
%ADD27C,0.5000*%
%ADD29C,1.6000*%
%ADD30R,1.6000X1.6000*%
%ADD31R,1.6000X1.6000*%
%ADD32C,4.0000*%
%ADD33C,1.2000*%
G36*
X2612500Y1512500D02*
X2650000Y1475000D01*
X2712500D01*
Y450000D01*
X2581250D01*
Y512500D01*
X2662500D01*
Y837500D01*
X2687500D01*
Y1100000D01*
X2675000D01*
Y1137500D01*
X2650000D01*
Y1450000D01*
X2637500Y1462500D01*
X2537500D01*
X2500000Y1500000D01*
X2362500D01*
X2325000Y1537500D01*
X1775000D01*
X1612500Y1375000D01*
Y450000D01*
X1862500D01*
Y362500D01*
X1575000D01*
Y437500D01*
Y1575000D01*
X2612500D01*
Y1512500D01*
D02*
G37*
%LPC*%
G36*
X1827540Y435620D02*
X1607448D01*
Y378710D01*
X1827540D01*
Y435620D01*
D02*
G37*
%LPD*%
D12*
X1812463Y417211D02*
X1819128D01*
X1822460Y420543D01*
Y427207D01*
X1819128Y430540D01*
X1812463D01*
X1809131Y427207D01*
Y423875D01*
X1822460D01*
X1802466Y417211D02*
Y430540D01*
X1799134D01*
X1795802Y427207D01*
Y417211D01*
Y427207D01*
X1792470Y430540D01*
X1789137Y427207D01*
Y417211D01*
X1782473Y430540D02*
Y420543D01*
X1779141Y417211D01*
X1769144D01*
Y430540D01*
X1762479D02*
X1755815Y417211D01*
X1749150Y430540D01*
X1732489Y417211D02*
X1739153D01*
X1742486Y420543D01*
Y427207D01*
X1739153Y430540D01*
X1732489D01*
X1729157Y427207D01*
Y423875D01*
X1742486D01*
X1722492Y430540D02*
Y417211D01*
Y423875D01*
X1719160Y427207D01*
X1715828Y430540D01*
X1712495D01*
X1702499Y417211D02*
X1692502D01*
X1689170Y420543D01*
X1692502Y423875D01*
X1699166D01*
X1702499Y427207D01*
X1699166Y430540D01*
X1689170D01*
X1672508Y417211D02*
X1679173D01*
X1682505Y420543D01*
Y427207D01*
X1679173Y430540D01*
X1672508D01*
X1669176Y427207D01*
Y423875D01*
X1682505D01*
X1662511Y417211D02*
Y420543D01*
X1659179D01*
Y417211D01*
X1662511D01*
X1645850Y430540D02*
Y417211D01*
Y423875D01*
X1642518Y427207D01*
X1639186Y430540D01*
X1635853D01*
X1625857D02*
Y420543D01*
X1622524Y417211D01*
X1612528D01*
Y430540D01*
X1819128Y403783D02*
X1812463D01*
X1809131Y400451D01*
Y390454D01*
X1819128D01*
X1822460Y393787D01*
X1819128Y397119D01*
X1809131D01*
X1795802Y383790D02*
X1792470D01*
X1789137Y387122D01*
Y403783D01*
X1799134D01*
X1802466Y400451D01*
Y393787D01*
X1799134Y390454D01*
X1789137D01*
X1779141Y403783D02*
X1772476D01*
X1769144Y400451D01*
Y390454D01*
X1779141D01*
X1782473Y393787D01*
X1779141Y397119D01*
X1769144D01*
X1759147Y407116D02*
Y403783D01*
X1762479D01*
X1755815D01*
X1759147D01*
Y393787D01*
X1755815Y390454D01*
X1732489Y403783D02*
X1742486D01*
X1745818Y400451D01*
Y393787D01*
X1742486Y390454D01*
X1732489D01*
X1722492D02*
X1715828D01*
X1712496Y393787D01*
Y400451D01*
X1715828Y403783D01*
X1722492D01*
X1725824Y400451D01*
Y393787D01*
X1722492Y390454D01*
X1705831D02*
Y403783D01*
X1702499D01*
X1699166Y400451D01*
Y390454D01*
Y400451D01*
X1695834Y403783D01*
X1692502Y400451D01*
Y390454D01*
X1685837Y383790D02*
Y403783D01*
X1675841D01*
X1672508Y400451D01*
Y393787D01*
X1675841Y390454D01*
X1685837D01*
X1665844D02*
Y393787D01*
X1662512D01*
Y390454D01*
X1665844D01*
X1649182Y403783D02*
Y390454D01*
Y397119D01*
X1645850Y400451D01*
X1642518Y403783D01*
X1639186D01*
X1629189D02*
Y393787D01*
X1625857Y390454D01*
X1615860D01*
Y403783D01*
D20*
X1912500Y400000D02*
D03*
X1937498D02*
D03*
X1962500D02*
D03*
X1987501D02*
D03*
X2012500D02*
D03*
X2037501D02*
D03*
X2062499D02*
D03*
X2087501D02*
D03*
X2112499D02*
D03*
X2137500D02*
D03*
X2162499D02*
D03*
X2187500D02*
D03*
X2212499D02*
D03*
X2237500D02*
D03*
X2262499D02*
D03*
X2287500D02*
D03*
X2312499D02*
D03*
X2337500D02*
D03*
X2362499D02*
D03*
X2387500D02*
D03*
X2412499D02*
D03*
X2437500D02*
D03*
X2462499D02*
D03*
X2487500D02*
D03*
X2512498D02*
D03*
X2537500D02*
D03*
X2562498D02*
D03*
X2587500D02*
D03*
X2612501D02*
D03*
X2637499D02*
D03*
D21*
X2162499Y225000D02*
D03*
X2112499D02*
D03*
X2087501D02*
D03*
X2062499D02*
D03*
X2037501D02*
D03*
X2012500D02*
D03*
X1987501D02*
D03*
X1962500D02*
D03*
X1937498D02*
D03*
X1912500D02*
D03*
X2137500D02*
D03*
X2462499D02*
D03*
X2412499D02*
D03*
X2387500D02*
D03*
X2362499D02*
D03*
X2337500D02*
D03*
X2287500D02*
D03*
X2262499D02*
D03*
X2237500D02*
D03*
X2212499D02*
D03*
X2187500D02*
D03*
X2312499D02*
D03*
X2437500D02*
D03*
X2637499D02*
D03*
X2537500D02*
D03*
X2512498D02*
D03*
X2487500D02*
D03*
X2562498D02*
D03*
X2612501D02*
D03*
X2587500D02*
D03*
D22*
X1912500Y263001D02*
Y348301D01*
X1962500Y263001D02*
Y353301D01*
X1987501Y261002D02*
Y348301D01*
X2012500Y261002D02*
Y348301D01*
X2037501Y262001D02*
Y353301D01*
X2062499Y263001D02*
Y348301D01*
X2087501Y261002D02*
Y348301D01*
X2112499Y264002D02*
Y348301D01*
X2137500Y265000D02*
Y348301D01*
X2162499Y262001D02*
Y353301D01*
X2187500Y261002D02*
Y348301D01*
X2212499Y261002D02*
Y353301D01*
X2237500Y261002D02*
Y348301D01*
X2262499Y261002D02*
Y348301D01*
X2287500Y261002D02*
Y353301D01*
X2337500Y261002D02*
Y353301D01*
X2312499Y261002D02*
Y353301D01*
X2537500Y261002D02*
Y348301D01*
X2512498Y261002D02*
Y348301D01*
X2487500Y262001D02*
Y348301D01*
X2462499Y261002D02*
Y348301D01*
X2412499Y261002D02*
Y348301D01*
X2387500Y261002D02*
Y348301D01*
X2362499Y261002D02*
Y348301D01*
X2437500Y262001D02*
Y353301D01*
X2587500Y261002D02*
Y348301D01*
X2562498Y262001D02*
Y353301D01*
X1937498Y261002D02*
Y348301D01*
D23*
X2612501Y261002D02*
Y353301D01*
X2637499Y261002D02*
Y348301D01*
D24*
X2175000Y800000D02*
Y887500D01*
X2325000Y800000D02*
Y837500D01*
D25*
X2225000Y825000D02*
Y826658D01*
Y825000D02*
X2237500Y812500D01*
X2587500Y962500D02*
X2637500D01*
X2600000Y850000D02*
Y937500D01*
X2587500Y862500D02*
Y962500D01*
X2637500Y937500D02*
X2650000Y950000D01*
X2637500Y962500D02*
X2650000Y975000D01*
X2600000Y937500D02*
X2637500D01*
X2587500Y837500D02*
X2600000Y850000D01*
Y837500D02*
X2612500Y850000D01*
X2587500Y812500D02*
Y837500D01*
X2575000Y800000D02*
X2587500Y812500D01*
Y800000D02*
X2600000Y812500D01*
Y837500D01*
X2612500Y850000D02*
Y912500D01*
X2200000Y512500D02*
Y725000D01*
Y962500D02*
Y1300000D01*
X2350000Y1187500D02*
Y1325000D01*
X2337500Y925000D02*
X2362500D01*
X2337500Y900000D02*
Y925000D01*
X2362500D02*
Y1350000D01*
X2212500Y1125000D02*
Y1437500D01*
X2437500Y1137500D02*
Y1400000D01*
Y925000D02*
Y1137500D01*
X1850000D02*
Y1412500D01*
Y700000D02*
Y1137500D01*
X1875000Y1025000D02*
Y1437500D01*
Y875000D02*
Y1025000D01*
X1837500Y1112500D02*
Y1362500D01*
Y987500D02*
Y1112500D01*
Y850000D02*
Y987500D01*
X1887500Y912500D02*
Y1000000D01*
Y750000D02*
Y912500D01*
X1912500Y1012500D02*
Y1237500D01*
Y950000D02*
Y1012500D01*
Y800000D02*
Y950000D01*
X1900000Y975000D02*
Y1187500D01*
Y862500D02*
Y975000D01*
Y775000D02*
Y862500D01*
X2537500Y687500D02*
X2550000Y675000D01*
X2612500Y712500D02*
X2625000Y725000D01*
X2612500Y625000D02*
Y712500D01*
X1637500Y500000D02*
Y1100000D01*
X1662500Y512500D02*
Y1125000D01*
X1687500Y525000D02*
Y1150000D01*
X1700000Y762500D02*
Y1175000D01*
X1712500Y550000D02*
Y1300000D01*
X1725000Y475000D02*
Y1425000D01*
X1737500Y537500D02*
Y1200000D01*
X1750000Y825000D02*
Y1312500D01*
X1762500Y687500D02*
Y887500D01*
X1775000Y812500D02*
Y1262500D01*
X1787500Y712500D02*
Y900000D01*
X1825000Y575000D02*
Y787500D01*
X1837500Y737500D02*
Y837500D01*
X1812500D02*
X1837500D01*
X1800000Y1225000D02*
X1825000D01*
Y925000D02*
Y1225000D01*
X1837500Y487500D02*
X1862500D01*
Y1062500D01*
X1937500Y1037500D02*
Y1525000D01*
Y1037500D02*
X1950000Y1025000D01*
X1925000D02*
X1950000D01*
X1925000Y787500D02*
Y1025000D01*
X1912500Y775000D02*
X1925000Y787500D01*
X1912500Y725000D02*
Y775000D01*
Y600000D02*
Y725000D01*
X1887500Y587500D02*
Y700000D01*
X1875000D02*
X1887500D01*
X1962500Y450000D02*
Y587500D01*
X1937500D02*
X1962500D01*
X1937500D02*
Y850000D01*
X1950000D01*
X1925000Y625000D02*
Y762500D01*
X1875000Y750000D02*
X1887500D01*
X1975000Y1237500D02*
Y1287500D01*
X1950000Y825000D02*
X1962500Y812500D01*
Y612500D02*
Y812500D01*
Y612500D02*
X1987500D01*
Y450000D02*
Y612500D01*
X2000000Y487500D02*
Y662500D01*
X2012500Y675000D01*
Y875000D01*
X1975000Y712500D02*
Y1100000D01*
X1987500Y637500D02*
Y1175000D01*
X2000000Y687500D02*
Y1200000D01*
X2012500Y650000D02*
X2025000Y662500D01*
Y725000D01*
Y787500D02*
Y1212500D01*
X2012500Y962500D02*
Y1337500D01*
X2050000Y562500D02*
Y1387500D01*
X2037500Y650000D02*
Y1262500D01*
X2062500Y562500D02*
Y1350000D01*
Y562500D02*
X2075000Y550000D01*
X2037500Y450000D02*
Y625000D01*
X2012500Y450000D02*
Y575000D01*
X2062500Y450000D02*
Y500000D01*
X2087500Y525000D01*
Y575000D01*
X2075000Y587500D02*
X2087500Y575000D01*
X2075000Y587500D02*
Y750000D01*
X2100000Y775000D02*
Y800000D01*
Y850000D02*
Y875000D01*
X2075000Y837500D02*
X2087500Y825000D01*
Y600000D02*
Y825000D01*
Y600000D02*
X2100000Y587500D01*
Y512500D02*
Y587500D01*
X2087500Y500000D02*
X2100000Y512500D01*
X2087500Y450000D02*
Y500000D01*
X2100000Y487500D02*
X2112500Y500000D01*
Y625000D01*
X2125000Y637500D01*
Y750000D01*
X2087500Y1025000D02*
Y1475000D01*
Y1025000D02*
X2100000D01*
X2075000Y875000D02*
Y1075000D01*
X2137500Y950000D02*
Y1187500D01*
X2162500D01*
Y1262500D01*
X2175000Y1275000D01*
X2137500Y1250000D02*
Y1325000D01*
X2075000Y1150000D02*
Y1512500D01*
X2150000Y1287500D02*
Y1400000D01*
X2162500Y450000D02*
X2162500Y750000D01*
X2175000D01*
X2162500D02*
Y1075000D01*
X2175000D01*
X2150000Y1025000D02*
Y1150000D01*
X2225000Y1400000D02*
X2250000D01*
X2225000Y850000D02*
Y1400000D01*
X2237500Y875000D02*
X2250000Y862500D01*
X2237500Y875000D02*
Y1275000D01*
X2250000D01*
X2237500D02*
X2250000D01*
X2237500D02*
Y1375000D01*
X2250000D01*
X2262500Y1362500D02*
Y1512500D01*
X2250000Y1350000D02*
X2262500Y1362500D01*
X2250000Y1325000D02*
Y1350000D01*
X2275000Y1400000D02*
Y1425000D01*
Y1400000D02*
X2287500Y1387500D01*
Y1337500D02*
Y1387500D01*
X2275000Y1325000D02*
X2287500Y1337500D01*
X2275000Y1275000D02*
Y1325000D01*
X2262500Y1337500D02*
X2275000Y1350000D01*
X2262500Y1225000D02*
Y1337500D01*
Y1225000D02*
X2275000Y1212500D01*
Y787500D02*
Y1212500D01*
X2250000Y775000D02*
Y800000D01*
X2200000D02*
Y837500D01*
X2150000Y875000D02*
Y900000D01*
X2137500Y875000D02*
X2150000D01*
X2137500Y500000D02*
Y875000D01*
X2112500Y475000D02*
X2137500Y500000D01*
X2112500Y450000D02*
Y475000D01*
X2137500Y450000D02*
Y475000D01*
X2150000Y487500D01*
Y850000D01*
X2212500Y687500D02*
Y775000D01*
X2175000Y700000D02*
Y725000D01*
Y487500D02*
X2200000Y512500D01*
Y487500D02*
X2212500Y500000D01*
Y625000D01*
X2225000Y487500D02*
Y737500D01*
X2237500Y450000D02*
X2237500Y812500D01*
X2325000Y1212500D02*
Y1250000D01*
X2300000Y1362500D02*
Y1525000D01*
Y1362500D02*
X2312500Y1350000D01*
Y1100000D02*
Y1350000D01*
Y1100000D02*
X2325000D01*
X2287500Y1112500D02*
Y1300000D01*
Y762500D02*
Y1112500D01*
X2300000Y637500D02*
Y1325000D01*
X2287500Y600000D02*
Y662500D01*
X2262500Y575000D02*
X2287500Y600000D01*
X2262500Y450000D02*
Y575000D01*
X2325000Y487500D02*
Y512500D01*
X2337500D01*
Y812500D01*
X2350000Y825000D01*
X2312500Y775000D02*
X2325000D01*
X2312500Y700000D02*
Y775000D01*
Y700000D02*
X2325000D01*
X2350000Y775000D02*
X2362500D01*
X2350000Y737500D02*
Y775000D01*
X2375000Y487500D02*
Y650000D01*
X2350000Y500000D02*
Y725000D01*
X2362500D01*
Y762500D01*
X2375000D01*
Y887500D01*
X2350000Y912500D02*
X2375000Y887500D01*
X2362500Y800000D02*
Y875000D01*
X2337500Y900000D02*
X2362500Y875000D01*
X2337500Y1187500D02*
X2350000D01*
X2337500Y1025000D02*
Y1187500D01*
X2312500Y1025000D02*
X2337500D01*
X2312500Y887500D02*
Y1025000D01*
X2325000Y875000D02*
X2337500D01*
X2325000D02*
Y925000D01*
X2337500Y937500D01*
Y1000000D01*
X2325000D02*
X2337500D01*
X2350000Y937500D02*
Y1087500D01*
X2375000Y912500D02*
Y1162500D01*
X2387500Y962500D02*
Y1062500D01*
X2412500Y1087500D02*
Y1150000D01*
X2400000Y1450000D02*
X2425000D01*
Y900000D02*
Y1450000D01*
X2450000Y1212500D02*
Y1350000D01*
Y1212500D02*
X2462500D01*
Y950000D02*
Y1212500D01*
X2512500Y975000D02*
Y1100000D01*
X2525000Y1137500D02*
Y1175000D01*
X2412500Y975000D02*
Y1012500D01*
X2475000Y1000000D02*
Y1250000D01*
X2487500Y1025000D02*
Y1300000D01*
X2475000D02*
X2487500D01*
X2475000Y1350000D02*
X2500000D01*
Y1050000D02*
Y1350000D01*
X2550000Y1075000D02*
Y1400000D01*
X2525000D02*
X2550000D01*
X2575000Y1100000D02*
Y1300000D01*
X2375000Y1187500D02*
Y1275000D01*
X2412500Y450000D02*
Y562500D01*
X2487500Y450000D02*
Y487500D01*
X2512500Y450000D02*
Y487500D01*
X2562500Y562500D02*
Y800000D01*
X2575000Y812500D01*
Y825000D01*
X2550000Y800000D02*
X2562500Y812500D01*
Y850000D01*
X2575000D01*
Y987500D01*
X2637500D01*
X2650000Y1000000D01*
X2575000Y725000D02*
Y800000D01*
X2587500Y675000D02*
Y800000D01*
X2612500Y912500D02*
X2637500D01*
X2650000Y925000D01*
X2600000Y787500D02*
X2612500Y800000D01*
Y837500D01*
X2625000Y850000D01*
X2637500D01*
Y887500D01*
X2650000Y900000D01*
X2637500Y1012500D02*
X2650000Y1025000D01*
X2562500Y1012500D02*
X2637500D01*
X2562500Y862500D02*
Y1012500D01*
X2537500Y862500D02*
X2562500D01*
X2537500Y687500D02*
Y862500D01*
X2525000Y662500D02*
Y875000D01*
X2550000D01*
Y1037500D01*
X2637500D01*
X2650000Y1050000D01*
X2512500Y787500D02*
Y900000D01*
X2537500D01*
Y1062500D01*
X2637500D01*
X2650000Y1075000D01*
X2487500Y737500D02*
X2500000Y725000D01*
X2487500Y737500D02*
Y875000D01*
X2475000Y887500D02*
X2487500Y875000D01*
X2462500Y750000D02*
X2475000D01*
X2462500D02*
Y862500D01*
X2437500Y800000D02*
X2450000D01*
Y675000D02*
Y800000D01*
Y675000D02*
X2475000D01*
X2437500Y700000D02*
Y762500D01*
X2425000Y675000D02*
Y850000D01*
X2375000Y700000D02*
Y750000D01*
Y700000D02*
X2400000D01*
X2362500Y625000D02*
Y712500D01*
X1925000Y1050000D02*
Y1137500D01*
X2325000Y1350000D02*
Y1375000D01*
X2100000Y1350000D02*
Y1375000D01*
X2425000Y600000D02*
Y625000D01*
X2612500Y575000D02*
X2625000D01*
Y650000D01*
X2637500Y587500D02*
Y750000D01*
X2625000D02*
X2637500D01*
X2500000D02*
Y875000D01*
Y750000D02*
X2512500D01*
D26*
X1963678Y1150000D02*
Y1211322D01*
Y888678D02*
Y1150000D01*
X1950000Y1150000D02*
X1963678D01*
X1963678Y1150000D01*
X2625000Y1212500D02*
Y1437500D01*
X2175000Y800000D02*
X2189093Y785907D01*
X2175000Y575000D02*
X2189093Y589093D01*
Y785907D01*
X2175000Y1125000D02*
X2188992Y1111008D01*
X2175000Y887500D02*
X2188992Y901492D01*
Y1111008D01*
X1950000Y875000D02*
X1963678Y888678D01*
X1950000Y1225000D02*
X1963678Y1211322D01*
X2175000Y1400000D02*
X2189016Y1385984D01*
X2187500Y1225000D02*
X2188744Y1226244D01*
Y1230840D01*
X2189016Y1231112D01*
Y1385984D01*
X2325000Y1200000D02*
X2335211D01*
X2325000Y1425000D02*
X2326770Y1423230D01*
X2335211D01*
X2338432Y1420008D01*
Y1203222D02*
Y1420008D01*
X2335211Y1200000D02*
X2338432Y1203222D01*
X2187500Y1137500D02*
Y1225000D01*
X2625000Y1175000D02*
Y1212500D01*
X1950000Y1225000D02*
Y1287500D01*
X2175000Y1400000D02*
Y1500000D01*
Y1125000D02*
X2187500Y1137500D01*
X2325000Y1425000D02*
Y1500000D01*
Y1175000D02*
Y1200000D01*
D27*
X2400000Y1175000D02*
Y1250000D01*
Y1125000D02*
Y1175000D01*
Y825000D02*
Y1125000D01*
X1762500Y950000D02*
Y1062500D01*
X1800000Y612500D02*
Y950000D01*
X1900000Y1287500D02*
Y1550000D01*
X1875000Y450000D02*
Y650000D01*
X1850000Y450000D02*
X1875000D01*
X2100000Y612500D02*
Y650000D01*
X2112500Y662500D01*
Y887500D01*
X2125000D01*
X2112500Y900000D02*
X2125000Y887500D01*
X2112500Y900000D02*
Y950000D01*
X2100000D02*
X2112500D01*
Y1250000D01*
X2100000D02*
X2125000D01*
Y1550000D01*
X2250000Y612500D02*
Y650000D01*
X2262500D01*
Y1175000D01*
X2250000D02*
X2262500D01*
X2250000D02*
Y1250000D01*
X2325000Y537500D02*
Y612500D01*
X2400000D02*
Y650000D01*
X2412500D01*
Y825000D01*
X2400000D02*
X2412500D01*
X2387500Y1262500D02*
X2400000Y1250000D01*
X2387500Y1262500D02*
Y1512500D01*
X2125000Y575000D02*
Y612500D01*
X2550000D02*
Y650000D01*
X2587500Y500000D02*
Y612500D01*
D29*
X2675000Y1100000D02*
D03*
X2650000D02*
D03*
X2625000D02*
D03*
X2675000Y1075000D02*
D03*
X2650000D02*
D03*
X2625000D02*
D03*
X2675000Y1050000D02*
D03*
X2650000D02*
D03*
X2625000D02*
D03*
X2675000Y1025000D02*
D03*
X2650000D02*
D03*
X2625000D02*
D03*
X2675000Y1000000D02*
D03*
X2650000D02*
D03*
X2625000D02*
D03*
X2675000Y975000D02*
D03*
X2650000D02*
D03*
X2625000D02*
D03*
X2675000Y950000D02*
D03*
X2650000D02*
D03*
X2625000D02*
D03*
X2675000Y925000D02*
D03*
X2650000D02*
D03*
X2625000D02*
D03*
X2675000Y900000D02*
D03*
X2650000D02*
D03*
X2625000D02*
D03*
X2675000Y875000D02*
D03*
X2650000D02*
D03*
X2625000D02*
D03*
X1950000Y775000D02*
D03*
Y750000D02*
D03*
Y700000D02*
D03*
Y725000D02*
D03*
Y675000D02*
D03*
X1875000Y650000D02*
D03*
Y675000D02*
D03*
Y700000D02*
D03*
Y725000D02*
D03*
Y750000D02*
D03*
Y775000D02*
D03*
Y825000D02*
D03*
Y800000D02*
D03*
Y850000D02*
D03*
X1950000Y825000D02*
D03*
Y800000D02*
D03*
Y850000D02*
D03*
Y875000D02*
D03*
Y650000D02*
D03*
X2250000Y775000D02*
D03*
Y725000D02*
D03*
Y750000D02*
D03*
Y700000D02*
D03*
Y675000D02*
D03*
Y650000D02*
D03*
X2325000D02*
D03*
Y675000D02*
D03*
Y700000D02*
D03*
Y725000D02*
D03*
Y750000D02*
D03*
Y800000D02*
D03*
Y775000D02*
D03*
X2100000D02*
D03*
Y725000D02*
D03*
Y750000D02*
D03*
Y700000D02*
D03*
Y675000D02*
D03*
Y650000D02*
D03*
X2175000D02*
D03*
Y675000D02*
D03*
Y700000D02*
D03*
Y725000D02*
D03*
Y750000D02*
D03*
Y800000D02*
D03*
Y775000D02*
D03*
X2550000Y800000D02*
D03*
Y750000D02*
D03*
Y775000D02*
D03*
Y725000D02*
D03*
Y700000D02*
D03*
Y675000D02*
D03*
Y650000D02*
D03*
X2625000D02*
D03*
Y675000D02*
D03*
Y700000D02*
D03*
Y725000D02*
D03*
Y775000D02*
D03*
Y750000D02*
D03*
Y800000D02*
D03*
Y825000D02*
D03*
X2400000Y775000D02*
D03*
Y725000D02*
D03*
Y750000D02*
D03*
Y700000D02*
D03*
Y675000D02*
D03*
Y650000D02*
D03*
X2475000D02*
D03*
Y675000D02*
D03*
Y700000D02*
D03*
Y725000D02*
D03*
Y750000D02*
D03*
Y800000D02*
D03*
Y775000D02*
D03*
X2325000Y1175000D02*
D03*
Y1150000D02*
D03*
Y1125000D02*
D03*
Y1100000D02*
D03*
X2250000Y1150000D02*
D03*
Y1100000D02*
D03*
Y1125000D02*
D03*
Y1075000D02*
D03*
Y1050000D02*
D03*
Y1025000D02*
D03*
Y1000000D02*
D03*
Y975000D02*
D03*
Y950000D02*
D03*
X2325000D02*
D03*
Y975000D02*
D03*
Y1025000D02*
D03*
Y1000000D02*
D03*
Y1050000D02*
D03*
Y1075000D02*
D03*
X2100000Y1100000D02*
D03*
Y1050000D02*
D03*
Y1075000D02*
D03*
Y1025000D02*
D03*
Y1000000D02*
D03*
Y975000D02*
D03*
Y950000D02*
D03*
X2175000D02*
D03*
Y975000D02*
D03*
Y1000000D02*
D03*
Y1025000D02*
D03*
Y1075000D02*
D03*
Y1050000D02*
D03*
Y1100000D02*
D03*
Y1125000D02*
D03*
X2475000Y1475000D02*
D03*
Y1450000D02*
D03*
Y1425000D02*
D03*
Y1400000D02*
D03*
X2400000Y1450000D02*
D03*
Y1400000D02*
D03*
Y1425000D02*
D03*
Y1375000D02*
D03*
Y1350000D02*
D03*
Y1325000D02*
D03*
Y1300000D02*
D03*
Y1275000D02*
D03*
Y1250000D02*
D03*
X2475000D02*
D03*
Y1275000D02*
D03*
Y1325000D02*
D03*
Y1300000D02*
D03*
Y1350000D02*
D03*
Y1375000D02*
D03*
X2250000Y1400000D02*
D03*
Y1350000D02*
D03*
Y1375000D02*
D03*
Y1325000D02*
D03*
Y1300000D02*
D03*
Y1275000D02*
D03*
Y1250000D02*
D03*
X2325000D02*
D03*
Y1275000D02*
D03*
Y1300000D02*
D03*
Y1325000D02*
D03*
Y1375000D02*
D03*
Y1350000D02*
D03*
Y1400000D02*
D03*
Y1425000D02*
D03*
X2100000Y1375000D02*
D03*
Y1325000D02*
D03*
Y1350000D02*
D03*
Y1300000D02*
D03*
Y1275000D02*
D03*
Y1250000D02*
D03*
X2175000D02*
D03*
Y1275000D02*
D03*
Y1300000D02*
D03*
Y1325000D02*
D03*
Y1350000D02*
D03*
Y1400000D02*
D03*
Y1375000D02*
D03*
X1950000Y1025000D02*
D03*
Y1000000D02*
D03*
Y950000D02*
D03*
Y975000D02*
D03*
X1800000Y950000D02*
D03*
Y975000D02*
D03*
Y1000000D02*
D03*
Y1025000D02*
D03*
Y1050000D02*
D03*
Y1075000D02*
D03*
Y1100000D02*
D03*
Y1125000D02*
D03*
Y1175000D02*
D03*
Y1150000D02*
D03*
Y1200000D02*
D03*
X1950000Y1075000D02*
D03*
Y1050000D02*
D03*
Y1100000D02*
D03*
Y1125000D02*
D03*
Y1175000D02*
D03*
Y1150000D02*
D03*
Y1200000D02*
D03*
Y1225000D02*
D03*
D30*
X1875000Y875000D02*
D03*
X2250000Y800000D02*
D03*
X2100000D02*
D03*
X2550000Y825000D02*
D03*
X2400000Y800000D02*
D03*
X2250000Y1175000D02*
D03*
X2100000Y1125000D02*
D03*
X2400000Y1475000D02*
D03*
X2250000Y1425000D02*
D03*
X2100000Y1400000D02*
D03*
X1800000Y1225000D02*
D03*
D31*
X2400000Y1175000D02*
D03*
X2450000D02*
D03*
X2325000Y537500D02*
D03*
X2575000D02*
D03*
X2525000Y1175000D02*
D03*
X2625000D02*
D03*
X2525000Y1212500D02*
D03*
X2625000D02*
D03*
X2525000Y1250000D02*
D03*
X2625000D02*
D03*
X2525000Y1287500D02*
D03*
X2625000D02*
D03*
X2525000Y1325000D02*
D03*
X2625000D02*
D03*
X2525000Y1362500D02*
D03*
X2625000D02*
D03*
X2525000Y1400000D02*
D03*
X2625000D02*
D03*
X2525000Y1437500D02*
D03*
X2625000D02*
D03*
X1900000Y1287500D02*
D03*
X1950000D02*
D03*
X2125000Y887500D02*
D03*
X2175000D02*
D03*
X2125000Y575000D02*
D03*
X2175000D02*
D03*
X2125000Y1500000D02*
D03*
X2175000D02*
D03*
D32*
X384000Y1535000D02*
D03*
X2684000D02*
D03*
D33*
X2225000Y826658D02*
D03*
X2587500Y862500D02*
D03*
X2200000Y725000D02*
D03*
Y962500D02*
D03*
Y1300000D02*
D03*
X2350000Y1325000D02*
D03*
X2625000Y537500D02*
D03*
X2512500Y750000D02*
D03*
X1612500Y950000D02*
D03*
X2425000Y850000D02*
D03*
X1762500Y950000D02*
D03*
X1850000Y700000D02*
D03*
X1762500Y687500D02*
D03*
X2437500Y800000D02*
D03*
Y762500D02*
D03*
X2225000Y850000D02*
D03*
X2200000Y837500D02*
D03*
Y800000D02*
D03*
X2212500Y775000D02*
D03*
X2225000Y737500D02*
D03*
X2125000Y750000D02*
D03*
X2150000Y900000D02*
D03*
Y850000D02*
D03*
X2137500Y950000D02*
D03*
X2150000Y1025000D02*
D03*
X2212500Y1125000D02*
D03*
X2187500Y1225000D02*
D03*
X2150000Y1150000D02*
D03*
X2137500Y1250000D02*
D03*
X2150000Y1287500D02*
D03*
X1937500Y1525000D02*
D03*
X2075000Y1512500D02*
D03*
X2087500Y1475000D02*
D03*
X2137500Y1325000D02*
D03*
X2150000Y1400000D02*
D03*
X2212500Y1437500D02*
D03*
X2262500Y1512500D02*
D03*
X2300000Y1525000D02*
D03*
X2325000Y1500000D02*
D03*
X2275000Y1425000D02*
D03*
Y1400000D02*
D03*
Y1350000D02*
D03*
X2300000Y1362500D02*
D03*
Y1325000D02*
D03*
X2287500Y1300000D02*
D03*
X2275000Y1275000D02*
D03*
X2437500Y1400000D02*
D03*
X2450000Y1350000D02*
D03*
X2362500D02*
D03*
X2375000Y1275000D02*
D03*
X2575000Y1300000D02*
D03*
Y1250000D02*
D03*
X2500000Y1050000D02*
D03*
X2450000Y1212500D02*
D03*
X2325000D02*
D03*
X2287500Y1112500D02*
D03*
X2375000Y1187500D02*
D03*
Y1162500D02*
D03*
X2350000Y1087500D02*
D03*
X2387500Y1062500D02*
D03*
X2412500Y1150000D02*
D03*
Y1087500D02*
D03*
X2400000Y1125000D02*
D03*
X2437500Y1137500D02*
D03*
X2525000D02*
D03*
X2512500Y1100000D02*
D03*
X2575000D02*
D03*
X2550000Y1075000D02*
D03*
X2250000Y862500D02*
D03*
X2487500Y1025000D02*
D03*
X2512500Y975000D02*
D03*
X2475000Y1000000D02*
D03*
X2462500Y950000D02*
D03*
X2437500Y925000D02*
D03*
X2425000Y900000D02*
D03*
X2412500Y1012500D02*
D03*
Y975000D02*
D03*
X2387500Y962500D02*
D03*
X2350000Y937500D02*
D03*
X2375000Y912500D02*
D03*
X2350000D02*
D03*
X2312500Y887500D02*
D03*
X2337500Y875000D02*
D03*
X2275000Y787500D02*
D03*
X2287500Y762500D02*
D03*
X2325000Y837500D02*
D03*
X2350000Y825000D02*
D03*
X2362500Y800000D02*
D03*
Y775000D02*
D03*
X2350000Y737500D02*
D03*
X2375000Y750000D02*
D03*
X2575000Y825000D02*
D03*
X2462500Y862500D02*
D03*
X2475000Y887500D02*
D03*
X2500000Y875000D02*
D03*
X2512500Y787500D02*
D03*
X2600000D02*
D03*
X2575000Y725000D02*
D03*
X2587500Y675000D02*
D03*
X2612500Y625000D02*
D03*
X2587500Y612500D02*
D03*
X2637500Y587500D02*
D03*
X2612500Y575000D02*
D03*
X2562500Y562500D02*
D03*
X2550000Y612500D02*
D03*
X2525000Y662500D02*
D03*
X2500000Y725000D02*
D03*
X2437500Y700000D02*
D03*
X2425000Y675000D02*
D03*
X2125000Y612500D02*
D03*
X2212500Y687500D02*
D03*
Y625000D02*
D03*
X2250000Y612500D02*
D03*
X2287500Y662500D02*
D03*
X2300000Y637500D02*
D03*
X2325000Y612500D02*
D03*
X2362500Y712500D02*
D03*
Y675000D02*
D03*
X2375000Y650000D02*
D03*
X2362500Y625000D02*
D03*
X2400000Y612500D02*
D03*
X2425000Y625000D02*
D03*
Y600000D02*
D03*
X2412500Y562500D02*
D03*
X2512500Y487500D02*
D03*
X2487500D02*
D03*
X2375000D02*
D03*
X2350000Y500000D02*
D03*
X2325000Y487500D02*
D03*
X2225000D02*
D03*
X2200000D02*
D03*
X2175000D02*
D03*
X2100000Y612500D02*
D03*
X1925000Y625000D02*
D03*
X2037500D02*
D03*
X2100000Y487500D02*
D03*
X2000000D02*
D03*
X1637500Y500000D02*
D03*
X1662500Y512500D02*
D03*
X1687500Y525000D02*
D03*
X1712500Y550000D02*
D03*
X1737500Y537500D02*
D03*
X1725000Y475000D02*
D03*
X1837500Y487500D02*
D03*
X1825000Y575000D02*
D03*
X1800000Y612500D02*
D03*
X1875000D02*
D03*
X1887500Y587500D02*
D03*
X1912500Y600000D02*
D03*
X2012500Y575000D02*
D03*
X2050000Y562500D02*
D03*
X2075000Y550000D02*
D03*
X2037500Y650000D02*
D03*
X2012500D02*
D03*
X1987500Y637500D02*
D03*
X2000000Y687500D02*
D03*
X2037500Y700000D02*
D03*
X2100000Y850000D02*
D03*
Y875000D02*
D03*
X2075000D02*
D03*
Y837500D02*
D03*
Y750000D02*
D03*
X1975000Y712500D02*
D03*
X2025000Y725000D02*
D03*
Y787500D02*
D03*
X2012500Y875000D02*
D03*
X1925000Y762500D02*
D03*
X1912500Y725000D02*
D03*
X1900000Y775000D02*
D03*
X1912500Y800000D02*
D03*
X1900000Y862500D02*
D03*
X1887500Y912500D02*
D03*
X1787500Y712500D02*
D03*
X1837500Y737500D02*
D03*
Y850000D02*
D03*
X1812500Y837500D02*
D03*
X1825000Y787500D02*
D03*
X1700000Y762500D02*
D03*
X1750000Y825000D02*
D03*
X1775000Y812500D02*
D03*
X1762500Y887500D02*
D03*
X1787500Y900000D02*
D03*
X1825000Y925000D02*
D03*
X1912500Y950000D02*
D03*
X2012500Y962500D02*
D03*
X2075000Y1075000D02*
D03*
Y1150000D02*
D03*
X2025000Y1125000D02*
D03*
X2000000Y1200000D02*
D03*
X1987500Y1175000D02*
D03*
X1975000Y1100000D02*
D03*
X1900000Y975000D02*
D03*
X1925000Y1137500D02*
D03*
Y1050000D02*
D03*
X1912500Y1012500D02*
D03*
X1887500Y1000000D02*
D03*
X1875000Y1025000D02*
D03*
X1862500Y1062500D02*
D03*
X1837500Y987500D02*
D03*
Y1112500D02*
D03*
X1850000Y1137500D02*
D03*
X1900000Y1187500D02*
D03*
X1750000Y975000D02*
D03*
Y1037500D02*
D03*
X1762500Y1062500D02*
D03*
X1637500Y1100000D02*
D03*
X1662500Y1125000D02*
D03*
X1687500Y1150000D02*
D03*
X1700000Y1175000D02*
D03*
X1737500Y1200000D02*
D03*
X1912500Y1237500D02*
D03*
X2025000Y1212500D02*
D03*
X2037500Y1262500D02*
D03*
X1975000Y1237500D02*
D03*
Y1287500D02*
D03*
X2050000Y1387500D02*
D03*
X2062500Y1350000D02*
D03*
X2012500Y1337500D02*
D03*
X1775000Y1262500D02*
D03*
X1712500Y1300000D02*
D03*
X1750000Y1312500D02*
D03*
X1837500Y1362500D02*
D03*
X1875000Y1437500D02*
D03*
X1850000Y1412500D02*
D03*
X1725000Y1425000D02*
D03*
M02*
