G04*
G04 #@! TF.GenerationSoftware,Altium Limited,Altium Designer,23.6.0 (18)*
G04*
G04 Layer_Physical_Order=1*
G04 Layer_Color=255*
%FSLAX44Y44*%
%MOMM*%
G71*
G04*
G04 #@! TF.SameCoordinates,35715F93-6BA4-45ED-89E8-8F7F27010EA2*
G04*
G04*
G04 #@! TF.FilePolarity,Positive*
G04*
G01*
G75*
%ADD20R,1.7000X11.0000*%
G04:AMPARAMS|DCode=21|XSize=1.2mm|YSize=8mm|CornerRadius=0.6mm|HoleSize=0mm|Usage=FLASHONLY|Rotation=0.000|XOffset=0mm|YOffset=0mm|HoleType=Round|Shape=RoundedRectangle|*
%AMROUNDEDRECTD21*
21,1,1.2000,6.8000,0,0,0.0*
21,1,0.0000,8.0000,0,0,0.0*
1,1,1.2000,0.0000,-3.4000*
1,1,1.2000,0.0000,-3.4000*
1,1,1.2000,0.0000,3.4000*
1,1,1.2000,0.0000,3.4000*
%
%ADD21ROUNDEDRECTD21*%
%ADD22C,0.5001*%
%ADD23C,1.0000*%
%ADD24C,1.0000*%
%ADD25C,0.2500*%
%ADD26C,0.5500*%
%ADD27C,0.5000*%
%ADD28R,13.1250X6.2500*%
%ADD29C,1.6000*%
%ADD30R,1.6000X1.6000*%
%ADD31R,1.6000X1.6000*%
%ADD32C,4.0000*%
%ADD33C,1.2000*%
G36*
X1800000Y1575000D02*
X2612500D01*
Y1512500D01*
X2650000Y1475000D01*
X2712500D01*
Y475000D01*
X2650000D01*
Y875000D01*
X2675000Y875000D01*
X2687500Y887500D01*
Y1125000D01*
X2675000Y1137500D01*
X2625000D01*
Y1439000D01*
X2601500Y1462500D01*
X2487500D01*
X2450000Y1500000D01*
X2325000D01*
Y1537500D01*
X1787500D01*
Y1537500D01*
X1775000D01*
X1612500Y1375000D01*
Y958614D01*
X1610271Y958320D01*
X1608193Y957460D01*
X1606409Y956091D01*
X1605040Y954307D01*
X1604180Y952229D01*
X1603886Y950000D01*
X1604180Y947771D01*
X1605040Y945693D01*
X1606409Y943909D01*
X1608193Y942540D01*
X1610271Y941680D01*
X1612500Y941386D01*
Y856250D01*
X1575000Y881250D01*
Y1575000D01*
X1800000D01*
Y1575000D01*
D02*
G37*
D20*
X1912500Y400000D02*
D03*
X1937498D02*
D03*
X1962500D02*
D03*
X1987501D02*
D03*
X2012500D02*
D03*
X2037501D02*
D03*
X2062499D02*
D03*
X2087501D02*
D03*
X2112499D02*
D03*
X2137500D02*
D03*
X2162499D02*
D03*
X2187500D02*
D03*
X2212499D02*
D03*
X2237500D02*
D03*
X2262499D02*
D03*
X2287500D02*
D03*
X2312499D02*
D03*
X2337500D02*
D03*
X2362499D02*
D03*
X2387500D02*
D03*
X2412499D02*
D03*
X2437500D02*
D03*
X2462499D02*
D03*
X2487500D02*
D03*
X2512498D02*
D03*
X2537500D02*
D03*
X2562498D02*
D03*
X2587500D02*
D03*
X2612501D02*
D03*
X2637499D02*
D03*
D21*
X2162499Y225000D02*
D03*
X2112499D02*
D03*
X2087501D02*
D03*
X2062499D02*
D03*
X2037501D02*
D03*
X2012500D02*
D03*
X1987501D02*
D03*
X1962500D02*
D03*
X1937498D02*
D03*
X1912500D02*
D03*
X2137500D02*
D03*
X2462499D02*
D03*
X2412499D02*
D03*
X2387500D02*
D03*
X2362499D02*
D03*
X2337500D02*
D03*
X2287500D02*
D03*
X2262499D02*
D03*
X2237500D02*
D03*
X2212499D02*
D03*
X2187500D02*
D03*
X2312499D02*
D03*
X2437500D02*
D03*
X2637499D02*
D03*
X2537500D02*
D03*
X2512498D02*
D03*
X2487500D02*
D03*
X2562498D02*
D03*
X2612501D02*
D03*
X2587500D02*
D03*
D22*
X1937498Y261002D02*
Y353301D01*
X1912500Y263001D02*
Y353301D01*
X1962500Y262001D02*
Y353301D01*
X1987501Y261002D02*
Y349760D01*
X2062499Y262001D02*
Y348301D01*
X2087501Y261002D02*
Y348301D01*
X2112499Y266001D02*
Y348301D01*
X2137500Y263001D02*
Y348301D01*
X2162499Y264002D02*
Y348301D01*
X2187500Y261002D02*
Y348301D01*
X2212499Y261002D02*
Y348301D01*
X2237500Y261002D02*
Y348301D01*
X2262499Y261002D02*
Y348301D01*
X2287500Y261002D02*
Y348301D01*
X1983960Y353301D02*
X1987501Y349760D01*
X2012500Y261002D02*
Y353301D01*
X2037501Y263001D02*
Y348301D01*
X2312499Y261002D02*
Y348301D01*
X2337500Y261002D02*
Y348301D01*
X2537500Y261002D02*
Y348301D01*
X2512498Y261002D02*
Y348301D01*
X2487500Y263001D02*
Y348301D01*
X2462499Y261002D02*
Y348301D01*
X2412499Y261002D02*
Y348301D01*
X2387500Y261002D02*
Y348301D01*
X2362499Y261002D02*
Y348301D01*
X2437500Y262001D02*
Y348301D01*
X2587500Y261002D02*
Y348301D01*
X2562498Y262001D02*
Y348301D01*
D23*
X2637499Y261002D02*
Y348301D01*
X2612501Y261002D02*
Y348301D01*
D24*
X2188658Y813658D02*
X2234682D01*
X2241612Y820588D01*
X2273741D01*
X2175000Y800000D02*
X2188658Y813658D01*
X2280671D02*
X2311342D01*
X2273741Y820588D02*
X2280671Y813658D01*
X2366834Y833166D02*
X2508166D01*
X2518750Y843750D01*
X2360876Y839124D02*
X2366834Y833166D01*
X2325000Y837500D02*
X2325541D01*
X2327165Y839124D01*
X2360876D01*
X2625000Y875000D02*
X2650000D01*
X2623376D02*
X2625000D01*
X2543750Y843750D02*
Y879476D01*
X2618901D02*
X2623376Y875000D01*
X2543750Y879476D02*
X2618901D01*
X2518750Y843750D02*
X2543750D01*
X2311342Y813658D02*
X2325000Y800000D01*
X2625000Y537500D02*
X2662500D01*
X2575000Y537500D02*
X2625000D01*
X2650000Y875000D02*
X2675000D01*
D25*
X2000000Y825000D02*
X2223342D01*
X2225000Y826658D01*
X2200000Y837500D02*
X2287500D01*
Y825000D02*
X2350000D01*
X2287500D02*
Y837500D01*
X1775000Y812500D02*
X2000000D01*
Y825000D01*
X2587500Y862500D02*
X2637500D01*
X2625000Y775000D02*
X2637500D01*
Y862500D01*
X2200000Y725000D02*
X2250000D01*
X2300000D01*
X2200000Y962500D02*
X2312500D01*
X2175000Y1300000D02*
X2200000D01*
X2350000Y1325000D02*
X2400000D01*
X2212500Y1300000D02*
X2250000D01*
X2150000Y1287500D02*
X2212500D01*
Y1300000D01*
X2100000Y850000D02*
X2150000D01*
X1950000Y1100000D02*
X1975000D01*
X1975000Y1100000D01*
X2150000Y1025000D02*
X2175000D01*
X2550000Y825000D02*
X2575000D01*
X2662500Y912500D02*
X2675000Y900000D01*
X2375000Y912500D02*
X2662500D01*
Y937500D02*
X2675000Y925000D01*
X2350000Y937500D02*
X2662500D01*
Y962500D02*
X2675000Y950000D01*
X2387500Y962500D02*
X2662500D01*
Y987500D02*
X2675000Y975000D01*
X2295576Y987500D02*
X2662500D01*
Y1012500D02*
X2675000Y1000000D01*
X2412500Y1012500D02*
X2662500D01*
Y1037500D02*
X2675000Y1025000D01*
X2337500Y1037500D02*
X2662500D01*
Y1062500D02*
X2675000Y1050000D01*
X2425000Y1062500D02*
X2662500D01*
Y1087500D02*
X2675000Y1075000D01*
X2412500Y1087500D02*
X2662500D01*
X2550000Y1075000D02*
X2625000D01*
X2325000Y1150000D02*
X2412500D01*
X2437500Y1425000D02*
X2475000D01*
X2212500Y1437500D02*
X2425000D01*
X2437500Y1425000D01*
X2450000Y1375000D02*
X2475000D01*
X2437500Y1387500D02*
X2450000Y1375000D01*
X2400000Y1400000D02*
X2437500D01*
X2437500Y1400000D01*
X2450000Y1325000D02*
X2475000D01*
X2437500Y1312500D02*
X2450000Y1325000D01*
X1750000Y1312500D02*
X2437500D01*
X2400000Y1300000D02*
X2437500D01*
X2450000Y1287500D02*
X2500000D01*
X2437500Y1300000D02*
X2450000Y1287500D01*
X2425000D02*
X2437500Y1275000D01*
X2237500Y1287500D02*
X2425000D01*
X2437500Y1275000D02*
X2475000D01*
X2250000Y975000D02*
X2283076D01*
X2295576Y987500D01*
X2312500Y962500D02*
X2325000Y950000D01*
X2137500D02*
X2175000D01*
X2125000Y975000D02*
X2175000D01*
X2112500Y962500D02*
X2125000Y975000D01*
Y1050000D02*
X2175000D01*
X1862500Y1062500D02*
X2112500D01*
X2125000Y1050000D01*
X2137500Y1075000D02*
X2175000D01*
X2100000Y1100000D02*
X2112500D01*
X2137500Y1075000D01*
X2150000Y1087500D02*
X2237500D01*
X2125000Y1112500D02*
X2150000Y1087500D01*
X1837500Y1112500D02*
X2125000D01*
X2100000Y1125000D02*
X2150000D01*
X2175000Y1100000D01*
X1925000Y1137500D02*
X2312500D01*
X2275000Y1050000D02*
X2287500Y1062500D01*
X2250000Y1050000D02*
X2275000D01*
X2250000Y1075000D02*
X2275000D01*
X2287500Y1087500D01*
X2187500Y1112500D02*
X2287500D01*
X2312500Y1137500D02*
X2325000Y1125000D01*
X2250000Y1150000D02*
X2287500D01*
X2300000Y1162500D01*
X2275000Y1275000D02*
X2325000D01*
X2275000Y1275000D02*
X2275000Y1275000D01*
X2287500Y1300000D02*
X2325000D01*
X2287500Y1300000D02*
X2287500Y1300000D01*
X2300000Y1325000D02*
X2325000D01*
X2300000Y1325000D02*
X2300000Y1325000D01*
X2136919Y1337500D02*
X2350000D01*
X2300000Y1362500D02*
X2387500D01*
X2275000Y1350000D02*
X2325000D01*
X2275000Y1350000D02*
X2275000Y1350000D01*
X1850000Y1412500D02*
X2387500D01*
X2250000Y1425000D02*
X2250000Y1425000D01*
X2275000D01*
X2275000Y1400000D02*
X2325000D01*
X2275000Y1400000D02*
X2275000Y1400000D01*
X2100000D02*
X2100000Y1400000D01*
X2150000D01*
Y1375000D02*
X2175000D01*
X2050000Y1387500D02*
X2137500D01*
X2150000Y1375000D01*
X1837500Y1362500D02*
X2200000D01*
X2100000Y1325000D02*
X2124419D01*
X2136919Y1337500D01*
X2125000Y1350000D02*
X2175000D01*
X2012500Y1337500D02*
X2112500D01*
X2125000Y1350000D01*
X2137500Y1325000D02*
X2175000D01*
X2137500Y1325000D02*
X2137500Y1325000D01*
X2112500Y1287500D02*
X2137500Y1262500D01*
X1975000Y1287500D02*
X2112500D01*
X2137500Y1262500D02*
X2212500D01*
X2137500Y1250000D02*
X2175000D01*
X2137500Y1250000D02*
X2137500Y1250000D01*
X2125000Y1262500D02*
X2137500Y1250000D01*
X2037500Y1262500D02*
X2125000D01*
X1925000Y1050000D02*
X1950000D01*
X1925000Y1050000D02*
X1925000Y1050000D01*
X1850000Y1137500D02*
X1925000D01*
X1800000Y1075000D02*
X1812500Y1087500D01*
X1800000Y1050000D02*
X1850000D01*
X1862500Y1062500D01*
X1800000Y1025000D02*
X1875000D01*
X1875000Y1025000D01*
X1800000Y1000000D02*
X1825000D01*
X1837500Y987500D01*
X1887500Y1000000D02*
X1950000D01*
X1887500Y1000000D02*
X1887500Y1000000D01*
X1900000Y975000D02*
X1950000D01*
X1900000Y975000D02*
X1900000Y975000D01*
X1912500Y950000D02*
X1950000D01*
X1912500Y950000D02*
X1912500Y950000D01*
X1875000Y800000D02*
X1912500D01*
X1937500Y787500D02*
X1950000Y800000D01*
X1825000Y787500D02*
X1937500D01*
X1875000Y775000D02*
X1900000D01*
X1937500Y762500D02*
X1950000Y775000D01*
X1925000Y762500D02*
X1937500D01*
X1925000Y737500D02*
X2112500D01*
X1900000Y762500D02*
X1925000Y737500D01*
X1925581Y725000D02*
X1950000D01*
X1916331Y734250D02*
X1925581Y725000D01*
X1912500Y737500D02*
X1915750Y734250D01*
X1916331D01*
X1875000Y725000D02*
X1912500D01*
X1912500Y700000D02*
X1950000D01*
X1900000Y712500D02*
X1912500Y700000D01*
X1937500Y687500D02*
X1950000Y675000D01*
X1875000D02*
X1912500D01*
X1925000Y662500D01*
X2137500Y775000D02*
X2175000D01*
X2025000Y787500D02*
X2125000D01*
X2137500Y775000D01*
X2100000Y750000D02*
X2112500Y762500D01*
Y737500D02*
X2125000Y750000D01*
X2100000Y725000D02*
X2137500D01*
X2150000Y737500D01*
X2100000Y675000D02*
X2175000D01*
X2162500Y662500D02*
X2175000Y650000D01*
X1925000Y662500D02*
X2162500D01*
X2287500Y762500D02*
X2437500D01*
X2250000Y750000D02*
X2275000D01*
X2287500Y762500D01*
X2300000Y750000D02*
X2325000D01*
X2225000Y737500D02*
X2287500D01*
X2300000Y750000D01*
X2312500Y737500D02*
X2350000D01*
X2300000Y725000D02*
X2312500Y737500D01*
Y712500D02*
X2325000Y725000D01*
X2250000Y700000D02*
X2325000D01*
X2287500Y687500D02*
X2312500Y662500D01*
X2287500Y650000D02*
X2325000D01*
X2275000Y637500D02*
X2287500Y650000D01*
X2462500Y637500D02*
X2475000Y650000D01*
X2400000Y675000D02*
X2425000D01*
X2437500Y700000D02*
X2475000D01*
X2400000Y800000D02*
X2437500D01*
X2462500Y787500D02*
X2475000Y775000D01*
X2568750Y787500D02*
X2581250Y800000D01*
X2625000D01*
X2550000Y775000D02*
X2587500D01*
X2600000Y787500D01*
Y725000D02*
X2625000Y700000D01*
X2575000Y725000D02*
X2600000D01*
X2550000Y700000D02*
X2551821Y698179D01*
X2564321D01*
X2587500Y675000D01*
X2612500Y662500D02*
X2625000Y675000D01*
X2412500Y562500D02*
X2562500D01*
X2150000Y787500D02*
X2200000D01*
X2100000Y800000D02*
X2137500D01*
X2150000Y787500D01*
X2275000Y775000D02*
X2325000D01*
X2112500Y762500D02*
X2262500D01*
X2275000Y775000D01*
X2400000Y1350000D02*
X2450000D01*
X2450000Y1350000D01*
X2437500Y1450000D02*
X2450000Y1437500D01*
X2525000D01*
X2400000Y1450000D02*
X2437500D01*
X2462500D02*
X2475000D01*
X2400000Y1475000D02*
X2437500D01*
X2462500Y1450000D01*
X1937500Y1525000D02*
X2300000D01*
X2075000Y1512500D02*
X2262500D01*
X2087500Y1475000D02*
X2400000D01*
X2475000Y1400000D02*
X2525000D01*
Y1350000D02*
Y1362500D01*
X2475000Y1350000D02*
X2525000D01*
X2487500Y1325000D02*
X2525000D01*
X2487500Y1300000D02*
Y1325000D01*
X2475000Y1300000D02*
X2487500D01*
X2525000Y1250000D02*
X2575000D01*
X2450000Y1212500D02*
X2525000D01*
X2375000Y1275000D02*
X2400000D01*
X2500000Y1287500D02*
Y1300000D01*
X2575000D01*
X2475000Y1250000D02*
X2487500D01*
X2525000Y1287500D01*
X1875000Y1437500D02*
X2212500D01*
X1725000Y1425000D02*
X2250000D01*
X2062500Y1350000D02*
X2100000D01*
X1712500Y1300000D02*
X2100000D01*
X1775000Y1262500D02*
X2000000D01*
Y1275000D01*
X2100000D01*
X1912500Y1237500D02*
X1975000D01*
X1737500Y1200000D02*
X1800000D01*
X1700000Y1175000D02*
X1800000D01*
X1687500Y1150000D02*
X1800000D01*
X1662500Y1125000D02*
X1800000D01*
X1637500Y1100000D02*
X1800000D01*
X1750000Y975000D02*
X1800000D01*
X2012500Y962500D02*
X2112500D01*
X1812500Y1087500D02*
X2075000D01*
Y1075000D02*
Y1087500D01*
Y1075000D02*
X2100000D01*
X1950000Y1125000D02*
X2025000D01*
X2212500D02*
X2250000D01*
X2175000Y1100000D02*
X2187500Y1112500D01*
X2237500Y1087500D02*
X2250000Y1100000D01*
X2075000Y1150000D02*
X2150000D01*
X1950000Y1175000D02*
X1987500D01*
X1900000Y1187500D02*
X2375000D01*
X1950000Y1200000D02*
X2000000D01*
X2025000Y1212500D02*
X2325000D01*
X2300000Y1162500D02*
X2375000D01*
X2287500Y1087500D02*
X2350000D01*
X2237500Y1037500D02*
X2250000Y1025000D01*
X1750000Y1037500D02*
X2237500D01*
Y1012500D02*
X2250000Y1000000D01*
X1912500Y1012500D02*
X2237500D01*
X2325000Y975000D02*
X2412500D01*
X2287500Y1062500D02*
X2387500D01*
X2325000Y1075000D02*
X2412500D01*
X2425000Y1062500D01*
X2512500Y1100000D02*
X2575000D01*
X2500000Y1050000D02*
X2625000D01*
X2487500Y1025000D02*
X2625000D01*
X2325000Y1050000D02*
X2337500Y1037500D01*
X2475000Y1000000D02*
X2625000D01*
X2512500Y975000D02*
X2625000D01*
X2462500Y950000D02*
X2625000D01*
X2437500Y925000D02*
X2625000D01*
X2425000Y900000D02*
X2625000D01*
X2312500Y887500D02*
X2475000D01*
X2237500D02*
X2312500D01*
X2237500D02*
Y912500D01*
X1887500D02*
X2237500D01*
X1787500Y900000D02*
X2150000D01*
X1762500Y887500D02*
X2100000D01*
Y875000D02*
Y887500D01*
X2012500Y875000D02*
X2075000D01*
X1900000Y862500D02*
X1975000D01*
Y850000D02*
Y862500D01*
Y850000D02*
X2087500D01*
Y837500D02*
Y850000D01*
Y837500D02*
X2175000D01*
X2200000Y862500D01*
Y875000D01*
X2500000D01*
X2250000Y862500D02*
X2462500D01*
X2225000Y850000D02*
X2425000D01*
X1812500Y837500D02*
X2075000D01*
X1950000Y750000D02*
X2075000D01*
X1837500Y737500D02*
X1912500D01*
X2025000Y725000D02*
X2100000D01*
X2037500Y700000D02*
X2100000D01*
X1950000Y650000D02*
X2012500D01*
X2037500D02*
X2075000D01*
Y637500D02*
Y650000D01*
X1987500Y637500D02*
X2062500D01*
Y625000D02*
Y637500D01*
X1825000Y575000D02*
X2012500D01*
X1887500Y587500D02*
X2637500D01*
X2237500Y575000D02*
X2612500D01*
X2237500Y562500D02*
Y575000D01*
X2050000Y562500D02*
X2237500D01*
X2075000Y550000D02*
X2262500D01*
Y562500D01*
X2412500D01*
X2237500Y487500D02*
X2325000D01*
X2237500Y450000D02*
Y487500D01*
X2212500D02*
X2225000D01*
X2212500Y450000D02*
Y487500D01*
X2187500D02*
X2200000D01*
X2187500Y450000D02*
Y487500D01*
X2162500D02*
X2175000D01*
X2162500Y450000D02*
Y487500D01*
X1987500D02*
X2000000D01*
X1987500Y450000D02*
Y487500D01*
X1837500D02*
X1962500D01*
Y450000D02*
Y487500D01*
X1725000Y475000D02*
X1937500D01*
Y450000D02*
Y475000D01*
X1637500Y500000D02*
X2012500D01*
Y450000D02*
Y500000D01*
X1662500Y512500D02*
X2025000D01*
Y500000D02*
Y512500D01*
Y500000D02*
X2037500D01*
Y450000D02*
Y500000D01*
X1687500Y525000D02*
X2037500D01*
Y512500D02*
Y525000D01*
Y512500D02*
X2050000D01*
X2062500Y500000D01*
Y450000D02*
Y500000D01*
X2087500Y487500D02*
X2100000D01*
X2087500Y450000D02*
Y487500D01*
X1737500Y537500D02*
X2050000D01*
Y525000D02*
Y537500D01*
Y525000D02*
X2125000D01*
Y487500D02*
Y525000D01*
X2112500Y475000D02*
X2125000Y487500D01*
X2112500Y450000D02*
Y475000D01*
X1712500Y550000D02*
X2062500D01*
Y537500D02*
Y550000D01*
Y537500D02*
X2287500D01*
Y512500D02*
Y537500D01*
Y512500D02*
X2412500D01*
X2262500Y500000D02*
X2350000D01*
X2262500D02*
Y512500D01*
X2137500D02*
X2262500D01*
X2137500Y450000D02*
Y512500D01*
X2362500Y487500D02*
X2375000D01*
X2362500Y437500D02*
Y487500D01*
X2412500Y450000D02*
Y512500D01*
X2487500Y450000D02*
Y487500D01*
X2512500Y450000D02*
Y487500D01*
X1912500Y600000D02*
X2425000D01*
X2000000Y687500D02*
X2187500D01*
X2200000Y675000D01*
X2250000D01*
X2212500Y687500D02*
X2287500D01*
X1975000Y712500D02*
X2312500D01*
X2150000Y737500D02*
X2200000D01*
Y750000D01*
X2250000D01*
X2212500Y775000D02*
X2250000D01*
X2200000Y787500D02*
Y800000D01*
X2362500D02*
X2400000D01*
X2362500Y775000D02*
X2400000D01*
X2275000Y787500D02*
X2462500D01*
X2325000Y750000D02*
X2375000D01*
X2362500Y712500D02*
X2375000D01*
Y725000D01*
X2400000D01*
X2325000Y675000D02*
X2362500D01*
X2312500Y662500D02*
X2350000D01*
Y650000D02*
Y662500D01*
Y650000D02*
X2375000D01*
X2425000Y625000D02*
X2612500D01*
X2525000Y662500D02*
X2612500D01*
X2500000Y725000D02*
X2550000D01*
X2512500Y750000D02*
X2550000D01*
X2512500Y787500D02*
X2568750D01*
X2275000Y912500D02*
X2350000D01*
X2275000D02*
Y925000D01*
X1825000D02*
X2275000D01*
X2200000Y1362500D02*
Y1387500D01*
X2212500Y1262500D02*
X2237500Y1287500D01*
X2437500Y1137500D02*
X2525000D01*
X1837500Y850000D02*
X1875000D01*
X1750000Y825000D02*
X1875000D01*
X1700000Y762500D02*
X1900000D01*
X1787500Y712500D02*
X1900000D01*
X1850000Y700000D02*
X1875000D01*
X1762500Y687500D02*
X1937500D01*
X2212500Y625000D02*
X2362500D01*
X2300000Y637500D02*
X2462500D01*
X2200000D02*
X2275000D01*
X2200000Y625000D02*
Y637500D01*
X2062500Y625000D02*
X2200000D01*
X2187500Y662500D02*
X2287500D01*
X2187500Y637500D02*
Y662500D01*
X2075000Y637500D02*
X2187500D01*
X2350000Y1337500D02*
X2362500Y1350000D01*
X2387500Y1362500D02*
X2400000Y1375000D01*
X2200000Y1387500D02*
X2437500D01*
X2387500Y1412500D02*
X2400000Y1425000D01*
X1925000Y625000D02*
X2037500D01*
D26*
X2543750Y843750D02*
X2621778D01*
X2625000Y840528D01*
Y825000D02*
Y840528D01*
X2450000Y1153222D02*
Y1175000D01*
X2625000Y1153222D02*
Y1175000D01*
X2621778Y1150000D02*
X2625000Y1153222D01*
X2453222Y1150000D02*
X2621778D01*
X2450000Y1153222D02*
X2453222Y1150000D01*
X1950000Y875000D02*
X1987500D01*
X1950000D02*
X1950000D01*
X1987500Y862500D02*
Y875000D01*
Y862500D02*
X2175000D01*
Y887500D01*
X1862500Y1250000D02*
X1887500Y1225000D01*
X1900000D01*
X1950000D01*
X2575000Y537500D02*
X2575000Y537500D01*
X2175000Y1500000D02*
X2325000D01*
X1950000Y1225000D02*
X2187500D01*
X1587500Y1250000D02*
X1862500D01*
X2475000Y800000D02*
Y831250D01*
D27*
X1606250Y862500D02*
X1884864D01*
X1890429Y875000D02*
X1950000D01*
X1887500Y865136D02*
Y872071D01*
X1890429Y875000D01*
X1884864Y862500D02*
X1887500Y865136D01*
X2650000Y1100000D02*
X2675000D01*
X2625000D02*
X2650000D01*
X2100000Y937500D02*
X2250000D01*
X2100000D02*
Y950000D01*
X1950000Y1075000D02*
X1950000Y1075000D01*
X1837500Y1075000D02*
X1950000D01*
X1762500Y1062500D02*
X1825000D01*
X1837500Y1075000D01*
X1875000Y612500D02*
X2100000D01*
X1800000D02*
X1875000D01*
X2100000D02*
X2125000D01*
X1612500Y950000D02*
X1800000D01*
X2250000Y612500D02*
X2587500D01*
X2125000D02*
X2250000D01*
Y937500D02*
Y950000D01*
X1800000Y937500D02*
X2100000D01*
X1800000D02*
Y950000D01*
X2400000Y1237500D02*
Y1250000D01*
X2100000Y1237500D02*
X2400000D01*
X2100000D02*
Y1250000D01*
X2250000Y1237500D02*
Y1250000D01*
X2600000Y1100000D02*
X2625000D01*
X2600000D02*
Y1125000D01*
X2400000D02*
X2600000D01*
D28*
X2646875Y481250D02*
D03*
D29*
X2675000Y1100000D02*
D03*
X2650000D02*
D03*
X2625000D02*
D03*
X2675000Y1075000D02*
D03*
X2650000D02*
D03*
X2625000D02*
D03*
X2675000Y1050000D02*
D03*
X2650000D02*
D03*
X2625000D02*
D03*
X2675000Y1025000D02*
D03*
X2650000D02*
D03*
X2625000D02*
D03*
X2675000Y1000000D02*
D03*
X2650000D02*
D03*
X2625000D02*
D03*
X2675000Y975000D02*
D03*
X2650000D02*
D03*
X2625000D02*
D03*
X2675000Y950000D02*
D03*
X2650000D02*
D03*
X2625000D02*
D03*
X2675000Y925000D02*
D03*
X2650000D02*
D03*
X2625000D02*
D03*
X2675000Y900000D02*
D03*
X2650000D02*
D03*
X2625000D02*
D03*
X2675000Y875000D02*
D03*
X2650000D02*
D03*
X2625000D02*
D03*
X1950000Y775000D02*
D03*
Y750000D02*
D03*
Y700000D02*
D03*
Y725000D02*
D03*
Y675000D02*
D03*
X1875000Y650000D02*
D03*
Y675000D02*
D03*
Y700000D02*
D03*
Y725000D02*
D03*
Y750000D02*
D03*
Y775000D02*
D03*
Y825000D02*
D03*
Y800000D02*
D03*
Y850000D02*
D03*
X1950000Y825000D02*
D03*
Y800000D02*
D03*
Y850000D02*
D03*
Y875000D02*
D03*
Y650000D02*
D03*
X2250000Y775000D02*
D03*
Y725000D02*
D03*
Y750000D02*
D03*
Y700000D02*
D03*
Y675000D02*
D03*
Y650000D02*
D03*
X2325000D02*
D03*
Y675000D02*
D03*
Y700000D02*
D03*
Y725000D02*
D03*
Y750000D02*
D03*
Y800000D02*
D03*
Y775000D02*
D03*
X2100000D02*
D03*
Y725000D02*
D03*
Y750000D02*
D03*
Y700000D02*
D03*
Y675000D02*
D03*
Y650000D02*
D03*
X2175000D02*
D03*
Y675000D02*
D03*
Y700000D02*
D03*
Y725000D02*
D03*
Y750000D02*
D03*
Y800000D02*
D03*
Y775000D02*
D03*
X2550000Y800000D02*
D03*
Y750000D02*
D03*
Y775000D02*
D03*
Y725000D02*
D03*
Y700000D02*
D03*
Y675000D02*
D03*
Y650000D02*
D03*
X2625000D02*
D03*
Y675000D02*
D03*
Y700000D02*
D03*
Y725000D02*
D03*
Y775000D02*
D03*
Y750000D02*
D03*
Y800000D02*
D03*
Y825000D02*
D03*
X2400000Y775000D02*
D03*
Y725000D02*
D03*
Y750000D02*
D03*
Y700000D02*
D03*
Y675000D02*
D03*
Y650000D02*
D03*
X2475000D02*
D03*
Y675000D02*
D03*
Y700000D02*
D03*
Y725000D02*
D03*
Y750000D02*
D03*
Y800000D02*
D03*
Y775000D02*
D03*
X2325000Y1175000D02*
D03*
Y1150000D02*
D03*
Y1125000D02*
D03*
Y1100000D02*
D03*
X2250000Y1150000D02*
D03*
Y1100000D02*
D03*
Y1125000D02*
D03*
Y1075000D02*
D03*
Y1050000D02*
D03*
Y1025000D02*
D03*
Y1000000D02*
D03*
Y975000D02*
D03*
Y950000D02*
D03*
X2325000D02*
D03*
Y975000D02*
D03*
Y1025000D02*
D03*
Y1000000D02*
D03*
Y1050000D02*
D03*
Y1075000D02*
D03*
X2100000Y1100000D02*
D03*
Y1050000D02*
D03*
Y1075000D02*
D03*
Y1025000D02*
D03*
Y1000000D02*
D03*
Y975000D02*
D03*
Y950000D02*
D03*
X2175000D02*
D03*
Y975000D02*
D03*
Y1000000D02*
D03*
Y1025000D02*
D03*
Y1075000D02*
D03*
Y1050000D02*
D03*
Y1100000D02*
D03*
Y1125000D02*
D03*
X2475000Y1475000D02*
D03*
Y1450000D02*
D03*
Y1425000D02*
D03*
Y1400000D02*
D03*
X2400000Y1450000D02*
D03*
Y1400000D02*
D03*
Y1425000D02*
D03*
Y1375000D02*
D03*
Y1350000D02*
D03*
Y1325000D02*
D03*
Y1300000D02*
D03*
Y1275000D02*
D03*
Y1250000D02*
D03*
X2475000D02*
D03*
Y1275000D02*
D03*
Y1325000D02*
D03*
Y1300000D02*
D03*
Y1350000D02*
D03*
Y1375000D02*
D03*
X2250000Y1400000D02*
D03*
Y1350000D02*
D03*
Y1375000D02*
D03*
Y1325000D02*
D03*
Y1300000D02*
D03*
Y1275000D02*
D03*
Y1250000D02*
D03*
X2325000D02*
D03*
Y1275000D02*
D03*
Y1300000D02*
D03*
Y1325000D02*
D03*
Y1375000D02*
D03*
Y1350000D02*
D03*
Y1400000D02*
D03*
Y1425000D02*
D03*
X2100000Y1375000D02*
D03*
Y1325000D02*
D03*
Y1350000D02*
D03*
Y1300000D02*
D03*
Y1275000D02*
D03*
Y1250000D02*
D03*
X2175000D02*
D03*
Y1275000D02*
D03*
Y1300000D02*
D03*
Y1325000D02*
D03*
Y1350000D02*
D03*
Y1400000D02*
D03*
Y1375000D02*
D03*
X1950000Y1025000D02*
D03*
Y1000000D02*
D03*
Y950000D02*
D03*
Y975000D02*
D03*
X1800000Y950000D02*
D03*
Y975000D02*
D03*
Y1000000D02*
D03*
Y1025000D02*
D03*
Y1050000D02*
D03*
Y1075000D02*
D03*
Y1100000D02*
D03*
Y1125000D02*
D03*
Y1175000D02*
D03*
Y1150000D02*
D03*
Y1200000D02*
D03*
X1950000Y1075000D02*
D03*
Y1050000D02*
D03*
Y1100000D02*
D03*
Y1125000D02*
D03*
Y1175000D02*
D03*
Y1150000D02*
D03*
Y1200000D02*
D03*
Y1225000D02*
D03*
D30*
X1875000Y875000D02*
D03*
X2250000Y800000D02*
D03*
X2100000D02*
D03*
X2550000Y825000D02*
D03*
X2400000Y800000D02*
D03*
X2250000Y1175000D02*
D03*
X2100000Y1125000D02*
D03*
X2400000Y1475000D02*
D03*
X2250000Y1425000D02*
D03*
X2100000Y1400000D02*
D03*
X1800000Y1225000D02*
D03*
D31*
X2400000Y1175000D02*
D03*
X2450000D02*
D03*
X2325000Y537500D02*
D03*
X2575000D02*
D03*
X2525000Y1175000D02*
D03*
X2625000D02*
D03*
X2525000Y1212500D02*
D03*
X2625000D02*
D03*
X2525000Y1250000D02*
D03*
X2625000D02*
D03*
X2525000Y1287500D02*
D03*
X2625000D02*
D03*
X2525000Y1325000D02*
D03*
X2625000D02*
D03*
X2525000Y1362500D02*
D03*
X2625000D02*
D03*
X2525000Y1400000D02*
D03*
X2625000D02*
D03*
X2525000Y1437500D02*
D03*
X2625000D02*
D03*
X1900000Y1287500D02*
D03*
X1950000D02*
D03*
X2125000Y887500D02*
D03*
X2175000D02*
D03*
X2125000Y575000D02*
D03*
X2175000D02*
D03*
X2125000Y1500000D02*
D03*
X2175000D02*
D03*
D32*
X384000Y1535000D02*
D03*
X2684000D02*
D03*
D33*
X2225000Y826658D02*
D03*
X2587500Y862500D02*
D03*
X2200000Y725000D02*
D03*
Y962500D02*
D03*
Y1300000D02*
D03*
X2350000Y1325000D02*
D03*
X2625000Y537500D02*
D03*
X2512500Y750000D02*
D03*
X1612500Y950000D02*
D03*
X2425000Y850000D02*
D03*
X1762500Y950000D02*
D03*
X1850000Y700000D02*
D03*
X1762500Y687500D02*
D03*
X2437500Y800000D02*
D03*
Y762500D02*
D03*
X2225000Y850000D02*
D03*
X2200000Y837500D02*
D03*
Y800000D02*
D03*
X2212500Y775000D02*
D03*
X2225000Y737500D02*
D03*
X2125000Y750000D02*
D03*
X2150000Y900000D02*
D03*
Y850000D02*
D03*
X2137500Y950000D02*
D03*
X2150000Y1025000D02*
D03*
X2212500Y1125000D02*
D03*
X2187500Y1225000D02*
D03*
X2150000Y1150000D02*
D03*
X2137500Y1250000D02*
D03*
X2150000Y1287500D02*
D03*
X1937500Y1525000D02*
D03*
X2075000Y1512500D02*
D03*
X2087500Y1475000D02*
D03*
X2137500Y1325000D02*
D03*
X2150000Y1400000D02*
D03*
X2212500Y1437500D02*
D03*
X2262500Y1512500D02*
D03*
X2300000Y1525000D02*
D03*
X2325000Y1500000D02*
D03*
X2275000Y1425000D02*
D03*
Y1400000D02*
D03*
Y1350000D02*
D03*
X2300000Y1362500D02*
D03*
Y1325000D02*
D03*
X2287500Y1300000D02*
D03*
X2275000Y1275000D02*
D03*
X2437500Y1400000D02*
D03*
X2450000Y1350000D02*
D03*
X2362500D02*
D03*
X2375000Y1275000D02*
D03*
X2575000Y1300000D02*
D03*
Y1250000D02*
D03*
X2500000Y1050000D02*
D03*
X2450000Y1212500D02*
D03*
X2325000D02*
D03*
X2287500Y1112500D02*
D03*
X2375000Y1187500D02*
D03*
Y1162500D02*
D03*
X2350000Y1087500D02*
D03*
X2387500Y1062500D02*
D03*
X2412500Y1150000D02*
D03*
Y1087500D02*
D03*
X2400000Y1125000D02*
D03*
X2437500Y1137500D02*
D03*
X2525000D02*
D03*
X2512500Y1100000D02*
D03*
X2575000D02*
D03*
X2550000Y1075000D02*
D03*
X2250000Y862500D02*
D03*
X2487500Y1025000D02*
D03*
X2512500Y975000D02*
D03*
X2475000Y1000000D02*
D03*
X2462500Y950000D02*
D03*
X2437500Y925000D02*
D03*
X2425000Y900000D02*
D03*
X2412500Y1012500D02*
D03*
Y975000D02*
D03*
X2387500Y962500D02*
D03*
X2350000Y937500D02*
D03*
X2375000Y912500D02*
D03*
X2350000D02*
D03*
X2312500Y887500D02*
D03*
X2337500Y875000D02*
D03*
X2275000Y787500D02*
D03*
X2287500Y762500D02*
D03*
X2325000Y837500D02*
D03*
X2350000Y825000D02*
D03*
X2362500Y800000D02*
D03*
Y775000D02*
D03*
X2350000Y737500D02*
D03*
X2375000Y750000D02*
D03*
X2575000Y825000D02*
D03*
X2462500Y862500D02*
D03*
X2475000Y887500D02*
D03*
X2500000Y875000D02*
D03*
X2512500Y787500D02*
D03*
X2600000D02*
D03*
X2575000Y725000D02*
D03*
X2587500Y675000D02*
D03*
X2612500Y625000D02*
D03*
X2587500Y612500D02*
D03*
X2637500Y587500D02*
D03*
X2612500Y575000D02*
D03*
X2562500Y562500D02*
D03*
X2550000Y612500D02*
D03*
X2525000Y662500D02*
D03*
X2500000Y725000D02*
D03*
X2437500Y700000D02*
D03*
X2425000Y675000D02*
D03*
X2125000Y612500D02*
D03*
X2212500Y687500D02*
D03*
Y625000D02*
D03*
X2250000Y612500D02*
D03*
X2287500Y662500D02*
D03*
X2300000Y637500D02*
D03*
X2325000Y612500D02*
D03*
X2362500Y712500D02*
D03*
Y675000D02*
D03*
X2375000Y650000D02*
D03*
X2362500Y625000D02*
D03*
X2400000Y612500D02*
D03*
X2425000Y625000D02*
D03*
Y600000D02*
D03*
X2412500Y562500D02*
D03*
X2512500Y487500D02*
D03*
X2487500D02*
D03*
X2375000D02*
D03*
X2350000Y500000D02*
D03*
X2325000Y487500D02*
D03*
X2225000D02*
D03*
X2200000D02*
D03*
X2175000D02*
D03*
X2100000Y612500D02*
D03*
X1925000Y625000D02*
D03*
X2037500D02*
D03*
X2100000Y487500D02*
D03*
X2000000D02*
D03*
X1637500Y500000D02*
D03*
X1662500Y512500D02*
D03*
X1687500Y525000D02*
D03*
X1712500Y550000D02*
D03*
X1737500Y537500D02*
D03*
X1725000Y475000D02*
D03*
X1837500Y487500D02*
D03*
X1825000Y575000D02*
D03*
X1800000Y612500D02*
D03*
X1875000D02*
D03*
X1887500Y587500D02*
D03*
X1912500Y600000D02*
D03*
X2012500Y575000D02*
D03*
X2050000Y562500D02*
D03*
X2075000Y550000D02*
D03*
X2037500Y650000D02*
D03*
X2012500D02*
D03*
X1987500Y637500D02*
D03*
X2000000Y687500D02*
D03*
X2037500Y700000D02*
D03*
X2100000Y850000D02*
D03*
Y875000D02*
D03*
X2075000D02*
D03*
Y837500D02*
D03*
Y750000D02*
D03*
X1975000Y712500D02*
D03*
X2025000Y725000D02*
D03*
Y787500D02*
D03*
X2012500Y875000D02*
D03*
X1925000Y762500D02*
D03*
X1912500Y725000D02*
D03*
X1900000Y775000D02*
D03*
X1912500Y800000D02*
D03*
X1900000Y862500D02*
D03*
X1887500Y912500D02*
D03*
X1787500Y712500D02*
D03*
X1837500Y737500D02*
D03*
Y850000D02*
D03*
X1812500Y837500D02*
D03*
X1825000Y787500D02*
D03*
X1700000Y762500D02*
D03*
X1750000Y825000D02*
D03*
X1775000Y812500D02*
D03*
X1762500Y887500D02*
D03*
X1787500Y900000D02*
D03*
X1825000Y925000D02*
D03*
X1912500Y950000D02*
D03*
X2012500Y962500D02*
D03*
X2075000Y1075000D02*
D03*
Y1150000D02*
D03*
X2025000Y1125000D02*
D03*
X2000000Y1200000D02*
D03*
X1987500Y1175000D02*
D03*
X1975000Y1100000D02*
D03*
X1900000Y975000D02*
D03*
X1925000Y1137500D02*
D03*
Y1050000D02*
D03*
X1912500Y1012500D02*
D03*
X1887500Y1000000D02*
D03*
X1875000Y1025000D02*
D03*
X1862500Y1062500D02*
D03*
X1837500Y987500D02*
D03*
Y1112500D02*
D03*
X1850000Y1137500D02*
D03*
X1900000Y1187500D02*
D03*
X1750000Y975000D02*
D03*
Y1037500D02*
D03*
X1762500Y1062500D02*
D03*
X1637500Y1100000D02*
D03*
X1662500Y1125000D02*
D03*
X1687500Y1150000D02*
D03*
X1700000Y1175000D02*
D03*
X1737500Y1200000D02*
D03*
X1912500Y1237500D02*
D03*
X2025000Y1212500D02*
D03*
X2037500Y1262500D02*
D03*
X1975000Y1237500D02*
D03*
Y1287500D02*
D03*
X2050000Y1387500D02*
D03*
X2062500Y1350000D02*
D03*
X2012500Y1337500D02*
D03*
X1775000Y1262500D02*
D03*
X1712500Y1300000D02*
D03*
X1750000Y1312500D02*
D03*
X1837500Y1362500D02*
D03*
X1875000Y1437500D02*
D03*
X1850000Y1412500D02*
D03*
X1725000Y1425000D02*
D03*
M02*
