G04*
G04 #@! TF.GenerationSoftware,Altium Limited,Altium Designer,23.6.0 (18)*
G04*
G04 Layer_Color=65535*
%FSLAX44Y44*%
%MOMM*%
G71*
G04*
G04 #@! TF.SameCoordinates,95C8D77B-5923-4534-9A55-EAB02A08894E*
G04*
G04*
G04 #@! TF.FilePolarity,Positive*
G04*
G01*
G75*
%ADD10C,0.2540*%
%ADD11C,0.1000*%
%ADD12C,0.1999*%
G36*
X1997500Y1518750D02*
X1972500D01*
Y1448750D01*
X1947500D01*
Y1518750D01*
X1922500D01*
Y1543750D01*
X1997500D01*
Y1518750D01*
D02*
G37*
G36*
X1912500Y1448750D02*
X1892500D01*
Y1468750D01*
X1867500D01*
Y1493750D01*
X1887500D01*
Y1513750D01*
X1822500Y1448750D01*
Y1493750D01*
X1872500Y1543750D01*
X1912500D01*
Y1448750D01*
D02*
G37*
G36*
X1837500Y1518750D02*
X1812500D01*
Y1448750D01*
X1787500D01*
Y1543750D01*
X1837500D01*
Y1518750D01*
D02*
G37*
G36*
X1777500Y1448750D02*
X1757500D01*
Y1468750D01*
X1732500D01*
Y1493750D01*
X1752500D01*
Y1513750D01*
X1687500Y1448750D01*
Y1493750D01*
X1737500Y1543750D01*
X1777500D01*
Y1448750D01*
D02*
G37*
G36*
X1614231Y1234644D02*
X1614370Y1234621D01*
X1614532Y1234575D01*
X1614740Y1234482D01*
X1614948Y1234390D01*
X1615156Y1234251D01*
X1615179Y1234228D01*
X1615226Y1234182D01*
X1615295Y1234089D01*
X1615388Y1233950D01*
X1615480Y1233788D01*
X1615550Y1233603D01*
X1615596Y1233395D01*
X1615619Y1233164D01*
X1615526Y1232608D01*
X1609279Y1213842D01*
Y1213819D01*
X1609256Y1213749D01*
X1609209Y1213634D01*
X1609140Y1213495D01*
X1608978Y1213194D01*
X1608724Y1212870D01*
X1608700D01*
X1608677Y1212847D01*
X1608608Y1212801D01*
X1608515Y1212755D01*
X1608376Y1212708D01*
X1608238Y1212639D01*
X1608029Y1212569D01*
X1607821Y1212500D01*
X1607775D01*
X1607659Y1212523D01*
X1607497Y1212569D01*
X1607289Y1212662D01*
X1607034Y1212824D01*
X1606919Y1212940D01*
X1606803Y1213079D01*
X1606664Y1213217D01*
X1606548Y1213402D01*
X1606456Y1213611D01*
X1606340Y1213842D01*
X1600093Y1232608D01*
X1600000Y1233164D01*
Y1233187D01*
Y1233256D01*
X1600023Y1233349D01*
X1600069Y1233487D01*
X1600116Y1233626D01*
X1600185Y1233788D01*
X1600301Y1233973D01*
X1600463Y1234158D01*
X1600486Y1234182D01*
X1600555Y1234228D01*
X1600648Y1234320D01*
X1600787Y1234413D01*
X1600949Y1234506D01*
X1601157Y1234598D01*
X1601365Y1234644D01*
X1601597Y1234668D01*
X1601782D01*
X1601897Y1234644D01*
X1602152Y1234598D01*
X1602406Y1234482D01*
X1602430D01*
X1602453Y1234459D01*
X1602522Y1234390D01*
X1602592Y1234320D01*
X1602707Y1234205D01*
X1602800Y1234043D01*
X1602939Y1233835D01*
X1603054Y1233580D01*
X1607821Y1219257D01*
X1612588Y1233580D01*
Y1233603D01*
X1612634Y1233649D01*
X1612680Y1233742D01*
X1612750Y1233858D01*
X1612935Y1234089D01*
X1613190Y1234344D01*
X1613213Y1234367D01*
X1613259Y1234390D01*
X1613328Y1234436D01*
X1613444Y1234506D01*
X1613722Y1234621D01*
X1613884Y1234644D01*
X1614046Y1234668D01*
X1614138D01*
X1614231Y1234644D01*
D02*
G37*
G36*
X1660209Y1243993D02*
X1660463Y1243970D01*
X1660787Y1243946D01*
X1661157Y1243877D01*
X1661551Y1243808D01*
X1662014Y1243715D01*
X1662476Y1243576D01*
X1662985Y1243414D01*
X1663495Y1243229D01*
X1664004Y1242998D01*
X1664536Y1242720D01*
X1665045Y1242396D01*
X1665554Y1242026D01*
X1666040Y1241586D01*
X1666063Y1241563D01*
X1666156Y1241470D01*
X1666271Y1241332D01*
X1666433Y1241147D01*
X1666642Y1240915D01*
X1666850Y1240638D01*
X1667081Y1240313D01*
X1667312Y1239967D01*
X1667544Y1239550D01*
X1667775Y1239110D01*
X1668007Y1238648D01*
X1668192Y1238138D01*
X1668354Y1237583D01*
X1668470Y1237028D01*
X1668562Y1236449D01*
X1668585Y1235825D01*
Y1235801D01*
Y1235732D01*
Y1235639D01*
X1668562Y1235501D01*
Y1235315D01*
X1668539Y1235107D01*
X1668493Y1234876D01*
X1668470Y1234621D01*
X1668331Y1234043D01*
X1668145Y1233395D01*
X1667914Y1232701D01*
X1667752Y1232354D01*
X1667567Y1231983D01*
X1657478Y1215925D01*
X1667289D01*
X1667405Y1215901D01*
X1667544Y1215855D01*
X1667729Y1215809D01*
X1667914Y1215716D01*
X1668099Y1215601D01*
X1668261Y1215439D01*
X1668284Y1215416D01*
X1668331Y1215346D01*
X1668400Y1215254D01*
X1668493Y1215115D01*
X1668585Y1214953D01*
X1668655Y1214768D01*
X1668701Y1214583D01*
X1668724Y1214351D01*
Y1214328D01*
Y1214259D01*
X1668701Y1214166D01*
X1668678Y1214027D01*
X1668631Y1213865D01*
X1668562Y1213680D01*
X1668470Y1213495D01*
X1668331Y1213310D01*
X1668307Y1213287D01*
X1668261Y1213240D01*
X1668169Y1213148D01*
X1668030Y1213055D01*
X1667868Y1212963D01*
X1667683Y1212870D01*
X1667451Y1212824D01*
X1667174Y1212801D01*
X1654516D01*
X1654424Y1212824D01*
X1654146Y1212870D01*
X1653845Y1212963D01*
X1653521Y1213102D01*
X1653244Y1213310D01*
X1653151Y1213449D01*
X1653059Y1213634D01*
X1653012Y1213819D01*
X1652989Y1214027D01*
Y1214050D01*
Y1214120D01*
X1653012Y1214235D01*
X1653035Y1214374D01*
X1653082Y1214536D01*
X1653151Y1214744D01*
X1653244Y1214976D01*
X1653360Y1215207D01*
X1664860Y1233557D01*
Y1233580D01*
X1664883Y1233603D01*
X1664906Y1233672D01*
X1664952Y1233765D01*
X1665045Y1233997D01*
X1665161Y1234320D01*
X1665276Y1234668D01*
X1665369Y1235061D01*
X1665438Y1235501D01*
X1665461Y1235917D01*
Y1235940D01*
Y1236010D01*
Y1236102D01*
X1665438Y1236241D01*
X1665415Y1236426D01*
X1665369Y1236634D01*
X1665323Y1236843D01*
X1665276Y1237097D01*
X1665068Y1237629D01*
X1664952Y1237930D01*
X1664790Y1238231D01*
X1664628Y1238509D01*
X1664397Y1238810D01*
X1664166Y1239110D01*
X1663888Y1239388D01*
X1663865Y1239411D01*
X1663749Y1239504D01*
X1663610Y1239619D01*
X1663402Y1239781D01*
X1663147Y1239967D01*
X1662847Y1240152D01*
X1662523Y1240313D01*
X1662176Y1240475D01*
X1662129Y1240499D01*
X1662014Y1240545D01*
X1661805Y1240614D01*
X1661551Y1240684D01*
X1661227Y1240753D01*
X1660880Y1240823D01*
X1660486Y1240869D01*
X1660070Y1240892D01*
X1659862D01*
X1659630Y1240869D01*
X1659353Y1240823D01*
X1659005Y1240730D01*
X1658612Y1240638D01*
X1658219Y1240475D01*
X1657802Y1240267D01*
X1657779D01*
X1657756Y1240244D01*
X1657617Y1240152D01*
X1657409Y1239990D01*
X1657154Y1239781D01*
X1656877Y1239527D01*
X1656576Y1239203D01*
X1656275Y1238856D01*
X1655997Y1238462D01*
Y1238439D01*
X1655974Y1238416D01*
X1655858Y1238300D01*
X1655673Y1238115D01*
X1655396Y1237907D01*
X1654702Y1237768D01*
X1654609D01*
X1654493Y1237791D01*
X1654331Y1237814D01*
X1654169Y1237861D01*
X1653984Y1237953D01*
X1653776Y1238046D01*
X1653591Y1238185D01*
X1653568Y1238208D01*
X1653521Y1238254D01*
X1653429Y1238370D01*
X1653336Y1238485D01*
X1653244Y1238648D01*
X1653151Y1238833D01*
X1653105Y1239041D01*
X1653082Y1239272D01*
Y1239295D01*
Y1239342D01*
X1653105Y1239411D01*
X1653128Y1239504D01*
X1653151Y1239642D01*
X1653197Y1239781D01*
X1653267Y1239967D01*
X1653360Y1240175D01*
X1653383Y1240198D01*
X1653406Y1240244D01*
X1653475Y1240337D01*
X1653545Y1240452D01*
X1653660Y1240591D01*
X1653799Y1240753D01*
X1654123Y1241147D01*
X1654540Y1241563D01*
X1655025Y1242026D01*
X1655604Y1242489D01*
X1656252Y1242905D01*
X1656298Y1242928D01*
X1656414Y1242998D01*
X1656576Y1243090D01*
X1656807Y1243206D01*
X1657085Y1243322D01*
X1657386Y1243460D01*
X1658057Y1243715D01*
X1658103Y1243738D01*
X1658219Y1243761D01*
X1658404Y1243808D01*
X1658635Y1243877D01*
X1658913Y1243923D01*
X1659214Y1243970D01*
X1659538Y1243993D01*
X1659862Y1244016D01*
X1660024D01*
X1660209Y1243993D01*
D02*
G37*
G36*
X1645492Y1215901D02*
X1645631Y1215878D01*
X1645793Y1215809D01*
X1645955Y1215740D01*
X1646140Y1215624D01*
X1646348Y1215462D01*
X1646371Y1215439D01*
X1646441Y1215369D01*
X1646510Y1215277D01*
X1646626Y1215161D01*
X1646718Y1214999D01*
X1646788Y1214791D01*
X1646857Y1214583D01*
X1646880Y1214351D01*
Y1214328D01*
Y1214259D01*
X1646857Y1214143D01*
X1646834Y1214004D01*
X1646765Y1213842D01*
X1646695Y1213680D01*
X1646580Y1213472D01*
X1646418Y1213287D01*
X1646395Y1213264D01*
X1646325Y1213217D01*
X1646232Y1213125D01*
X1646117Y1213055D01*
X1645955Y1212963D01*
X1645747Y1212870D01*
X1645538Y1212824D01*
X1645307Y1212801D01*
X1645191D01*
X1645076Y1212824D01*
X1644914Y1212870D01*
X1644729Y1212916D01*
X1644543Y1212986D01*
X1644358Y1213102D01*
X1644173Y1213264D01*
X1644150Y1213287D01*
X1644104Y1213356D01*
X1644034Y1213449D01*
X1643965Y1213587D01*
X1643895Y1213749D01*
X1643826Y1213935D01*
X1643780Y1214143D01*
X1643757Y1214351D01*
Y1214374D01*
Y1214467D01*
X1643780Y1214583D01*
X1643803Y1214744D01*
X1643872Y1214906D01*
X1643942Y1215092D01*
X1644057Y1215277D01*
X1644196Y1215462D01*
X1644219Y1215485D01*
X1644289Y1215531D01*
X1644381Y1215601D01*
X1644520Y1215693D01*
X1644682Y1215786D01*
X1644867Y1215855D01*
X1645076Y1215901D01*
X1645307Y1215925D01*
X1645399D01*
X1645492Y1215901D01*
D02*
G37*
G36*
X1630914Y1243993D02*
X1631099D01*
X1631354Y1243946D01*
X1631632Y1243900D01*
X1631932Y1243854D01*
X1632280Y1243761D01*
X1632650Y1243669D01*
X1633043Y1243530D01*
X1633436Y1243368D01*
X1633830Y1243160D01*
X1634246Y1242928D01*
X1634663Y1242674D01*
X1635056Y1242350D01*
X1635450Y1242003D01*
X1635473Y1241980D01*
X1635542Y1241910D01*
X1635635Y1241795D01*
X1635773Y1241656D01*
X1635936Y1241447D01*
X1636098Y1241216D01*
X1636283Y1240961D01*
X1636491Y1240661D01*
X1636676Y1240313D01*
X1636861Y1239943D01*
X1637023Y1239550D01*
X1637185Y1239110D01*
X1637324Y1238648D01*
X1637416Y1238185D01*
X1637486Y1237676D01*
X1637509Y1237143D01*
Y1219650D01*
Y1219627D01*
Y1219534D01*
X1637486Y1219372D01*
Y1219187D01*
X1637440Y1218956D01*
X1637393Y1218655D01*
X1637347Y1218354D01*
X1637254Y1218007D01*
X1637162Y1217637D01*
X1637023Y1217267D01*
X1636861Y1216850D01*
X1636653Y1216457D01*
X1636421Y1216040D01*
X1636167Y1215624D01*
X1635843Y1215230D01*
X1635496Y1214837D01*
X1635473Y1214814D01*
X1635403Y1214744D01*
X1635288Y1214652D01*
X1635149Y1214513D01*
X1634940Y1214374D01*
X1634709Y1214189D01*
X1634455Y1214004D01*
X1634154Y1213819D01*
X1633807Y1213634D01*
X1633436Y1213449D01*
X1633043Y1213264D01*
X1632603Y1213125D01*
X1632141Y1212986D01*
X1631678Y1212893D01*
X1631169Y1212824D01*
X1630637Y1212801D01*
X1628647D01*
X1628485Y1212824D01*
X1628300D01*
X1628045Y1212870D01*
X1627767Y1212916D01*
X1627443Y1212963D01*
X1627119Y1213055D01*
X1626749Y1213148D01*
X1626356Y1213287D01*
X1625939Y1213449D01*
X1625546Y1213634D01*
X1625129Y1213865D01*
X1624713Y1214120D01*
X1624319Y1214421D01*
X1623926Y1214768D01*
X1623903Y1214791D01*
X1623834Y1214860D01*
X1623741Y1214976D01*
X1623602Y1215115D01*
X1623463Y1215323D01*
X1623278Y1215554D01*
X1623093Y1215809D01*
X1622908Y1216133D01*
X1622723Y1216457D01*
X1622538Y1216827D01*
X1622353Y1217244D01*
X1622214Y1217660D01*
X1622075Y1218123D01*
X1621982Y1218609D01*
X1621913Y1219118D01*
X1621890Y1219650D01*
Y1237143D01*
Y1237167D01*
Y1237259D01*
X1621913Y1237421D01*
Y1237606D01*
X1621959Y1237838D01*
X1622006Y1238115D01*
X1622052Y1238416D01*
X1622144Y1238763D01*
X1622237Y1239133D01*
X1622376Y1239504D01*
X1622538Y1239920D01*
X1622723Y1240313D01*
X1622954Y1240730D01*
X1623232Y1241147D01*
X1623533Y1241540D01*
X1623880Y1241933D01*
X1623903Y1241956D01*
X1623972Y1242026D01*
X1624088Y1242118D01*
X1624250Y1242257D01*
X1624435Y1242419D01*
X1624667Y1242604D01*
X1624944Y1242790D01*
X1625245Y1242975D01*
X1625592Y1243160D01*
X1625962Y1243368D01*
X1626356Y1243530D01*
X1626795Y1243692D01*
X1627258Y1243831D01*
X1627721Y1243923D01*
X1628230Y1243993D01*
X1628762Y1244016D01*
X1630752D01*
X1630914Y1243993D01*
D02*
G37*
G36*
X1726341Y1290732D02*
X1726480Y1290686D01*
X1726642Y1290640D01*
X1726827Y1290547D01*
X1727035Y1290432D01*
X1727244Y1290270D01*
X1727267Y1290246D01*
X1727313Y1290177D01*
X1727382Y1290085D01*
X1727475Y1289946D01*
X1727567Y1289784D01*
X1727637Y1289575D01*
X1727683Y1289344D01*
X1727706Y1289090D01*
Y1289066D01*
Y1288974D01*
X1727683Y1288858D01*
X1727637Y1288696D01*
X1727591Y1288511D01*
X1727498Y1288326D01*
X1727359Y1288118D01*
X1727197Y1287909D01*
X1720950Y1281315D01*
X1727359Y1271365D01*
X1727382Y1271342D01*
X1727406Y1271249D01*
X1727475Y1271133D01*
X1727544Y1270994D01*
X1727660Y1270647D01*
X1727683Y1270462D01*
X1727706Y1270300D01*
Y1270277D01*
Y1270185D01*
X1727683Y1270069D01*
X1727637Y1269930D01*
X1727591Y1269745D01*
X1727498Y1269560D01*
X1727359Y1269398D01*
X1727197Y1269213D01*
X1727174Y1269190D01*
X1727105Y1269143D01*
X1727012Y1269074D01*
X1726897Y1268981D01*
X1726734Y1268889D01*
X1726549Y1268819D01*
X1726341Y1268773D01*
X1726110Y1268750D01*
X1725994D01*
X1725878Y1268773D01*
X1725739Y1268819D01*
X1725554Y1268912D01*
X1725369Y1269005D01*
X1725184Y1269166D01*
X1724999Y1269375D01*
X1718751Y1279024D01*
X1715257Y1275368D01*
Y1270370D01*
Y1270347D01*
Y1270254D01*
X1715234Y1270115D01*
X1715211Y1269953D01*
X1715142Y1269768D01*
X1715072Y1269560D01*
X1714957Y1269375D01*
X1714795Y1269190D01*
X1714771Y1269166D01*
X1714725Y1269143D01*
X1714633Y1269074D01*
X1714494Y1269005D01*
X1714332Y1268935D01*
X1714147Y1268889D01*
X1713938Y1268842D01*
X1713684Y1268819D01*
X1713591D01*
X1713452Y1268842D01*
X1713314Y1268866D01*
X1713152Y1268912D01*
X1712967Y1268981D01*
X1712781Y1269074D01*
X1712596Y1269190D01*
X1712573Y1269213D01*
X1712527Y1269259D01*
X1712457Y1269352D01*
X1712365Y1269491D01*
X1712272Y1269652D01*
X1712203Y1269861D01*
X1712157Y1270092D01*
X1712133Y1270370D01*
Y1289113D01*
Y1289136D01*
Y1289228D01*
X1712157Y1289344D01*
X1712203Y1289483D01*
X1712249Y1289668D01*
X1712319Y1289876D01*
X1712434Y1290061D01*
X1712596Y1290270D01*
X1712619Y1290293D01*
X1712689Y1290339D01*
X1712781Y1290385D01*
X1712897Y1290478D01*
X1713059Y1290547D01*
X1713244Y1290594D01*
X1713452Y1290640D01*
X1713684Y1290663D01*
X1713776D01*
X1713892Y1290640D01*
X1714054Y1290617D01*
X1714216Y1290570D01*
X1714401Y1290501D01*
X1714586Y1290408D01*
X1714771Y1290270D01*
X1714795Y1290246D01*
X1714841Y1290200D01*
X1714933Y1290108D01*
X1715026Y1289969D01*
X1715095Y1289807D01*
X1715188Y1289622D01*
X1715234Y1289390D01*
X1715257Y1289113D01*
Y1279903D01*
X1725138Y1290270D01*
X1725161Y1290293D01*
X1725207Y1290339D01*
X1725300Y1290432D01*
X1725415Y1290524D01*
X1725578Y1290594D01*
X1725739Y1290686D01*
X1725948Y1290732D01*
X1726156Y1290756D01*
X1726249D01*
X1726341Y1290732D01*
D02*
G37*
G36*
X1704845Y1290663D02*
X1705007Y1290640D01*
X1705169Y1290594D01*
X1705354Y1290524D01*
X1705539Y1290432D01*
X1705724Y1290293D01*
X1705747Y1290270D01*
X1705793Y1290223D01*
X1705886Y1290131D01*
X1705979Y1289992D01*
X1706048Y1289830D01*
X1706140Y1289622D01*
X1706187Y1289390D01*
X1706210Y1289113D01*
Y1270370D01*
Y1270347D01*
Y1270300D01*
Y1270231D01*
X1706187Y1270138D01*
X1706117Y1269884D01*
X1706025Y1269606D01*
X1705816Y1269305D01*
X1705701Y1269190D01*
X1705539Y1269074D01*
X1705377Y1268958D01*
X1705145Y1268889D01*
X1704914Y1268842D01*
X1704636Y1268819D01*
X1696723D01*
X1696584Y1268842D01*
X1696422D01*
X1696190Y1268866D01*
X1695936Y1268912D01*
X1695658Y1268981D01*
X1695334Y1269051D01*
X1695010Y1269143D01*
X1694663Y1269259D01*
X1694293Y1269398D01*
X1693923Y1269583D01*
X1693553Y1269791D01*
X1693159Y1270023D01*
X1692812Y1270300D01*
X1692442Y1270624D01*
X1692419Y1270647D01*
X1692372Y1270717D01*
X1692280Y1270809D01*
X1692164Y1270948D01*
X1692002Y1271133D01*
X1691863Y1271342D01*
X1691678Y1271573D01*
X1691516Y1271851D01*
X1691354Y1272175D01*
X1691169Y1272499D01*
X1691030Y1272869D01*
X1690892Y1273262D01*
X1690753Y1273679D01*
X1690660Y1274118D01*
X1690614Y1274581D01*
X1690591Y1275067D01*
Y1289113D01*
Y1289136D01*
Y1289228D01*
X1690614Y1289344D01*
X1690660Y1289483D01*
X1690706Y1289668D01*
X1690776Y1289876D01*
X1690892Y1290061D01*
X1691053Y1290270D01*
X1691077Y1290293D01*
X1691146Y1290339D01*
X1691239Y1290408D01*
X1691354Y1290478D01*
X1691516Y1290547D01*
X1691701Y1290617D01*
X1691910Y1290663D01*
X1692141Y1290686D01*
X1692234D01*
X1692349Y1290663D01*
X1692511Y1290640D01*
X1692673Y1290594D01*
X1692858Y1290524D01*
X1693044Y1290432D01*
X1693229Y1290293D01*
X1693252Y1290270D01*
X1693298Y1290223D01*
X1693391Y1290131D01*
X1693483Y1289992D01*
X1693553Y1289830D01*
X1693645Y1289622D01*
X1693691Y1289390D01*
X1693715Y1289113D01*
Y1275067D01*
Y1275044D01*
Y1275021D01*
Y1274951D01*
X1693738Y1274859D01*
X1693761Y1274604D01*
X1693830Y1274303D01*
X1693923Y1273933D01*
X1694085Y1273563D01*
X1694293Y1273193D01*
X1694594Y1272822D01*
X1694617Y1272799D01*
X1694686Y1272753D01*
X1694779Y1272684D01*
X1694895Y1272591D01*
X1695034Y1272475D01*
X1695219Y1272383D01*
X1695589Y1272151D01*
X1695612D01*
X1695705Y1272128D01*
X1695843Y1272082D01*
X1696005Y1272059D01*
X1696190Y1272013D01*
X1696399Y1271966D01*
X1696838Y1271943D01*
X1703086D01*
Y1289113D01*
Y1289136D01*
Y1289228D01*
X1703109Y1289344D01*
X1703155Y1289483D01*
X1703202Y1289668D01*
X1703271Y1289876D01*
X1703387Y1290061D01*
X1703549Y1290270D01*
X1703572Y1290293D01*
X1703641Y1290339D01*
X1703734Y1290408D01*
X1703850Y1290478D01*
X1704012Y1290547D01*
X1704197Y1290617D01*
X1704405Y1290663D01*
X1704636Y1290686D01*
X1704729D01*
X1704845Y1290663D01*
D02*
G37*
G36*
X1848517Y1299965D02*
X1848772Y1299942D01*
X1849096Y1299919D01*
X1849443Y1299872D01*
X1849836Y1299780D01*
X1850276Y1299687D01*
X1850739Y1299572D01*
X1851201Y1299410D01*
X1851687Y1299225D01*
X1852173Y1298993D01*
X1852659Y1298716D01*
X1853145Y1298392D01*
X1853608Y1298021D01*
X1854024Y1297605D01*
X1854048Y1297582D01*
X1854117Y1297512D01*
X1854209Y1297373D01*
X1854325Y1297211D01*
X1854487Y1296980D01*
X1854649Y1296725D01*
X1854834Y1296425D01*
X1855019Y1296101D01*
X1855181Y1295707D01*
X1855366Y1295314D01*
X1855528Y1294874D01*
X1855690Y1294388D01*
X1855806Y1293902D01*
X1855899Y1293370D01*
X1855968Y1292815D01*
X1855991Y1292236D01*
Y1292213D01*
Y1292144D01*
Y1292051D01*
X1855968Y1291913D01*
Y1291751D01*
X1855945Y1291542D01*
X1855922Y1291334D01*
X1855899Y1291080D01*
X1855806Y1290547D01*
X1855667Y1289969D01*
X1855482Y1289344D01*
X1855228Y1288742D01*
Y1288719D01*
X1855204Y1288673D01*
X1855158Y1288580D01*
X1855089Y1288488D01*
X1855019Y1288349D01*
X1854904Y1288187D01*
X1854672Y1287794D01*
X1854348Y1287354D01*
X1853955Y1286868D01*
X1853492Y1286382D01*
X1852937Y1285896D01*
X1852960D01*
X1853006Y1285850D01*
X1853053Y1285804D01*
X1853145Y1285711D01*
X1853400Y1285480D01*
X1853700Y1285179D01*
X1854024Y1284809D01*
X1854395Y1284346D01*
X1854742Y1283814D01*
X1855089Y1283235D01*
Y1283212D01*
X1855135Y1283166D01*
X1855181Y1283073D01*
X1855228Y1282958D01*
X1855297Y1282796D01*
X1855366Y1282610D01*
X1855459Y1282402D01*
X1855528Y1282171D01*
X1855690Y1281662D01*
X1855852Y1281060D01*
X1855945Y1280412D01*
X1855991Y1279718D01*
Y1276617D01*
Y1276571D01*
Y1276479D01*
X1855968Y1276317D01*
X1855945Y1276085D01*
X1855922Y1275807D01*
X1855876Y1275484D01*
X1855806Y1275136D01*
X1855714Y1274743D01*
X1855575Y1274303D01*
X1855436Y1273864D01*
X1855251Y1273424D01*
X1855019Y1272938D01*
X1854742Y1272475D01*
X1854441Y1272013D01*
X1854094Y1271550D01*
X1853677Y1271110D01*
X1853654Y1271087D01*
X1853585Y1271018D01*
X1853446Y1270902D01*
X1853261Y1270763D01*
X1853053Y1270578D01*
X1852775Y1270393D01*
X1852474Y1270185D01*
X1852127Y1269976D01*
X1851757Y1269745D01*
X1851317Y1269537D01*
X1850877Y1269352D01*
X1850391Y1269190D01*
X1849882Y1269028D01*
X1849327Y1268912D01*
X1848772Y1268842D01*
X1848170Y1268819D01*
X1841807D01*
X1841668Y1268842D01*
X1841506Y1268866D01*
X1841321Y1268912D01*
X1841136Y1269005D01*
X1840951Y1269097D01*
X1840766Y1269236D01*
X1840742Y1269259D01*
X1840696Y1269329D01*
X1840650Y1269421D01*
X1840580Y1269560D01*
X1840488Y1269745D01*
X1840441Y1269930D01*
X1840395Y1270138D01*
X1840372Y1270370D01*
Y1270393D01*
Y1270462D01*
X1840395Y1270555D01*
X1840418Y1270694D01*
X1840465Y1270856D01*
X1840534Y1271041D01*
X1840627Y1271226D01*
X1840742Y1271411D01*
X1840766Y1271434D01*
X1840812Y1271504D01*
X1840904Y1271573D01*
X1841043Y1271689D01*
X1841205Y1271781D01*
X1841413Y1271851D01*
X1841645Y1271920D01*
X1841922Y1271943D01*
X1848355D01*
X1848494Y1271966D01*
X1848656Y1271990D01*
X1848864Y1272013D01*
X1849073Y1272059D01*
X1849304Y1272105D01*
X1849836Y1272267D01*
X1850114Y1272383D01*
X1850391Y1272522D01*
X1850669Y1272684D01*
X1850947Y1272869D01*
X1851225Y1273077D01*
X1851479Y1273308D01*
X1851502Y1273332D01*
X1851548Y1273378D01*
X1851618Y1273447D01*
X1851687Y1273563D01*
X1851803Y1273679D01*
X1851919Y1273841D01*
X1852034Y1274026D01*
X1852173Y1274234D01*
X1852428Y1274720D01*
X1852659Y1275275D01*
X1852728Y1275599D01*
X1852798Y1275923D01*
X1852844Y1276270D01*
X1852867Y1276617D01*
Y1279718D01*
Y1279741D01*
Y1279811D01*
Y1279903D01*
X1852844Y1280042D01*
X1852821Y1280204D01*
X1852798Y1280389D01*
X1852752Y1280621D01*
X1852705Y1280852D01*
X1852543Y1281361D01*
X1852428Y1281639D01*
X1852289Y1281916D01*
X1852127Y1282217D01*
X1851965Y1282495D01*
X1851734Y1282773D01*
X1851502Y1283027D01*
X1851479Y1283050D01*
X1851433Y1283096D01*
X1851363Y1283166D01*
X1851271Y1283235D01*
X1851132Y1283351D01*
X1850970Y1283467D01*
X1850785Y1283582D01*
X1850577Y1283721D01*
X1850345Y1283860D01*
X1850091Y1283976D01*
X1849535Y1284207D01*
X1849211Y1284276D01*
X1848887Y1284346D01*
X1848540Y1284392D01*
X1848170Y1284415D01*
X1844931D01*
X1844792Y1284438D01*
X1844630Y1284462D01*
X1844445Y1284508D01*
X1844259Y1284601D01*
X1844074Y1284693D01*
X1843889Y1284832D01*
X1843866Y1284855D01*
X1843820Y1284924D01*
X1843750Y1285017D01*
X1843681Y1285156D01*
X1843612Y1285341D01*
X1843542Y1285526D01*
X1843496Y1285734D01*
X1843473Y1285966D01*
Y1285989D01*
Y1286058D01*
X1843496Y1286151D01*
X1843519Y1286290D01*
X1843565Y1286452D01*
X1843635Y1286637D01*
X1843727Y1286822D01*
X1843866Y1287007D01*
X1843889Y1287030D01*
X1843936Y1287099D01*
X1844028Y1287169D01*
X1844167Y1287285D01*
X1844329Y1287377D01*
X1844537Y1287447D01*
X1844769Y1287516D01*
X1845046Y1287539D01*
X1848378D01*
X1848517Y1287562D01*
X1848702Y1287585D01*
X1848911Y1287609D01*
X1849119Y1287655D01*
X1849373Y1287724D01*
X1849906Y1287909D01*
X1850206Y1288025D01*
X1850484Y1288164D01*
X1850762Y1288326D01*
X1851039Y1288534D01*
X1851317Y1288766D01*
X1851572Y1289020D01*
X1851595Y1289043D01*
X1851618Y1289090D01*
X1851687Y1289159D01*
X1851757Y1289252D01*
X1851849Y1289390D01*
X1851942Y1289552D01*
X1852034Y1289737D01*
X1852150Y1289922D01*
X1852358Y1290408D01*
X1852543Y1290964D01*
X1852682Y1291589D01*
X1852705Y1291936D01*
X1852728Y1292283D01*
Y1292306D01*
Y1292375D01*
Y1292468D01*
X1852705Y1292607D01*
Y1292769D01*
X1852682Y1292954D01*
X1852590Y1293394D01*
X1852451Y1293879D01*
X1852266Y1294412D01*
X1851988Y1294944D01*
X1851803Y1295198D01*
X1851618Y1295430D01*
X1851595Y1295453D01*
X1851572Y1295499D01*
X1851479Y1295569D01*
X1851386Y1295661D01*
X1851271Y1295754D01*
X1851109Y1295892D01*
X1850924Y1296008D01*
X1850715Y1296147D01*
X1850484Y1296286D01*
X1850229Y1296402D01*
X1849952Y1296540D01*
X1849628Y1296633D01*
X1849304Y1296725D01*
X1848957Y1296795D01*
X1848563Y1296841D01*
X1848170Y1296864D01*
X1841807D01*
X1841668Y1296888D01*
X1841506Y1296911D01*
X1841321Y1296980D01*
X1841136Y1297050D01*
X1840951Y1297165D01*
X1840766Y1297304D01*
X1840742Y1297327D01*
X1840696Y1297397D01*
X1840650Y1297489D01*
X1840580Y1297628D01*
X1840488Y1297790D01*
X1840441Y1297975D01*
X1840395Y1298183D01*
X1840372Y1298415D01*
Y1298438D01*
Y1298507D01*
X1840395Y1298623D01*
X1840418Y1298762D01*
X1840465Y1298924D01*
X1840534Y1299109D01*
X1840627Y1299294D01*
X1840766Y1299479D01*
X1840789Y1299502D01*
X1840835Y1299548D01*
X1840927Y1299641D01*
X1841066Y1299734D01*
X1841228Y1299826D01*
X1841436Y1299919D01*
X1841668Y1299965D01*
X1841922Y1299988D01*
X1848332D01*
X1848517Y1299965D01*
D02*
G37*
G36*
X1825748Y1300011D02*
X1826003Y1299988D01*
X1826326Y1299965D01*
X1826697Y1299896D01*
X1827090Y1299826D01*
X1827553Y1299734D01*
X1828016Y1299595D01*
X1828525Y1299433D01*
X1829034Y1299248D01*
X1829543Y1299016D01*
X1830075Y1298739D01*
X1830584Y1298415D01*
X1831093Y1298044D01*
X1831579Y1297605D01*
X1831602Y1297582D01*
X1831695Y1297489D01*
X1831810Y1297350D01*
X1831973Y1297165D01*
X1832181Y1296934D01*
X1832389Y1296656D01*
X1832620Y1296332D01*
X1832852Y1295985D01*
X1833083Y1295569D01*
X1833315Y1295129D01*
X1833546Y1294666D01*
X1833731Y1294157D01*
X1833893Y1293602D01*
X1834009Y1293046D01*
X1834101Y1292468D01*
X1834124Y1291843D01*
Y1291820D01*
Y1291751D01*
Y1291658D01*
X1834101Y1291519D01*
Y1291334D01*
X1834078Y1291126D01*
X1834032Y1290894D01*
X1834009Y1290640D01*
X1833870Y1290061D01*
X1833685Y1289413D01*
X1833453Y1288719D01*
X1833291Y1288372D01*
X1833106Y1288002D01*
X1823017Y1271943D01*
X1832829D01*
X1832944Y1271920D01*
X1833083Y1271874D01*
X1833268Y1271827D01*
X1833453Y1271735D01*
X1833638Y1271619D01*
X1833801Y1271457D01*
X1833824Y1271434D01*
X1833870Y1271365D01*
X1833939Y1271272D01*
X1834032Y1271133D01*
X1834124Y1270971D01*
X1834194Y1270786D01*
X1834240Y1270601D01*
X1834263Y1270370D01*
Y1270347D01*
Y1270277D01*
X1834240Y1270185D01*
X1834217Y1270046D01*
X1834171Y1269884D01*
X1834101Y1269699D01*
X1834009Y1269514D01*
X1833870Y1269329D01*
X1833847Y1269305D01*
X1833801Y1269259D01*
X1833708Y1269166D01*
X1833569Y1269074D01*
X1833407Y1268981D01*
X1833222Y1268889D01*
X1832991Y1268842D01*
X1832713Y1268819D01*
X1820056D01*
X1819963Y1268842D01*
X1819686Y1268889D01*
X1819385Y1268981D01*
X1819061Y1269120D01*
X1818783Y1269329D01*
X1818690Y1269467D01*
X1818598Y1269652D01*
X1818552Y1269837D01*
X1818528Y1270046D01*
Y1270069D01*
Y1270138D01*
X1818552Y1270254D01*
X1818575Y1270393D01*
X1818621Y1270555D01*
X1818690Y1270763D01*
X1818783Y1270994D01*
X1818899Y1271226D01*
X1830399Y1289575D01*
Y1289599D01*
X1830422Y1289622D01*
X1830445Y1289691D01*
X1830492Y1289784D01*
X1830584Y1290015D01*
X1830700Y1290339D01*
X1830815Y1290686D01*
X1830908Y1291080D01*
X1830977Y1291519D01*
X1831001Y1291936D01*
Y1291959D01*
Y1292028D01*
Y1292121D01*
X1830977Y1292260D01*
X1830954Y1292445D01*
X1830908Y1292653D01*
X1830862Y1292861D01*
X1830815Y1293116D01*
X1830607Y1293648D01*
X1830492Y1293949D01*
X1830330Y1294250D01*
X1830168Y1294527D01*
X1829936Y1294828D01*
X1829705Y1295129D01*
X1829427Y1295407D01*
X1829404Y1295430D01*
X1829288Y1295522D01*
X1829149Y1295638D01*
X1828941Y1295800D01*
X1828687Y1295985D01*
X1828386Y1296170D01*
X1828062Y1296332D01*
X1827715Y1296494D01*
X1827669Y1296517D01*
X1827553Y1296564D01*
X1827345Y1296633D01*
X1827090Y1296702D01*
X1826766Y1296772D01*
X1826419Y1296841D01*
X1826026Y1296888D01*
X1825609Y1296911D01*
X1825401D01*
X1825170Y1296888D01*
X1824892Y1296841D01*
X1824545Y1296749D01*
X1824151Y1296656D01*
X1823758Y1296494D01*
X1823342Y1296286D01*
X1823318D01*
X1823295Y1296263D01*
X1823156Y1296170D01*
X1822948Y1296008D01*
X1822694Y1295800D01*
X1822416Y1295545D01*
X1822115Y1295222D01*
X1821814Y1294874D01*
X1821537Y1294481D01*
Y1294458D01*
X1821514Y1294435D01*
X1821398Y1294319D01*
X1821213Y1294134D01*
X1820935Y1293926D01*
X1820241Y1293787D01*
X1820148D01*
X1820033Y1293810D01*
X1819871Y1293833D01*
X1819709Y1293879D01*
X1819523Y1293972D01*
X1819315Y1294064D01*
X1819130Y1294203D01*
X1819107Y1294227D01*
X1819061Y1294273D01*
X1818968Y1294388D01*
X1818876Y1294504D01*
X1818783Y1294666D01*
X1818690Y1294851D01*
X1818644Y1295060D01*
X1818621Y1295291D01*
Y1295314D01*
Y1295360D01*
X1818644Y1295430D01*
X1818667Y1295522D01*
X1818690Y1295661D01*
X1818737Y1295800D01*
X1818806Y1295985D01*
X1818899Y1296193D01*
X1818922Y1296216D01*
X1818945Y1296263D01*
X1819014Y1296355D01*
X1819084Y1296471D01*
X1819200Y1296610D01*
X1819338Y1296772D01*
X1819662Y1297165D01*
X1820079Y1297582D01*
X1820565Y1298044D01*
X1821143Y1298507D01*
X1821791Y1298924D01*
X1821837Y1298947D01*
X1821953Y1299016D01*
X1822115Y1299109D01*
X1822346Y1299225D01*
X1822624Y1299340D01*
X1822925Y1299479D01*
X1823596Y1299734D01*
X1823642Y1299757D01*
X1823758Y1299780D01*
X1823943Y1299826D01*
X1824174Y1299896D01*
X1824452Y1299942D01*
X1824753Y1299988D01*
X1825077Y1300011D01*
X1825401Y1300034D01*
X1825563D01*
X1825748Y1300011D01*
D02*
G37*
G36*
X1805825D02*
X1806010D01*
X1806265Y1299965D01*
X1806542Y1299919D01*
X1806843Y1299872D01*
X1807190Y1299780D01*
X1807560Y1299687D01*
X1807954Y1299548D01*
X1808347Y1299387D01*
X1808741Y1299178D01*
X1809157Y1298947D01*
X1809574Y1298692D01*
X1809967Y1298368D01*
X1810360Y1298021D01*
X1810383Y1297998D01*
X1810453Y1297929D01*
X1810545Y1297813D01*
X1810684Y1297674D01*
X1810846Y1297466D01*
X1811008Y1297235D01*
X1811193Y1296980D01*
X1811402Y1296679D01*
X1811587Y1296332D01*
X1811772Y1295962D01*
X1811934Y1295569D01*
X1812096Y1295129D01*
X1812235Y1294666D01*
X1812327Y1294203D01*
X1812397Y1293694D01*
X1812420Y1293162D01*
Y1275669D01*
Y1275646D01*
Y1275553D01*
X1812397Y1275391D01*
Y1275206D01*
X1812350Y1274975D01*
X1812304Y1274674D01*
X1812258Y1274373D01*
X1812165Y1274026D01*
X1812073Y1273655D01*
X1811934Y1273285D01*
X1811772Y1272869D01*
X1811564Y1272475D01*
X1811332Y1272059D01*
X1811078Y1271642D01*
X1810754Y1271249D01*
X1810407Y1270856D01*
X1810383Y1270833D01*
X1810314Y1270763D01*
X1810198Y1270671D01*
X1810060Y1270532D01*
X1809851Y1270393D01*
X1809620Y1270208D01*
X1809365Y1270023D01*
X1809064Y1269837D01*
X1808717Y1269652D01*
X1808347Y1269467D01*
X1807954Y1269282D01*
X1807514Y1269143D01*
X1807051Y1269005D01*
X1806589Y1268912D01*
X1806080Y1268842D01*
X1805547Y1268819D01*
X1803557D01*
X1803395Y1268842D01*
X1803210D01*
X1802956Y1268889D01*
X1802678Y1268935D01*
X1802354Y1268981D01*
X1802030Y1269074D01*
X1801660Y1269166D01*
X1801266Y1269305D01*
X1800850Y1269467D01*
X1800457Y1269652D01*
X1800040Y1269884D01*
X1799624Y1270138D01*
X1799230Y1270439D01*
X1798837Y1270786D01*
X1798814Y1270809D01*
X1798744Y1270879D01*
X1798652Y1270994D01*
X1798513Y1271133D01*
X1798374Y1271342D01*
X1798189Y1271573D01*
X1798004Y1271827D01*
X1797819Y1272151D01*
X1797634Y1272475D01*
X1797448Y1272846D01*
X1797263Y1273262D01*
X1797124Y1273679D01*
X1796986Y1274141D01*
X1796893Y1274627D01*
X1796824Y1275136D01*
X1796801Y1275669D01*
Y1293162D01*
Y1293185D01*
Y1293278D01*
X1796824Y1293440D01*
Y1293625D01*
X1796870Y1293856D01*
X1796916Y1294134D01*
X1796963Y1294435D01*
X1797055Y1294782D01*
X1797148Y1295152D01*
X1797287Y1295522D01*
X1797448Y1295939D01*
X1797634Y1296332D01*
X1797865Y1296749D01*
X1798143Y1297165D01*
X1798443Y1297558D01*
X1798791Y1297952D01*
X1798814Y1297975D01*
X1798883Y1298044D01*
X1798999Y1298137D01*
X1799161Y1298276D01*
X1799346Y1298438D01*
X1799577Y1298623D01*
X1799855Y1298808D01*
X1800156Y1298993D01*
X1800503Y1299178D01*
X1800873Y1299387D01*
X1801266Y1299548D01*
X1801706Y1299711D01*
X1802169Y1299849D01*
X1802632Y1299942D01*
X1803141Y1300011D01*
X1803673Y1300034D01*
X1805663D01*
X1805825Y1300011D01*
D02*
G37*
G36*
X1782014D02*
X1782269Y1299988D01*
X1782593Y1299965D01*
X1782963Y1299896D01*
X1783357Y1299826D01*
X1783819Y1299734D01*
X1784282Y1299595D01*
X1784791Y1299433D01*
X1785300Y1299248D01*
X1785809Y1299016D01*
X1786342Y1298739D01*
X1786851Y1298415D01*
X1787360Y1298044D01*
X1787846Y1297605D01*
X1787869Y1297582D01*
X1787961Y1297489D01*
X1788077Y1297350D01*
X1788239Y1297165D01*
X1788447Y1296934D01*
X1788656Y1296656D01*
X1788887Y1296332D01*
X1789118Y1295985D01*
X1789350Y1295569D01*
X1789581Y1295129D01*
X1789812Y1294666D01*
X1789998Y1294157D01*
X1790160Y1293602D01*
X1790275Y1293046D01*
X1790368Y1292468D01*
X1790391Y1291843D01*
Y1291820D01*
Y1291751D01*
Y1291658D01*
X1790368Y1291519D01*
Y1291334D01*
X1790345Y1291126D01*
X1790298Y1290894D01*
X1790275Y1290640D01*
X1790137Y1290061D01*
X1789951Y1289413D01*
X1789720Y1288719D01*
X1789558Y1288372D01*
X1789373Y1288002D01*
X1779284Y1271943D01*
X1789095D01*
X1789211Y1271920D01*
X1789350Y1271874D01*
X1789535Y1271827D01*
X1789720Y1271735D01*
X1789905Y1271619D01*
X1790067Y1271457D01*
X1790090Y1271434D01*
X1790137Y1271365D01*
X1790206Y1271272D01*
X1790298Y1271133D01*
X1790391Y1270971D01*
X1790460Y1270786D01*
X1790507Y1270601D01*
X1790530Y1270370D01*
Y1270347D01*
Y1270277D01*
X1790507Y1270185D01*
X1790484Y1270046D01*
X1790437Y1269884D01*
X1790368Y1269699D01*
X1790275Y1269514D01*
X1790137Y1269329D01*
X1790113Y1269305D01*
X1790067Y1269259D01*
X1789975Y1269166D01*
X1789836Y1269074D01*
X1789674Y1268981D01*
X1789489Y1268889D01*
X1789257Y1268842D01*
X1788979Y1268819D01*
X1776322D01*
X1776230Y1268842D01*
X1775952Y1268889D01*
X1775651Y1268981D01*
X1775327Y1269120D01*
X1775050Y1269329D01*
X1774957Y1269467D01*
X1774864Y1269652D01*
X1774818Y1269837D01*
X1774795Y1270046D01*
Y1270069D01*
Y1270138D01*
X1774818Y1270254D01*
X1774841Y1270393D01*
X1774888Y1270555D01*
X1774957Y1270763D01*
X1775050Y1270994D01*
X1775165Y1271226D01*
X1786665Y1289575D01*
Y1289599D01*
X1786689Y1289622D01*
X1786712Y1289691D01*
X1786758Y1289784D01*
X1786851Y1290015D01*
X1786966Y1290339D01*
X1787082Y1290686D01*
X1787175Y1291080D01*
X1787244Y1291519D01*
X1787267Y1291936D01*
Y1291959D01*
Y1292028D01*
Y1292121D01*
X1787244Y1292260D01*
X1787221Y1292445D01*
X1787175Y1292653D01*
X1787128Y1292861D01*
X1787082Y1293116D01*
X1786874Y1293648D01*
X1786758Y1293949D01*
X1786596Y1294250D01*
X1786434Y1294527D01*
X1786203Y1294828D01*
X1785971Y1295129D01*
X1785694Y1295407D01*
X1785670Y1295430D01*
X1785555Y1295522D01*
X1785416Y1295638D01*
X1785208Y1295800D01*
X1784953Y1295985D01*
X1784652Y1296170D01*
X1784328Y1296332D01*
X1783981Y1296494D01*
X1783935Y1296517D01*
X1783819Y1296564D01*
X1783611Y1296633D01*
X1783357Y1296702D01*
X1783033Y1296772D01*
X1782686Y1296841D01*
X1782292Y1296888D01*
X1781876Y1296911D01*
X1781667D01*
X1781436Y1296888D01*
X1781158Y1296841D01*
X1780811Y1296749D01*
X1780418Y1296656D01*
X1780025Y1296494D01*
X1779608Y1296286D01*
X1779585D01*
X1779562Y1296263D01*
X1779423Y1296170D01*
X1779215Y1296008D01*
X1778960Y1295800D01*
X1778682Y1295545D01*
X1778382Y1295222D01*
X1778081Y1294874D01*
X1777803Y1294481D01*
Y1294458D01*
X1777780Y1294435D01*
X1777664Y1294319D01*
X1777479Y1294134D01*
X1777202Y1293926D01*
X1776507Y1293787D01*
X1776415D01*
X1776299Y1293810D01*
X1776137Y1293833D01*
X1775975Y1293879D01*
X1775790Y1293972D01*
X1775582Y1294064D01*
X1775397Y1294203D01*
X1775374Y1294227D01*
X1775327Y1294273D01*
X1775235Y1294388D01*
X1775142Y1294504D01*
X1775050Y1294666D01*
X1774957Y1294851D01*
X1774911Y1295060D01*
X1774888Y1295291D01*
Y1295314D01*
Y1295360D01*
X1774911Y1295430D01*
X1774934Y1295522D01*
X1774957Y1295661D01*
X1775003Y1295800D01*
X1775073Y1295985D01*
X1775165Y1296193D01*
X1775188Y1296216D01*
X1775211Y1296263D01*
X1775281Y1296355D01*
X1775350Y1296471D01*
X1775466Y1296610D01*
X1775605Y1296772D01*
X1775929Y1297165D01*
X1776345Y1297582D01*
X1776831Y1298044D01*
X1777410Y1298507D01*
X1778058Y1298924D01*
X1778104Y1298947D01*
X1778220Y1299016D01*
X1778382Y1299109D01*
X1778613Y1299225D01*
X1778891Y1299340D01*
X1779191Y1299479D01*
X1779863Y1299734D01*
X1779909Y1299757D01*
X1780025Y1299780D01*
X1780210Y1299826D01*
X1780441Y1299896D01*
X1780719Y1299942D01*
X1781019Y1299988D01*
X1781344Y1300011D01*
X1781667Y1300034D01*
X1781829D01*
X1782014Y1300011D01*
D02*
G37*
G36*
X1748624Y1290663D02*
X1748879Y1290594D01*
X1749157Y1290501D01*
X1749457Y1290293D01*
X1749573Y1290177D01*
X1749689Y1290015D01*
X1749805Y1289853D01*
X1749874Y1289622D01*
X1749920Y1289390D01*
X1749943Y1289113D01*
Y1275090D01*
Y1275044D01*
Y1274928D01*
X1749966Y1274743D01*
X1750013Y1274512D01*
X1750082Y1274211D01*
X1750198Y1273887D01*
X1750337Y1273540D01*
X1750522Y1273170D01*
X1750545Y1273123D01*
X1750614Y1273031D01*
X1750753Y1272869D01*
X1750938Y1272684D01*
X1751147Y1272475D01*
X1751424Y1272244D01*
X1751725Y1272036D01*
X1752095Y1271827D01*
X1752142Y1271804D01*
X1752257Y1271758D01*
X1752396Y1271642D01*
X1752581Y1271504D01*
X1752766Y1271295D01*
X1752905Y1271064D01*
X1753021Y1270763D01*
X1753067Y1270416D01*
Y1270393D01*
Y1270300D01*
X1753044Y1270185D01*
X1753021Y1270023D01*
X1752951Y1269837D01*
X1752882Y1269652D01*
X1752766Y1269467D01*
X1752628Y1269282D01*
X1752604Y1269259D01*
X1752558Y1269213D01*
X1752466Y1269143D01*
X1752350Y1269051D01*
X1752188Y1268958D01*
X1752003Y1268889D01*
X1751771Y1268842D01*
X1751517Y1268819D01*
X1751401D01*
X1751308Y1268842D01*
X1751100Y1268889D01*
X1750869Y1268958D01*
X1750846D01*
X1750800Y1268981D01*
X1750730Y1269028D01*
X1750614Y1269074D01*
X1750475Y1269143D01*
X1750337Y1269213D01*
X1749966Y1269421D01*
X1749573Y1269699D01*
X1749157Y1270023D01*
X1748740Y1270416D01*
X1748347Y1270879D01*
X1748324Y1270833D01*
X1748208Y1270740D01*
X1748046Y1270578D01*
X1747791Y1270370D01*
X1747514Y1270138D01*
X1747143Y1269884D01*
X1746727Y1269629D01*
X1746264Y1269398D01*
X1746241D01*
X1746218Y1269375D01*
X1746149Y1269352D01*
X1746033Y1269305D01*
X1745778Y1269213D01*
X1745454Y1269120D01*
X1745061Y1269005D01*
X1744644Y1268912D01*
X1744182Y1268842D01*
X1743696Y1268819D01*
X1740456D01*
X1740317Y1268842D01*
X1740155D01*
X1739924Y1268866D01*
X1739669Y1268912D01*
X1739392Y1268981D01*
X1739068Y1269051D01*
X1738744Y1269143D01*
X1738397Y1269259D01*
X1738026Y1269398D01*
X1737656Y1269583D01*
X1737286Y1269791D01*
X1736893Y1270023D01*
X1736546Y1270300D01*
X1736175Y1270624D01*
X1736152Y1270647D01*
X1736106Y1270717D01*
X1736013Y1270809D01*
X1735898Y1270948D01*
X1735736Y1271133D01*
X1735597Y1271342D01*
X1735412Y1271573D01*
X1735250Y1271851D01*
X1735088Y1272175D01*
X1734903Y1272499D01*
X1734764Y1272869D01*
X1734625Y1273262D01*
X1734486Y1273679D01*
X1734394Y1274118D01*
X1734347Y1274581D01*
X1734324Y1275067D01*
Y1284438D01*
Y1284462D01*
Y1284554D01*
X1734347Y1284693D01*
Y1284878D01*
X1734371Y1285086D01*
X1734417Y1285341D01*
X1734486Y1285642D01*
X1734556Y1285943D01*
X1734648Y1286290D01*
X1734764Y1286637D01*
X1734926Y1287007D01*
X1735088Y1287377D01*
X1735296Y1287747D01*
X1735551Y1288118D01*
X1735828Y1288488D01*
X1736152Y1288835D01*
X1736175Y1288858D01*
X1736245Y1288904D01*
X1736337Y1288997D01*
X1736476Y1289136D01*
X1736661Y1289275D01*
X1736870Y1289413D01*
X1737124Y1289599D01*
X1737402Y1289761D01*
X1737703Y1289922D01*
X1738026Y1290108D01*
X1738397Y1290246D01*
X1738790Y1290408D01*
X1739207Y1290524D01*
X1739646Y1290617D01*
X1740086Y1290663D01*
X1740572Y1290686D01*
X1748509D01*
X1748624Y1290663D01*
D02*
G37*
G36*
X1683024D02*
X1683279Y1290594D01*
X1683556Y1290501D01*
X1683857Y1290293D01*
X1683973Y1290177D01*
X1684089Y1290015D01*
X1684204Y1289853D01*
X1684274Y1289622D01*
X1684320Y1289390D01*
X1684343Y1289113D01*
Y1270370D01*
Y1270347D01*
Y1270254D01*
X1684320Y1270115D01*
X1684297Y1269953D01*
X1684227Y1269768D01*
X1684158Y1269560D01*
X1684042Y1269375D01*
X1683880Y1269190D01*
X1683857Y1269166D01*
X1683811Y1269143D01*
X1683718Y1269074D01*
X1683580Y1269005D01*
X1683418Y1268935D01*
X1683232Y1268889D01*
X1683024Y1268842D01*
X1682770Y1268819D01*
X1682677D01*
X1682538Y1268842D01*
X1682399Y1268866D01*
X1682237Y1268912D01*
X1682052Y1268981D01*
X1681867Y1269074D01*
X1681682Y1269190D01*
X1681659Y1269213D01*
X1681613Y1269259D01*
X1681543Y1269352D01*
X1681451Y1269491D01*
X1681358Y1269652D01*
X1681289Y1269861D01*
X1681242Y1270092D01*
X1681219Y1270370D01*
Y1287562D01*
X1677610D01*
X1671778Y1269884D01*
Y1269861D01*
X1671755Y1269791D01*
X1671709Y1269699D01*
X1671640Y1269583D01*
X1671454Y1269329D01*
X1671177Y1269051D01*
X1671154Y1269028D01*
X1671107D01*
X1671038Y1269005D01*
X1670922Y1268958D01*
X1670783Y1268935D01*
X1670598Y1268866D01*
X1670344Y1268819D01*
X1670251D01*
X1670112Y1268842D01*
X1669973Y1268866D01*
X1669812Y1268935D01*
X1669626Y1269005D01*
X1669441Y1269120D01*
X1669256Y1269259D01*
X1669233Y1269282D01*
X1669164Y1269329D01*
X1669094Y1269421D01*
X1669002Y1269537D01*
X1668886Y1269676D01*
X1668817Y1269861D01*
X1668747Y1270069D01*
X1668724Y1270300D01*
X1668840Y1270856D01*
X1675018Y1289599D01*
Y1289622D01*
X1675041Y1289645D01*
X1675087Y1289761D01*
X1675180Y1289946D01*
X1675342Y1290154D01*
X1675527Y1290339D01*
X1675782Y1290524D01*
X1676105Y1290640D01*
X1676291Y1290686D01*
X1682908D01*
X1683024Y1290663D01*
D02*
G37*
G36*
X1656645D02*
X1656877Y1290640D01*
X1657108Y1290594D01*
X1657409Y1290524D01*
X1657710Y1290455D01*
X1658057Y1290362D01*
X1658404Y1290246D01*
X1658751Y1290108D01*
X1659121Y1289922D01*
X1659514Y1289714D01*
X1659885Y1289483D01*
X1660255Y1289205D01*
X1660602Y1288881D01*
X1660625Y1288858D01*
X1660695Y1288789D01*
X1660787Y1288696D01*
X1660903Y1288557D01*
X1661042Y1288372D01*
X1661204Y1288164D01*
X1661366Y1287933D01*
X1661551Y1287655D01*
X1661713Y1287331D01*
X1661875Y1287007D01*
X1662037Y1286637D01*
X1662176Y1286243D01*
X1662314Y1285827D01*
X1662407Y1285387D01*
X1662453Y1284924D01*
X1662476Y1284438D01*
Y1270370D01*
Y1270347D01*
Y1270254D01*
X1662453Y1270115D01*
X1662430Y1269953D01*
X1662361Y1269768D01*
X1662291Y1269560D01*
X1662176Y1269375D01*
X1662014Y1269190D01*
X1661991Y1269166D01*
X1661944Y1269143D01*
X1661852Y1269074D01*
X1661713Y1269005D01*
X1661551Y1268935D01*
X1661366Y1268889D01*
X1661157Y1268842D01*
X1660903Y1268819D01*
X1660810D01*
X1660672Y1268842D01*
X1660533Y1268866D01*
X1660371Y1268912D01*
X1660186Y1268981D01*
X1660000Y1269074D01*
X1659815Y1269190D01*
X1659792Y1269213D01*
X1659746Y1269259D01*
X1659677Y1269352D01*
X1659584Y1269491D01*
X1659491Y1269652D01*
X1659422Y1269861D01*
X1659376Y1270092D01*
X1659353Y1270370D01*
Y1284438D01*
Y1284462D01*
Y1284508D01*
Y1284554D01*
X1659329Y1284647D01*
X1659306Y1284901D01*
X1659237Y1285202D01*
X1659144Y1285549D01*
X1658982Y1285919D01*
X1658751Y1286290D01*
X1658450Y1286637D01*
X1658404Y1286683D01*
X1658288Y1286776D01*
X1658103Y1286938D01*
X1657849Y1287099D01*
X1657525Y1287262D01*
X1657154Y1287424D01*
X1656715Y1287516D01*
X1656229Y1287562D01*
X1649981D01*
Y1270370D01*
Y1270347D01*
Y1270254D01*
X1649958Y1270115D01*
X1649935Y1269953D01*
X1649865Y1269768D01*
X1649796Y1269560D01*
X1649680Y1269375D01*
X1649518Y1269190D01*
X1649495Y1269166D01*
X1649449Y1269143D01*
X1649356Y1269074D01*
X1649218Y1269005D01*
X1649055Y1268935D01*
X1648870Y1268889D01*
X1648662Y1268842D01*
X1648408Y1268819D01*
X1648315D01*
X1648176Y1268842D01*
X1648037Y1268866D01*
X1647875Y1268912D01*
X1647690Y1268981D01*
X1647505Y1269074D01*
X1647320Y1269190D01*
X1647297Y1269213D01*
X1647251Y1269259D01*
X1647181Y1269352D01*
X1647089Y1269491D01*
X1646996Y1269652D01*
X1646927Y1269861D01*
X1646880Y1270092D01*
X1646857Y1270370D01*
Y1289113D01*
Y1289136D01*
Y1289182D01*
Y1289252D01*
X1646880Y1289367D01*
X1646950Y1289622D01*
X1647042Y1289899D01*
X1647227Y1290200D01*
X1647366Y1290316D01*
X1647505Y1290432D01*
X1647690Y1290547D01*
X1647899Y1290617D01*
X1648130Y1290663D01*
X1648408Y1290686D01*
X1656483D01*
X1656645Y1290663D01*
D02*
G37*
G36*
X1634778D02*
X1635010Y1290640D01*
X1635264Y1290594D01*
X1635542Y1290524D01*
X1635866Y1290455D01*
X1636190Y1290362D01*
X1636537Y1290246D01*
X1636907Y1290085D01*
X1637278Y1289922D01*
X1637648Y1289714D01*
X1638018Y1289460D01*
X1638388Y1289182D01*
X1638735Y1288858D01*
X1638759Y1288835D01*
X1638828Y1288766D01*
X1638920Y1288673D01*
X1639036Y1288534D01*
X1639175Y1288349D01*
X1639337Y1288141D01*
X1639499Y1287909D01*
X1639684Y1287632D01*
X1639846Y1287308D01*
X1640008Y1286984D01*
X1640170Y1286614D01*
X1640309Y1286220D01*
X1640448Y1285804D01*
X1640540Y1285364D01*
X1640587Y1284924D01*
X1640610Y1284438D01*
Y1279741D01*
Y1279718D01*
Y1279672D01*
Y1279602D01*
X1640587Y1279510D01*
X1640517Y1279255D01*
X1640424Y1278978D01*
X1640216Y1278677D01*
X1640101Y1278561D01*
X1639939Y1278445D01*
X1639777Y1278330D01*
X1639545Y1278260D01*
X1639314Y1278214D01*
X1639036Y1278191D01*
X1628114D01*
Y1275067D01*
Y1275044D01*
Y1275021D01*
Y1274951D01*
X1628138Y1274859D01*
X1628161Y1274604D01*
X1628230Y1274303D01*
X1628323Y1273933D01*
X1628485Y1273563D01*
X1628693Y1273193D01*
X1628994Y1272822D01*
X1629017Y1272799D01*
X1629086Y1272753D01*
X1629179Y1272684D01*
X1629294Y1272591D01*
X1629433Y1272475D01*
X1629618Y1272383D01*
X1629989Y1272151D01*
X1630012D01*
X1630104Y1272128D01*
X1630243Y1272082D01*
X1630405Y1272059D01*
X1630590Y1272013D01*
X1630798Y1271966D01*
X1631238Y1271943D01*
X1639152D01*
X1639268Y1271920D01*
X1639429Y1271874D01*
X1639592Y1271827D01*
X1639777Y1271735D01*
X1639962Y1271619D01*
X1640147Y1271457D01*
X1640170Y1271434D01*
X1640216Y1271365D01*
X1640286Y1271272D01*
X1640378Y1271133D01*
X1640471Y1270971D01*
X1640540Y1270786D01*
X1640587Y1270601D01*
X1640610Y1270370D01*
Y1270347D01*
Y1270277D01*
X1640587Y1270185D01*
X1640563Y1270046D01*
X1640517Y1269884D01*
X1640448Y1269699D01*
X1640355Y1269514D01*
X1640216Y1269329D01*
X1640193Y1269305D01*
X1640147Y1269259D01*
X1640054Y1269166D01*
X1639915Y1269074D01*
X1639754Y1268981D01*
X1639545Y1268889D01*
X1639314Y1268842D01*
X1639036Y1268819D01*
X1631122D01*
X1630984Y1268842D01*
X1630822D01*
X1630590Y1268866D01*
X1630336Y1268912D01*
X1630058Y1268981D01*
X1629734Y1269051D01*
X1629410Y1269143D01*
X1629040Y1269259D01*
X1628693Y1269398D01*
X1628300Y1269583D01*
X1627929Y1269791D01*
X1627559Y1270023D01*
X1627189Y1270300D01*
X1626842Y1270624D01*
X1626819Y1270647D01*
X1626772Y1270717D01*
X1626680Y1270809D01*
X1626564Y1270948D01*
X1626402Y1271133D01*
X1626263Y1271342D01*
X1626078Y1271596D01*
X1625916Y1271874D01*
X1625754Y1272175D01*
X1625569Y1272522D01*
X1625430Y1272869D01*
X1625291Y1273262D01*
X1625152Y1273679D01*
X1625060Y1274118D01*
X1625014Y1274581D01*
X1624991Y1275067D01*
Y1284438D01*
Y1284462D01*
Y1284554D01*
X1625014Y1284693D01*
Y1284855D01*
X1625037Y1285086D01*
X1625083Y1285318D01*
X1625152Y1285619D01*
X1625222Y1285919D01*
X1625314Y1286266D01*
X1625430Y1286614D01*
X1625569Y1286961D01*
X1625754Y1287331D01*
X1625962Y1287724D01*
X1626194Y1288094D01*
X1626472Y1288465D01*
X1626795Y1288812D01*
X1626819Y1288835D01*
X1626888Y1288904D01*
X1626980Y1288997D01*
X1627119Y1289113D01*
X1627305Y1289252D01*
X1627513Y1289413D01*
X1627744Y1289575D01*
X1628022Y1289761D01*
X1628346Y1289922D01*
X1628670Y1290085D01*
X1629040Y1290246D01*
X1629433Y1290385D01*
X1629850Y1290524D01*
X1630289Y1290617D01*
X1630752Y1290663D01*
X1631238Y1290686D01*
X1634617D01*
X1634778Y1290663D01*
D02*
G37*
G36*
X1612935Y1300011D02*
X1613143Y1299988D01*
X1613421Y1299942D01*
X1613698Y1299872D01*
X1614023Y1299803D01*
X1614370Y1299711D01*
X1614717Y1299595D01*
X1615087Y1299433D01*
X1615457Y1299271D01*
X1615827Y1299063D01*
X1616198Y1298808D01*
X1616568Y1298530D01*
X1616915Y1298206D01*
X1616938Y1298183D01*
X1616984Y1298114D01*
X1617077Y1298021D01*
X1617193Y1297883D01*
X1617331Y1297697D01*
X1617493Y1297489D01*
X1617655Y1297258D01*
X1617841Y1296980D01*
X1618002Y1296656D01*
X1618164Y1296332D01*
X1618326Y1295962D01*
X1618465Y1295569D01*
X1618581Y1295152D01*
X1618674Y1294712D01*
X1618720Y1294273D01*
X1618743Y1293787D01*
Y1287539D01*
Y1287516D01*
Y1287424D01*
Y1287285D01*
X1618720Y1287099D01*
X1618697Y1286891D01*
X1618650Y1286637D01*
X1618581Y1286336D01*
X1618512Y1286035D01*
X1618419Y1285688D01*
X1618303Y1285341D01*
X1618141Y1284971D01*
X1617956Y1284601D01*
X1617748Y1284230D01*
X1617493Y1283860D01*
X1617216Y1283490D01*
X1616892Y1283143D01*
X1616869Y1283120D01*
X1616799Y1283073D01*
X1616707Y1282981D01*
X1616568Y1282865D01*
X1616383Y1282726D01*
X1616174Y1282564D01*
X1615943Y1282402D01*
X1615665Y1282240D01*
X1615341Y1282055D01*
X1615018Y1281893D01*
X1614647Y1281731D01*
X1614277Y1281592D01*
X1613860Y1281477D01*
X1613421Y1281384D01*
X1612958Y1281338D01*
X1612495Y1281315D01*
X1603124D01*
Y1270370D01*
Y1270347D01*
Y1270254D01*
X1603101Y1270115D01*
X1603078Y1269953D01*
X1603008Y1269768D01*
X1602939Y1269560D01*
X1602823Y1269375D01*
X1602661Y1269190D01*
X1602638Y1269166D01*
X1602592Y1269143D01*
X1602499Y1269074D01*
X1602360Y1269005D01*
X1602198Y1268935D01*
X1602013Y1268889D01*
X1601805Y1268842D01*
X1601550Y1268819D01*
X1601458D01*
X1601319Y1268842D01*
X1601180Y1268866D01*
X1601018Y1268912D01*
X1600833Y1268981D01*
X1600648Y1269074D01*
X1600463Y1269190D01*
X1600440Y1269213D01*
X1600393Y1269259D01*
X1600324Y1269352D01*
X1600231Y1269491D01*
X1600139Y1269652D01*
X1600069Y1269861D01*
X1600023Y1270092D01*
X1600000Y1270370D01*
Y1298461D01*
Y1298484D01*
Y1298530D01*
Y1298600D01*
X1600023Y1298716D01*
X1600093Y1298970D01*
X1600185Y1299248D01*
X1600370Y1299548D01*
X1600509Y1299664D01*
X1600648Y1299780D01*
X1600833Y1299896D01*
X1601041Y1299965D01*
X1601273Y1300011D01*
X1601550Y1300034D01*
X1612750D01*
X1612935Y1300011D01*
D02*
G37*
G36*
X1617516Y1409290D02*
X1617655Y1409244D01*
X1617817Y1409198D01*
X1618002Y1409105D01*
X1618211Y1408989D01*
X1618396Y1408827D01*
X1618419Y1408804D01*
X1618465Y1408735D01*
X1618558Y1408642D01*
X1618650Y1408504D01*
X1618743Y1408342D01*
X1618835Y1408156D01*
X1618882Y1407925D01*
X1618905Y1407694D01*
Y1407670D01*
Y1407624D01*
X1618882Y1407532D01*
X1618859Y1407416D01*
X1618789Y1407277D01*
X1618720Y1407092D01*
X1618604Y1406884D01*
X1618442Y1406652D01*
X1609140Y1397373D01*
X1618720Y1380435D01*
X1618951Y1379602D01*
Y1379579D01*
Y1379510D01*
X1618928Y1379394D01*
X1618882Y1379255D01*
X1618835Y1379093D01*
X1618743Y1378908D01*
X1618604Y1378723D01*
X1618442Y1378561D01*
X1618419Y1378538D01*
X1618349Y1378492D01*
X1618257Y1378422D01*
X1618118Y1378330D01*
X1617956Y1378237D01*
X1617748Y1378168D01*
X1617540Y1378121D01*
X1617285Y1378098D01*
X1617262D01*
X1617169Y1378121D01*
X1617031Y1378145D01*
X1616846Y1378191D01*
X1616637Y1378307D01*
X1616429Y1378445D01*
X1616198Y1378631D01*
X1615989Y1378908D01*
X1606826Y1395198D01*
X1603124Y1391542D01*
Y1379649D01*
Y1379626D01*
Y1379533D01*
X1603101Y1379394D01*
X1603078Y1379232D01*
X1603008Y1379047D01*
X1602939Y1378839D01*
X1602823Y1378654D01*
X1602661Y1378468D01*
X1602638Y1378445D01*
X1602592Y1378422D01*
X1602499Y1378353D01*
X1602360Y1378283D01*
X1602198Y1378214D01*
X1602013Y1378168D01*
X1601805Y1378121D01*
X1601550Y1378098D01*
X1601458D01*
X1601319Y1378121D01*
X1601180Y1378145D01*
X1601018Y1378191D01*
X1600833Y1378260D01*
X1600648Y1378353D01*
X1600463Y1378468D01*
X1600440Y1378492D01*
X1600393Y1378538D01*
X1600324Y1378631D01*
X1600231Y1378769D01*
X1600139Y1378931D01*
X1600069Y1379140D01*
X1600023Y1379371D01*
X1600000Y1379649D01*
Y1407786D01*
Y1407809D01*
Y1407879D01*
X1600023Y1407994D01*
X1600069Y1408156D01*
X1600116Y1408318D01*
X1600185Y1408480D01*
X1600301Y1408665D01*
X1600463Y1408851D01*
X1600486Y1408874D01*
X1600555Y1408920D01*
X1600648Y1408989D01*
X1600787Y1409082D01*
X1600949Y1409174D01*
X1601134Y1409244D01*
X1601342Y1409290D01*
X1601550Y1409313D01*
X1601643D01*
X1601759Y1409290D01*
X1601921Y1409267D01*
X1602083Y1409221D01*
X1602268Y1409151D01*
X1602453Y1409059D01*
X1602638Y1408943D01*
X1602661Y1408920D01*
X1602707Y1408874D01*
X1602800Y1408781D01*
X1602892Y1408642D01*
X1602962Y1408480D01*
X1603054Y1408295D01*
X1603101Y1408064D01*
X1603124Y1407786D01*
Y1395823D01*
X1616244Y1408874D01*
X1616267Y1408897D01*
X1616336Y1408943D01*
X1616429Y1409012D01*
X1616545Y1409105D01*
X1616707Y1409174D01*
X1616892Y1409244D01*
X1617100Y1409290D01*
X1617308Y1409313D01*
X1617401D01*
X1617516Y1409290D01*
D02*
G37*
G36*
X1926613Y1399942D02*
X1926775Y1399919D01*
X1926937Y1399872D01*
X1927122Y1399803D01*
X1927307Y1399711D01*
X1927492Y1399572D01*
X1927515Y1399548D01*
X1927561Y1399502D01*
X1927654Y1399410D01*
X1927746Y1399271D01*
X1927816Y1399109D01*
X1927908Y1398901D01*
X1927955Y1398669D01*
X1927978Y1398392D01*
Y1379649D01*
Y1379626D01*
Y1379533D01*
X1927955Y1379394D01*
X1927932Y1379232D01*
X1927862Y1379047D01*
X1927793Y1378839D01*
X1927677Y1378654D01*
X1927515Y1378468D01*
X1927492Y1378445D01*
X1927446Y1378422D01*
X1927353Y1378353D01*
X1927214Y1378283D01*
X1927052Y1378214D01*
X1926867Y1378168D01*
X1926659Y1378121D01*
X1926404Y1378098D01*
X1926312D01*
X1926173Y1378121D01*
X1926034Y1378145D01*
X1925872Y1378191D01*
X1925687Y1378260D01*
X1925502Y1378353D01*
X1925317Y1378468D01*
X1925294Y1378492D01*
X1925247Y1378538D01*
X1925178Y1378631D01*
X1925085Y1378769D01*
X1924993Y1378931D01*
X1924924Y1379140D01*
X1924877Y1379371D01*
X1924854Y1379649D01*
Y1387470D01*
X1915483D01*
Y1379649D01*
Y1379626D01*
Y1379533D01*
X1915459Y1379394D01*
X1915436Y1379232D01*
X1915367Y1379047D01*
X1915298Y1378839D01*
X1915182Y1378654D01*
X1915020Y1378468D01*
X1914997Y1378445D01*
X1914950Y1378422D01*
X1914858Y1378353D01*
X1914719Y1378283D01*
X1914557Y1378214D01*
X1914372Y1378168D01*
X1914164Y1378121D01*
X1913909Y1378098D01*
X1913817D01*
X1913678Y1378121D01*
X1913539Y1378145D01*
X1913377Y1378191D01*
X1913192Y1378260D01*
X1913007Y1378353D01*
X1912822Y1378468D01*
X1912798Y1378492D01*
X1912752Y1378538D01*
X1912683Y1378631D01*
X1912590Y1378769D01*
X1912498Y1378931D01*
X1912428Y1379140D01*
X1912382Y1379371D01*
X1912359Y1379649D01*
Y1398392D01*
Y1398415D01*
Y1398507D01*
X1912382Y1398623D01*
X1912428Y1398762D01*
X1912475Y1398947D01*
X1912544Y1399155D01*
X1912660Y1399340D01*
X1912822Y1399548D01*
X1912845Y1399572D01*
X1912914Y1399618D01*
X1913007Y1399687D01*
X1913122Y1399757D01*
X1913284Y1399826D01*
X1913470Y1399896D01*
X1913678Y1399942D01*
X1913909Y1399965D01*
X1914002D01*
X1914117Y1399942D01*
X1914279Y1399919D01*
X1914441Y1399872D01*
X1914626Y1399803D01*
X1914812Y1399711D01*
X1914997Y1399572D01*
X1915020Y1399548D01*
X1915066Y1399502D01*
X1915159Y1399410D01*
X1915251Y1399271D01*
X1915321Y1399109D01*
X1915413Y1398901D01*
X1915459Y1398669D01*
X1915483Y1398392D01*
Y1390594D01*
X1924854D01*
Y1398392D01*
Y1398415D01*
Y1398507D01*
X1924877Y1398623D01*
X1924924Y1398762D01*
X1924970Y1398947D01*
X1925039Y1399155D01*
X1925155Y1399340D01*
X1925317Y1399548D01*
X1925340Y1399572D01*
X1925409Y1399618D01*
X1925502Y1399687D01*
X1925618Y1399757D01*
X1925780Y1399826D01*
X1925965Y1399896D01*
X1926173Y1399942D01*
X1926404Y1399965D01*
X1926497D01*
X1926613Y1399942D01*
D02*
G37*
G36*
X1661111D02*
X1661273Y1399919D01*
X1661435Y1399872D01*
X1661620Y1399803D01*
X1661805Y1399711D01*
X1661991Y1399572D01*
X1662014Y1399548D01*
X1662060Y1399502D01*
X1662152Y1399410D01*
X1662245Y1399271D01*
X1662314Y1399109D01*
X1662407Y1398901D01*
X1662453Y1398669D01*
X1662476Y1398392D01*
Y1379649D01*
Y1379626D01*
Y1379533D01*
X1662453Y1379394D01*
X1662430Y1379232D01*
X1662361Y1379047D01*
X1662291Y1378839D01*
X1662176Y1378654D01*
X1662014Y1378468D01*
X1661991Y1378445D01*
X1661944Y1378422D01*
X1661852Y1378353D01*
X1661713Y1378283D01*
X1661551Y1378214D01*
X1661366Y1378168D01*
X1661157Y1378121D01*
X1660903Y1378098D01*
X1660810D01*
X1660672Y1378121D01*
X1660533Y1378145D01*
X1660371Y1378191D01*
X1660186Y1378260D01*
X1660000Y1378353D01*
X1659815Y1378468D01*
X1659792Y1378492D01*
X1659746Y1378538D01*
X1659677Y1378631D01*
X1659584Y1378769D01*
X1659491Y1378931D01*
X1659422Y1379140D01*
X1659376Y1379371D01*
X1659353Y1379649D01*
Y1387470D01*
X1649981D01*
Y1379649D01*
Y1379626D01*
Y1379533D01*
X1649958Y1379394D01*
X1649935Y1379232D01*
X1649865Y1379047D01*
X1649796Y1378839D01*
X1649680Y1378654D01*
X1649518Y1378468D01*
X1649495Y1378445D01*
X1649449Y1378422D01*
X1649356Y1378353D01*
X1649218Y1378283D01*
X1649055Y1378214D01*
X1648870Y1378168D01*
X1648662Y1378121D01*
X1648408Y1378098D01*
X1648315D01*
X1648176Y1378121D01*
X1648037Y1378145D01*
X1647875Y1378191D01*
X1647690Y1378260D01*
X1647505Y1378353D01*
X1647320Y1378468D01*
X1647297Y1378492D01*
X1647251Y1378538D01*
X1647181Y1378631D01*
X1647089Y1378769D01*
X1646996Y1378931D01*
X1646927Y1379140D01*
X1646880Y1379371D01*
X1646857Y1379649D01*
Y1398392D01*
Y1398415D01*
Y1398507D01*
X1646880Y1398623D01*
X1646927Y1398762D01*
X1646973Y1398947D01*
X1647042Y1399155D01*
X1647158Y1399340D01*
X1647320Y1399548D01*
X1647343Y1399572D01*
X1647413Y1399618D01*
X1647505Y1399687D01*
X1647621Y1399757D01*
X1647783Y1399826D01*
X1647968Y1399896D01*
X1648176Y1399942D01*
X1648408Y1399965D01*
X1648500D01*
X1648616Y1399942D01*
X1648778Y1399919D01*
X1648940Y1399872D01*
X1649125Y1399803D01*
X1649310Y1399711D01*
X1649495Y1399572D01*
X1649518Y1399548D01*
X1649565Y1399502D01*
X1649657Y1399410D01*
X1649750Y1399271D01*
X1649819Y1399109D01*
X1649912Y1398901D01*
X1649958Y1398669D01*
X1649981Y1398392D01*
Y1390594D01*
X1659353D01*
Y1398392D01*
Y1398415D01*
Y1398507D01*
X1659376Y1398623D01*
X1659422Y1398762D01*
X1659468Y1398947D01*
X1659538Y1399155D01*
X1659653Y1399340D01*
X1659815Y1399548D01*
X1659839Y1399572D01*
X1659908Y1399618D01*
X1660000Y1399687D01*
X1660116Y1399757D01*
X1660278Y1399826D01*
X1660463Y1399896D01*
X1660672Y1399942D01*
X1660903Y1399965D01*
X1660995D01*
X1661111Y1399942D01*
D02*
G37*
G36*
X1904746D02*
X1904908Y1399919D01*
X1905070Y1399872D01*
X1905255Y1399803D01*
X1905440Y1399711D01*
X1905625Y1399572D01*
X1905648Y1399548D01*
X1905695Y1399502D01*
X1905787Y1399410D01*
X1905880Y1399271D01*
X1905949Y1399109D01*
X1906042Y1398901D01*
X1906088Y1398669D01*
X1906111Y1398392D01*
Y1379649D01*
Y1379626D01*
Y1379579D01*
Y1379510D01*
X1906088Y1379417D01*
X1906019Y1379163D01*
X1905926Y1378885D01*
X1905718Y1378584D01*
X1905602Y1378468D01*
X1905440Y1378353D01*
X1905278Y1378237D01*
X1905047Y1378168D01*
X1904815Y1378121D01*
X1904538Y1378098D01*
X1896624D01*
X1896485Y1378121D01*
X1896323D01*
X1896092Y1378145D01*
X1895837Y1378191D01*
X1895560Y1378260D01*
X1895236Y1378330D01*
X1894912Y1378422D01*
X1894565Y1378538D01*
X1894194Y1378677D01*
X1893824Y1378862D01*
X1893454Y1379070D01*
X1893060Y1379302D01*
X1892713Y1379579D01*
X1892343Y1379903D01*
X1892320Y1379926D01*
X1892274Y1379996D01*
X1892181Y1380088D01*
X1892065Y1380227D01*
X1891904Y1380412D01*
X1891765Y1380621D01*
X1891580Y1380852D01*
X1891418Y1381130D01*
X1891256Y1381454D01*
X1891071Y1381777D01*
X1890932Y1382148D01*
X1890793Y1382541D01*
X1890654Y1382958D01*
X1890561Y1383397D01*
X1890515Y1383860D01*
X1890492Y1384346D01*
Y1398392D01*
Y1398415D01*
Y1398507D01*
X1890515Y1398623D01*
X1890561Y1398762D01*
X1890608Y1398947D01*
X1890677Y1399155D01*
X1890793Y1399340D01*
X1890955Y1399548D01*
X1890978Y1399572D01*
X1891047Y1399618D01*
X1891140Y1399687D01*
X1891256Y1399757D01*
X1891418Y1399826D01*
X1891603Y1399896D01*
X1891811Y1399942D01*
X1892042Y1399965D01*
X1892135D01*
X1892251Y1399942D01*
X1892413Y1399919D01*
X1892575Y1399872D01*
X1892760Y1399803D01*
X1892945Y1399711D01*
X1893130Y1399572D01*
X1893153Y1399548D01*
X1893199Y1399502D01*
X1893292Y1399410D01*
X1893385Y1399271D01*
X1893454Y1399109D01*
X1893546Y1398901D01*
X1893593Y1398669D01*
X1893616Y1398392D01*
Y1384346D01*
Y1384323D01*
Y1384300D01*
Y1384230D01*
X1893639Y1384138D01*
X1893662Y1383883D01*
X1893732Y1383582D01*
X1893824Y1383212D01*
X1893986Y1382842D01*
X1894194Y1382472D01*
X1894495Y1382101D01*
X1894518Y1382078D01*
X1894588Y1382032D01*
X1894680Y1381963D01*
X1894796Y1381870D01*
X1894935Y1381754D01*
X1895120Y1381662D01*
X1895490Y1381430D01*
X1895513D01*
X1895606Y1381407D01*
X1895745Y1381361D01*
X1895907Y1381338D01*
X1896092Y1381292D01*
X1896300Y1381245D01*
X1896740Y1381222D01*
X1902987D01*
Y1398392D01*
Y1398415D01*
Y1398507D01*
X1903010Y1398623D01*
X1903057Y1398762D01*
X1903103Y1398947D01*
X1903172Y1399155D01*
X1903288Y1399340D01*
X1903450Y1399548D01*
X1903473Y1399572D01*
X1903543Y1399618D01*
X1903635Y1399687D01*
X1903751Y1399757D01*
X1903913Y1399826D01*
X1904098Y1399896D01*
X1904306Y1399942D01*
X1904538Y1399965D01*
X1904630D01*
X1904746Y1399942D01*
D02*
G37*
G36*
X2020350D02*
X2020605Y1399872D01*
X2020883Y1399780D01*
X2021183Y1399572D01*
X2021299Y1399456D01*
X2021415Y1399294D01*
X2021530Y1399132D01*
X2021600Y1398901D01*
X2021646Y1398669D01*
X2021669Y1398392D01*
Y1384369D01*
Y1384323D01*
Y1384207D01*
X2021692Y1384022D01*
X2021739Y1383791D01*
X2021808Y1383490D01*
X2021924Y1383166D01*
X2022063Y1382819D01*
X2022248Y1382448D01*
X2022271Y1382402D01*
X2022340Y1382310D01*
X2022479Y1382148D01*
X2022664Y1381963D01*
X2022872Y1381754D01*
X2023150Y1381523D01*
X2023451Y1381315D01*
X2023821Y1381106D01*
X2023867Y1381083D01*
X2023983Y1381037D01*
X2024122Y1380921D01*
X2024307Y1380782D01*
X2024492Y1380574D01*
X2024631Y1380343D01*
X2024747Y1380042D01*
X2024793Y1379695D01*
Y1379672D01*
Y1379579D01*
X2024770Y1379464D01*
X2024747Y1379302D01*
X2024677Y1379116D01*
X2024608Y1378931D01*
X2024492Y1378746D01*
X2024353Y1378561D01*
X2024330Y1378538D01*
X2024284Y1378492D01*
X2024191Y1378422D01*
X2024076Y1378330D01*
X2023914Y1378237D01*
X2023729Y1378168D01*
X2023497Y1378121D01*
X2023243Y1378098D01*
X2023127D01*
X2023035Y1378121D01*
X2022826Y1378168D01*
X2022595Y1378237D01*
X2022572D01*
X2022525Y1378260D01*
X2022456Y1378307D01*
X2022340Y1378353D01*
X2022202Y1378422D01*
X2022063Y1378492D01*
X2021692Y1378700D01*
X2021299Y1378978D01*
X2020883Y1379302D01*
X2020466Y1379695D01*
X2020073Y1380158D01*
X2020049Y1380111D01*
X2019934Y1380019D01*
X2019772Y1379857D01*
X2019517Y1379649D01*
X2019240Y1379417D01*
X2018869Y1379163D01*
X2018453Y1378908D01*
X2017990Y1378677D01*
X2017967D01*
X2017944Y1378654D01*
X2017874Y1378631D01*
X2017759Y1378584D01*
X2017504Y1378492D01*
X2017180Y1378399D01*
X2016787Y1378283D01*
X2016370Y1378191D01*
X2015908Y1378121D01*
X2015422Y1378098D01*
X2012182D01*
X2012043Y1378121D01*
X2011881D01*
X2011650Y1378145D01*
X2011395Y1378191D01*
X2011118Y1378260D01*
X2010794Y1378330D01*
X2010470Y1378422D01*
X2010123Y1378538D01*
X2009753Y1378677D01*
X2009382Y1378862D01*
X2009012Y1379070D01*
X2008619Y1379302D01*
X2008272Y1379579D01*
X2007901Y1379903D01*
X2007878Y1379926D01*
X2007832Y1379996D01*
X2007739Y1380088D01*
X2007624Y1380227D01*
X2007462Y1380412D01*
X2007323Y1380621D01*
X2007138Y1380852D01*
X2006976Y1381130D01*
X2006814Y1381454D01*
X2006629Y1381777D01*
X2006490Y1382148D01*
X2006351Y1382541D01*
X2006212Y1382958D01*
X2006120Y1383397D01*
X2006073Y1383860D01*
X2006050Y1384346D01*
Y1393717D01*
Y1393741D01*
Y1393833D01*
X2006073Y1393972D01*
Y1394157D01*
X2006096Y1394365D01*
X2006143Y1394620D01*
X2006212Y1394921D01*
X2006282Y1395222D01*
X2006374Y1395569D01*
X2006490Y1395916D01*
X2006652Y1396286D01*
X2006814Y1396656D01*
X2007022Y1397026D01*
X2007277Y1397397D01*
X2007554Y1397767D01*
X2007878Y1398114D01*
X2007901Y1398137D01*
X2007971Y1398183D01*
X2008063Y1398276D01*
X2008202Y1398415D01*
X2008387Y1398553D01*
X2008595Y1398692D01*
X2008850Y1398878D01*
X2009128Y1399039D01*
X2009429Y1399201D01*
X2009753Y1399387D01*
X2010123Y1399525D01*
X2010516Y1399687D01*
X2010933Y1399803D01*
X2011372Y1399896D01*
X2011812Y1399942D01*
X2012298Y1399965D01*
X2020235D01*
X2020350Y1399942D01*
D02*
G37*
G36*
X1972105D02*
X1972336Y1399919D01*
X1972591Y1399872D01*
X1972868Y1399803D01*
X1973192Y1399734D01*
X1973516Y1399641D01*
X1973863Y1399525D01*
X1974234Y1399363D01*
X1974604Y1399201D01*
X1974974Y1398993D01*
X1975344Y1398739D01*
X1975714Y1398461D01*
X1976062Y1398137D01*
X1976085Y1398114D01*
X1976154Y1398044D01*
X1976247Y1397952D01*
X1976362Y1397813D01*
X1976501Y1397628D01*
X1976663Y1397420D01*
X1976825Y1397188D01*
X1977010Y1396911D01*
X1977172Y1396587D01*
X1977334Y1396263D01*
X1977496Y1395892D01*
X1977635Y1395499D01*
X1977774Y1395083D01*
X1977866Y1394643D01*
X1977913Y1394203D01*
X1977936Y1393717D01*
Y1389020D01*
Y1388997D01*
Y1388951D01*
Y1388881D01*
X1977913Y1388789D01*
X1977843Y1388534D01*
X1977751Y1388257D01*
X1977543Y1387956D01*
X1977427Y1387840D01*
X1977265Y1387724D01*
X1977103Y1387609D01*
X1976871Y1387539D01*
X1976640Y1387493D01*
X1976362Y1387470D01*
X1965441D01*
Y1384346D01*
Y1384323D01*
Y1384300D01*
Y1384230D01*
X1965464Y1384138D01*
X1965487Y1383883D01*
X1965556Y1383582D01*
X1965649Y1383212D01*
X1965811Y1382842D01*
X1966019Y1382472D01*
X1966320Y1382101D01*
X1966343Y1382078D01*
X1966412Y1382032D01*
X1966505Y1381963D01*
X1966621Y1381870D01*
X1966759Y1381754D01*
X1966945Y1381662D01*
X1967315Y1381430D01*
X1967338D01*
X1967431Y1381407D01*
X1967569Y1381361D01*
X1967731Y1381338D01*
X1967917Y1381292D01*
X1968125Y1381245D01*
X1968564Y1381222D01*
X1976478D01*
X1976594Y1381199D01*
X1976756Y1381153D01*
X1976918Y1381106D01*
X1977103Y1381014D01*
X1977288Y1380898D01*
X1977473Y1380736D01*
X1977496Y1380713D01*
X1977543Y1380644D01*
X1977612Y1380551D01*
X1977704Y1380412D01*
X1977797Y1380250D01*
X1977866Y1380065D01*
X1977913Y1379880D01*
X1977936Y1379649D01*
Y1379626D01*
Y1379556D01*
X1977913Y1379464D01*
X1977890Y1379325D01*
X1977843Y1379163D01*
X1977774Y1378978D01*
X1977681Y1378793D01*
X1977543Y1378607D01*
X1977519Y1378584D01*
X1977473Y1378538D01*
X1977381Y1378445D01*
X1977242Y1378353D01*
X1977080Y1378260D01*
X1976871Y1378168D01*
X1976640Y1378121D01*
X1976362Y1378098D01*
X1968449D01*
X1968310Y1378121D01*
X1968148D01*
X1967917Y1378145D01*
X1967662Y1378191D01*
X1967384Y1378260D01*
X1967060Y1378330D01*
X1966736Y1378422D01*
X1966366Y1378538D01*
X1966019Y1378677D01*
X1965626Y1378862D01*
X1965255Y1379070D01*
X1964885Y1379302D01*
X1964515Y1379579D01*
X1964168Y1379903D01*
X1964145Y1379926D01*
X1964099Y1379996D01*
X1964006Y1380088D01*
X1963890Y1380227D01*
X1963728Y1380412D01*
X1963589Y1380621D01*
X1963404Y1380875D01*
X1963242Y1381153D01*
X1963080Y1381454D01*
X1962895Y1381801D01*
X1962756Y1382148D01*
X1962617Y1382541D01*
X1962479Y1382958D01*
X1962386Y1383397D01*
X1962340Y1383860D01*
X1962317Y1384346D01*
Y1393717D01*
Y1393741D01*
Y1393833D01*
X1962340Y1393972D01*
Y1394134D01*
X1962363Y1394365D01*
X1962409Y1394597D01*
X1962479Y1394897D01*
X1962548Y1395198D01*
X1962641Y1395545D01*
X1962756Y1395892D01*
X1962895Y1396240D01*
X1963080Y1396610D01*
X1963289Y1397003D01*
X1963520Y1397373D01*
X1963798Y1397744D01*
X1964122Y1398091D01*
X1964145Y1398114D01*
X1964214Y1398183D01*
X1964307Y1398276D01*
X1964446Y1398392D01*
X1964631Y1398530D01*
X1964839Y1398692D01*
X1965070Y1398854D01*
X1965348Y1399039D01*
X1965672Y1399201D01*
X1965996Y1399363D01*
X1966366Y1399525D01*
X1966759Y1399664D01*
X1967176Y1399803D01*
X1967616Y1399896D01*
X1968078Y1399942D01*
X1968564Y1399965D01*
X1971943D01*
X1972105Y1399942D01*
D02*
G37*
G36*
X1950261D02*
X1950493Y1399919D01*
X1950747Y1399872D01*
X1951025Y1399803D01*
X1951349Y1399734D01*
X1951673Y1399641D01*
X1952020Y1399525D01*
X1952390Y1399363D01*
X1952760Y1399201D01*
X1953130Y1398993D01*
X1953501Y1398739D01*
X1953871Y1398461D01*
X1954218Y1398137D01*
X1954241Y1398114D01*
X1954310Y1398044D01*
X1954403Y1397952D01*
X1954519Y1397813D01*
X1954658Y1397628D01*
X1954820Y1397420D01*
X1954982Y1397188D01*
X1955167Y1396911D01*
X1955329Y1396587D01*
X1955491Y1396263D01*
X1955653Y1395892D01*
X1955791Y1395499D01*
X1955930Y1395083D01*
X1956023Y1394643D01*
X1956069Y1394203D01*
X1956092Y1393717D01*
Y1379649D01*
Y1379626D01*
Y1379533D01*
X1956069Y1379394D01*
X1956046Y1379232D01*
X1955977Y1379047D01*
X1955907Y1378839D01*
X1955791Y1378654D01*
X1955629Y1378468D01*
X1955606Y1378445D01*
X1955560Y1378422D01*
X1955468Y1378353D01*
X1955329Y1378283D01*
X1955167Y1378214D01*
X1954982Y1378168D01*
X1954773Y1378121D01*
X1954519Y1378098D01*
X1954426D01*
X1954287Y1378121D01*
X1954149Y1378145D01*
X1953987Y1378191D01*
X1953801Y1378260D01*
X1953616Y1378353D01*
X1953431Y1378468D01*
X1953408Y1378492D01*
X1953362Y1378538D01*
X1953292Y1378631D01*
X1953200Y1378769D01*
X1953107Y1378931D01*
X1953038Y1379140D01*
X1952991Y1379371D01*
X1952968Y1379649D01*
Y1393717D01*
Y1393741D01*
Y1393787D01*
Y1393833D01*
X1952945Y1393926D01*
X1952922Y1394180D01*
X1952853Y1394481D01*
X1952760Y1394828D01*
X1952598Y1395198D01*
X1952367Y1395569D01*
X1952066Y1395916D01*
X1952020Y1395962D01*
X1951904Y1396055D01*
X1951719Y1396216D01*
X1951464Y1396378D01*
X1951140Y1396540D01*
X1950770Y1396702D01*
X1950331Y1396795D01*
X1949845Y1396841D01*
X1946721D01*
Y1379649D01*
Y1379626D01*
Y1379533D01*
X1946698Y1379394D01*
X1946674Y1379232D01*
X1946605Y1379047D01*
X1946536Y1378839D01*
X1946420Y1378654D01*
X1946258Y1378468D01*
X1946235Y1378445D01*
X1946189Y1378422D01*
X1946096Y1378353D01*
X1945957Y1378283D01*
X1945795Y1378214D01*
X1945610Y1378168D01*
X1945402Y1378121D01*
X1945147Y1378098D01*
X1945055D01*
X1944916Y1378121D01*
X1944777Y1378145D01*
X1944615Y1378191D01*
X1944430Y1378260D01*
X1944245Y1378353D01*
X1944060Y1378468D01*
X1944037Y1378492D01*
X1943990Y1378538D01*
X1943921Y1378631D01*
X1943828Y1378769D01*
X1943736Y1378931D01*
X1943666Y1379140D01*
X1943620Y1379371D01*
X1943597Y1379649D01*
Y1396841D01*
X1937349D01*
Y1379649D01*
Y1379626D01*
Y1379533D01*
X1937326Y1379394D01*
X1937303Y1379232D01*
X1937234Y1379047D01*
X1937164Y1378839D01*
X1937048Y1378654D01*
X1936886Y1378468D01*
X1936863Y1378445D01*
X1936817Y1378422D01*
X1936725Y1378353D01*
X1936586Y1378283D01*
X1936424Y1378214D01*
X1936239Y1378168D01*
X1936030Y1378121D01*
X1935776Y1378098D01*
X1935683D01*
X1935544Y1378121D01*
X1935406Y1378145D01*
X1935244Y1378191D01*
X1935058Y1378260D01*
X1934873Y1378353D01*
X1934688Y1378468D01*
X1934665Y1378492D01*
X1934619Y1378538D01*
X1934549Y1378631D01*
X1934457Y1378769D01*
X1934364Y1378931D01*
X1934295Y1379140D01*
X1934249Y1379371D01*
X1934225Y1379649D01*
Y1398392D01*
Y1398415D01*
Y1398461D01*
Y1398530D01*
X1934249Y1398646D01*
X1934318Y1398901D01*
X1934411Y1399178D01*
X1934596Y1399479D01*
X1934735Y1399595D01*
X1934873Y1399711D01*
X1935058Y1399826D01*
X1935267Y1399896D01*
X1935498Y1399942D01*
X1935776Y1399965D01*
X1950099D01*
X1950261Y1399942D01*
D02*
G37*
G36*
X1856546D02*
X1856778Y1399919D01*
X1857009Y1399872D01*
X1857310Y1399803D01*
X1857611Y1399734D01*
X1857958Y1399641D01*
X1858305Y1399525D01*
X1858652Y1399387D01*
X1859022Y1399201D01*
X1859416Y1398993D01*
X1859786Y1398762D01*
X1860156Y1398484D01*
X1860503Y1398160D01*
X1860526Y1398137D01*
X1860596Y1398068D01*
X1860688Y1397975D01*
X1860804Y1397836D01*
X1860943Y1397651D01*
X1861105Y1397443D01*
X1861267Y1397211D01*
X1861452Y1396934D01*
X1861614Y1396610D01*
X1861776Y1396286D01*
X1861938Y1395916D01*
X1862077Y1395522D01*
X1862216Y1395106D01*
X1862308Y1394666D01*
X1862354Y1394203D01*
X1862378Y1393717D01*
Y1379649D01*
Y1379626D01*
Y1379533D01*
X1862354Y1379394D01*
X1862331Y1379232D01*
X1862262Y1379047D01*
X1862193Y1378839D01*
X1862077Y1378654D01*
X1861915Y1378468D01*
X1861892Y1378445D01*
X1861846Y1378422D01*
X1861753Y1378353D01*
X1861614Y1378283D01*
X1861452Y1378214D01*
X1861267Y1378168D01*
X1861059Y1378121D01*
X1860804Y1378098D01*
X1860712D01*
X1860573Y1378121D01*
X1860434Y1378145D01*
X1860272Y1378191D01*
X1860087Y1378260D01*
X1859902Y1378353D01*
X1859717Y1378468D01*
X1859693Y1378492D01*
X1859647Y1378538D01*
X1859578Y1378631D01*
X1859485Y1378769D01*
X1859393Y1378931D01*
X1859323Y1379140D01*
X1859277Y1379371D01*
X1859254Y1379649D01*
Y1393717D01*
Y1393741D01*
Y1393787D01*
Y1393833D01*
X1859231Y1393926D01*
X1859208Y1394180D01*
X1859138Y1394481D01*
X1859046Y1394828D01*
X1858884Y1395198D01*
X1858652Y1395569D01*
X1858351Y1395916D01*
X1858305Y1395962D01*
X1858189Y1396055D01*
X1858004Y1396216D01*
X1857750Y1396378D01*
X1857426Y1396540D01*
X1857056Y1396702D01*
X1856616Y1396795D01*
X1856130Y1396841D01*
X1849882D01*
Y1379649D01*
Y1379626D01*
Y1379533D01*
X1849859Y1379394D01*
X1849836Y1379232D01*
X1849767Y1379047D01*
X1849697Y1378839D01*
X1849582Y1378654D01*
X1849420Y1378468D01*
X1849397Y1378445D01*
X1849350Y1378422D01*
X1849258Y1378353D01*
X1849119Y1378283D01*
X1848957Y1378214D01*
X1848772Y1378168D01*
X1848563Y1378121D01*
X1848309Y1378098D01*
X1848216D01*
X1848078Y1378121D01*
X1847939Y1378145D01*
X1847777Y1378191D01*
X1847592Y1378260D01*
X1847406Y1378353D01*
X1847221Y1378468D01*
X1847198Y1378492D01*
X1847152Y1378538D01*
X1847083Y1378631D01*
X1846990Y1378769D01*
X1846897Y1378931D01*
X1846828Y1379140D01*
X1846782Y1379371D01*
X1846759Y1379649D01*
Y1398392D01*
Y1398415D01*
Y1398461D01*
Y1398530D01*
X1846782Y1398646D01*
X1846851Y1398901D01*
X1846944Y1399178D01*
X1847129Y1399479D01*
X1847268Y1399595D01*
X1847406Y1399711D01*
X1847592Y1399826D01*
X1847800Y1399896D01*
X1848031Y1399942D01*
X1848309Y1399965D01*
X1856385D01*
X1856546Y1399942D01*
D02*
G37*
G36*
X1794070D02*
X1794301Y1399919D01*
X1794556Y1399872D01*
X1794834Y1399803D01*
X1795158Y1399734D01*
X1795482Y1399641D01*
X1795829Y1399525D01*
X1796199Y1399363D01*
X1796569Y1399201D01*
X1796939Y1398993D01*
X1797310Y1398739D01*
X1797680Y1398461D01*
X1798027Y1398137D01*
X1798050Y1398114D01*
X1798120Y1398044D01*
X1798212Y1397952D01*
X1798328Y1397813D01*
X1798467Y1397628D01*
X1798629Y1397420D01*
X1798791Y1397188D01*
X1798976Y1396911D01*
X1799138Y1396587D01*
X1799300Y1396263D01*
X1799462Y1395892D01*
X1799601Y1395499D01*
X1799739Y1395083D01*
X1799832Y1394643D01*
X1799878Y1394203D01*
X1799901Y1393717D01*
Y1389020D01*
Y1388997D01*
Y1388951D01*
Y1388881D01*
X1799878Y1388789D01*
X1799809Y1388534D01*
X1799716Y1388257D01*
X1799508Y1387956D01*
X1799392Y1387840D01*
X1799230Y1387724D01*
X1799068Y1387609D01*
X1798837Y1387539D01*
X1798605Y1387493D01*
X1798328Y1387470D01*
X1787406D01*
Y1384346D01*
Y1384323D01*
Y1384300D01*
Y1384230D01*
X1787429Y1384138D01*
X1787452Y1383883D01*
X1787522Y1383582D01*
X1787614Y1383212D01*
X1787776Y1382842D01*
X1787984Y1382472D01*
X1788285Y1382101D01*
X1788308Y1382078D01*
X1788378Y1382032D01*
X1788470Y1381963D01*
X1788586Y1381870D01*
X1788725Y1381754D01*
X1788910Y1381662D01*
X1789280Y1381430D01*
X1789303D01*
X1789396Y1381407D01*
X1789535Y1381361D01*
X1789697Y1381338D01*
X1789882Y1381292D01*
X1790090Y1381245D01*
X1790530Y1381222D01*
X1798443D01*
X1798559Y1381199D01*
X1798721Y1381153D01*
X1798883Y1381106D01*
X1799068Y1381014D01*
X1799253Y1380898D01*
X1799438Y1380736D01*
X1799462Y1380713D01*
X1799508Y1380644D01*
X1799577Y1380551D01*
X1799670Y1380412D01*
X1799762Y1380250D01*
X1799832Y1380065D01*
X1799878Y1379880D01*
X1799901Y1379649D01*
Y1379626D01*
Y1379556D01*
X1799878Y1379464D01*
X1799855Y1379325D01*
X1799809Y1379163D01*
X1799739Y1378978D01*
X1799647Y1378793D01*
X1799508Y1378607D01*
X1799485Y1378584D01*
X1799438Y1378538D01*
X1799346Y1378445D01*
X1799207Y1378353D01*
X1799045Y1378260D01*
X1798837Y1378168D01*
X1798605Y1378121D01*
X1798328Y1378098D01*
X1790414D01*
X1790275Y1378121D01*
X1790113D01*
X1789882Y1378145D01*
X1789627Y1378191D01*
X1789350Y1378260D01*
X1789026Y1378330D01*
X1788702Y1378422D01*
X1788332Y1378538D01*
X1787984Y1378677D01*
X1787591Y1378862D01*
X1787221Y1379070D01*
X1786851Y1379302D01*
X1786480Y1379579D01*
X1786133Y1379903D01*
X1786110Y1379926D01*
X1786064Y1379996D01*
X1785971Y1380088D01*
X1785856Y1380227D01*
X1785694Y1380412D01*
X1785555Y1380621D01*
X1785370Y1380875D01*
X1785208Y1381153D01*
X1785046Y1381454D01*
X1784861Y1381801D01*
X1784722Y1382148D01*
X1784583Y1382541D01*
X1784444Y1382958D01*
X1784352Y1383397D01*
X1784305Y1383860D01*
X1784282Y1384346D01*
Y1393717D01*
Y1393741D01*
Y1393833D01*
X1784305Y1393972D01*
Y1394134D01*
X1784328Y1394365D01*
X1784375Y1394597D01*
X1784444Y1394897D01*
X1784514Y1395198D01*
X1784606Y1395545D01*
X1784722Y1395892D01*
X1784861Y1396240D01*
X1785046Y1396610D01*
X1785254Y1397003D01*
X1785485Y1397373D01*
X1785763Y1397744D01*
X1786087Y1398091D01*
X1786110Y1398114D01*
X1786180Y1398183D01*
X1786272Y1398276D01*
X1786411Y1398392D01*
X1786596Y1398530D01*
X1786804Y1398692D01*
X1787036Y1398854D01*
X1787313Y1399039D01*
X1787637Y1399201D01*
X1787961Y1399363D01*
X1788332Y1399525D01*
X1788725Y1399664D01*
X1789142Y1399803D01*
X1789581Y1399896D01*
X1790044Y1399942D01*
X1790530Y1399965D01*
X1793908D01*
X1794070Y1399942D01*
D02*
G37*
G36*
X1776716D02*
X1776970Y1399872D01*
X1777248Y1399780D01*
X1777549Y1399572D01*
X1777664Y1399456D01*
X1777780Y1399294D01*
X1777896Y1399132D01*
X1777965Y1398901D01*
X1778011Y1398669D01*
X1778035Y1398392D01*
Y1379649D01*
Y1379626D01*
Y1379533D01*
X1778011Y1379394D01*
X1777988Y1379232D01*
X1777919Y1379047D01*
X1777849Y1378839D01*
X1777734Y1378654D01*
X1777572Y1378468D01*
X1777549Y1378445D01*
X1777502Y1378422D01*
X1777410Y1378353D01*
X1777271Y1378283D01*
X1777109Y1378214D01*
X1776924Y1378168D01*
X1776716Y1378121D01*
X1776461Y1378098D01*
X1776369D01*
X1776230Y1378121D01*
X1776091Y1378145D01*
X1775929Y1378191D01*
X1775744Y1378260D01*
X1775559Y1378353D01*
X1775374Y1378468D01*
X1775350Y1378492D01*
X1775304Y1378538D01*
X1775235Y1378631D01*
X1775142Y1378769D01*
X1775050Y1378931D01*
X1774980Y1379140D01*
X1774934Y1379371D01*
X1774911Y1379649D01*
Y1396841D01*
X1771301D01*
X1765470Y1379163D01*
Y1379140D01*
X1765447Y1379070D01*
X1765400Y1378978D01*
X1765331Y1378862D01*
X1765146Y1378607D01*
X1764868Y1378330D01*
X1764845Y1378307D01*
X1764799D01*
X1764729Y1378283D01*
X1764614Y1378237D01*
X1764475Y1378214D01*
X1764290Y1378145D01*
X1764035Y1378098D01*
X1763943D01*
X1763804Y1378121D01*
X1763665Y1378145D01*
X1763503Y1378214D01*
X1763318Y1378283D01*
X1763133Y1378399D01*
X1762948Y1378538D01*
X1762924Y1378561D01*
X1762855Y1378607D01*
X1762786Y1378700D01*
X1762693Y1378816D01*
X1762577Y1378954D01*
X1762508Y1379140D01*
X1762439Y1379348D01*
X1762415Y1379579D01*
X1762531Y1380135D01*
X1768709Y1398878D01*
Y1398901D01*
X1768732Y1398924D01*
X1768779Y1399039D01*
X1768871Y1399225D01*
X1769033Y1399433D01*
X1769218Y1399618D01*
X1769473Y1399803D01*
X1769797Y1399919D01*
X1769982Y1399965D01*
X1776600D01*
X1776716Y1399942D01*
D02*
G37*
G36*
X1754849D02*
X1755103Y1399872D01*
X1755381Y1399780D01*
X1755682Y1399572D01*
X1755798Y1399456D01*
X1755913Y1399294D01*
X1756029Y1399132D01*
X1756098Y1398901D01*
X1756145Y1398669D01*
X1756168Y1398392D01*
Y1379649D01*
Y1379626D01*
Y1379533D01*
X1756145Y1379394D01*
X1756122Y1379232D01*
X1756052Y1379047D01*
X1755983Y1378839D01*
X1755867Y1378654D01*
X1755705Y1378468D01*
X1755682Y1378445D01*
X1755636Y1378422D01*
X1755543Y1378353D01*
X1755404Y1378283D01*
X1755242Y1378214D01*
X1755057Y1378168D01*
X1754849Y1378121D01*
X1754594Y1378098D01*
X1754502D01*
X1754363Y1378121D01*
X1754224Y1378145D01*
X1754062Y1378191D01*
X1753877Y1378260D01*
X1753692Y1378353D01*
X1753507Y1378468D01*
X1753484Y1378492D01*
X1753437Y1378538D01*
X1753368Y1378631D01*
X1753275Y1378769D01*
X1753183Y1378931D01*
X1753113Y1379140D01*
X1753067Y1379371D01*
X1753044Y1379649D01*
Y1396841D01*
X1749434D01*
X1743603Y1379163D01*
Y1379140D01*
X1743580Y1379070D01*
X1743534Y1378978D01*
X1743464Y1378862D01*
X1743279Y1378607D01*
X1743002Y1378330D01*
X1742978Y1378307D01*
X1742932D01*
X1742863Y1378283D01*
X1742747Y1378237D01*
X1742608Y1378214D01*
X1742423Y1378145D01*
X1742168Y1378098D01*
X1742076D01*
X1741937Y1378121D01*
X1741798Y1378145D01*
X1741636Y1378214D01*
X1741451Y1378283D01*
X1741266Y1378399D01*
X1741081Y1378538D01*
X1741058Y1378561D01*
X1740988Y1378607D01*
X1740919Y1378700D01*
X1740826Y1378816D01*
X1740711Y1378954D01*
X1740641Y1379140D01*
X1740572Y1379348D01*
X1740549Y1379579D01*
X1740664Y1380135D01*
X1746843Y1398878D01*
Y1398901D01*
X1746866Y1398924D01*
X1746912Y1399039D01*
X1747005Y1399225D01*
X1747167Y1399433D01*
X1747352Y1399618D01*
X1747606Y1399803D01*
X1747930Y1399919D01*
X1748115Y1399965D01*
X1754733D01*
X1754849Y1399942D01*
D02*
G37*
G36*
X1727706D02*
X1727892D01*
X1728146Y1399896D01*
X1728424Y1399849D01*
X1728725Y1399803D01*
X1729072Y1399711D01*
X1729442Y1399618D01*
X1729835Y1399479D01*
X1730228Y1399317D01*
X1730622Y1399109D01*
X1731038Y1398878D01*
X1731455Y1398623D01*
X1731848Y1398299D01*
X1732242Y1397952D01*
X1732265Y1397929D01*
X1732334Y1397859D01*
X1732427Y1397744D01*
X1732566Y1397605D01*
X1732728Y1397397D01*
X1732890Y1397165D01*
X1733075Y1396911D01*
X1733283Y1396610D01*
X1733468Y1396263D01*
X1733653Y1395892D01*
X1733815Y1395499D01*
X1733977Y1395060D01*
X1734116Y1394597D01*
X1734209Y1394134D01*
X1734278Y1393625D01*
X1734301Y1393093D01*
Y1384971D01*
Y1384948D01*
Y1384855D01*
X1734278Y1384693D01*
Y1384508D01*
X1734232Y1384253D01*
X1734185Y1383976D01*
X1734139Y1383652D01*
X1734046Y1383328D01*
X1733954Y1382958D01*
X1733815Y1382564D01*
X1733653Y1382148D01*
X1733445Y1381754D01*
X1733214Y1381338D01*
X1732959Y1380921D01*
X1732635Y1380528D01*
X1732288Y1380135D01*
X1732265Y1380111D01*
X1732195Y1380042D01*
X1732080Y1379949D01*
X1731941Y1379811D01*
X1731733Y1379672D01*
X1731501Y1379487D01*
X1731247Y1379302D01*
X1730946Y1379116D01*
X1730599Y1378931D01*
X1730228Y1378746D01*
X1729835Y1378561D01*
X1729395Y1378422D01*
X1728933Y1378283D01*
X1728470Y1378191D01*
X1727961Y1378121D01*
X1727429Y1378098D01*
X1725439D01*
X1725277Y1378121D01*
X1725092D01*
X1724837Y1378168D01*
X1724559Y1378214D01*
X1724235Y1378260D01*
X1723911Y1378353D01*
X1723541Y1378445D01*
X1723148Y1378584D01*
X1722731Y1378746D01*
X1722338Y1378931D01*
X1721922Y1379163D01*
X1721505Y1379417D01*
X1721112Y1379718D01*
X1720718Y1380065D01*
X1720695Y1380088D01*
X1720626Y1380158D01*
X1720533Y1380273D01*
X1720394Y1380412D01*
X1720255Y1380621D01*
X1720070Y1380852D01*
X1719885Y1381130D01*
X1719700Y1381430D01*
X1719515Y1381754D01*
X1719330Y1382148D01*
X1719145Y1382541D01*
X1719006Y1382981D01*
X1718867Y1383443D01*
X1718775Y1383929D01*
X1718705Y1384438D01*
X1718682Y1384971D01*
Y1393093D01*
Y1393116D01*
Y1393208D01*
X1718705Y1393370D01*
Y1393555D01*
X1718751Y1393787D01*
X1718798Y1394064D01*
X1718844Y1394365D01*
X1718936Y1394712D01*
X1719029Y1395083D01*
X1719168Y1395453D01*
X1719330Y1395869D01*
X1719515Y1396263D01*
X1719746Y1396679D01*
X1720024Y1397096D01*
X1720325Y1397489D01*
X1720672Y1397883D01*
X1720695Y1397906D01*
X1720764Y1397975D01*
X1720880Y1398068D01*
X1721042Y1398206D01*
X1721227Y1398368D01*
X1721459Y1398553D01*
X1721736Y1398739D01*
X1722037Y1398924D01*
X1722384Y1399109D01*
X1722755Y1399317D01*
X1723148Y1399479D01*
X1723587Y1399641D01*
X1724050Y1399780D01*
X1724513Y1399872D01*
X1725022Y1399942D01*
X1725554Y1399965D01*
X1727544D01*
X1727706Y1399942D01*
D02*
G37*
G36*
X1684760D02*
X1684991Y1399919D01*
X1685246Y1399872D01*
X1685523Y1399803D01*
X1685847Y1399734D01*
X1686171Y1399641D01*
X1686518Y1399525D01*
X1686888Y1399363D01*
X1687259Y1399201D01*
X1687629Y1398993D01*
X1687999Y1398739D01*
X1688369Y1398461D01*
X1688716Y1398137D01*
X1688740Y1398114D01*
X1688809Y1398044D01*
X1688902Y1397952D01*
X1689017Y1397813D01*
X1689156Y1397628D01*
X1689318Y1397420D01*
X1689480Y1397188D01*
X1689665Y1396911D01*
X1689827Y1396587D01*
X1689989Y1396263D01*
X1690151Y1395892D01*
X1690290Y1395499D01*
X1690429Y1395083D01*
X1690521Y1394643D01*
X1690568Y1394203D01*
X1690591Y1393717D01*
Y1379649D01*
Y1379626D01*
Y1379533D01*
X1690568Y1379394D01*
X1690544Y1379232D01*
X1690475Y1379047D01*
X1690406Y1378839D01*
X1690290Y1378654D01*
X1690128Y1378468D01*
X1690105Y1378445D01*
X1690058Y1378422D01*
X1689966Y1378353D01*
X1689827Y1378283D01*
X1689665Y1378214D01*
X1689480Y1378168D01*
X1689272Y1378121D01*
X1689017Y1378098D01*
X1688925D01*
X1688786Y1378121D01*
X1688647Y1378145D01*
X1688485Y1378191D01*
X1688300Y1378260D01*
X1688115Y1378353D01*
X1687930Y1378468D01*
X1687907Y1378492D01*
X1687860Y1378538D01*
X1687791Y1378631D01*
X1687698Y1378769D01*
X1687606Y1378931D01*
X1687536Y1379140D01*
X1687490Y1379371D01*
X1687467Y1379649D01*
Y1393717D01*
Y1393741D01*
Y1393787D01*
Y1393833D01*
X1687444Y1393926D01*
X1687421Y1394180D01*
X1687351Y1394481D01*
X1687259Y1394828D01*
X1687097Y1395198D01*
X1686865Y1395569D01*
X1686564Y1395916D01*
X1686518Y1395962D01*
X1686402Y1396055D01*
X1686217Y1396216D01*
X1685963Y1396378D01*
X1685639Y1396540D01*
X1685269Y1396702D01*
X1684829Y1396795D01*
X1684343Y1396841D01*
X1681219D01*
Y1379649D01*
Y1379626D01*
Y1379533D01*
X1681196Y1379394D01*
X1681173Y1379232D01*
X1681104Y1379047D01*
X1681034Y1378839D01*
X1680918Y1378654D01*
X1680757Y1378468D01*
X1680733Y1378445D01*
X1680687Y1378422D01*
X1680594Y1378353D01*
X1680456Y1378283D01*
X1680294Y1378214D01*
X1680109Y1378168D01*
X1679900Y1378121D01*
X1679646Y1378098D01*
X1679553D01*
X1679414Y1378121D01*
X1679276Y1378145D01*
X1679114Y1378191D01*
X1678929Y1378260D01*
X1678743Y1378353D01*
X1678558Y1378468D01*
X1678535Y1378492D01*
X1678489Y1378538D01*
X1678419Y1378631D01*
X1678327Y1378769D01*
X1678234Y1378931D01*
X1678165Y1379140D01*
X1678119Y1379371D01*
X1678096Y1379649D01*
Y1396841D01*
X1671848D01*
Y1379649D01*
Y1379626D01*
Y1379533D01*
X1671825Y1379394D01*
X1671802Y1379232D01*
X1671732Y1379047D01*
X1671663Y1378839D01*
X1671547Y1378654D01*
X1671385Y1378468D01*
X1671362Y1378445D01*
X1671316Y1378422D01*
X1671223Y1378353D01*
X1671084Y1378283D01*
X1670922Y1378214D01*
X1670737Y1378168D01*
X1670529Y1378121D01*
X1670274Y1378098D01*
X1670182D01*
X1670043Y1378121D01*
X1669904Y1378145D01*
X1669742Y1378191D01*
X1669557Y1378260D01*
X1669372Y1378353D01*
X1669187Y1378468D01*
X1669164Y1378492D01*
X1669117Y1378538D01*
X1669048Y1378631D01*
X1668955Y1378769D01*
X1668863Y1378931D01*
X1668793Y1379140D01*
X1668747Y1379371D01*
X1668724Y1379649D01*
Y1398392D01*
Y1398415D01*
Y1398461D01*
Y1398530D01*
X1668747Y1398646D01*
X1668817Y1398901D01*
X1668909Y1399178D01*
X1669094Y1399479D01*
X1669233Y1399595D01*
X1669372Y1399711D01*
X1669557Y1399826D01*
X1669765Y1399896D01*
X1669997Y1399942D01*
X1670274Y1399965D01*
X1684598D01*
X1684760Y1399942D01*
D02*
G37*
G36*
X1634015D02*
X1634200D01*
X1634455Y1399896D01*
X1634732Y1399849D01*
X1635033Y1399803D01*
X1635380Y1399711D01*
X1635750Y1399618D01*
X1636144Y1399479D01*
X1636537Y1399317D01*
X1636931Y1399109D01*
X1637347Y1398878D01*
X1637764Y1398623D01*
X1638157Y1398299D01*
X1638550Y1397952D01*
X1638573Y1397929D01*
X1638643Y1397859D01*
X1638735Y1397744D01*
X1638874Y1397605D01*
X1639036Y1397397D01*
X1639198Y1397165D01*
X1639383Y1396911D01*
X1639592Y1396610D01*
X1639777Y1396263D01*
X1639962Y1395892D01*
X1640124Y1395499D01*
X1640286Y1395060D01*
X1640424Y1394597D01*
X1640517Y1394134D01*
X1640587Y1393625D01*
X1640610Y1393093D01*
Y1384971D01*
Y1384948D01*
Y1384855D01*
X1640587Y1384693D01*
Y1384508D01*
X1640540Y1384253D01*
X1640494Y1383976D01*
X1640448Y1383652D01*
X1640355Y1383328D01*
X1640263Y1382958D01*
X1640124Y1382564D01*
X1639962Y1382148D01*
X1639754Y1381754D01*
X1639522Y1381338D01*
X1639268Y1380921D01*
X1638944Y1380528D01*
X1638596Y1380135D01*
X1638573Y1380111D01*
X1638504Y1380042D01*
X1638388Y1379949D01*
X1638249Y1379811D01*
X1638041Y1379672D01*
X1637810Y1379487D01*
X1637555Y1379302D01*
X1637254Y1379116D01*
X1636907Y1378931D01*
X1636537Y1378746D01*
X1636144Y1378561D01*
X1635704Y1378422D01*
X1635241Y1378283D01*
X1634778Y1378191D01*
X1634270Y1378121D01*
X1633737Y1378098D01*
X1631747D01*
X1631585Y1378121D01*
X1631400D01*
X1631146Y1378168D01*
X1630868Y1378214D01*
X1630544Y1378260D01*
X1630220Y1378353D01*
X1629850Y1378445D01*
X1629456Y1378584D01*
X1629040Y1378746D01*
X1628647Y1378931D01*
X1628230Y1379163D01*
X1627814Y1379417D01*
X1627420Y1379718D01*
X1627027Y1380065D01*
X1627004Y1380088D01*
X1626934Y1380158D01*
X1626842Y1380273D01*
X1626703Y1380412D01*
X1626564Y1380621D01*
X1626379Y1380852D01*
X1626194Y1381130D01*
X1626009Y1381430D01*
X1625824Y1381754D01*
X1625638Y1382148D01*
X1625453Y1382541D01*
X1625314Y1382981D01*
X1625176Y1383443D01*
X1625083Y1383929D01*
X1625014Y1384438D01*
X1624991Y1384971D01*
Y1393093D01*
Y1393116D01*
Y1393208D01*
X1625014Y1393370D01*
Y1393555D01*
X1625060Y1393787D01*
X1625106Y1394064D01*
X1625152Y1394365D01*
X1625245Y1394712D01*
X1625338Y1395083D01*
X1625477Y1395453D01*
X1625638Y1395869D01*
X1625824Y1396263D01*
X1626055Y1396679D01*
X1626333Y1397096D01*
X1626633Y1397489D01*
X1626980Y1397883D01*
X1627004Y1397906D01*
X1627073Y1397975D01*
X1627189Y1398068D01*
X1627351Y1398206D01*
X1627536Y1398368D01*
X1627767Y1398553D01*
X1628045Y1398739D01*
X1628346Y1398924D01*
X1628693Y1399109D01*
X1629063Y1399317D01*
X1629456Y1399479D01*
X1629896Y1399641D01*
X1630359Y1399780D01*
X1630822Y1399872D01*
X1631331Y1399942D01*
X1631863Y1399965D01*
X1633853D01*
X1634015Y1399942D01*
D02*
G37*
G36*
X1993971D02*
X1994203Y1399919D01*
X1994457Y1399872D01*
X1994735Y1399803D01*
X1995059Y1399734D01*
X1995383Y1399641D01*
X1995730Y1399525D01*
X1996100Y1399363D01*
X1996470Y1399201D01*
X1996841Y1398993D01*
X1997211Y1398739D01*
X1997581Y1398461D01*
X1997928Y1398137D01*
X1997951Y1398114D01*
X1998021Y1398044D01*
X1998113Y1397952D01*
X1998229Y1397813D01*
X1998368Y1397628D01*
X1998530Y1397420D01*
X1998692Y1397188D01*
X1998877Y1396911D01*
X1999039Y1396587D01*
X1999201Y1396263D01*
X1999363Y1395892D01*
X1999502Y1395499D01*
X1999641Y1395083D01*
X1999733Y1394643D01*
X1999779Y1394203D01*
X1999803Y1393717D01*
Y1384346D01*
Y1384323D01*
Y1384230D01*
Y1384091D01*
X1999779Y1383906D01*
X1999756Y1383698D01*
X1999710Y1383443D01*
X1999641Y1383143D01*
X1999571Y1382842D01*
X1999479Y1382495D01*
X1999363Y1382148D01*
X1999201Y1381777D01*
X1999016Y1381407D01*
X1998808Y1381014D01*
X1998553Y1380644D01*
X1998275Y1380273D01*
X1997951Y1379926D01*
X1997928Y1379903D01*
X1997859Y1379857D01*
X1997766Y1379764D01*
X1997627Y1379649D01*
X1997442Y1379510D01*
X1997234Y1379348D01*
X1997003Y1379186D01*
X1996725Y1379024D01*
X1996401Y1378839D01*
X1996077Y1378677D01*
X1995707Y1378515D01*
X1995337Y1378376D01*
X1994920Y1378260D01*
X1994480Y1378168D01*
X1994018Y1378121D01*
X1993555Y1378098D01*
X1987307D01*
Y1370323D01*
Y1370300D01*
Y1370208D01*
X1987284Y1370092D01*
X1987238Y1369953D01*
X1987192Y1369768D01*
X1987099Y1369583D01*
X1986983Y1369398D01*
X1986821Y1369213D01*
X1986798Y1369190D01*
X1986729Y1369143D01*
X1986636Y1369074D01*
X1986497Y1368981D01*
X1986335Y1368889D01*
X1986150Y1368819D01*
X1985965Y1368773D01*
X1985734Y1368750D01*
X1985641D01*
X1985549Y1368773D01*
X1985410Y1368796D01*
X1985248Y1368843D01*
X1985063Y1368912D01*
X1984878Y1369005D01*
X1984693Y1369143D01*
X1984669Y1369167D01*
X1984623Y1369213D01*
X1984530Y1369305D01*
X1984438Y1369444D01*
X1984345Y1369606D01*
X1984253Y1369814D01*
X1984207Y1370046D01*
X1984184Y1370323D01*
Y1398392D01*
Y1398415D01*
Y1398461D01*
Y1398530D01*
X1984207Y1398646D01*
X1984276Y1398901D01*
X1984369Y1399178D01*
X1984554Y1399479D01*
X1984693Y1399595D01*
X1984831Y1399711D01*
X1985016Y1399826D01*
X1985225Y1399896D01*
X1985456Y1399942D01*
X1985734Y1399965D01*
X1993809D01*
X1993971Y1399942D01*
D02*
G37*
G36*
X1878413D02*
X1878645Y1399919D01*
X1878899Y1399872D01*
X1879177Y1399803D01*
X1879501Y1399734D01*
X1879825Y1399641D01*
X1880172Y1399525D01*
X1880542Y1399363D01*
X1880912Y1399201D01*
X1881283Y1398993D01*
X1881653Y1398739D01*
X1882023Y1398461D01*
X1882370Y1398137D01*
X1882393Y1398114D01*
X1882463Y1398044D01*
X1882555Y1397952D01*
X1882671Y1397813D01*
X1882810Y1397628D01*
X1882972Y1397420D01*
X1883134Y1397188D01*
X1883319Y1396911D01*
X1883481Y1396587D01*
X1883643Y1396263D01*
X1883805Y1395892D01*
X1883944Y1395499D01*
X1884082Y1395083D01*
X1884175Y1394643D01*
X1884221Y1394203D01*
X1884244Y1393717D01*
Y1384346D01*
Y1384323D01*
Y1384230D01*
Y1384091D01*
X1884221Y1383906D01*
X1884198Y1383698D01*
X1884152Y1383443D01*
X1884082Y1383143D01*
X1884013Y1382842D01*
X1883920Y1382495D01*
X1883805Y1382148D01*
X1883643Y1381777D01*
X1883458Y1381407D01*
X1883249Y1381014D01*
X1882995Y1380644D01*
X1882717Y1380273D01*
X1882393Y1379926D01*
X1882370Y1379903D01*
X1882301Y1379857D01*
X1882208Y1379764D01*
X1882069Y1379649D01*
X1881884Y1379510D01*
X1881676Y1379348D01*
X1881445Y1379186D01*
X1881167Y1379024D01*
X1880843Y1378839D01*
X1880519Y1378677D01*
X1880149Y1378515D01*
X1879778Y1378376D01*
X1879362Y1378260D01*
X1878922Y1378168D01*
X1878459Y1378121D01*
X1877997Y1378098D01*
X1871749D01*
Y1370323D01*
Y1370300D01*
Y1370208D01*
X1871726Y1370092D01*
X1871680Y1369953D01*
X1871633Y1369768D01*
X1871541Y1369583D01*
X1871425Y1369398D01*
X1871263Y1369213D01*
X1871240Y1369190D01*
X1871171Y1369143D01*
X1871078Y1369074D01*
X1870939Y1368981D01*
X1870777Y1368889D01*
X1870592Y1368819D01*
X1870407Y1368773D01*
X1870176Y1368750D01*
X1870083D01*
X1869991Y1368773D01*
X1869852Y1368796D01*
X1869690Y1368843D01*
X1869505Y1368912D01*
X1869319Y1369005D01*
X1869134Y1369143D01*
X1869111Y1369167D01*
X1869065Y1369213D01*
X1868972Y1369305D01*
X1868880Y1369444D01*
X1868787Y1369606D01*
X1868695Y1369814D01*
X1868648Y1370046D01*
X1868625Y1370323D01*
Y1398392D01*
Y1398415D01*
Y1398461D01*
Y1398530D01*
X1868648Y1398646D01*
X1868718Y1398901D01*
X1868810Y1399178D01*
X1868996Y1399479D01*
X1869134Y1399595D01*
X1869273Y1399711D01*
X1869458Y1399826D01*
X1869667Y1399896D01*
X1869898Y1399942D01*
X1870176Y1399965D01*
X1878251D01*
X1878413Y1399942D01*
D02*
G37*
G36*
X1815937D02*
X1816168Y1399919D01*
X1816423Y1399872D01*
X1816700Y1399803D01*
X1817024Y1399734D01*
X1817348Y1399641D01*
X1817695Y1399525D01*
X1818066Y1399363D01*
X1818436Y1399201D01*
X1818806Y1398993D01*
X1819176Y1398739D01*
X1819547Y1398461D01*
X1819894Y1398137D01*
X1819917Y1398114D01*
X1819986Y1398044D01*
X1820079Y1397952D01*
X1820195Y1397813D01*
X1820333Y1397628D01*
X1820495Y1397420D01*
X1820657Y1397188D01*
X1820842Y1396911D01*
X1821004Y1396587D01*
X1821166Y1396263D01*
X1821328Y1395892D01*
X1821467Y1395499D01*
X1821606Y1395083D01*
X1821699Y1394643D01*
X1821745Y1394203D01*
X1821768Y1393717D01*
Y1384346D01*
Y1384323D01*
Y1384230D01*
Y1384091D01*
X1821745Y1383906D01*
X1821722Y1383698D01*
X1821676Y1383443D01*
X1821606Y1383143D01*
X1821537Y1382842D01*
X1821444Y1382495D01*
X1821328Y1382148D01*
X1821166Y1381777D01*
X1820981Y1381407D01*
X1820773Y1381014D01*
X1820518Y1380644D01*
X1820241Y1380273D01*
X1819917Y1379926D01*
X1819894Y1379903D01*
X1819824Y1379857D01*
X1819732Y1379764D01*
X1819593Y1379649D01*
X1819408Y1379510D01*
X1819200Y1379348D01*
X1818968Y1379186D01*
X1818690Y1379024D01*
X1818367Y1378839D01*
X1818043Y1378677D01*
X1817672Y1378515D01*
X1817302Y1378376D01*
X1816886Y1378260D01*
X1816446Y1378168D01*
X1815983Y1378121D01*
X1815520Y1378098D01*
X1809273D01*
Y1370323D01*
Y1370300D01*
Y1370208D01*
X1809250Y1370092D01*
X1809203Y1369953D01*
X1809157Y1369768D01*
X1809064Y1369583D01*
X1808949Y1369398D01*
X1808787Y1369213D01*
X1808764Y1369190D01*
X1808694Y1369143D01*
X1808602Y1369074D01*
X1808463Y1368981D01*
X1808301Y1368889D01*
X1808116Y1368819D01*
X1807931Y1368773D01*
X1807699Y1368750D01*
X1807607D01*
X1807514Y1368773D01*
X1807375Y1368796D01*
X1807213Y1368843D01*
X1807028Y1368912D01*
X1806843Y1369005D01*
X1806658Y1369143D01*
X1806635Y1369167D01*
X1806589Y1369213D01*
X1806496Y1369305D01*
X1806403Y1369444D01*
X1806311Y1369606D01*
X1806218Y1369814D01*
X1806172Y1370046D01*
X1806149Y1370323D01*
Y1398392D01*
Y1398415D01*
Y1398461D01*
Y1398530D01*
X1806172Y1398646D01*
X1806241Y1398901D01*
X1806334Y1399178D01*
X1806519Y1399479D01*
X1806658Y1399595D01*
X1806797Y1399711D01*
X1806982Y1399826D01*
X1807190Y1399896D01*
X1807422Y1399942D01*
X1807699Y1399965D01*
X1815775D01*
X1815937Y1399942D01*
D02*
G37*
G36*
X1706603D02*
X1706835Y1399919D01*
X1707089Y1399872D01*
X1707367Y1399803D01*
X1707691Y1399734D01*
X1708015Y1399641D01*
X1708362Y1399525D01*
X1708732Y1399363D01*
X1709102Y1399201D01*
X1709473Y1398993D01*
X1709843Y1398739D01*
X1710213Y1398461D01*
X1710560Y1398137D01*
X1710583Y1398114D01*
X1710653Y1398044D01*
X1710745Y1397952D01*
X1710861Y1397813D01*
X1711000Y1397628D01*
X1711162Y1397420D01*
X1711324Y1397188D01*
X1711509Y1396911D01*
X1711671Y1396587D01*
X1711833Y1396263D01*
X1711995Y1395892D01*
X1712133Y1395499D01*
X1712272Y1395083D01*
X1712365Y1394643D01*
X1712411Y1394203D01*
X1712434Y1393717D01*
Y1384346D01*
Y1384323D01*
Y1384230D01*
Y1384091D01*
X1712411Y1383906D01*
X1712388Y1383698D01*
X1712342Y1383443D01*
X1712272Y1383143D01*
X1712203Y1382842D01*
X1712110Y1382495D01*
X1711995Y1382148D01*
X1711833Y1381777D01*
X1711648Y1381407D01*
X1711439Y1381014D01*
X1711185Y1380644D01*
X1710907Y1380273D01*
X1710583Y1379926D01*
X1710560Y1379903D01*
X1710491Y1379857D01*
X1710398Y1379764D01*
X1710259Y1379649D01*
X1710074Y1379510D01*
X1709866Y1379348D01*
X1709635Y1379186D01*
X1709357Y1379024D01*
X1709033Y1378839D01*
X1708709Y1378677D01*
X1708339Y1378515D01*
X1707968Y1378376D01*
X1707552Y1378260D01*
X1707112Y1378168D01*
X1706649Y1378121D01*
X1706187Y1378098D01*
X1699939D01*
Y1370323D01*
Y1370300D01*
Y1370208D01*
X1699916Y1370092D01*
X1699870Y1369953D01*
X1699823Y1369768D01*
X1699731Y1369583D01*
X1699615Y1369398D01*
X1699453Y1369213D01*
X1699430Y1369190D01*
X1699361Y1369143D01*
X1699268Y1369074D01*
X1699129Y1368981D01*
X1698967Y1368889D01*
X1698782Y1368819D01*
X1698597Y1368773D01*
X1698366Y1368750D01*
X1698273D01*
X1698181Y1368773D01*
X1698042Y1368796D01*
X1697880Y1368843D01*
X1697695Y1368912D01*
X1697509Y1369005D01*
X1697324Y1369143D01*
X1697301Y1369167D01*
X1697255Y1369213D01*
X1697162Y1369305D01*
X1697070Y1369444D01*
X1696977Y1369606D01*
X1696885Y1369814D01*
X1696838Y1370046D01*
X1696815Y1370323D01*
Y1398392D01*
Y1398415D01*
Y1398461D01*
Y1398530D01*
X1696838Y1398646D01*
X1696908Y1398901D01*
X1697000Y1399178D01*
X1697186Y1399479D01*
X1697324Y1399595D01*
X1697463Y1399711D01*
X1697648Y1399826D01*
X1697856Y1399896D01*
X1698088Y1399942D01*
X1698366Y1399965D01*
X1706441D01*
X1706603Y1399942D01*
D02*
G37*
G36*
X1807884Y1356192D02*
X1808023Y1356169D01*
X1808208Y1356099D01*
X1808393Y1356030D01*
X1808579Y1355914D01*
X1808764Y1355752D01*
X1808787Y1355729D01*
X1808833Y1355683D01*
X1808926Y1355590D01*
X1809018Y1355451D01*
X1809088Y1355313D01*
X1809180Y1355128D01*
X1809227Y1354896D01*
X1809250Y1354665D01*
X1809180Y1354202D01*
X1803511Y1334348D01*
X1810823D01*
Y1339023D01*
Y1339046D01*
Y1339138D01*
X1810846Y1339254D01*
X1810892Y1339393D01*
X1810939Y1339578D01*
X1811008Y1339786D01*
X1811124Y1339971D01*
X1811286Y1340179D01*
X1811309Y1340203D01*
X1811378Y1340249D01*
X1811471Y1340318D01*
X1811587Y1340388D01*
X1811749Y1340457D01*
X1811934Y1340526D01*
X1812142Y1340573D01*
X1812373Y1340596D01*
X1812466D01*
X1812582Y1340573D01*
X1812744Y1340550D01*
X1812906Y1340503D01*
X1813091Y1340434D01*
X1813276Y1340341D01*
X1813461Y1340203D01*
X1813484Y1340179D01*
X1813530Y1340133D01*
X1813623Y1340041D01*
X1813716Y1339902D01*
X1813785Y1339740D01*
X1813878Y1339532D01*
X1813924Y1339300D01*
X1813947Y1339023D01*
Y1334348D01*
X1817186D01*
X1817302Y1334325D01*
X1817441Y1334279D01*
X1817626Y1334233D01*
X1817811Y1334140D01*
X1817996Y1334024D01*
X1818158Y1333862D01*
X1818181Y1333839D01*
X1818228Y1333770D01*
X1818297Y1333677D01*
X1818390Y1333538D01*
X1818482Y1333376D01*
X1818552Y1333191D01*
X1818598Y1333006D01*
X1818621Y1332775D01*
Y1332752D01*
Y1332682D01*
X1818598Y1332590D01*
X1818575Y1332451D01*
X1818528Y1332289D01*
X1818459Y1332104D01*
X1818367Y1331919D01*
X1818228Y1331734D01*
X1818204Y1331710D01*
X1818158Y1331664D01*
X1818066Y1331572D01*
X1817927Y1331479D01*
X1817765Y1331387D01*
X1817580Y1331294D01*
X1817348Y1331248D01*
X1817071Y1331225D01*
X1813947D01*
Y1326550D01*
Y1326527D01*
Y1326435D01*
X1813924Y1326296D01*
X1813901Y1326134D01*
X1813831Y1325949D01*
X1813762Y1325741D01*
X1813646Y1325555D01*
X1813484Y1325370D01*
X1813461Y1325347D01*
X1813415Y1325324D01*
X1813322Y1325255D01*
X1813183Y1325185D01*
X1813021Y1325116D01*
X1812836Y1325069D01*
X1812628Y1325023D01*
X1812373Y1325000D01*
X1812281D01*
X1812142Y1325023D01*
X1812003Y1325046D01*
X1811841Y1325092D01*
X1811656Y1325162D01*
X1811471Y1325255D01*
X1811286Y1325370D01*
X1811263Y1325393D01*
X1811216Y1325440D01*
X1811147Y1325532D01*
X1811055Y1325671D01*
X1810962Y1325833D01*
X1810892Y1326041D01*
X1810846Y1326273D01*
X1810823Y1326550D01*
Y1331225D01*
X1801313D01*
X1801197Y1331248D01*
X1800943Y1331294D01*
X1800642Y1331387D01*
X1800341Y1331525D01*
X1800086Y1331757D01*
X1799971Y1331895D01*
X1799901Y1332057D01*
X1799855Y1332266D01*
X1799832Y1332474D01*
X1799855Y1332867D01*
X1799948Y1333215D01*
X1806195Y1355058D01*
Y1355081D01*
X1806218Y1355151D01*
X1806265Y1355243D01*
X1806311Y1355359D01*
X1806473Y1355637D01*
X1806589Y1355775D01*
X1806727Y1355914D01*
X1807028Y1356076D01*
X1807051D01*
X1807074Y1356099D01*
X1807190Y1356146D01*
X1807398Y1356192D01*
X1807630Y1356215D01*
X1807746D01*
X1807884Y1356192D01*
D02*
G37*
G36*
X1792335D02*
X1792589Y1356146D01*
X1792867Y1356053D01*
X1793168Y1355891D01*
X1793399Y1355660D01*
X1793515Y1355521D01*
X1793584Y1355359D01*
X1793631Y1355151D01*
X1793654Y1354919D01*
X1793561Y1354248D01*
X1785763Y1326157D01*
Y1326134D01*
X1785740Y1326087D01*
X1785717Y1325995D01*
X1785670Y1325879D01*
X1785601Y1325741D01*
X1785509Y1325602D01*
X1785393Y1325463D01*
X1785231Y1325324D01*
X1785208Y1325301D01*
X1785161Y1325278D01*
X1785069Y1325231D01*
X1784953Y1325162D01*
X1784814Y1325092D01*
X1784652Y1325046D01*
X1784467Y1325023D01*
X1784282Y1325000D01*
X1784167D01*
X1784051Y1325023D01*
X1783889Y1325046D01*
X1783704Y1325092D01*
X1783519Y1325162D01*
X1783333Y1325255D01*
X1783148Y1325370D01*
X1783125Y1325393D01*
X1783079Y1325440D01*
X1783009Y1325532D01*
X1782940Y1325648D01*
X1782847Y1325810D01*
X1782778Y1325995D01*
X1782732Y1326226D01*
X1782709Y1326481D01*
Y1326504D01*
Y1326527D01*
Y1326666D01*
X1782732Y1326828D01*
X1782778Y1326944D01*
X1790021Y1353091D01*
X1781158D01*
Y1351518D01*
Y1351495D01*
Y1351402D01*
X1781135Y1351263D01*
X1781112Y1351101D01*
X1781043Y1350916D01*
X1780973Y1350708D01*
X1780858Y1350523D01*
X1780696Y1350338D01*
X1780672Y1350314D01*
X1780626Y1350291D01*
X1780534Y1350222D01*
X1780395Y1350152D01*
X1780233Y1350083D01*
X1780048Y1350037D01*
X1779839Y1349991D01*
X1779585Y1349967D01*
X1779492D01*
X1779353Y1349991D01*
X1779215Y1350014D01*
X1779053Y1350060D01*
X1778868Y1350129D01*
X1778682Y1350222D01*
X1778497Y1350338D01*
X1778474Y1350361D01*
X1778428Y1350407D01*
X1778358Y1350500D01*
X1778266Y1350638D01*
X1778173Y1350800D01*
X1778104Y1351009D01*
X1778058Y1351240D01*
X1778035Y1351518D01*
Y1354642D01*
Y1354665D01*
Y1354711D01*
Y1354780D01*
X1778058Y1354896D01*
X1778127Y1355151D01*
X1778220Y1355428D01*
X1778405Y1355729D01*
X1778544Y1355845D01*
X1778682Y1355961D01*
X1778868Y1356076D01*
X1779076Y1356146D01*
X1779307Y1356192D01*
X1779585Y1356215D01*
X1792219D01*
X1792335Y1356192D01*
D02*
G37*
G36*
X1770653Y1356423D02*
X1770769Y1356400D01*
X1770885Y1356331D01*
X1771046Y1356261D01*
X1771208Y1356146D01*
X1771393Y1355984D01*
X1771417Y1355961D01*
X1771463Y1355891D01*
X1771509Y1355775D01*
X1771602Y1355637D01*
X1771671Y1355428D01*
X1771718Y1355220D01*
X1771764Y1354966D01*
X1771787Y1354665D01*
Y1326550D01*
Y1326527D01*
Y1326435D01*
X1771764Y1326296D01*
X1771741Y1326134D01*
X1771671Y1325949D01*
X1771602Y1325741D01*
X1771486Y1325555D01*
X1771324Y1325370D01*
X1771301Y1325347D01*
X1771255Y1325324D01*
X1771162Y1325255D01*
X1771023Y1325185D01*
X1770861Y1325116D01*
X1770676Y1325069D01*
X1770468Y1325023D01*
X1770213Y1325000D01*
X1770121D01*
X1769982Y1325023D01*
X1769843Y1325046D01*
X1769681Y1325092D01*
X1769496Y1325162D01*
X1769311Y1325255D01*
X1769126Y1325370D01*
X1769103Y1325393D01*
X1769057Y1325440D01*
X1768987Y1325532D01*
X1768895Y1325671D01*
X1768802Y1325833D01*
X1768732Y1326041D01*
X1768686Y1326273D01*
X1768663Y1326550D01*
Y1350916D01*
X1765053Y1347306D01*
X1765030Y1347283D01*
X1764984Y1347237D01*
X1764868Y1347168D01*
X1764753Y1347075D01*
X1764591Y1346982D01*
X1764405Y1346913D01*
X1764197Y1346867D01*
X1763989Y1346844D01*
X1763896D01*
X1763781Y1346867D01*
X1763642Y1346913D01*
X1763480Y1346959D01*
X1763295Y1347029D01*
X1763110Y1347144D01*
X1762901Y1347306D01*
X1762878Y1347330D01*
X1762832Y1347399D01*
X1762739Y1347491D01*
X1762647Y1347630D01*
X1762554Y1347815D01*
X1762462Y1348001D01*
X1762415Y1348209D01*
X1762392Y1348440D01*
Y1348463D01*
Y1348533D01*
X1762415Y1348649D01*
X1762462Y1348764D01*
X1762508Y1348926D01*
X1762601Y1349111D01*
X1762716Y1349296D01*
X1762878Y1349505D01*
X1769126Y1355752D01*
X1769149Y1355775D01*
X1769172Y1355798D01*
X1769311Y1355937D01*
X1769519Y1356076D01*
X1769751Y1356238D01*
X1769774D01*
X1769820Y1356261D01*
X1769890Y1356308D01*
X1769982Y1356354D01*
X1770213Y1356423D01*
X1770514Y1356446D01*
X1770584D01*
X1770653Y1356423D01*
D02*
G37*
G36*
X1754779Y1328101D02*
X1754918Y1328078D01*
X1755080Y1328008D01*
X1755242Y1327939D01*
X1755427Y1327823D01*
X1755636Y1327661D01*
X1755659Y1327638D01*
X1755728Y1327569D01*
X1755798Y1327476D01*
X1755913Y1327360D01*
X1756006Y1327198D01*
X1756075Y1326990D01*
X1756145Y1326782D01*
X1756168Y1326550D01*
Y1326527D01*
Y1326458D01*
X1756145Y1326342D01*
X1756122Y1326203D01*
X1756052Y1326041D01*
X1755983Y1325879D01*
X1755867Y1325671D01*
X1755705Y1325486D01*
X1755682Y1325463D01*
X1755612Y1325417D01*
X1755520Y1325324D01*
X1755404Y1325255D01*
X1755242Y1325162D01*
X1755034Y1325069D01*
X1754826Y1325023D01*
X1754594Y1325000D01*
X1754479D01*
X1754363Y1325023D01*
X1754201Y1325069D01*
X1754016Y1325116D01*
X1753831Y1325185D01*
X1753646Y1325301D01*
X1753461Y1325463D01*
X1753437Y1325486D01*
X1753391Y1325555D01*
X1753322Y1325648D01*
X1753252Y1325787D01*
X1753183Y1325949D01*
X1753113Y1326134D01*
X1753067Y1326342D01*
X1753044Y1326550D01*
Y1326573D01*
Y1326666D01*
X1753067Y1326782D01*
X1753090Y1326944D01*
X1753160Y1327106D01*
X1753229Y1327291D01*
X1753345Y1327476D01*
X1753484Y1327661D01*
X1753507Y1327684D01*
X1753576Y1327730D01*
X1753669Y1327800D01*
X1753808Y1327892D01*
X1753970Y1327985D01*
X1754155Y1328054D01*
X1754363Y1328101D01*
X1754594Y1328124D01*
X1754687D01*
X1754779Y1328101D01*
D02*
G37*
G36*
X1740988Y1356192D02*
X1741197Y1356169D01*
X1741474Y1356122D01*
X1741752Y1356053D01*
X1742076Y1355984D01*
X1742423Y1355891D01*
X1742770Y1355775D01*
X1743140Y1355613D01*
X1743511Y1355428D01*
X1743881Y1355220D01*
X1744251Y1354966D01*
X1744621Y1354688D01*
X1744968Y1354364D01*
X1744991Y1354341D01*
X1745038Y1354271D01*
X1745130Y1354179D01*
X1745246Y1354040D01*
X1745385Y1353855D01*
X1745547Y1353647D01*
X1745709Y1353415D01*
X1745894Y1353138D01*
X1746056Y1352814D01*
X1746218Y1352490D01*
X1746380Y1352119D01*
X1746519Y1351749D01*
X1746634Y1351333D01*
X1746727Y1350893D01*
X1746773Y1350430D01*
X1746796Y1349967D01*
Y1342169D01*
Y1342146D01*
Y1342123D01*
Y1342054D01*
Y1341961D01*
Y1341730D01*
X1746773Y1341406D01*
X1746750Y1341013D01*
X1746704Y1340550D01*
X1746658Y1340018D01*
X1746588Y1339439D01*
X1746496Y1338814D01*
X1746380Y1338143D01*
X1746241Y1337449D01*
X1746079Y1336732D01*
X1745871Y1335991D01*
X1745639Y1335228D01*
X1745385Y1334487D01*
X1745084Y1333747D01*
X1745061Y1333723D01*
X1745038Y1333608D01*
X1744968Y1333469D01*
X1744853Y1333261D01*
X1744737Y1333006D01*
X1744575Y1332705D01*
X1744390Y1332381D01*
X1744205Y1332011D01*
X1743973Y1331618D01*
X1743696Y1331201D01*
X1743418Y1330762D01*
X1743117Y1330322D01*
X1742770Y1329882D01*
X1742423Y1329443D01*
X1742053Y1329003D01*
X1741636Y1328564D01*
X1741613Y1328540D01*
X1741544Y1328471D01*
X1741405Y1328355D01*
X1741243Y1328193D01*
X1741035Y1328008D01*
X1740780Y1327800D01*
X1740479Y1327545D01*
X1740155Y1327291D01*
X1739785Y1327013D01*
X1739392Y1326735D01*
X1738975Y1326458D01*
X1738512Y1326157D01*
X1738026Y1325879D01*
X1737518Y1325602D01*
X1737008Y1325347D01*
X1736453Y1325116D01*
X1735782Y1325000D01*
X1735689D01*
X1735597Y1325023D01*
X1735458Y1325069D01*
X1735296Y1325116D01*
X1735134Y1325208D01*
X1734949Y1325324D01*
X1734764Y1325486D01*
X1734741Y1325509D01*
X1734694Y1325578D01*
X1734602Y1325671D01*
X1734532Y1325810D01*
X1734440Y1325995D01*
X1734347Y1326180D01*
X1734301Y1326388D01*
X1734278Y1326620D01*
Y1326643D01*
Y1326689D01*
X1734301Y1326759D01*
Y1326851D01*
X1734371Y1327083D01*
X1734486Y1327337D01*
Y1327360D01*
X1734532Y1327406D01*
X1734579Y1327476D01*
X1734671Y1327569D01*
X1734764Y1327661D01*
X1734903Y1327777D01*
X1735065Y1327869D01*
X1735250Y1327985D01*
X1735273D01*
X1735296Y1328008D01*
X1735365Y1328031D01*
X1735458Y1328078D01*
X1735666Y1328170D01*
X1735967Y1328309D01*
X1736314Y1328471D01*
X1736684Y1328656D01*
X1737055Y1328887D01*
X1737448Y1329119D01*
X1737471D01*
X1737494Y1329142D01*
X1737633Y1329234D01*
X1737818Y1329373D01*
X1738096Y1329582D01*
X1738397Y1329813D01*
X1738721Y1330091D01*
X1739068Y1330415D01*
X1739415Y1330762D01*
X1739438Y1330785D01*
X1739484Y1330854D01*
X1739577Y1330947D01*
X1739693Y1331086D01*
X1739854Y1331248D01*
X1740016Y1331456D01*
X1740202Y1331687D01*
X1740410Y1331965D01*
X1740641Y1332266D01*
X1740873Y1332590D01*
X1741104Y1332937D01*
X1741335Y1333307D01*
X1741798Y1334117D01*
X1742238Y1334996D01*
X1742654Y1336176D01*
X1743048Y1337495D01*
X1737286D01*
X1737147Y1337518D01*
X1736985D01*
X1736754Y1337542D01*
X1736499Y1337588D01*
X1736222Y1337657D01*
X1735921Y1337727D01*
X1735574Y1337819D01*
X1735227Y1337935D01*
X1734856Y1338074D01*
X1734486Y1338259D01*
X1734116Y1338467D01*
X1733746Y1338698D01*
X1733376Y1338976D01*
X1733028Y1339300D01*
X1733005Y1339323D01*
X1732959Y1339393D01*
X1732866Y1339485D01*
X1732751Y1339624D01*
X1732589Y1339809D01*
X1732450Y1340018D01*
X1732265Y1340249D01*
X1732103Y1340526D01*
X1731941Y1340827D01*
X1731756Y1341174D01*
X1731617Y1341545D01*
X1731478Y1341938D01*
X1731339Y1342331D01*
X1731247Y1342771D01*
X1731200Y1343234D01*
X1731177Y1343720D01*
Y1349967D01*
Y1349991D01*
Y1350083D01*
X1731200Y1350222D01*
Y1350407D01*
X1731223Y1350615D01*
X1731270Y1350893D01*
X1731339Y1351171D01*
X1731409Y1351495D01*
X1731501Y1351842D01*
X1731617Y1352189D01*
X1731779Y1352559D01*
X1731941Y1352929D01*
X1732149Y1353300D01*
X1732404Y1353670D01*
X1732681Y1354040D01*
X1733005Y1354387D01*
X1733028Y1354410D01*
X1733098Y1354456D01*
X1733190Y1354549D01*
X1733329Y1354665D01*
X1733514Y1354803D01*
X1733723Y1354966D01*
X1733977Y1355128D01*
X1734255Y1355313D01*
X1734556Y1355475D01*
X1734880Y1355637D01*
X1735250Y1355798D01*
X1735643Y1355937D01*
X1736060Y1356053D01*
X1736499Y1356146D01*
X1736939Y1356192D01*
X1737425Y1356215D01*
X1740803D01*
X1740988Y1356192D01*
D02*
G37*
G36*
X1715882D02*
X1716137Y1356169D01*
X1716438Y1356146D01*
X1716808Y1356076D01*
X1717201Y1356007D01*
X1717618Y1355914D01*
X1718080Y1355775D01*
X1718543Y1355613D01*
X1719029Y1355428D01*
X1719538Y1355174D01*
X1720024Y1354896D01*
X1720487Y1354572D01*
X1720950Y1354202D01*
X1721389Y1353762D01*
X1721412Y1353739D01*
X1721482Y1353670D01*
X1721574Y1353531D01*
X1721690Y1353369D01*
X1721852Y1353161D01*
X1722014Y1352883D01*
X1722199Y1352605D01*
X1722384Y1352258D01*
X1722546Y1351888D01*
X1722731Y1351472D01*
X1722893Y1351032D01*
X1723055Y1350569D01*
X1723171Y1350060D01*
X1723264Y1349528D01*
X1723333Y1348972D01*
X1723356Y1348394D01*
Y1348371D01*
Y1348324D01*
Y1348232D01*
Y1348093D01*
X1723333Y1347954D01*
Y1347769D01*
X1723310Y1347561D01*
X1723264Y1347330D01*
X1723194Y1346820D01*
X1723078Y1346242D01*
X1722917Y1345640D01*
X1722685Y1345039D01*
Y1345016D01*
X1722662Y1344969D01*
X1722616Y1344877D01*
X1722569Y1344761D01*
X1722500Y1344622D01*
X1722407Y1344460D01*
X1722199Y1344090D01*
X1721922Y1343674D01*
X1721574Y1343211D01*
X1721181Y1342771D01*
X1720718Y1342331D01*
X1720741Y1342308D01*
X1720811Y1342285D01*
X1720927Y1342216D01*
X1721065Y1342100D01*
X1721227Y1341984D01*
X1721436Y1341846D01*
X1721644Y1341660D01*
X1721875Y1341452D01*
X1722130Y1341244D01*
X1722384Y1340989D01*
X1722662Y1340712D01*
X1722917Y1340411D01*
X1723171Y1340087D01*
X1723426Y1339740D01*
X1723865Y1338976D01*
X1723888Y1338953D01*
X1723911Y1338884D01*
X1723958Y1338768D01*
X1724027Y1338606D01*
X1724120Y1338398D01*
X1724212Y1338166D01*
X1724305Y1337889D01*
X1724421Y1337588D01*
X1724513Y1337264D01*
X1724606Y1336894D01*
X1724698Y1336523D01*
X1724791Y1336107D01*
X1724906Y1335251D01*
X1724953Y1334811D01*
Y1334348D01*
Y1334302D01*
Y1334186D01*
X1724930Y1334001D01*
X1724906Y1333723D01*
X1724883Y1333423D01*
X1724837Y1333053D01*
X1724745Y1332613D01*
X1724652Y1332173D01*
X1724536Y1331687D01*
X1724374Y1331178D01*
X1724189Y1330646D01*
X1723958Y1330091D01*
X1723680Y1329535D01*
X1723379Y1329003D01*
X1723009Y1328471D01*
X1722592Y1327939D01*
X1722569Y1327916D01*
X1722477Y1327823D01*
X1722315Y1327661D01*
X1722130Y1327476D01*
X1721852Y1327268D01*
X1721528Y1327013D01*
X1721158Y1326735D01*
X1720741Y1326481D01*
X1720255Y1326203D01*
X1719746Y1325926D01*
X1719168Y1325671D01*
X1718543Y1325463D01*
X1717849Y1325278D01*
X1717132Y1325116D01*
X1716368Y1325023D01*
X1715558Y1325000D01*
X1715373D01*
X1715142Y1325023D01*
X1714841Y1325046D01*
X1714447Y1325092D01*
X1714031Y1325162D01*
X1713545Y1325231D01*
X1713036Y1325370D01*
X1712481Y1325509D01*
X1711902Y1325717D01*
X1711324Y1325949D01*
X1710745Y1326226D01*
X1710143Y1326550D01*
X1709588Y1326944D01*
X1709033Y1327383D01*
X1708524Y1327892D01*
X1708501Y1327916D01*
X1708431Y1328008D01*
X1708315Y1328147D01*
X1708154Y1328355D01*
X1707992Y1328610D01*
X1707783Y1328911D01*
X1707575Y1329281D01*
X1707367Y1329674D01*
X1707135Y1330114D01*
X1706927Y1330600D01*
X1706719Y1331132D01*
X1706557Y1331710D01*
X1706395Y1332312D01*
X1706279Y1332960D01*
X1706210Y1333631D01*
X1706187Y1334348D01*
Y1334371D01*
Y1334464D01*
Y1334603D01*
X1706210Y1334765D01*
Y1334996D01*
X1706233Y1335251D01*
X1706279Y1335528D01*
X1706326Y1335852D01*
X1706372Y1336199D01*
X1706441Y1336570D01*
X1706626Y1337333D01*
X1706881Y1338143D01*
X1707020Y1338560D01*
X1707205Y1338953D01*
X1707228Y1338976D01*
X1707251Y1339046D01*
X1707321Y1339161D01*
X1707413Y1339300D01*
X1707506Y1339485D01*
X1707645Y1339693D01*
X1707807Y1339925D01*
X1707992Y1340179D01*
X1708200Y1340457D01*
X1708431Y1340735D01*
X1708686Y1341013D01*
X1708987Y1341290D01*
X1709287Y1341591D01*
X1709635Y1341869D01*
X1709982Y1342123D01*
X1710375Y1342378D01*
X1710352Y1342401D01*
X1710329Y1342424D01*
X1710259Y1342493D01*
X1710167Y1342563D01*
X1709935Y1342794D01*
X1709658Y1343095D01*
X1709357Y1343488D01*
X1709033Y1343951D01*
X1708709Y1344460D01*
X1708431Y1345039D01*
Y1345062D01*
X1708408Y1345108D01*
X1708362Y1345201D01*
X1708339Y1345316D01*
X1708269Y1345478D01*
X1708223Y1345640D01*
X1708154Y1345849D01*
X1708107Y1346057D01*
X1707968Y1346566D01*
X1707876Y1347144D01*
X1707783Y1347746D01*
X1707760Y1348394D01*
Y1348440D01*
Y1348533D01*
X1707783Y1348695D01*
Y1348926D01*
X1707830Y1349181D01*
X1707853Y1349505D01*
X1707922Y1349852D01*
X1707992Y1350245D01*
X1708107Y1350638D01*
X1708223Y1351078D01*
X1708385Y1351518D01*
X1708570Y1351980D01*
X1708802Y1352443D01*
X1709056Y1352883D01*
X1709334Y1353323D01*
X1709681Y1353762D01*
X1709704Y1353785D01*
X1709773Y1353878D01*
X1709912Y1353994D01*
X1710074Y1354156D01*
X1710305Y1354341D01*
X1710560Y1354549D01*
X1710884Y1354757D01*
X1711231Y1354989D01*
X1711624Y1355220D01*
X1712064Y1355428D01*
X1712550Y1355637D01*
X1713059Y1355822D01*
X1713638Y1355984D01*
X1714239Y1356099D01*
X1714864Y1356192D01*
X1715535Y1356215D01*
X1715697D01*
X1715882Y1356192D01*
D02*
G37*
G36*
X1693344D02*
X1693530D01*
X1693784Y1356146D01*
X1694062Y1356099D01*
X1694362Y1356053D01*
X1694710Y1355961D01*
X1695080Y1355868D01*
X1695473Y1355729D01*
X1695867Y1355567D01*
X1696260Y1355359D01*
X1696676Y1355128D01*
X1697093Y1354873D01*
X1697486Y1354549D01*
X1697880Y1354202D01*
X1697903Y1354179D01*
X1697972Y1354109D01*
X1698065Y1353994D01*
X1698204Y1353855D01*
X1698366Y1353647D01*
X1698528Y1353415D01*
X1698713Y1353161D01*
X1698921Y1352860D01*
X1699106Y1352513D01*
X1699291Y1352142D01*
X1699453Y1351749D01*
X1699615Y1351310D01*
X1699754Y1350847D01*
X1699846Y1350384D01*
X1699916Y1349875D01*
X1699939Y1349343D01*
Y1331849D01*
Y1331826D01*
Y1331734D01*
X1699916Y1331572D01*
Y1331387D01*
X1699870Y1331155D01*
X1699823Y1330854D01*
X1699777Y1330553D01*
X1699684Y1330206D01*
X1699592Y1329836D01*
X1699453Y1329466D01*
X1699291Y1329049D01*
X1699083Y1328656D01*
X1698851Y1328239D01*
X1698597Y1327823D01*
X1698273Y1327430D01*
X1697926Y1327036D01*
X1697903Y1327013D01*
X1697833Y1326944D01*
X1697718Y1326851D01*
X1697579Y1326712D01*
X1697371Y1326573D01*
X1697139Y1326388D01*
X1696885Y1326203D01*
X1696584Y1326018D01*
X1696237Y1325833D01*
X1695867Y1325648D01*
X1695473Y1325463D01*
X1695034Y1325324D01*
X1694571Y1325185D01*
X1694108Y1325092D01*
X1693599Y1325023D01*
X1693067Y1325000D01*
X1691077D01*
X1690915Y1325023D01*
X1690730D01*
X1690475Y1325069D01*
X1690197Y1325116D01*
X1689873Y1325162D01*
X1689550Y1325255D01*
X1689179Y1325347D01*
X1688786Y1325486D01*
X1688369Y1325648D01*
X1687976Y1325833D01*
X1687560Y1326064D01*
X1687143Y1326319D01*
X1686750Y1326620D01*
X1686356Y1326967D01*
X1686333Y1326990D01*
X1686264Y1327059D01*
X1686171Y1327175D01*
X1686032Y1327314D01*
X1685894Y1327522D01*
X1685708Y1327754D01*
X1685523Y1328008D01*
X1685338Y1328332D01*
X1685153Y1328656D01*
X1684968Y1329026D01*
X1684783Y1329443D01*
X1684644Y1329859D01*
X1684505Y1330322D01*
X1684413Y1330808D01*
X1684343Y1331317D01*
X1684320Y1331849D01*
Y1349343D01*
Y1349366D01*
Y1349458D01*
X1684343Y1349620D01*
Y1349805D01*
X1684389Y1350037D01*
X1684436Y1350314D01*
X1684482Y1350615D01*
X1684574Y1350962D01*
X1684667Y1351333D01*
X1684806Y1351703D01*
X1684968Y1352119D01*
X1685153Y1352513D01*
X1685384Y1352929D01*
X1685662Y1353346D01*
X1685963Y1353739D01*
X1686310Y1354133D01*
X1686333Y1354156D01*
X1686402Y1354225D01*
X1686518Y1354318D01*
X1686680Y1354456D01*
X1686865Y1354618D01*
X1687097Y1354803D01*
X1687374Y1354989D01*
X1687675Y1355174D01*
X1688022Y1355359D01*
X1688392Y1355567D01*
X1688786Y1355729D01*
X1689225Y1355891D01*
X1689688Y1356030D01*
X1690151Y1356122D01*
X1690660Y1356192D01*
X1691192Y1356215D01*
X1693182D01*
X1693344Y1356192D01*
D02*
G37*
G36*
X1676684Y1328101D02*
X1676823Y1328078D01*
X1676985Y1328008D01*
X1677147Y1327939D01*
X1677332Y1327823D01*
X1677540Y1327661D01*
X1677563Y1327638D01*
X1677633Y1327569D01*
X1677702Y1327476D01*
X1677818Y1327360D01*
X1677910Y1327198D01*
X1677980Y1326990D01*
X1678049Y1326782D01*
X1678072Y1326550D01*
Y1326527D01*
Y1326458D01*
X1678049Y1326342D01*
X1678026Y1326203D01*
X1677957Y1326041D01*
X1677887Y1325879D01*
X1677771Y1325671D01*
X1677610Y1325486D01*
X1677586Y1325463D01*
X1677517Y1325417D01*
X1677424Y1325324D01*
X1677309Y1325255D01*
X1677147Y1325162D01*
X1676938Y1325069D01*
X1676730Y1325023D01*
X1676499Y1325000D01*
X1676383D01*
X1676268Y1325023D01*
X1676105Y1325069D01*
X1675920Y1325116D01*
X1675735Y1325185D01*
X1675550Y1325301D01*
X1675365Y1325463D01*
X1675342Y1325486D01*
X1675296Y1325555D01*
X1675226Y1325648D01*
X1675157Y1325787D01*
X1675087Y1325949D01*
X1675018Y1326134D01*
X1674972Y1326342D01*
X1674948Y1326550D01*
Y1326573D01*
Y1326666D01*
X1674972Y1326782D01*
X1674995Y1326944D01*
X1675064Y1327106D01*
X1675134Y1327291D01*
X1675249Y1327476D01*
X1675388Y1327661D01*
X1675411Y1327684D01*
X1675481Y1327730D01*
X1675573Y1327800D01*
X1675712Y1327892D01*
X1675874Y1327985D01*
X1676059Y1328054D01*
X1676268Y1328101D01*
X1676499Y1328124D01*
X1676591D01*
X1676684Y1328101D01*
D02*
G37*
G36*
X1661065Y1356146D02*
X1661319Y1356122D01*
X1661643Y1356099D01*
X1661991Y1356053D01*
X1662384Y1355961D01*
X1662823Y1355868D01*
X1663286Y1355752D01*
X1663749Y1355590D01*
X1664235Y1355405D01*
X1664721Y1355174D01*
X1665207Y1354896D01*
X1665693Y1354572D01*
X1666156Y1354202D01*
X1666572Y1353785D01*
X1666595Y1353762D01*
X1666665Y1353693D01*
X1666757Y1353554D01*
X1666873Y1353392D01*
X1667035Y1353161D01*
X1667197Y1352906D01*
X1667382Y1352605D01*
X1667567Y1352281D01*
X1667729Y1351888D01*
X1667914Y1351495D01*
X1668076Y1351055D01*
X1668238Y1350569D01*
X1668354Y1350083D01*
X1668446Y1349551D01*
X1668516Y1348996D01*
X1668539Y1348417D01*
Y1348394D01*
Y1348324D01*
Y1348232D01*
X1668516Y1348093D01*
Y1347931D01*
X1668493Y1347723D01*
X1668470Y1347515D01*
X1668446Y1347260D01*
X1668354Y1346728D01*
X1668215Y1346149D01*
X1668030Y1345525D01*
X1667775Y1344923D01*
Y1344900D01*
X1667752Y1344854D01*
X1667706Y1344761D01*
X1667637Y1344668D01*
X1667567Y1344530D01*
X1667451Y1344368D01*
X1667220Y1343974D01*
X1666896Y1343535D01*
X1666503Y1343049D01*
X1666040Y1342563D01*
X1665484Y1342077D01*
X1665508D01*
X1665554Y1342031D01*
X1665600Y1341984D01*
X1665693Y1341892D01*
X1665947Y1341660D01*
X1666248Y1341360D01*
X1666572Y1340989D01*
X1666942Y1340526D01*
X1667289Y1339994D01*
X1667637Y1339416D01*
Y1339393D01*
X1667683Y1339346D01*
X1667729Y1339254D01*
X1667775Y1339138D01*
X1667845Y1338976D01*
X1667914Y1338791D01*
X1668007Y1338583D01*
X1668076Y1338351D01*
X1668238Y1337842D01*
X1668400Y1337241D01*
X1668493Y1336593D01*
X1668539Y1335899D01*
Y1332798D01*
Y1332752D01*
Y1332659D01*
X1668516Y1332497D01*
X1668493Y1332266D01*
X1668470Y1331988D01*
X1668423Y1331664D01*
X1668354Y1331317D01*
X1668261Y1330924D01*
X1668122Y1330484D01*
X1667984Y1330044D01*
X1667798Y1329605D01*
X1667567Y1329119D01*
X1667289Y1328656D01*
X1666989Y1328193D01*
X1666642Y1327730D01*
X1666225Y1327291D01*
X1666202Y1327268D01*
X1666132Y1327198D01*
X1665994Y1327083D01*
X1665809Y1326944D01*
X1665600Y1326759D01*
X1665323Y1326573D01*
X1665022Y1326365D01*
X1664675Y1326157D01*
X1664304Y1325926D01*
X1663865Y1325717D01*
X1663425Y1325532D01*
X1662939Y1325370D01*
X1662430Y1325208D01*
X1661875Y1325092D01*
X1661319Y1325023D01*
X1660718Y1325000D01*
X1654355D01*
X1654216Y1325023D01*
X1654054Y1325046D01*
X1653869Y1325092D01*
X1653683Y1325185D01*
X1653498Y1325278D01*
X1653313Y1325417D01*
X1653290Y1325440D01*
X1653244Y1325509D01*
X1653197Y1325602D01*
X1653128Y1325741D01*
X1653035Y1325926D01*
X1652989Y1326111D01*
X1652943Y1326319D01*
X1652920Y1326550D01*
Y1326573D01*
Y1326643D01*
X1652943Y1326735D01*
X1652966Y1326874D01*
X1653012Y1327036D01*
X1653082Y1327221D01*
X1653174Y1327406D01*
X1653290Y1327592D01*
X1653313Y1327615D01*
X1653360Y1327684D01*
X1653452Y1327754D01*
X1653591Y1327869D01*
X1653753Y1327962D01*
X1653961Y1328031D01*
X1654193Y1328101D01*
X1654470Y1328124D01*
X1660903D01*
X1661042Y1328147D01*
X1661204Y1328170D01*
X1661412Y1328193D01*
X1661620Y1328239D01*
X1661852Y1328286D01*
X1662384Y1328448D01*
X1662661Y1328564D01*
X1662939Y1328702D01*
X1663217Y1328864D01*
X1663495Y1329049D01*
X1663772Y1329258D01*
X1664027Y1329489D01*
X1664050Y1329512D01*
X1664096Y1329559D01*
X1664166Y1329628D01*
X1664235Y1329744D01*
X1664351Y1329859D01*
X1664466Y1330021D01*
X1664582Y1330206D01*
X1664721Y1330415D01*
X1664975Y1330901D01*
X1665207Y1331456D01*
X1665276Y1331780D01*
X1665346Y1332104D01*
X1665392Y1332451D01*
X1665415Y1332798D01*
Y1335899D01*
Y1335922D01*
Y1335991D01*
Y1336084D01*
X1665392Y1336223D01*
X1665369Y1336385D01*
X1665346Y1336570D01*
X1665299Y1336801D01*
X1665253Y1337032D01*
X1665091Y1337542D01*
X1664975Y1337819D01*
X1664837Y1338097D01*
X1664675Y1338398D01*
X1664513Y1338675D01*
X1664281Y1338953D01*
X1664050Y1339208D01*
X1664027Y1339231D01*
X1663980Y1339277D01*
X1663911Y1339346D01*
X1663819Y1339416D01*
X1663680Y1339532D01*
X1663518Y1339647D01*
X1663333Y1339763D01*
X1663124Y1339902D01*
X1662893Y1340041D01*
X1662638Y1340156D01*
X1662083Y1340388D01*
X1661759Y1340457D01*
X1661435Y1340526D01*
X1661088Y1340573D01*
X1660718Y1340596D01*
X1657478D01*
X1657339Y1340619D01*
X1657177Y1340642D01*
X1656992Y1340688D01*
X1656807Y1340781D01*
X1656622Y1340874D01*
X1656437Y1341013D01*
X1656414Y1341036D01*
X1656368Y1341105D01*
X1656298Y1341198D01*
X1656229Y1341336D01*
X1656159Y1341521D01*
X1656090Y1341707D01*
X1656044Y1341915D01*
X1656021Y1342146D01*
Y1342169D01*
Y1342239D01*
X1656044Y1342331D01*
X1656067Y1342470D01*
X1656113Y1342632D01*
X1656183Y1342817D01*
X1656275Y1343002D01*
X1656414Y1343188D01*
X1656437Y1343211D01*
X1656483Y1343280D01*
X1656576Y1343349D01*
X1656715Y1343465D01*
X1656877Y1343558D01*
X1657085Y1343627D01*
X1657316Y1343697D01*
X1657594Y1343720D01*
X1660926D01*
X1661065Y1343743D01*
X1661250Y1343766D01*
X1661458Y1343789D01*
X1661667Y1343835D01*
X1661921Y1343905D01*
X1662453Y1344090D01*
X1662754Y1344206D01*
X1663032Y1344344D01*
X1663309Y1344507D01*
X1663587Y1344715D01*
X1663865Y1344946D01*
X1664119Y1345201D01*
X1664142Y1345224D01*
X1664166Y1345270D01*
X1664235Y1345340D01*
X1664304Y1345432D01*
X1664397Y1345571D01*
X1664489Y1345733D01*
X1664582Y1345918D01*
X1664698Y1346103D01*
X1664906Y1346589D01*
X1665091Y1347144D01*
X1665230Y1347769D01*
X1665253Y1348116D01*
X1665276Y1348463D01*
Y1348486D01*
Y1348556D01*
Y1348649D01*
X1665253Y1348787D01*
Y1348949D01*
X1665230Y1349134D01*
X1665137Y1349574D01*
X1664999Y1350060D01*
X1664814Y1350592D01*
X1664536Y1351124D01*
X1664351Y1351379D01*
X1664166Y1351610D01*
X1664142Y1351633D01*
X1664119Y1351680D01*
X1664027Y1351749D01*
X1663934Y1351842D01*
X1663819Y1351934D01*
X1663656Y1352073D01*
X1663471Y1352189D01*
X1663263Y1352328D01*
X1663032Y1352466D01*
X1662777Y1352582D01*
X1662500Y1352721D01*
X1662176Y1352814D01*
X1661852Y1352906D01*
X1661505Y1352975D01*
X1661111Y1353022D01*
X1660718Y1353045D01*
X1654355D01*
X1654216Y1353068D01*
X1654054Y1353091D01*
X1653869Y1353161D01*
X1653683Y1353230D01*
X1653498Y1353346D01*
X1653313Y1353485D01*
X1653290Y1353508D01*
X1653244Y1353577D01*
X1653197Y1353670D01*
X1653128Y1353808D01*
X1653035Y1353970D01*
X1652989Y1354156D01*
X1652943Y1354364D01*
X1652920Y1354595D01*
Y1354618D01*
Y1354688D01*
X1652943Y1354803D01*
X1652966Y1354942D01*
X1653012Y1355104D01*
X1653082Y1355289D01*
X1653174Y1355475D01*
X1653313Y1355660D01*
X1653336Y1355683D01*
X1653383Y1355729D01*
X1653475Y1355822D01*
X1653614Y1355914D01*
X1653776Y1356007D01*
X1653984Y1356099D01*
X1654216Y1356146D01*
X1654470Y1356169D01*
X1660880D01*
X1661065Y1356146D01*
D02*
G37*
G36*
X1639892Y1346682D02*
X1640124D01*
X1640263Y1346658D01*
X1640448Y1346635D01*
X1640679D01*
X1641165Y1346566D01*
X1641188D01*
X1641304Y1346543D01*
X1641443Y1346520D01*
X1641651Y1346496D01*
X1641906Y1346450D01*
X1642183Y1346381D01*
X1642530Y1346288D01*
X1642877Y1346172D01*
X1642900D01*
X1642947Y1346149D01*
X1643039Y1346126D01*
X1643155Y1346080D01*
X1643294Y1346034D01*
X1643479Y1345964D01*
X1643849Y1345779D01*
X1644289Y1345548D01*
X1644752Y1345247D01*
X1645214Y1344877D01*
X1645654Y1344437D01*
X1645677Y1344414D01*
X1645700Y1344391D01*
X1645747Y1344321D01*
X1645816Y1344206D01*
X1645909Y1344090D01*
X1646001Y1343951D01*
X1646209Y1343604D01*
X1646395Y1343188D01*
X1646580Y1342725D01*
X1646695Y1342193D01*
X1646742Y1341915D01*
Y1341637D01*
Y1341614D01*
Y1341545D01*
Y1341452D01*
X1646718Y1341313D01*
X1646695Y1341128D01*
X1646649Y1340943D01*
X1646580Y1340712D01*
X1646510Y1340480D01*
X1646418Y1340203D01*
X1646302Y1339925D01*
X1646163Y1339624D01*
X1645978Y1339323D01*
X1645770Y1339023D01*
X1645538Y1338722D01*
X1645261Y1338421D01*
X1644937Y1338120D01*
X1634987Y1331271D01*
X1634964Y1331248D01*
X1634894Y1331178D01*
X1634802Y1331062D01*
X1634709Y1330924D01*
X1634617Y1330739D01*
X1634524Y1330530D01*
X1634455Y1330299D01*
X1634431Y1330044D01*
Y1330021D01*
Y1329952D01*
X1634455Y1329836D01*
X1634478Y1329697D01*
X1634524Y1329535D01*
X1634593Y1329350D01*
X1634686Y1329165D01*
X1634802Y1328957D01*
X1634825Y1328934D01*
X1634871Y1328887D01*
X1634964Y1328795D01*
X1635079Y1328702D01*
X1635218Y1328610D01*
X1635403Y1328517D01*
X1635612Y1328425D01*
X1635866Y1328355D01*
X1637532Y1328193D01*
X1639406Y1328101D01*
X1639846D01*
X1640008Y1328124D01*
X1640424D01*
X1640864Y1328147D01*
X1641350Y1328193D01*
X1641813Y1328239D01*
X1642253Y1328309D01*
X1642276D01*
X1642345Y1328332D01*
X1642438Y1328355D01*
X1642576Y1328378D01*
X1642738Y1328425D01*
X1642924Y1328471D01*
X1643340Y1328610D01*
X1643363D01*
X1643433Y1328656D01*
X1643571Y1328702D01*
X1643710Y1328772D01*
X1643895Y1328864D01*
X1644081Y1328957D01*
X1644497Y1329188D01*
X1644821Y1329327D01*
X1644867Y1329350D01*
X1644960Y1329373D01*
X1645122Y1329397D01*
X1645423D01*
X1645538Y1329373D01*
X1645700Y1329327D01*
X1645862Y1329281D01*
X1646047Y1329188D01*
X1646232Y1329049D01*
X1646418Y1328887D01*
X1646441Y1328864D01*
X1646487Y1328795D01*
X1646557Y1328702D01*
X1646626Y1328564D01*
X1646695Y1328401D01*
X1646765Y1328193D01*
X1646811Y1327985D01*
X1646834Y1327730D01*
Y1327707D01*
X1646811Y1327615D01*
X1646788Y1327453D01*
X1646742Y1327291D01*
X1646626Y1327083D01*
X1646487Y1326851D01*
X1646302Y1326620D01*
X1646024Y1326411D01*
X1646001D01*
X1645978Y1326388D01*
X1645909Y1326342D01*
X1645816Y1326296D01*
X1645677Y1326250D01*
X1645538Y1326180D01*
X1645376Y1326111D01*
X1645191Y1326041D01*
X1644729Y1325856D01*
X1644196Y1325671D01*
X1643595Y1325486D01*
X1642900Y1325301D01*
X1641211Y1325069D01*
X1639383Y1325000D01*
X1637208Y1325069D01*
X1635334Y1325324D01*
X1635311D01*
X1635264Y1325347D01*
X1635172Y1325370D01*
X1635056Y1325393D01*
X1634894Y1325440D01*
X1634732Y1325486D01*
X1634339Y1325625D01*
X1633876Y1325833D01*
X1633413Y1326134D01*
X1632927Y1326481D01*
X1632696Y1326712D01*
X1632488Y1326944D01*
X1632465Y1326967D01*
X1632441Y1327013D01*
X1632395Y1327083D01*
X1632326Y1327175D01*
X1632233Y1327314D01*
X1632141Y1327453D01*
X1631932Y1327823D01*
X1631724Y1328286D01*
X1631562Y1328818D01*
X1631423Y1329397D01*
X1631400Y1329697D01*
X1631377Y1330021D01*
Y1330067D01*
Y1330183D01*
X1631400Y1330392D01*
X1631423Y1330623D01*
X1631470Y1330924D01*
X1631539Y1331248D01*
X1631632Y1331595D01*
X1631770Y1331965D01*
Y1331988D01*
X1631794Y1332011D01*
X1631840Y1332127D01*
X1631956Y1332312D01*
X1632094Y1332567D01*
X1632256Y1332821D01*
X1632488Y1333122D01*
X1632765Y1333423D01*
X1633089Y1333723D01*
X1643039Y1340573D01*
X1643062Y1340596D01*
X1643109Y1340642D01*
X1643201Y1340735D01*
X1643294Y1340851D01*
X1643363Y1340989D01*
X1643456Y1341151D01*
X1643502Y1341336D01*
X1643525Y1341545D01*
Y1341591D01*
X1643502Y1341707D01*
X1643433Y1341892D01*
X1643317Y1342100D01*
X1643248Y1342216D01*
X1643132Y1342354D01*
X1642993Y1342470D01*
X1642854Y1342609D01*
X1642646Y1342725D01*
X1642438Y1342841D01*
X1642183Y1342956D01*
X1641906Y1343072D01*
X1641882D01*
X1641836Y1343095D01*
X1641743Y1343118D01*
X1641628Y1343164D01*
X1641466Y1343211D01*
X1641304Y1343257D01*
X1641096Y1343303D01*
X1640864Y1343373D01*
X1640355Y1343465D01*
X1639754Y1343558D01*
X1639082Y1343627D01*
X1638388Y1343650D01*
X1637995D01*
X1637833Y1343627D01*
X1637463D01*
X1637046Y1343581D01*
X1636583Y1343535D01*
X1636098Y1343465D01*
X1635635Y1343373D01*
X1635588D01*
X1635450Y1343326D01*
X1635218Y1343257D01*
X1634964Y1343164D01*
X1634640Y1343049D01*
X1634339Y1342887D01*
X1634015Y1342702D01*
X1633714Y1342470D01*
X1633691D01*
X1633645Y1342424D01*
X1633552Y1342378D01*
X1633436Y1342331D01*
X1633298Y1342285D01*
X1633136Y1342216D01*
X1632742Y1342146D01*
X1632650D01*
X1632557Y1342169D01*
X1632418Y1342216D01*
X1632256Y1342262D01*
X1632071Y1342331D01*
X1631886Y1342447D01*
X1631655Y1342609D01*
X1631632Y1342632D01*
X1631585Y1342702D01*
X1631516Y1342794D01*
X1631446Y1342933D01*
X1631354Y1343095D01*
X1631284Y1343303D01*
X1631238Y1343512D01*
X1631215Y1343743D01*
Y1343766D01*
Y1343859D01*
X1631238Y1343997D01*
X1631284Y1344183D01*
X1631377Y1344368D01*
X1631470Y1344576D01*
X1631632Y1344784D01*
X1631840Y1344969D01*
X1631886Y1344992D01*
X1632025Y1345085D01*
X1632233Y1345224D01*
X1632557Y1345409D01*
X1632742Y1345502D01*
X1632974Y1345594D01*
X1633205Y1345687D01*
X1633460Y1345802D01*
X1633760Y1345895D01*
X1634061Y1346011D01*
X1634408Y1346103D01*
X1634755Y1346196D01*
X1634802D01*
X1634917Y1346242D01*
X1635103Y1346288D01*
X1635357Y1346335D01*
X1635635Y1346381D01*
X1635959Y1346450D01*
X1636329Y1346520D01*
X1636699Y1346566D01*
X1636745D01*
X1636884Y1346589D01*
X1637069Y1346612D01*
X1637324Y1346635D01*
X1637625Y1346658D01*
X1637972Y1346682D01*
X1638689Y1346705D01*
X1639453D01*
X1639892Y1346682D01*
D02*
G37*
G36*
X1612680Y1356192D02*
X1612842Y1356169D01*
X1613004Y1356122D01*
X1613190Y1356053D01*
X1613375Y1355961D01*
X1613560Y1355822D01*
X1613583Y1355798D01*
X1613629Y1355752D01*
X1613722Y1355660D01*
X1613814Y1355521D01*
X1613884Y1355359D01*
X1613976Y1355151D01*
X1614023Y1354919D01*
X1614046Y1354642D01*
Y1351541D01*
X1615758D01*
X1615966Y1351518D01*
X1616244Y1351495D01*
X1616591Y1351448D01*
X1616961Y1351402D01*
X1617401Y1351310D01*
X1617887Y1351194D01*
X1618396Y1351055D01*
X1618928Y1350870D01*
X1619460Y1350638D01*
X1620039Y1350384D01*
X1620594Y1350060D01*
X1621149Y1349690D01*
X1621682Y1349273D01*
X1622214Y1348787D01*
X1622237Y1348764D01*
X1622260Y1348718D01*
X1622330Y1348649D01*
X1622422Y1348556D01*
X1622538Y1348417D01*
X1622654Y1348278D01*
X1622954Y1347908D01*
X1623255Y1347468D01*
X1623602Y1346959D01*
X1623926Y1346381D01*
X1624227Y1345779D01*
Y1345756D01*
X1624250Y1345710D01*
X1624296Y1345617D01*
X1624343Y1345478D01*
X1624389Y1345340D01*
X1624458Y1345154D01*
X1624528Y1344946D01*
X1624597Y1344692D01*
X1624736Y1344159D01*
X1624852Y1343535D01*
X1624944Y1342864D01*
X1624967Y1342146D01*
Y1340596D01*
Y1340550D01*
Y1340434D01*
X1624944Y1340226D01*
X1624921Y1339971D01*
X1624875Y1339624D01*
X1624829Y1339254D01*
X1624736Y1338814D01*
X1624620Y1338351D01*
X1624482Y1337842D01*
X1624296Y1337310D01*
X1624088Y1336778D01*
X1623810Y1336223D01*
X1623510Y1335644D01*
X1623139Y1335089D01*
X1622723Y1334533D01*
X1622237Y1334001D01*
X1622214Y1333978D01*
X1622121Y1333885D01*
X1621959Y1333747D01*
X1621751Y1333562D01*
X1621496Y1333353D01*
X1621173Y1333122D01*
X1620802Y1332867D01*
X1620386Y1332613D01*
X1619923Y1332358D01*
X1619414Y1332104D01*
X1618859Y1331872D01*
X1618280Y1331664D01*
X1617655Y1331479D01*
X1617007Y1331340D01*
X1616313Y1331248D01*
X1615596Y1331225D01*
X1614046D01*
Y1326550D01*
Y1326527D01*
Y1326435D01*
X1614023Y1326296D01*
X1613999Y1326134D01*
X1613930Y1325949D01*
X1613860Y1325741D01*
X1613745Y1325555D01*
X1613583Y1325370D01*
X1613560Y1325347D01*
X1613513Y1325324D01*
X1613421Y1325255D01*
X1613282Y1325185D01*
X1613120Y1325116D01*
X1612935Y1325069D01*
X1612727Y1325023D01*
X1612472Y1325000D01*
X1612380D01*
X1612241Y1325023D01*
X1612102Y1325046D01*
X1611940Y1325092D01*
X1611755Y1325162D01*
X1611570Y1325255D01*
X1611385Y1325370D01*
X1611361Y1325393D01*
X1611315Y1325440D01*
X1611246Y1325532D01*
X1611153Y1325671D01*
X1611061Y1325833D01*
X1610991Y1326041D01*
X1610945Y1326273D01*
X1610922Y1326550D01*
Y1331225D01*
X1609186D01*
X1608978Y1331248D01*
X1608700Y1331271D01*
X1608353Y1331317D01*
X1607983Y1331363D01*
X1607543Y1331456D01*
X1607057Y1331572D01*
X1606548Y1331710D01*
X1606016Y1331895D01*
X1605484Y1332104D01*
X1604929Y1332358D01*
X1604350Y1332682D01*
X1603795Y1333029D01*
X1603263Y1333446D01*
X1602730Y1333932D01*
X1602707Y1333955D01*
X1602615Y1334048D01*
X1602476Y1334209D01*
X1602314Y1334418D01*
X1602106Y1334695D01*
X1601874Y1334996D01*
X1601620Y1335366D01*
X1601365Y1335783D01*
X1601111Y1336246D01*
X1600856Y1336755D01*
X1600625Y1337310D01*
X1600417Y1337889D01*
X1600255Y1338513D01*
X1600116Y1339184D01*
X1600023Y1339879D01*
X1600000Y1340596D01*
Y1342146D01*
Y1342193D01*
Y1342308D01*
X1600023Y1342516D01*
X1600046Y1342794D01*
X1600093Y1343118D01*
X1600139Y1343512D01*
X1600231Y1343928D01*
X1600347Y1344414D01*
X1600486Y1344900D01*
X1600671Y1345432D01*
X1600879Y1345987D01*
X1601157Y1346543D01*
X1601458Y1347098D01*
X1601828Y1347654D01*
X1602245Y1348209D01*
X1602730Y1348741D01*
X1602754Y1348764D01*
X1602846Y1348857D01*
X1603008Y1348996D01*
X1603216Y1349181D01*
X1603494Y1349389D01*
X1603795Y1349620D01*
X1604165Y1349875D01*
X1604582Y1350152D01*
X1605044Y1350407D01*
X1605553Y1350662D01*
X1606086Y1350893D01*
X1606664Y1351101D01*
X1607289Y1351286D01*
X1607960Y1351425D01*
X1608631Y1351518D01*
X1609348Y1351541D01*
X1610922D01*
Y1354642D01*
Y1354665D01*
Y1354757D01*
X1610945Y1354873D01*
X1610991Y1355012D01*
X1611037Y1355197D01*
X1611107Y1355405D01*
X1611223Y1355590D01*
X1611385Y1355798D01*
X1611408Y1355822D01*
X1611477Y1355868D01*
X1611570Y1355937D01*
X1611685Y1356007D01*
X1611847Y1356076D01*
X1612032Y1356146D01*
X1612241Y1356192D01*
X1612472Y1356215D01*
X1612565D01*
X1612680Y1356192D01*
D02*
G37*
%LPC*%
G36*
X1630637Y1240892D02*
X1628623D01*
X1628508Y1240869D01*
X1628369D01*
X1628207Y1240846D01*
X1627860Y1240753D01*
X1627443Y1240614D01*
X1626980Y1240429D01*
X1626541Y1240152D01*
X1626310Y1239967D01*
X1626101Y1239781D01*
Y1239758D01*
X1626055Y1239735D01*
X1626009Y1239666D01*
X1625939Y1239596D01*
X1625754Y1239365D01*
X1625569Y1239041D01*
X1625361Y1238671D01*
X1625176Y1238208D01*
X1625060Y1237699D01*
X1625037Y1237421D01*
X1625014Y1237143D01*
Y1219650D01*
Y1219627D01*
Y1219581D01*
Y1219511D01*
X1625037Y1219396D01*
Y1219257D01*
X1625083Y1219118D01*
X1625152Y1218748D01*
X1625291Y1218331D01*
X1625477Y1217891D01*
X1625754Y1217452D01*
X1625916Y1217220D01*
X1626101Y1217012D01*
X1626124D01*
X1626147Y1216966D01*
X1626217Y1216920D01*
X1626286Y1216850D01*
X1626518Y1216665D01*
X1626842Y1216480D01*
X1627235Y1216272D01*
X1627675Y1216087D01*
X1628207Y1215971D01*
X1628485Y1215948D01*
X1628762Y1215925D01*
X1630775D01*
X1630891Y1215948D01*
X1631030D01*
X1631169Y1215971D01*
X1631539Y1216064D01*
X1631932Y1216179D01*
X1632372Y1216364D01*
X1632812Y1216642D01*
X1633043Y1216804D01*
X1633251Y1216989D01*
X1633275Y1217012D01*
X1633298Y1217035D01*
X1633367Y1217105D01*
X1633436Y1217174D01*
X1633622Y1217405D01*
X1633830Y1217729D01*
X1634038Y1218100D01*
X1634200Y1218562D01*
X1634339Y1219072D01*
X1634362Y1219349D01*
X1634385Y1219650D01*
Y1237143D01*
Y1237167D01*
Y1237213D01*
Y1237282D01*
X1634362Y1237398D01*
Y1237537D01*
X1634339Y1237676D01*
X1634246Y1238046D01*
X1634131Y1238462D01*
X1633922Y1238902D01*
X1633668Y1239342D01*
X1633483Y1239573D01*
X1633298Y1239781D01*
X1633275Y1239805D01*
X1633251Y1239828D01*
X1633182Y1239874D01*
X1633112Y1239967D01*
X1632881Y1240128D01*
X1632557Y1240337D01*
X1632164Y1240545D01*
X1631724Y1240730D01*
X1631192Y1240846D01*
X1630937Y1240869D01*
X1630637Y1240892D01*
D02*
G37*
G36*
X1805547Y1296911D02*
X1803534D01*
X1803418Y1296888D01*
X1803280D01*
X1803118Y1296864D01*
X1802771Y1296772D01*
X1802354Y1296633D01*
X1801891Y1296448D01*
X1801452Y1296170D01*
X1801220Y1295985D01*
X1801012Y1295800D01*
Y1295777D01*
X1800966Y1295754D01*
X1800919Y1295684D01*
X1800850Y1295615D01*
X1800665Y1295383D01*
X1800480Y1295060D01*
X1800271Y1294689D01*
X1800086Y1294227D01*
X1799971Y1293717D01*
X1799948Y1293440D01*
X1799924Y1293162D01*
Y1275669D01*
Y1275646D01*
Y1275599D01*
Y1275530D01*
X1799948Y1275414D01*
Y1275275D01*
X1799994Y1275136D01*
X1800063Y1274766D01*
X1800202Y1274350D01*
X1800387Y1273910D01*
X1800665Y1273470D01*
X1800827Y1273239D01*
X1801012Y1273031D01*
X1801035D01*
X1801058Y1272984D01*
X1801128Y1272938D01*
X1801197Y1272869D01*
X1801429Y1272684D01*
X1801752Y1272499D01*
X1802146Y1272290D01*
X1802585Y1272105D01*
X1803118Y1271990D01*
X1803395Y1271966D01*
X1803673Y1271943D01*
X1805686D01*
X1805802Y1271966D01*
X1805941D01*
X1806080Y1271990D01*
X1806450Y1272082D01*
X1806843Y1272198D01*
X1807283Y1272383D01*
X1807722Y1272661D01*
X1807954Y1272822D01*
X1808162Y1273008D01*
X1808185Y1273031D01*
X1808208Y1273054D01*
X1808278Y1273123D01*
X1808347Y1273193D01*
X1808532Y1273424D01*
X1808741Y1273748D01*
X1808949Y1274118D01*
X1809111Y1274581D01*
X1809250Y1275090D01*
X1809273Y1275368D01*
X1809296Y1275669D01*
Y1293162D01*
Y1293185D01*
Y1293232D01*
Y1293301D01*
X1809273Y1293417D01*
Y1293555D01*
X1809250Y1293694D01*
X1809157Y1294064D01*
X1809041Y1294481D01*
X1808833Y1294921D01*
X1808579Y1295360D01*
X1808393Y1295592D01*
X1808208Y1295800D01*
X1808185Y1295823D01*
X1808162Y1295846D01*
X1808093Y1295892D01*
X1808023Y1295985D01*
X1807792Y1296147D01*
X1807468Y1296355D01*
X1807074Y1296564D01*
X1806635Y1296749D01*
X1806103Y1296864D01*
X1805848Y1296888D01*
X1805547Y1296911D01*
D02*
G37*
G36*
X1746819Y1287562D02*
X1740456D01*
X1740364Y1287539D01*
X1740109Y1287516D01*
X1739808Y1287447D01*
X1739438Y1287354D01*
X1739068Y1287192D01*
X1738698Y1286961D01*
X1738327Y1286660D01*
X1738304Y1286637D01*
X1738258Y1286591D01*
X1738165Y1286498D01*
X1738073Y1286359D01*
X1737980Y1286220D01*
X1737865Y1286035D01*
X1737656Y1285642D01*
Y1285619D01*
X1737633Y1285549D01*
X1737587Y1285434D01*
X1737564Y1285271D01*
X1737518Y1285086D01*
X1737471Y1284901D01*
X1737448Y1284438D01*
Y1275067D01*
Y1275044D01*
Y1275021D01*
Y1274951D01*
X1737471Y1274859D01*
X1737494Y1274604D01*
X1737564Y1274303D01*
X1737656Y1273933D01*
X1737818Y1273563D01*
X1738026Y1273193D01*
X1738327Y1272822D01*
X1738351Y1272799D01*
X1738420Y1272753D01*
X1738512Y1272684D01*
X1738628Y1272591D01*
X1738767Y1272475D01*
X1738952Y1272383D01*
X1739322Y1272151D01*
X1739346D01*
X1739438Y1272128D01*
X1739577Y1272082D01*
X1739739Y1272059D01*
X1739924Y1272013D01*
X1740132Y1271966D01*
X1740572Y1271943D01*
X1743811D01*
X1743904Y1271966D01*
X1744158Y1271990D01*
X1744459Y1272059D01*
X1744783Y1272151D01*
X1745154Y1272314D01*
X1745524Y1272522D01*
X1745894Y1272799D01*
X1745940Y1272846D01*
X1746033Y1272961D01*
X1746195Y1273147D01*
X1746357Y1273424D01*
X1746519Y1273748D01*
X1746681Y1274118D01*
X1746773Y1274581D01*
X1746819Y1275067D01*
Y1287562D01*
D02*
G37*
G36*
X1634362D02*
X1631122D01*
X1631030Y1287539D01*
X1630775Y1287516D01*
X1630475Y1287447D01*
X1630104Y1287354D01*
X1629734Y1287192D01*
X1629364Y1286961D01*
X1628994Y1286660D01*
X1628970Y1286637D01*
X1628924Y1286591D01*
X1628832Y1286498D01*
X1628739Y1286359D01*
X1628647Y1286220D01*
X1628531Y1286035D01*
X1628323Y1285642D01*
Y1285619D01*
X1628300Y1285549D01*
X1628253Y1285434D01*
X1628230Y1285271D01*
X1628184Y1285086D01*
X1628138Y1284901D01*
X1628114Y1284438D01*
Y1281315D01*
X1637486D01*
Y1284438D01*
Y1284462D01*
Y1284508D01*
Y1284554D01*
X1637463Y1284647D01*
X1637440Y1284901D01*
X1637370Y1285202D01*
X1637278Y1285549D01*
X1637116Y1285919D01*
X1636884Y1286290D01*
X1636583Y1286637D01*
X1636537Y1286683D01*
X1636421Y1286776D01*
X1636236Y1286938D01*
X1635982Y1287099D01*
X1635658Y1287262D01*
X1635288Y1287424D01*
X1634848Y1287516D01*
X1634362Y1287562D01*
D02*
G37*
G36*
X1612495Y1296911D02*
X1603124D01*
Y1284438D01*
X1612611D01*
X1612704Y1284462D01*
X1612958Y1284485D01*
X1613259Y1284554D01*
X1613583Y1284647D01*
X1613953Y1284809D01*
X1614323Y1285017D01*
X1614693Y1285295D01*
X1614740Y1285341D01*
X1614832Y1285457D01*
X1614994Y1285642D01*
X1615156Y1285896D01*
X1615318Y1286220D01*
X1615480Y1286614D01*
X1615573Y1287053D01*
X1615619Y1287539D01*
Y1293787D01*
Y1293810D01*
Y1293856D01*
Y1293926D01*
X1615596Y1294018D01*
X1615573Y1294250D01*
X1615503Y1294550D01*
X1615411Y1294921D01*
X1615249Y1295291D01*
X1615018Y1295661D01*
X1614717Y1296008D01*
X1614670Y1296055D01*
X1614555Y1296147D01*
X1614370Y1296286D01*
X1614115Y1296471D01*
X1613791Y1296633D01*
X1613421Y1296772D01*
X1612981Y1296864D01*
X1612495Y1296911D01*
D02*
G37*
G36*
X2018546Y1396841D02*
X2012182D01*
X2012090Y1396818D01*
X2011835Y1396795D01*
X2011534Y1396725D01*
X2011164Y1396633D01*
X2010794Y1396471D01*
X2010423Y1396240D01*
X2010053Y1395939D01*
X2010030Y1395916D01*
X2009984Y1395869D01*
X2009891Y1395777D01*
X2009799Y1395638D01*
X2009706Y1395499D01*
X2009590Y1395314D01*
X2009382Y1394921D01*
Y1394897D01*
X2009359Y1394828D01*
X2009313Y1394712D01*
X2009290Y1394550D01*
X2009243Y1394365D01*
X2009197Y1394180D01*
X2009174Y1393717D01*
Y1384346D01*
Y1384323D01*
Y1384300D01*
Y1384230D01*
X2009197Y1384138D01*
X2009220Y1383883D01*
X2009290Y1383582D01*
X2009382Y1383212D01*
X2009544Y1382842D01*
X2009753Y1382472D01*
X2010053Y1382101D01*
X2010076Y1382078D01*
X2010146Y1382032D01*
X2010238Y1381963D01*
X2010354Y1381870D01*
X2010493Y1381754D01*
X2010678Y1381662D01*
X2011048Y1381430D01*
X2011071D01*
X2011164Y1381407D01*
X2011303Y1381361D01*
X2011465Y1381338D01*
X2011650Y1381292D01*
X2011858Y1381245D01*
X2012298Y1381222D01*
X2015537D01*
X2015630Y1381245D01*
X2015884Y1381268D01*
X2016185Y1381338D01*
X2016509Y1381430D01*
X2016879Y1381592D01*
X2017250Y1381801D01*
X2017620Y1382078D01*
X2017666Y1382125D01*
X2017759Y1382240D01*
X2017921Y1382425D01*
X2018083Y1382703D01*
X2018245Y1383027D01*
X2018407Y1383397D01*
X2018499Y1383860D01*
X2018546Y1384346D01*
Y1396841D01*
D02*
G37*
G36*
X1971688D02*
X1968449D01*
X1968356Y1396818D01*
X1968102Y1396795D01*
X1967801Y1396725D01*
X1967431Y1396633D01*
X1967060Y1396471D01*
X1966690Y1396240D01*
X1966320Y1395939D01*
X1966297Y1395916D01*
X1966250Y1395869D01*
X1966158Y1395777D01*
X1966065Y1395638D01*
X1965973Y1395499D01*
X1965857Y1395314D01*
X1965649Y1394921D01*
Y1394897D01*
X1965626Y1394828D01*
X1965579Y1394712D01*
X1965556Y1394550D01*
X1965510Y1394365D01*
X1965464Y1394180D01*
X1965441Y1393717D01*
Y1390594D01*
X1974812D01*
Y1393717D01*
Y1393741D01*
Y1393787D01*
Y1393833D01*
X1974789Y1393926D01*
X1974766Y1394180D01*
X1974696Y1394481D01*
X1974604Y1394828D01*
X1974442Y1395198D01*
X1974210Y1395569D01*
X1973910Y1395916D01*
X1973863Y1395962D01*
X1973748Y1396055D01*
X1973562Y1396216D01*
X1973308Y1396378D01*
X1972984Y1396540D01*
X1972614Y1396702D01*
X1972174Y1396795D01*
X1971688Y1396841D01*
D02*
G37*
G36*
X1793654D02*
X1790414D01*
X1790322Y1396818D01*
X1790067Y1396795D01*
X1789766Y1396725D01*
X1789396Y1396633D01*
X1789026Y1396471D01*
X1788656Y1396240D01*
X1788285Y1395939D01*
X1788262Y1395916D01*
X1788216Y1395869D01*
X1788123Y1395777D01*
X1788031Y1395638D01*
X1787938Y1395499D01*
X1787823Y1395314D01*
X1787614Y1394921D01*
Y1394897D01*
X1787591Y1394828D01*
X1787545Y1394712D01*
X1787522Y1394550D01*
X1787475Y1394365D01*
X1787429Y1394180D01*
X1787406Y1393717D01*
Y1390594D01*
X1796777D01*
Y1393717D01*
Y1393741D01*
Y1393787D01*
Y1393833D01*
X1796754Y1393926D01*
X1796731Y1394180D01*
X1796662Y1394481D01*
X1796569Y1394828D01*
X1796407Y1395198D01*
X1796176Y1395569D01*
X1795875Y1395916D01*
X1795829Y1395962D01*
X1795713Y1396055D01*
X1795528Y1396216D01*
X1795273Y1396378D01*
X1794949Y1396540D01*
X1794579Y1396702D01*
X1794140Y1396795D01*
X1793654Y1396841D01*
D02*
G37*
G36*
X1727429D02*
X1725415D01*
X1725300Y1396818D01*
X1725161D01*
X1724999Y1396795D01*
X1724652Y1396702D01*
X1724235Y1396564D01*
X1723773Y1396378D01*
X1723333Y1396101D01*
X1723102Y1395916D01*
X1722893Y1395730D01*
Y1395707D01*
X1722847Y1395684D01*
X1722801Y1395615D01*
X1722731Y1395545D01*
X1722546Y1395314D01*
X1722361Y1394990D01*
X1722153Y1394620D01*
X1721968Y1394157D01*
X1721852Y1393648D01*
X1721829Y1393370D01*
X1721806Y1393093D01*
Y1384971D01*
Y1384948D01*
Y1384901D01*
Y1384832D01*
X1721829Y1384716D01*
Y1384577D01*
X1721875Y1384415D01*
X1721945Y1384068D01*
X1722083Y1383652D01*
X1722269Y1383189D01*
X1722546Y1382749D01*
X1722708Y1382518D01*
X1722893Y1382310D01*
X1722917D01*
X1722940Y1382263D01*
X1723009Y1382217D01*
X1723078Y1382148D01*
X1723310Y1381963D01*
X1723634Y1381777D01*
X1724027Y1381569D01*
X1724467Y1381384D01*
X1724999Y1381268D01*
X1725277Y1381245D01*
X1725554Y1381222D01*
X1727567D01*
X1727683Y1381245D01*
X1727822D01*
X1727961Y1381268D01*
X1728331Y1381361D01*
X1728725Y1381477D01*
X1729164Y1381662D01*
X1729604Y1381940D01*
X1729835Y1382101D01*
X1730043Y1382287D01*
X1730067Y1382310D01*
X1730090Y1382333D01*
X1730159Y1382402D01*
X1730228Y1382472D01*
X1730414Y1382703D01*
X1730622Y1383027D01*
X1730830Y1383420D01*
X1730992Y1383860D01*
X1731131Y1384392D01*
X1731154Y1384670D01*
X1731177Y1384971D01*
Y1393093D01*
Y1393116D01*
Y1393162D01*
Y1393232D01*
X1731154Y1393347D01*
Y1393486D01*
X1731131Y1393625D01*
X1731038Y1393995D01*
X1730923Y1394412D01*
X1730715Y1394851D01*
X1730460Y1395291D01*
X1730275Y1395522D01*
X1730090Y1395730D01*
X1730067Y1395754D01*
X1730043Y1395777D01*
X1729974Y1395823D01*
X1729905Y1395916D01*
X1729673Y1396078D01*
X1729349Y1396286D01*
X1728956Y1396494D01*
X1728516Y1396679D01*
X1727984Y1396795D01*
X1727729Y1396818D01*
X1727429Y1396841D01*
D02*
G37*
G36*
X1633737D02*
X1631724D01*
X1631608Y1396818D01*
X1631470D01*
X1631308Y1396795D01*
X1630961Y1396702D01*
X1630544Y1396564D01*
X1630081Y1396378D01*
X1629642Y1396101D01*
X1629410Y1395916D01*
X1629202Y1395730D01*
Y1395707D01*
X1629156Y1395684D01*
X1629109Y1395615D01*
X1629040Y1395545D01*
X1628855Y1395314D01*
X1628670Y1394990D01*
X1628461Y1394620D01*
X1628276Y1394157D01*
X1628161Y1393648D01*
X1628138Y1393370D01*
X1628114Y1393093D01*
Y1384971D01*
Y1384948D01*
Y1384901D01*
Y1384832D01*
X1628138Y1384716D01*
Y1384577D01*
X1628184Y1384415D01*
X1628253Y1384068D01*
X1628392Y1383652D01*
X1628577Y1383189D01*
X1628855Y1382749D01*
X1629017Y1382518D01*
X1629202Y1382310D01*
X1629225D01*
X1629248Y1382263D01*
X1629318Y1382217D01*
X1629387Y1382148D01*
X1629618Y1381963D01*
X1629942Y1381777D01*
X1630336Y1381569D01*
X1630775Y1381384D01*
X1631308Y1381268D01*
X1631585Y1381245D01*
X1631863Y1381222D01*
X1633876D01*
X1633992Y1381245D01*
X1634131D01*
X1634270Y1381268D01*
X1634640Y1381361D01*
X1635033Y1381477D01*
X1635473Y1381662D01*
X1635912Y1381940D01*
X1636144Y1382101D01*
X1636352Y1382287D01*
X1636375Y1382310D01*
X1636398Y1382333D01*
X1636468Y1382402D01*
X1636537Y1382472D01*
X1636722Y1382703D01*
X1636931Y1383027D01*
X1637139Y1383420D01*
X1637301Y1383860D01*
X1637440Y1384392D01*
X1637463Y1384670D01*
X1637486Y1384971D01*
Y1393093D01*
Y1393116D01*
Y1393162D01*
Y1393232D01*
X1637463Y1393347D01*
Y1393486D01*
X1637440Y1393625D01*
X1637347Y1393995D01*
X1637231Y1394412D01*
X1637023Y1394851D01*
X1636768Y1395291D01*
X1636583Y1395522D01*
X1636398Y1395730D01*
X1636375Y1395754D01*
X1636352Y1395777D01*
X1636283Y1395823D01*
X1636213Y1395916D01*
X1635982Y1396078D01*
X1635658Y1396286D01*
X1635264Y1396494D01*
X1634825Y1396679D01*
X1634293Y1396795D01*
X1634038Y1396818D01*
X1633737Y1396841D01*
D02*
G37*
G36*
X1993555D02*
X1987307D01*
Y1381222D01*
X1993671D01*
X1993763Y1381245D01*
X1994018Y1381268D01*
X1994319Y1381338D01*
X1994642Y1381430D01*
X1995013Y1381592D01*
X1995383Y1381801D01*
X1995753Y1382078D01*
X1995799Y1382125D01*
X1995892Y1382240D01*
X1996054Y1382425D01*
X1996216Y1382703D01*
X1996378Y1383027D01*
X1996540Y1383397D01*
X1996633Y1383860D01*
X1996679Y1384346D01*
Y1393717D01*
Y1393741D01*
Y1393787D01*
Y1393833D01*
X1996656Y1393926D01*
X1996633Y1394180D01*
X1996563Y1394481D01*
X1996470Y1394828D01*
X1996308Y1395198D01*
X1996077Y1395569D01*
X1995776Y1395916D01*
X1995730Y1395962D01*
X1995614Y1396055D01*
X1995429Y1396216D01*
X1995175Y1396378D01*
X1994851Y1396540D01*
X1994480Y1396702D01*
X1994041Y1396795D01*
X1993555Y1396841D01*
D02*
G37*
G36*
X1877997D02*
X1871749D01*
Y1381222D01*
X1878112D01*
X1878205Y1381245D01*
X1878459Y1381268D01*
X1878760Y1381338D01*
X1879084Y1381430D01*
X1879454Y1381592D01*
X1879825Y1381801D01*
X1880195Y1382078D01*
X1880241Y1382125D01*
X1880334Y1382240D01*
X1880496Y1382425D01*
X1880658Y1382703D01*
X1880820Y1383027D01*
X1880982Y1383397D01*
X1881074Y1383860D01*
X1881121Y1384346D01*
Y1393717D01*
Y1393741D01*
Y1393787D01*
Y1393833D01*
X1881097Y1393926D01*
X1881074Y1394180D01*
X1881005Y1394481D01*
X1880912Y1394828D01*
X1880750Y1395198D01*
X1880519Y1395569D01*
X1880218Y1395916D01*
X1880172Y1395962D01*
X1880056Y1396055D01*
X1879871Y1396216D01*
X1879617Y1396378D01*
X1879293Y1396540D01*
X1878922Y1396702D01*
X1878483Y1396795D01*
X1877997Y1396841D01*
D02*
G37*
G36*
X1815520D02*
X1809273D01*
Y1381222D01*
X1815636D01*
X1815729Y1381245D01*
X1815983Y1381268D01*
X1816284Y1381338D01*
X1816608Y1381430D01*
X1816978Y1381592D01*
X1817348Y1381801D01*
X1817719Y1382078D01*
X1817765Y1382125D01*
X1817858Y1382240D01*
X1818019Y1382425D01*
X1818181Y1382703D01*
X1818343Y1383027D01*
X1818505Y1383397D01*
X1818598Y1383860D01*
X1818644Y1384346D01*
Y1393717D01*
Y1393741D01*
Y1393787D01*
Y1393833D01*
X1818621Y1393926D01*
X1818598Y1394180D01*
X1818528Y1394481D01*
X1818436Y1394828D01*
X1818274Y1395198D01*
X1818043Y1395569D01*
X1817742Y1395916D01*
X1817695Y1395962D01*
X1817580Y1396055D01*
X1817395Y1396216D01*
X1817140Y1396378D01*
X1816816Y1396540D01*
X1816446Y1396702D01*
X1816006Y1396795D01*
X1815520Y1396841D01*
D02*
G37*
G36*
X1706187D02*
X1699939D01*
Y1381222D01*
X1706302D01*
X1706395Y1381245D01*
X1706649Y1381268D01*
X1706950Y1381338D01*
X1707274Y1381430D01*
X1707645Y1381592D01*
X1708015Y1381801D01*
X1708385Y1382078D01*
X1708431Y1382125D01*
X1708524Y1382240D01*
X1708686Y1382425D01*
X1708848Y1382703D01*
X1709010Y1383027D01*
X1709172Y1383397D01*
X1709264Y1383860D01*
X1709310Y1384346D01*
Y1393717D01*
Y1393741D01*
Y1393787D01*
Y1393833D01*
X1709287Y1393926D01*
X1709264Y1394180D01*
X1709195Y1394481D01*
X1709102Y1394828D01*
X1708940Y1395198D01*
X1708709Y1395569D01*
X1708408Y1395916D01*
X1708362Y1395962D01*
X1708246Y1396055D01*
X1708061Y1396216D01*
X1707807Y1396378D01*
X1707482Y1396540D01*
X1707112Y1396702D01*
X1706673Y1396795D01*
X1706187Y1396841D01*
D02*
G37*
G36*
X1740549Y1353091D02*
X1737309D01*
X1737217Y1353068D01*
X1736962Y1353045D01*
X1736661Y1352975D01*
X1736291Y1352883D01*
X1735921Y1352721D01*
X1735551Y1352490D01*
X1735180Y1352189D01*
X1735157Y1352166D01*
X1735111Y1352119D01*
X1735018Y1352027D01*
X1734926Y1351888D01*
X1734833Y1351749D01*
X1734718Y1351564D01*
X1734509Y1351171D01*
Y1351147D01*
X1734486Y1351078D01*
X1734440Y1350962D01*
X1734417Y1350824D01*
X1734371Y1350638D01*
X1734324Y1350430D01*
X1734301Y1349967D01*
Y1343720D01*
Y1343697D01*
Y1343674D01*
Y1343604D01*
X1734324Y1343512D01*
X1734347Y1343257D01*
X1734417Y1342956D01*
X1734509Y1342609D01*
X1734671Y1342216D01*
X1734880Y1341846D01*
X1735180Y1341498D01*
X1735204Y1341475D01*
X1735273Y1341429D01*
X1735365Y1341360D01*
X1735481Y1341267D01*
X1735643Y1341151D01*
X1735805Y1341059D01*
X1736198Y1340827D01*
X1736222D01*
X1736314Y1340804D01*
X1736430Y1340758D01*
X1736615Y1340735D01*
X1736800Y1340688D01*
X1737008Y1340642D01*
X1737425Y1340619D01*
X1743626D01*
X1743672Y1341313D01*
Y1342169D01*
Y1349967D01*
Y1349991D01*
Y1350037D01*
Y1350106D01*
X1743649Y1350199D01*
X1743626Y1350430D01*
X1743557Y1350731D01*
X1743464Y1351101D01*
X1743302Y1351472D01*
X1743071Y1351842D01*
X1742770Y1352189D01*
X1742724Y1352235D01*
X1742608Y1352328D01*
X1742423Y1352466D01*
X1742168Y1352652D01*
X1741844Y1352814D01*
X1741474Y1352952D01*
X1741035Y1353045D01*
X1740549Y1353091D01*
D02*
G37*
G36*
X1715558D02*
X1715350D01*
X1715211Y1353068D01*
X1715026Y1353045D01*
X1714841Y1353022D01*
X1714609Y1352975D01*
X1714355Y1352906D01*
X1713800Y1352721D01*
X1713499Y1352605D01*
X1713198Y1352466D01*
X1712897Y1352305D01*
X1712619Y1352096D01*
X1712319Y1351865D01*
X1712041Y1351610D01*
X1712018Y1351587D01*
X1711995Y1351541D01*
X1711925Y1351472D01*
X1711856Y1351379D01*
X1711763Y1351240D01*
X1711671Y1351078D01*
X1711578Y1350893D01*
X1711463Y1350708D01*
X1711254Y1350222D01*
X1711069Y1349690D01*
X1710930Y1349065D01*
X1710907Y1348741D01*
X1710884Y1348394D01*
Y1348371D01*
Y1348301D01*
Y1348209D01*
X1710907Y1348070D01*
X1710930Y1347908D01*
X1710953Y1347723D01*
X1711023Y1347283D01*
X1711162Y1346774D01*
X1711370Y1346242D01*
X1711509Y1345964D01*
X1711671Y1345687D01*
X1711833Y1345432D01*
X1712041Y1345177D01*
X1712064Y1345154D01*
X1712110Y1345108D01*
X1712180Y1345039D01*
X1712272Y1344946D01*
X1712411Y1344830D01*
X1712573Y1344715D01*
X1712758Y1344576D01*
X1712967Y1344460D01*
X1713198Y1344321D01*
X1713452Y1344183D01*
X1713753Y1344067D01*
X1714054Y1343951D01*
X1714401Y1343859D01*
X1714771Y1343789D01*
X1715142Y1343743D01*
X1715558Y1343720D01*
X1715766D01*
X1715905Y1343743D01*
X1716090Y1343766D01*
X1716299Y1343789D01*
X1716530Y1343835D01*
X1716785Y1343905D01*
X1717340Y1344067D01*
X1717618Y1344206D01*
X1717918Y1344344D01*
X1718219Y1344507D01*
X1718497Y1344692D01*
X1718775Y1344923D01*
X1719052Y1345177D01*
X1719075Y1345201D01*
X1719099Y1345247D01*
X1719168Y1345316D01*
X1719237Y1345432D01*
X1719330Y1345548D01*
X1719422Y1345710D01*
X1719538Y1345895D01*
X1719654Y1346103D01*
X1719862Y1346566D01*
X1720047Y1347121D01*
X1720186Y1347723D01*
X1720209Y1348047D01*
X1720232Y1348394D01*
Y1348417D01*
Y1348486D01*
Y1348579D01*
X1720209Y1348718D01*
X1720186Y1348880D01*
X1720163Y1349065D01*
X1720094Y1349505D01*
X1719955Y1350014D01*
X1719746Y1350546D01*
X1719608Y1350824D01*
X1719446Y1351101D01*
X1719261Y1351356D01*
X1719052Y1351610D01*
X1719029Y1351633D01*
X1718983Y1351680D01*
X1718913Y1351749D01*
X1718821Y1351842D01*
X1718682Y1351957D01*
X1718543Y1352073D01*
X1718358Y1352212D01*
X1718150Y1352351D01*
X1717895Y1352490D01*
X1717641Y1352628D01*
X1717363Y1352744D01*
X1717039Y1352860D01*
X1716715Y1352952D01*
X1716345Y1353022D01*
X1715975Y1353068D01*
X1715558Y1353091D01*
D02*
G37*
G36*
Y1340596D02*
X1715419D01*
X1715280Y1340573D01*
X1715072D01*
X1714818Y1340526D01*
X1714540Y1340503D01*
X1714216Y1340434D01*
X1713869Y1340365D01*
X1713499Y1340249D01*
X1713105Y1340133D01*
X1712712Y1339971D01*
X1712319Y1339786D01*
X1711948Y1339555D01*
X1711555Y1339300D01*
X1711208Y1338999D01*
X1710861Y1338652D01*
X1710838Y1338629D01*
X1710791Y1338583D01*
X1710722Y1338467D01*
X1710629Y1338328D01*
X1710491Y1338166D01*
X1710375Y1337958D01*
X1710236Y1337727D01*
X1710097Y1337449D01*
X1709935Y1337148D01*
X1709796Y1336824D01*
X1709681Y1336477D01*
X1709565Y1336107D01*
X1709449Y1335690D01*
X1709380Y1335274D01*
X1709334Y1334811D01*
X1709310Y1334348D01*
Y1334325D01*
Y1334233D01*
Y1334094D01*
X1709334Y1333932D01*
X1709357Y1333700D01*
X1709403Y1333469D01*
X1709449Y1333168D01*
X1709496Y1332867D01*
X1709681Y1332196D01*
X1709820Y1331849D01*
X1709958Y1331479D01*
X1710143Y1331109D01*
X1710352Y1330762D01*
X1710583Y1330415D01*
X1710861Y1330067D01*
X1710884Y1330044D01*
X1710953Y1329975D01*
X1711046Y1329882D01*
X1711185Y1329767D01*
X1711370Y1329628D01*
X1711578Y1329443D01*
X1711833Y1329281D01*
X1712110Y1329096D01*
X1712434Y1328911D01*
X1712781Y1328749D01*
X1713175Y1328587D01*
X1713591Y1328425D01*
X1714031Y1328309D01*
X1714517Y1328216D01*
X1715026Y1328147D01*
X1715558Y1328124D01*
X1715697D01*
X1715836Y1328147D01*
X1716044D01*
X1716299Y1328193D01*
X1716576Y1328216D01*
X1716900Y1328286D01*
X1717247Y1328355D01*
X1717618Y1328471D01*
X1718011Y1328587D01*
X1718404Y1328749D01*
X1718798Y1328934D01*
X1719168Y1329165D01*
X1719561Y1329420D01*
X1719908Y1329697D01*
X1720255Y1330044D01*
X1720279Y1330067D01*
X1720325Y1330137D01*
X1720394Y1330229D01*
X1720510Y1330368D01*
X1720626Y1330530D01*
X1720764Y1330739D01*
X1720903Y1330970D01*
X1721042Y1331248D01*
X1721181Y1331548D01*
X1721343Y1331872D01*
X1721459Y1332220D01*
X1721574Y1332613D01*
X1721690Y1333006D01*
X1721759Y1333423D01*
X1721806Y1333885D01*
X1721829Y1334348D01*
Y1334371D01*
Y1334464D01*
Y1334580D01*
X1721806Y1334765D01*
X1721783Y1334973D01*
X1721736Y1335228D01*
X1721690Y1335505D01*
X1721644Y1335806D01*
X1721459Y1336477D01*
X1721320Y1336847D01*
X1721181Y1337195D01*
X1720996Y1337565D01*
X1720788Y1337935D01*
X1720556Y1338282D01*
X1720279Y1338629D01*
X1720255Y1338652D01*
X1720209Y1338722D01*
X1720094Y1338814D01*
X1719955Y1338930D01*
X1719769Y1339092D01*
X1719561Y1339254D01*
X1719307Y1339439D01*
X1719029Y1339624D01*
X1718705Y1339786D01*
X1718358Y1339971D01*
X1717965Y1340133D01*
X1717548Y1340295D01*
X1717085Y1340411D01*
X1716623Y1340503D01*
X1716090Y1340573D01*
X1715558Y1340596D01*
D02*
G37*
G36*
X1693067Y1353091D02*
X1691053D01*
X1690938Y1353068D01*
X1690799D01*
X1690637Y1353045D01*
X1690290Y1352952D01*
X1689873Y1352814D01*
X1689411Y1352628D01*
X1688971Y1352351D01*
X1688740Y1352166D01*
X1688531Y1351980D01*
Y1351957D01*
X1688485Y1351934D01*
X1688439Y1351865D01*
X1688369Y1351795D01*
X1688184Y1351564D01*
X1687999Y1351240D01*
X1687791Y1350870D01*
X1687606Y1350407D01*
X1687490Y1349898D01*
X1687467Y1349620D01*
X1687444Y1349343D01*
Y1331849D01*
Y1331826D01*
Y1331780D01*
Y1331710D01*
X1687467Y1331595D01*
Y1331456D01*
X1687513Y1331317D01*
X1687583Y1330947D01*
X1687722Y1330530D01*
X1687907Y1330091D01*
X1688184Y1329651D01*
X1688346Y1329420D01*
X1688531Y1329211D01*
X1688555D01*
X1688578Y1329165D01*
X1688647Y1329119D01*
X1688716Y1329049D01*
X1688948Y1328864D01*
X1689272Y1328679D01*
X1689665Y1328471D01*
X1690105Y1328286D01*
X1690637Y1328170D01*
X1690915Y1328147D01*
X1691192Y1328124D01*
X1693206D01*
X1693321Y1328147D01*
X1693460D01*
X1693599Y1328170D01*
X1693969Y1328263D01*
X1694362Y1328378D01*
X1694802Y1328564D01*
X1695242Y1328841D01*
X1695473Y1329003D01*
X1695681Y1329188D01*
X1695705Y1329211D01*
X1695728Y1329234D01*
X1695797Y1329304D01*
X1695867Y1329373D01*
X1696052Y1329605D01*
X1696260Y1329929D01*
X1696468Y1330299D01*
X1696630Y1330762D01*
X1696769Y1331271D01*
X1696792Y1331548D01*
X1696815Y1331849D01*
Y1349343D01*
Y1349366D01*
Y1349412D01*
Y1349482D01*
X1696792Y1349597D01*
Y1349736D01*
X1696769Y1349875D01*
X1696676Y1350245D01*
X1696561Y1350662D01*
X1696353Y1351101D01*
X1696098Y1351541D01*
X1695913Y1351772D01*
X1695728Y1351980D01*
X1695705Y1352004D01*
X1695681Y1352027D01*
X1695612Y1352073D01*
X1695543Y1352166D01*
X1695311Y1352328D01*
X1694987Y1352536D01*
X1694594Y1352744D01*
X1694154Y1352929D01*
X1693622Y1353045D01*
X1693367Y1353068D01*
X1693067Y1353091D01*
D02*
G37*
G36*
X1615596Y1348417D02*
X1614046D01*
Y1334348D01*
X1615712D01*
X1615851Y1334371D01*
X1616036D01*
X1616244Y1334395D01*
X1616521Y1334441D01*
X1616799Y1334510D01*
X1617123Y1334580D01*
X1617470Y1334672D01*
X1617817Y1334788D01*
X1618188Y1334950D01*
X1618558Y1335112D01*
X1618928Y1335320D01*
X1619298Y1335575D01*
X1619668Y1335852D01*
X1620016Y1336176D01*
X1620039Y1336199D01*
X1620085Y1336269D01*
X1620178Y1336361D01*
X1620293Y1336500D01*
X1620432Y1336685D01*
X1620594Y1336894D01*
X1620756Y1337148D01*
X1620941Y1337426D01*
X1621103Y1337727D01*
X1621265Y1338051D01*
X1621427Y1338421D01*
X1621566Y1338814D01*
X1621682Y1339231D01*
X1621774Y1339670D01*
X1621821Y1340110D01*
X1621844Y1340596D01*
Y1342146D01*
Y1342169D01*
Y1342262D01*
Y1342401D01*
X1621821Y1342563D01*
X1621797Y1342794D01*
X1621751Y1343026D01*
X1621682Y1343326D01*
X1621612Y1343627D01*
X1621520Y1343974D01*
X1621404Y1344321D01*
X1621265Y1344668D01*
X1621080Y1345039D01*
X1620872Y1345432D01*
X1620640Y1345802D01*
X1620363Y1346172D01*
X1620039Y1346520D01*
X1620016Y1346543D01*
X1619946Y1346612D01*
X1619854Y1346705D01*
X1619715Y1346820D01*
X1619530Y1346959D01*
X1619321Y1347121D01*
X1619090Y1347283D01*
X1618812Y1347468D01*
X1618488Y1347654D01*
X1618164Y1347815D01*
X1617794Y1347977D01*
X1617401Y1348116D01*
X1616984Y1348232D01*
X1616545Y1348348D01*
X1616082Y1348394D01*
X1615596Y1348417D01*
D02*
G37*
G36*
X1610922D02*
X1609094D01*
X1608932Y1348394D01*
X1608700Y1348371D01*
X1608446Y1348324D01*
X1608168Y1348255D01*
X1607844Y1348186D01*
X1607520Y1348093D01*
X1607150Y1347977D01*
X1606803Y1347815D01*
X1606410Y1347654D01*
X1606039Y1347445D01*
X1605669Y1347191D01*
X1605299Y1346913D01*
X1604952Y1346589D01*
X1604929Y1346566D01*
X1604882Y1346496D01*
X1604790Y1346404D01*
X1604674Y1346265D01*
X1604535Y1346080D01*
X1604373Y1345872D01*
X1604211Y1345617D01*
X1604049Y1345340D01*
X1603864Y1345039D01*
X1603702Y1344692D01*
X1603540Y1344344D01*
X1603401Y1343951D01*
X1603286Y1343535D01*
X1603193Y1343095D01*
X1603147Y1342632D01*
X1603124Y1342146D01*
Y1340596D01*
Y1340573D01*
Y1340480D01*
X1603147Y1340341D01*
Y1340156D01*
X1603170Y1339948D01*
X1603216Y1339693D01*
X1603286Y1339393D01*
X1603355Y1339092D01*
X1603448Y1338745D01*
X1603564Y1338398D01*
X1603702Y1338027D01*
X1603887Y1337657D01*
X1604096Y1337264D01*
X1604327Y1336894D01*
X1604605Y1336523D01*
X1604929Y1336176D01*
X1604952Y1336153D01*
X1605021Y1336107D01*
X1605114Y1336014D01*
X1605253Y1335899D01*
X1605438Y1335760D01*
X1605646Y1335598D01*
X1605901Y1335436D01*
X1606178Y1335274D01*
X1606479Y1335089D01*
X1606803Y1334927D01*
X1607173Y1334765D01*
X1607567Y1334626D01*
X1607983Y1334510D01*
X1608423Y1334418D01*
X1608862Y1334371D01*
X1609348Y1334348D01*
X1610922D01*
Y1348417D01*
D02*
G37*
%LPD*%
D10*
X2591305Y537500D02*
G03*
X2591305Y537500I-31305J0D01*
G01*
X2557000D02*
X2563000D01*
X2545000Y549500D02*
Y564500D01*
Y510500D02*
Y525500D01*
X2345000Y537500D02*
X2385000D01*
X2515000D02*
X2533000D01*
X2385000Y557500D02*
X2515000D01*
X2385000Y517500D02*
Y557500D01*
Y517500D02*
X2515000D01*
Y557500D01*
X2500000Y527500D02*
X2510000D01*
X2505000Y522500D02*
Y532500D01*
X2406250Y904750D02*
X2431250D01*
X2406250D02*
Y1131250D01*
X2431250Y904750D02*
Y1106250D01*
X2406250Y1131250D02*
X2431250D01*
Y1106250D02*
Y1131250D01*
X2530585Y933645D02*
Y1314345D01*
Y933645D02*
X2581385D01*
Y1314345D01*
X2530585D02*
X2581385D01*
X2559000Y1408600D02*
X2591000D01*
X2559000D02*
Y1465600D01*
X2591000D01*
Y1408600D02*
Y1465600D01*
X2562500Y812500D02*
X2581250Y831250D01*
X2562500Y642500D02*
Y812500D01*
X2581250Y831250D02*
X2612500D01*
X2562500Y642500D02*
X2612500D01*
Y831250D01*
X1887500Y644000D02*
X1937000D01*
X1887500D02*
Y862500D01*
X1906250Y881250D01*
X1937000Y644000D02*
Y881250D01*
X1906250D02*
X1937000D01*
X2262500Y800000D02*
X2275000Y812500D01*
X2262500Y637500D02*
Y800000D01*
X2275000Y812500D02*
X2312500D01*
X2262500Y637500D02*
X2312500D01*
Y812500D01*
X2112500Y800000D02*
X2125000Y812500D01*
X2112500Y637500D02*
Y800000D01*
X2125000Y812500D02*
X2162500D01*
X2112500Y637500D02*
X2162500D01*
Y812500D01*
X2412500Y800000D02*
X2425000Y812500D01*
X2412500Y637500D02*
Y800000D01*
X2425000Y812500D02*
X2462500D01*
X2412500Y637500D02*
X2462500D01*
Y812500D01*
X2396750Y1152500D02*
Y1172500D01*
Y1162500D02*
X2405750D01*
X2381750D02*
X2387750D01*
X2388750Y1152500D02*
Y1172500D01*
X2262500Y1162500D02*
X2281250Y1181250D01*
X2262500Y940000D02*
Y1162500D01*
X2281250Y1181250D02*
X2312500D01*
X2262500Y940000D02*
X2312500D01*
Y1181250D01*
X2112500Y1112500D02*
X2131250Y1131250D01*
X2112500Y942500D02*
Y1112500D01*
X2131250Y1131250D02*
X2162500D01*
X2112500Y942500D02*
X2162500D01*
Y1131250D01*
X2412500Y1462500D02*
X2431250Y1481250D01*
X2412500Y1240000D02*
Y1462500D01*
X2431250Y1481250D02*
X2462500D01*
X2412500Y1240000D02*
X2462500D01*
Y1481250D01*
X2262500Y1412500D02*
X2281250Y1431250D01*
X2262500Y1242500D02*
Y1412500D01*
X2281250Y1431250D02*
X2312500D01*
X2262500Y1242500D02*
X2312500D01*
Y1431250D01*
X2112500Y1400000D02*
X2125000Y1412500D01*
X2112500Y1237500D02*
Y1400000D01*
X2125000Y1412500D02*
X2162500D01*
X2112500Y1237500D02*
X2162500D01*
Y1412500D01*
X1812500Y937500D02*
X1937500D01*
X1812500D02*
Y1212500D01*
X1831250Y1231250D01*
X1937500Y937500D02*
Y1231250D01*
X1831250D02*
X1937500D01*
X1928000Y1277500D02*
Y1297500D01*
Y1287500D02*
X1937000D01*
X1913000D02*
X1919000D01*
X1920000Y1277500D02*
Y1297500D01*
X2153000Y877500D02*
Y897500D01*
Y887500D02*
X2162000D01*
X2138000D02*
X2144000D01*
X2145000Y877500D02*
Y897500D01*
X2153000Y565000D02*
Y585000D01*
Y575000D02*
X2162000D01*
X2138000D02*
X2144000D01*
X2145000Y565000D02*
Y585000D01*
X2153000Y1490000D02*
Y1510000D01*
Y1500000D02*
X2162000D01*
X2138000D02*
X2144000D01*
X2145000Y1490000D02*
Y1510000D01*
X2656000Y366835D02*
Y346841D01*
X2665997D01*
X2669329Y350173D01*
Y353506D01*
X2665997Y356838D01*
X2656000D01*
X2665997D01*
X2669329Y360170D01*
Y363503D01*
X2665997Y366835D01*
X2656000D01*
X2675994Y363503D02*
X2679326Y366835D01*
X2685990D01*
X2689323Y363503D01*
Y360170D01*
X2685990Y356838D01*
X2682658D01*
X2685990D01*
X2689323Y353506D01*
Y350173D01*
X2685990Y346841D01*
X2679326D01*
X2675994Y350173D01*
X2695987Y363503D02*
X2699319Y366835D01*
X2705984D01*
X2709316Y363503D01*
Y350173D01*
X2705984Y346841D01*
X2699319D01*
X2695987Y350173D01*
Y363503D01*
X1862000Y366835D02*
Y346841D01*
X1871997D01*
X1875329Y350173D01*
Y353506D01*
X1871997Y356838D01*
X1862000D01*
X1871997D01*
X1875329Y360170D01*
Y363503D01*
X1871997Y366835D01*
X1862000D01*
X1881994Y346841D02*
X1888658D01*
X1885326D01*
Y366835D01*
X1881994Y363503D01*
X2543554Y1382617D02*
X2553711Y1367383D01*
Y1382617D02*
X2543554Y1367383D01*
X2558789Y1380078D02*
X2561328Y1382617D01*
X2566407D01*
X2568946Y1380078D01*
Y1377539D01*
X2566407Y1375000D01*
X2563867D01*
X2566407D01*
X2568946Y1372461D01*
Y1369922D01*
X2566407Y1367383D01*
X2561328D01*
X2558789Y1369922D01*
X2543456Y857617D02*
Y842383D01*
X2551074D01*
X2553613Y844922D01*
Y855078D01*
X2551074Y857617D01*
X2543456D01*
X2558691Y842383D02*
X2563770D01*
X2561230D01*
Y857617D01*
X2558691Y855078D01*
X2571387D02*
X2573926Y857617D01*
X2579005D01*
X2581544Y855078D01*
Y844922D01*
X2579005Y842383D01*
X2573926D01*
X2571387Y844922D01*
Y855078D01*
X2656054Y1420117D02*
X2666211Y1404883D01*
Y1420117D02*
X2656054Y1404883D01*
X2678907D02*
Y1420117D01*
X2671289Y1412500D01*
X2681446D01*
X2444726Y1111133D02*
Y1126367D01*
X2452343D01*
X2454883Y1123828D01*
Y1118750D01*
X2452343Y1116211D01*
X2444726D01*
X2449804D02*
X2454883Y1111133D01*
X2459961D02*
Y1126367D01*
X2467578D01*
X2470118Y1123828D01*
Y1118750D01*
X2467578Y1116211D01*
X2459961D01*
X2465039D02*
X2470118Y1111133D01*
X2475196D02*
X2480274D01*
X2477735D01*
Y1126367D01*
X2475196Y1123828D01*
X2563622Y1486911D02*
Y1471676D01*
X2571240D01*
X2573779Y1474215D01*
Y1484372D01*
X2571240Y1486911D01*
X2563622D01*
X2589014Y1484372D02*
X2586475Y1486911D01*
X2581396D01*
X2578857Y1484372D01*
Y1481833D01*
X2581396Y1479294D01*
X2586475D01*
X2589014Y1476754D01*
Y1474215D01*
X2586475Y1471676D01*
X2581396D01*
X2578857Y1474215D01*
X2594092Y1471676D02*
X2599171D01*
X2596631D01*
Y1486911D01*
X2594092Y1484372D01*
X1903771Y1319116D02*
X1901232Y1321655D01*
X1896153D01*
X1893614Y1319116D01*
Y1308959D01*
X1896153Y1306420D01*
X1901232D01*
X1903771Y1308959D01*
X1916467Y1306420D02*
Y1321655D01*
X1908849Y1314037D01*
X1919006D01*
X2128771Y918968D02*
X2126232Y921507D01*
X2121153D01*
X2118614Y918968D01*
Y908811D01*
X2121153Y906272D01*
X2126232D01*
X2128771Y908811D01*
X2144006Y921507D02*
X2133849D01*
Y913889D01*
X2138927Y916429D01*
X2141467D01*
X2144006Y913889D01*
Y908811D01*
X2141467Y906272D01*
X2136388D01*
X2133849Y908811D01*
X2147461Y605078D02*
X2144922Y607617D01*
X2139843D01*
X2137304Y605078D01*
Y594922D01*
X2139843Y592383D01*
X2144922D01*
X2147461Y594922D01*
X2152539Y605078D02*
X2155078Y607617D01*
X2160157D01*
X2162696Y605078D01*
Y602539D01*
X2160157Y600000D01*
X2157617D01*
X2160157D01*
X2162696Y597461D01*
Y594922D01*
X2160157Y592383D01*
X2155078D01*
X2152539Y594922D01*
X2409961Y1198828D02*
X2407422Y1201367D01*
X2402343D01*
X2399804Y1198828D01*
Y1188672D01*
X2402343Y1186133D01*
X2407422D01*
X2409961Y1188672D01*
X2425196Y1201367D02*
X2420117Y1198828D01*
X2415039Y1193750D01*
Y1188672D01*
X2417578Y1186133D01*
X2422657D01*
X2425196Y1188672D01*
Y1191211D01*
X2422657Y1193750D01*
X2415039D01*
X2128771Y1531616D02*
X2126232Y1534155D01*
X2121153D01*
X2118614Y1531616D01*
Y1521459D01*
X2121153Y1518920D01*
X2126232D01*
X2128771Y1521459D01*
X2144006Y1518920D02*
X2133849D01*
X2144006Y1529077D01*
Y1531616D01*
X2141467Y1534155D01*
X2136388D01*
X2133849Y1531616D01*
X2450000Y580078D02*
X2447461Y582617D01*
X2442383D01*
X2439843Y580078D01*
Y569922D01*
X2442383Y567383D01*
X2447461D01*
X2450000Y569922D01*
X2455078Y567383D02*
X2460157D01*
X2457618D01*
Y582617D01*
X2455078Y580078D01*
X2424804Y838867D02*
Y823633D01*
X2432422D01*
X2434961Y826172D01*
Y836328D01*
X2432422Y838867D01*
X2424804D01*
X2450196D02*
X2445117Y836328D01*
X2440039Y831250D01*
Y826172D01*
X2442578Y823633D01*
X2447657D01*
X2450196Y826172D01*
Y828711D01*
X2447657Y831250D01*
X2440039D01*
X2274804Y838867D02*
Y823633D01*
X2282422D01*
X2284961Y826172D01*
Y836328D01*
X2282422Y838867D01*
X2274804D01*
X2300196Y823633D02*
X2290039D01*
X2300196Y833789D01*
Y836328D01*
X2297657Y838867D01*
X2292578D01*
X2290039Y836328D01*
X2124804Y838867D02*
Y823633D01*
X2132422D01*
X2134961Y826172D01*
Y836328D01*
X2132422Y838867D01*
X2124804D01*
X2140039D02*
X2150196D01*
Y836328D01*
X2140039Y826172D01*
Y823633D01*
X1906054Y907617D02*
Y892383D01*
X1913672D01*
X1916211Y894922D01*
Y905078D01*
X1913672Y907617D01*
X1906054D01*
X1921289Y905078D02*
X1923828Y907617D01*
X1928907D01*
X1931446Y905078D01*
Y902539D01*
X1928907Y900000D01*
X1926367D01*
X1928907D01*
X1931446Y897461D01*
Y894922D01*
X1928907Y892383D01*
X1923828D01*
X1921289Y894922D01*
X2274804Y1207617D02*
Y1192383D01*
X2282422D01*
X2284961Y1194922D01*
Y1205078D01*
X2282422Y1207617D01*
X2274804D01*
X2290039Y1194922D02*
X2292578Y1192383D01*
X2297657D01*
X2300196Y1194922D01*
Y1205078D01*
X2297657Y1207617D01*
X2292578D01*
X2290039Y1205078D01*
Y1202539D01*
X2292578Y1200000D01*
X2300196D01*
X2112304Y1157617D02*
Y1142383D01*
X2119922D01*
X2122461Y1144922D01*
Y1155078D01*
X2119922Y1157617D01*
X2112304D01*
X2135157Y1142383D02*
Y1157617D01*
X2127539Y1150000D01*
X2137696D01*
X2420995Y1513867D02*
Y1498633D01*
X2428613D01*
X2431152Y1501172D01*
Y1511328D01*
X2428613Y1513867D01*
X2420995D01*
X2436230Y1498633D02*
X2441309D01*
X2438770D01*
Y1513867D01*
X2436230Y1511328D01*
X2448926Y1498633D02*
X2454005D01*
X2451465D01*
Y1513867D01*
X2448926Y1511328D01*
X2281054Y1463867D02*
Y1448633D01*
X2288672D01*
X2291211Y1451172D01*
Y1461328D01*
X2288672Y1463867D01*
X2281054D01*
X2306446D02*
X2296289D01*
Y1456250D01*
X2301367Y1458789D01*
X2303907D01*
X2306446Y1456250D01*
Y1451172D01*
X2303907Y1448633D01*
X2298828D01*
X2296289Y1451172D01*
X2127343Y1438867D02*
Y1423633D01*
X2134961D01*
X2137500Y1426172D01*
Y1436328D01*
X2134961Y1438867D01*
X2127343D01*
X2142578Y1423633D02*
X2147657D01*
X2145118D01*
Y1438867D01*
X2142578Y1436328D01*
X1868554Y1257617D02*
Y1242383D01*
X1876172D01*
X1878711Y1244922D01*
Y1255078D01*
X1876172Y1257617D01*
X1868554D01*
X1883789Y1255078D02*
X1886328Y1257617D01*
X1891407D01*
X1893946Y1255078D01*
Y1252539D01*
X1891407Y1250000D01*
X1893946Y1247461D01*
Y1244922D01*
X1891407Y1242383D01*
X1886328D01*
X1883789Y1244922D01*
Y1247461D01*
X1886328Y1250000D01*
X1883789Y1252539D01*
Y1255078D01*
X1886328Y1250000D02*
X1891407D01*
X1862344Y451367D02*
X1872500Y436133D01*
Y451367D02*
X1862344Y436133D01*
X1877579D02*
X1882657D01*
X1880118D01*
Y451367D01*
X1877579Y448828D01*
D11*
X1459000Y100000D02*
X2893750D01*
X1459000Y1706250D02*
X2893750D01*
Y100000D02*
Y1706250D01*
X1459000Y100000D02*
Y1706250D01*
D12*
X2650001Y181003D02*
Y336001D01*
X1859160D02*
X1894999D01*
Y181003D02*
Y336001D01*
X2729460Y336301D02*
Y358301D01*
X2650001Y336001D02*
X2729460D01*
X1900000Y176001D02*
X2645000D01*
M02*
