G04*
G04 #@! TF.GenerationSoftware,Altium Limited,Altium Designer,23.6.0 (18)*
G04*
G04 Layer_Color=16711935*
%FSLAX44Y44*%
%MOMM*%
G71*
G04*
G04 #@! TF.SameCoordinates,95C8D77B-5923-4534-9A55-EAB02A08894E*
G04*
G04*
G04 #@! TF.FilePolarity,Negative*
G04*
G01*
G75*
G04:AMPARAMS|DCode=13|XSize=1.4032mm|YSize=8.2032mm|CornerRadius=0.7016mm|HoleSize=0mm|Usage=FLASHONLY|Rotation=0.000|XOffset=0mm|YOffset=0mm|HoleType=Round|Shape=RoundedRectangle|*
%AMROUNDEDRECTD13*
21,1,1.4032,6.8000,0,0,0.0*
21,1,0.0000,8.2032,0,0,0.0*
1,1,1.4032,0.0000,-3.4000*
1,1,1.4032,0.0000,-3.4000*
1,1,1.4032,0.0000,3.4000*
1,1,1.4032,0.0000,3.4000*
%
%ADD13ROUNDEDRECTD13*%
%ADD14R,1.9032X11.2032*%
%ADD15R,1.8032X1.8032*%
%ADD16C,5.2032*%
%ADD17C,2.0032*%
%ADD18C,1.8032*%
%ADD19R,1.8032X1.8032*%
%ADD20R,2.0032X2.0032*%
%ADD21C,4.2032*%
%ADD22C,1.4032*%
%ADD23C,1.4032*%
D13*
X2585000Y225000D02*
D03*
X2610001D02*
D03*
X2559999D02*
D03*
X2485000D02*
D03*
X2509999D02*
D03*
X2535000D02*
D03*
X2635000D02*
D03*
X2435000D02*
D03*
X2309999D02*
D03*
X2185001D02*
D03*
X2210000D02*
D03*
X2235001D02*
D03*
X2260000D02*
D03*
X2285001D02*
D03*
X2335001D02*
D03*
X2359999D02*
D03*
X2385000D02*
D03*
X2409999D02*
D03*
X2459999D02*
D03*
X2135001D02*
D03*
X1910000D02*
D03*
X1934999D02*
D03*
X1960000D02*
D03*
X1985001D02*
D03*
X2010000D02*
D03*
X2035001D02*
D03*
X2060000D02*
D03*
X2085001D02*
D03*
X2110000D02*
D03*
X2160000D02*
D03*
D14*
X2635000Y400000D02*
D03*
X2610001D02*
D03*
X2585000D02*
D03*
X2559999D02*
D03*
X2535000D02*
D03*
X2509999D02*
D03*
X2485000D02*
D03*
X2459999D02*
D03*
X2435000D02*
D03*
X2409999D02*
D03*
X2385000D02*
D03*
X2359999D02*
D03*
X2335001D02*
D03*
X2309999D02*
D03*
X2285001D02*
D03*
X2260000D02*
D03*
X2235001D02*
D03*
X2210000D02*
D03*
X2185001D02*
D03*
X2160000D02*
D03*
X2135001D02*
D03*
X2110000D02*
D03*
X2085001D02*
D03*
X2060000D02*
D03*
X2035001D02*
D03*
X2010000D02*
D03*
X1985001D02*
D03*
X1960000D02*
D03*
X1934999D02*
D03*
X1910000D02*
D03*
D15*
X2545000Y537500D02*
D03*
X2575000D02*
D03*
X2325000D02*
D03*
X2368750Y1162500D02*
D03*
X2418750D02*
D03*
X1900000Y1287500D02*
D03*
X1950000D02*
D03*
X2125000Y887500D02*
D03*
X2175000D02*
D03*
X2125000Y575000D02*
D03*
X2175000D02*
D03*
X2125000Y1500000D02*
D03*
X2175000D02*
D03*
D16*
X2667050Y888800D02*
D03*
Y1359200D02*
D03*
D17*
X2652850Y957800D02*
D03*
Y985500D02*
D03*
Y1013200D02*
D03*
Y1040900D02*
D03*
Y1068600D02*
D03*
Y1096300D02*
D03*
Y1124000D02*
D03*
Y1151700D02*
D03*
Y1179400D02*
D03*
Y1207100D02*
D03*
Y1234800D02*
D03*
Y1262500D02*
D03*
Y1290200D02*
D03*
X2681250Y1276300D02*
D03*
Y1248600D02*
D03*
Y1220900D02*
D03*
Y1192900D02*
D03*
Y1165200D02*
D03*
Y1137500D02*
D03*
Y1109500D02*
D03*
Y1081800D02*
D03*
Y1054100D02*
D03*
Y1026100D02*
D03*
Y998400D02*
D03*
Y970700D02*
D03*
X2568685Y1301645D02*
D03*
X2543285Y1276245D02*
D03*
X2568685D02*
D03*
X2543285Y1250845D02*
D03*
X2568685D02*
D03*
X2543285Y1225445D02*
D03*
X2568685D02*
D03*
X2543285Y1200045D02*
D03*
X2568685D02*
D03*
X2543285Y1174645D02*
D03*
X2568685D02*
D03*
X2543285Y1149245D02*
D03*
X2568685D02*
D03*
X2543285Y1123845D02*
D03*
X2568685D02*
D03*
X2543285Y1098445D02*
D03*
X2568685D02*
D03*
X2543285Y1073045D02*
D03*
X2568685D02*
D03*
X2543285Y1047645D02*
D03*
Y1022245D02*
D03*
Y996845D02*
D03*
Y971445D02*
D03*
Y946045D02*
D03*
X2568685Y1047645D02*
D03*
Y1022245D02*
D03*
Y996845D02*
D03*
Y971445D02*
D03*
Y946045D02*
D03*
X2575000Y1450000D02*
D03*
D18*
X2418750Y918750D02*
D03*
Y943750D02*
D03*
Y968750D02*
D03*
Y993750D02*
D03*
Y1018750D02*
D03*
Y1068750D02*
D03*
Y1043750D02*
D03*
Y1093750D02*
D03*
X2550000Y800000D02*
D03*
Y750000D02*
D03*
Y775000D02*
D03*
Y725000D02*
D03*
Y700000D02*
D03*
Y675000D02*
D03*
Y650000D02*
D03*
X2625000D02*
D03*
Y675000D02*
D03*
Y700000D02*
D03*
Y725000D02*
D03*
Y775000D02*
D03*
Y750000D02*
D03*
Y800000D02*
D03*
Y825000D02*
D03*
X1950000Y775000D02*
D03*
Y750000D02*
D03*
Y700000D02*
D03*
Y725000D02*
D03*
Y675000D02*
D03*
X1875000Y650000D02*
D03*
Y675000D02*
D03*
Y700000D02*
D03*
Y725000D02*
D03*
Y750000D02*
D03*
Y775000D02*
D03*
Y825000D02*
D03*
Y800000D02*
D03*
Y850000D02*
D03*
X1950000Y825000D02*
D03*
Y800000D02*
D03*
Y850000D02*
D03*
Y875000D02*
D03*
Y650000D02*
D03*
X2250000Y775000D02*
D03*
Y725000D02*
D03*
Y750000D02*
D03*
Y700000D02*
D03*
Y675000D02*
D03*
Y650000D02*
D03*
X2325000D02*
D03*
Y675000D02*
D03*
Y700000D02*
D03*
Y725000D02*
D03*
Y750000D02*
D03*
Y800000D02*
D03*
Y775000D02*
D03*
X2100000D02*
D03*
Y725000D02*
D03*
Y750000D02*
D03*
Y700000D02*
D03*
Y675000D02*
D03*
Y650000D02*
D03*
X2175000D02*
D03*
Y675000D02*
D03*
Y700000D02*
D03*
Y725000D02*
D03*
Y750000D02*
D03*
Y800000D02*
D03*
Y775000D02*
D03*
X2400000D02*
D03*
Y725000D02*
D03*
Y750000D02*
D03*
Y700000D02*
D03*
Y675000D02*
D03*
Y650000D02*
D03*
X2475000D02*
D03*
Y675000D02*
D03*
Y700000D02*
D03*
Y725000D02*
D03*
Y750000D02*
D03*
Y800000D02*
D03*
Y775000D02*
D03*
X2325000Y1175000D02*
D03*
Y1150000D02*
D03*
Y1125000D02*
D03*
Y1100000D02*
D03*
X2250000Y1150000D02*
D03*
Y1100000D02*
D03*
Y1125000D02*
D03*
Y1075000D02*
D03*
Y1050000D02*
D03*
Y1025000D02*
D03*
Y1000000D02*
D03*
Y975000D02*
D03*
Y950000D02*
D03*
X2325000D02*
D03*
Y975000D02*
D03*
Y1025000D02*
D03*
Y1000000D02*
D03*
Y1050000D02*
D03*
Y1075000D02*
D03*
X2100000Y1100000D02*
D03*
Y1050000D02*
D03*
Y1075000D02*
D03*
Y1025000D02*
D03*
Y1000000D02*
D03*
Y975000D02*
D03*
Y950000D02*
D03*
X2175000D02*
D03*
Y975000D02*
D03*
Y1000000D02*
D03*
Y1025000D02*
D03*
Y1075000D02*
D03*
Y1050000D02*
D03*
Y1100000D02*
D03*
Y1125000D02*
D03*
X2475000Y1475000D02*
D03*
Y1450000D02*
D03*
Y1425000D02*
D03*
Y1400000D02*
D03*
X2400000Y1450000D02*
D03*
Y1400000D02*
D03*
Y1425000D02*
D03*
Y1375000D02*
D03*
Y1350000D02*
D03*
Y1325000D02*
D03*
Y1300000D02*
D03*
Y1275000D02*
D03*
Y1250000D02*
D03*
X2475000D02*
D03*
Y1275000D02*
D03*
Y1325000D02*
D03*
Y1300000D02*
D03*
Y1350000D02*
D03*
Y1375000D02*
D03*
X2250000Y1400000D02*
D03*
Y1350000D02*
D03*
Y1375000D02*
D03*
Y1325000D02*
D03*
Y1300000D02*
D03*
Y1275000D02*
D03*
Y1250000D02*
D03*
X2325000D02*
D03*
Y1275000D02*
D03*
Y1300000D02*
D03*
Y1325000D02*
D03*
Y1375000D02*
D03*
Y1350000D02*
D03*
Y1400000D02*
D03*
Y1425000D02*
D03*
X2100000Y1375000D02*
D03*
Y1325000D02*
D03*
Y1350000D02*
D03*
Y1300000D02*
D03*
Y1275000D02*
D03*
Y1250000D02*
D03*
X2175000D02*
D03*
Y1275000D02*
D03*
Y1300000D02*
D03*
Y1325000D02*
D03*
Y1350000D02*
D03*
Y1400000D02*
D03*
Y1375000D02*
D03*
X1950000Y1025000D02*
D03*
Y1000000D02*
D03*
Y950000D02*
D03*
Y975000D02*
D03*
X1800000Y950000D02*
D03*
Y975000D02*
D03*
Y1000000D02*
D03*
Y1025000D02*
D03*
Y1050000D02*
D03*
Y1075000D02*
D03*
Y1100000D02*
D03*
Y1125000D02*
D03*
Y1175000D02*
D03*
Y1150000D02*
D03*
Y1200000D02*
D03*
X1950000Y1075000D02*
D03*
Y1050000D02*
D03*
Y1100000D02*
D03*
Y1125000D02*
D03*
Y1175000D02*
D03*
Y1150000D02*
D03*
Y1200000D02*
D03*
Y1225000D02*
D03*
X2325000Y612500D02*
D03*
X2125000D02*
D03*
X2100000D02*
D03*
X2250000D02*
D03*
X1762500Y1287500D02*
D03*
X2187500Y1218750D02*
D03*
X1612500Y950000D02*
D03*
X1762500D02*
D03*
X2325000Y1500000D02*
D03*
X2400000Y612500D02*
D03*
X1800000D02*
D03*
X1875000D02*
D03*
X1762500Y1062500D02*
D03*
D19*
X2418750Y1118750D02*
D03*
X2550000Y825000D02*
D03*
X1875000Y875000D02*
D03*
X2250000Y800000D02*
D03*
X2100000D02*
D03*
X2400000D02*
D03*
X2250000Y1175000D02*
D03*
X2100000Y1125000D02*
D03*
X2400000Y1475000D02*
D03*
X2250000Y1425000D02*
D03*
X2100000Y1400000D02*
D03*
X1800000Y1225000D02*
D03*
D20*
X2543285Y1301645D02*
D03*
X2575000Y1424600D02*
D03*
D21*
X1614000Y1535000D02*
D03*
X2680000Y1540000D02*
D03*
D22*
X2587500Y825000D02*
D03*
X2525000Y687500D02*
D03*
X2373384Y1189116D02*
D03*
X2500000Y750000D02*
D03*
X2475000Y887500D02*
D03*
X2500000Y875000D02*
D03*
X1850000Y700000D02*
D03*
X1856250Y487500D02*
D03*
X2600000Y650000D02*
D03*
X1825000Y925000D02*
D03*
X2325000Y1200000D02*
D03*
X2025000D02*
D03*
X2137500Y1325000D02*
D03*
X2362500Y775000D02*
D03*
X2350000Y737500D02*
D03*
X2337500Y837500D02*
D03*
X2137500Y1250000D02*
D03*
X2350000Y1325000D02*
D03*
X2362500Y712500D02*
D03*
X1837500Y850000D02*
D03*
X2225000Y826658D02*
D03*
X2200000Y725000D02*
D03*
Y962500D02*
D03*
Y1300000D02*
D03*
X2425000Y850000D02*
D03*
X1762500Y687500D02*
D03*
X2437500Y800000D02*
D03*
Y762500D02*
D03*
X2225000Y850000D02*
D03*
X2200000Y837500D02*
D03*
Y800000D02*
D03*
X2212500Y775000D02*
D03*
X2225000Y737500D02*
D03*
X2125000Y750000D02*
D03*
X2150000Y900000D02*
D03*
Y850000D02*
D03*
X2137500Y950000D02*
D03*
X2150000Y1025000D02*
D03*
X2212500Y1125000D02*
D03*
X2150000Y1150000D02*
D03*
Y1287500D02*
D03*
X1937500Y1525000D02*
D03*
X2075000Y1512500D02*
D03*
X2087500Y1475000D02*
D03*
X2150000Y1400000D02*
D03*
X2212500Y1437500D02*
D03*
X2262500Y1512500D02*
D03*
X2300000Y1525000D02*
D03*
X2275000Y1425000D02*
D03*
Y1400000D02*
D03*
Y1350000D02*
D03*
X2300000Y1362500D02*
D03*
Y1325000D02*
D03*
X2287500Y1300000D02*
D03*
X2275000Y1275000D02*
D03*
X2450000Y1350000D02*
D03*
X2362500D02*
D03*
X2375000Y1275000D02*
D03*
X2287500Y1112500D02*
D03*
X2250000Y862500D02*
D03*
X2350000Y912500D02*
D03*
X2312500Y887500D02*
D03*
X2337500Y875000D02*
D03*
X2275000Y787500D02*
D03*
X2287500Y762500D02*
D03*
X2375000Y750000D02*
D03*
X2462500Y862500D02*
D03*
X2512500Y787500D02*
D03*
X2637500Y587500D02*
D03*
X2612500Y575000D02*
D03*
X2500000Y725000D02*
D03*
X2437500Y700000D02*
D03*
X2425000Y675000D02*
D03*
X2212500Y687500D02*
D03*
Y625000D02*
D03*
X2287500Y662500D02*
D03*
X2300000Y637500D02*
D03*
X2362500Y675000D02*
D03*
X2375000Y650000D02*
D03*
X2362500Y625000D02*
D03*
X2412500Y562500D02*
D03*
X2512500Y487500D02*
D03*
X2487500D02*
D03*
X2375000D02*
D03*
X2350000Y500000D02*
D03*
X2325000Y487500D02*
D03*
X2225000D02*
D03*
X2200000D02*
D03*
X2175000D02*
D03*
X1925000Y625000D02*
D03*
X2037500D02*
D03*
X2100000Y487500D02*
D03*
X2000000D02*
D03*
X1637500Y500000D02*
D03*
X1662500Y512500D02*
D03*
X1687500Y525000D02*
D03*
X1712500Y550000D02*
D03*
X1737500Y537500D02*
D03*
X1725000Y475000D02*
D03*
X1825000Y575000D02*
D03*
X1887500Y587500D02*
D03*
X1912500Y600000D02*
D03*
X2012500Y575000D02*
D03*
X2050000Y562500D02*
D03*
X2075000Y550000D02*
D03*
X2037500Y650000D02*
D03*
X2012500D02*
D03*
X1987500Y637500D02*
D03*
X2000000Y687500D02*
D03*
X2037500Y700000D02*
D03*
X2100000Y850000D02*
D03*
Y875000D02*
D03*
X2075000D02*
D03*
Y837500D02*
D03*
Y750000D02*
D03*
X1975000Y712500D02*
D03*
X2025000Y725000D02*
D03*
Y787500D02*
D03*
X2012500Y875000D02*
D03*
X1925000Y762500D02*
D03*
X1912500Y725000D02*
D03*
X1900000Y775000D02*
D03*
X1912500Y800000D02*
D03*
X1900000Y862500D02*
D03*
X1887500Y912500D02*
D03*
X1787500Y712500D02*
D03*
X1837500Y737500D02*
D03*
X1812500Y837500D02*
D03*
X1825000Y787500D02*
D03*
X1700000Y762500D02*
D03*
X1750000Y825000D02*
D03*
X1775000Y812500D02*
D03*
X1762500Y887500D02*
D03*
X1787500Y900000D02*
D03*
X1912500Y950000D02*
D03*
X2012500Y962500D02*
D03*
X2075000Y1075000D02*
D03*
Y1150000D02*
D03*
X2025000Y1125000D02*
D03*
X2000000Y1200000D02*
D03*
X1987500Y1175000D02*
D03*
X1975000Y1100000D02*
D03*
X1900000Y975000D02*
D03*
X1925000Y1137500D02*
D03*
Y1050000D02*
D03*
X1912500Y1012500D02*
D03*
X1887500Y1000000D02*
D03*
X1875000Y1025000D02*
D03*
X1862500Y1062500D02*
D03*
X1837500Y987500D02*
D03*
Y1112500D02*
D03*
X1850000Y1137500D02*
D03*
X1900000Y1187500D02*
D03*
X1750000Y975000D02*
D03*
Y1037500D02*
D03*
X1637500Y1100000D02*
D03*
X1662500Y1125000D02*
D03*
X1687500Y1150000D02*
D03*
X1700000Y1175000D02*
D03*
X1737500Y1200000D02*
D03*
X1912500Y1237500D02*
D03*
X2037500Y1262500D02*
D03*
X1975000Y1237500D02*
D03*
Y1287500D02*
D03*
X2050000Y1387500D02*
D03*
X2062500Y1350000D02*
D03*
X2012500Y1337500D02*
D03*
X1775000Y1262500D02*
D03*
X1712500Y1300000D02*
D03*
X1750000Y1312500D02*
D03*
X1837500Y1362500D02*
D03*
X1875000Y1437500D02*
D03*
X1850000Y1412500D02*
D03*
X1725000Y1425000D02*
D03*
D23*
X2600000Y743750D02*
D03*
X2387500Y1093750D02*
D03*
Y906250D02*
D03*
X2350000Y1025000D02*
D03*
X2636956Y1276068D02*
D03*
X2613527Y1284193D02*
D03*
X2629086Y1297360D02*
D03*
X2601206Y1270458D02*
D03*
X2375000Y1037500D02*
D03*
Y931250D02*
D03*
X2350000Y956250D02*
D03*
M02*
