G04*
G04 #@! TF.GenerationSoftware,Altium Limited,Altium Designer,23.6.0 (18)*
G04*
G04 Layer_Physical_Order=1*
G04 Layer_Color=255*
%FSLAX44Y44*%
%MOMM*%
G71*
G04*
G04 #@! TF.SameCoordinates,8006C624-1F22-46BB-959B-2378D66551BF*
G04*
G04*
G04 #@! TF.FilePolarity,Positive*
G04*
G01*
G75*
%ADD10C,0.2540*%
%ADD13C,0.2500*%
G04:AMPARAMS|DCode=27|XSize=1.2mm|YSize=8mm|CornerRadius=0.6mm|HoleSize=0mm|Usage=FLASHONLY|Rotation=0.000|XOffset=0mm|YOffset=0mm|HoleType=Round|Shape=RoundedRectangle|*
%AMROUNDEDRECTD27*
21,1,1.2000,6.8000,0,0,0.0*
21,1,0.0000,8.0000,0,0,0.0*
1,1,1.2000,0.0000,-3.4000*
1,1,1.2000,0.0000,-3.4000*
1,1,1.2000,0.0000,3.4000*
1,1,1.2000,0.0000,3.4000*
%
%ADD27ROUNDEDRECTD27*%
%ADD28R,1.7000X11.0000*%
%ADD29C,0.5000*%
%ADD30C,1.0000*%
%ADD31C,3.0000*%
%ADD32C,1.5000*%
%ADD33C,1.0000*%
%ADD34C,0.5001*%
%ADD35C,2.0000*%
%ADD36C,1.6000*%
%ADD37R,1.6000X1.6000*%
%ADD38C,3.0000*%
%ADD39C,4.0000*%
%ADD40R,1.6000X1.6000*%
%ADD41C,2.0000*%
%ADD42R,1.8000X1.8000*%
%ADD43C,1.8000*%
%ADD44C,1.5000*%
%ADD45C,1.2000*%
%ADD46C,1.2000*%
D10*
X2324983Y1450305D02*
X2325000Y1450288D01*
D13*
X2050000Y1006240D02*
X2076778D01*
X2089268Y993750D01*
X2090750D01*
X2081250Y1012500D02*
X2087575Y1006175D01*
X1975075D02*
X2024925D01*
X2087575D02*
X2124935D01*
X2081250Y1012500D02*
X2081250D01*
X1887209Y555959D02*
X2137791D01*
X2150000Y543750D01*
X1056250Y700000D02*
X1068750Y712500D01*
X1218750D01*
X1231250Y700000D01*
X950000Y662500D02*
X1662500D01*
X937500Y675000D02*
X950000Y662500D01*
X737500Y1175000D02*
X1256250D01*
X1262500Y1181250D02*
X1625000D01*
X1256250Y1175000D02*
X1262500Y1181250D01*
X1300000Y1193750D02*
X1525000D01*
X775000Y1181250D02*
X1237500D01*
X1250000Y1193750D02*
X1300000D01*
X1237500Y1181250D02*
X1250000Y1193750D01*
X2182183Y486567D02*
X2237500Y431250D01*
X2393750D02*
X2412500Y412500D01*
X2237500Y431250D02*
X2393750D01*
X1557354Y448896D02*
X1626104D01*
X1630302Y444698D01*
X2167802D01*
X687500Y625000D02*
X775000D01*
X1412500Y800000D02*
X2050000D01*
X1766179Y1243750D02*
X1768750D01*
X1763564Y1241134D02*
X1766179Y1243750D01*
X1541134Y1241134D02*
X1763564D01*
X2332172Y363422D02*
X2343750Y375000D01*
X2181250Y387500D02*
X2205328Y363422D01*
X2332172D01*
X2237500Y575000D02*
X2249189Y563311D01*
Y475811D02*
X2262500Y462500D01*
X2249189Y475811D02*
Y563311D01*
X1625000Y1181250D02*
X1625356Y1181606D01*
X1987144D02*
X1987500Y1181250D01*
X1625356Y1181606D02*
X1987144D01*
X1100000Y1343750D02*
X1187500D01*
X950000Y1293750D02*
X1090452D01*
X1090571Y1293631D01*
X1537000Y587500D02*
X1637500D01*
X1050000Y1206250D02*
X1530669D01*
X1556250Y1218750D02*
X1700000D01*
X1556250Y1218750D02*
X1556250Y1218750D01*
X1555669Y1231250D02*
X1787500D01*
X1530669Y1206250D02*
X1555669Y1231250D01*
X1700000Y1218750D02*
X1700000Y1218750D01*
X1525000Y1193750D02*
X1525000Y1193750D01*
X1525000Y1193750D01*
X1937500D01*
X1812500Y1343750D02*
X1875000D01*
X1806250Y1337500D02*
X1812500Y1343750D01*
X204953Y837500D02*
X337500D01*
X204250Y836796D02*
X204953Y837500D01*
X206250Y325000D02*
X206250Y325000D01*
X487500D01*
X1200000Y850000D02*
X1200696Y849304D01*
X1305875D02*
X1306572Y848608D01*
X1200696Y849304D02*
X1305875D01*
X2000000Y750000D02*
X2000000D01*
X1987378Y737378D02*
X2000000Y750000D01*
X1306462Y737378D02*
X1987378D01*
X1307914Y650000D02*
X1308757Y650843D01*
X1150000Y650000D02*
X1307914D01*
X1307992Y611836D02*
X1308656Y612500D01*
X1500000D01*
X361914Y937500D02*
X1118750D01*
X349801Y949613D02*
X361914Y937500D01*
X1137500Y1131250D02*
X1137557Y1131307D01*
X1180053D01*
X1180110Y1131365D01*
X1159787Y1118784D02*
X1299966D01*
X1312500Y1106250D01*
X837000Y462500D02*
X975000D01*
X325000Y1188000D02*
X325500Y1187500D01*
X725000D01*
X672000Y1196750D02*
X675000Y1193750D01*
X725000Y1187500D02*
X737500Y1175000D01*
X375000Y1196750D02*
X672000D01*
X675000Y1193750D02*
Y1196750D01*
X275000Y1056250D02*
X312500D01*
X2042710Y1303134D02*
X2201779D01*
X2025710Y1286134D02*
X2042710Y1303134D01*
X1933133Y1333133D02*
X2212448D01*
X1920500Y1345500D02*
X1976750D01*
X1909530Y1309530D02*
X1933133Y1333133D01*
X1928500Y1341000D02*
X1997250D01*
X2012500Y1356250D01*
X1903205Y1315705D02*
X1928500Y1341000D01*
X1976750Y1345500D02*
X1987500Y1356250D01*
X1896460Y1321460D02*
X1920500Y1345500D01*
X2106250Y1343750D02*
X2125000D01*
X1110586Y1231874D02*
X1110898Y1231562D01*
X1424688D01*
X1425000Y1231250D01*
X650000Y700000D02*
X650131Y699869D01*
X848419D01*
X848550Y699737D01*
X847902Y575992D02*
X848398Y575496D01*
X987004D01*
X987500Y575000D01*
X800000Y581250D02*
X806250Y587500D01*
X1062500D01*
X556250Y562500D02*
X1100000D01*
X1337500Y587500D02*
Y600000D01*
X550000Y568750D02*
X556250Y562500D01*
X1100000D02*
X1118750Y587500D01*
X487500Y300000D02*
X1200000D01*
X1200000Y300000D01*
X1150903Y901568D02*
X1153474D01*
X1445139Y898955D02*
X1447901Y901717D01*
X1153474Y901568D02*
X1156087Y898955D01*
X1445139D01*
X1052966Y892073D02*
X1514177D01*
X1526805Y879445D01*
X1045039Y900000D02*
X1052966Y892073D01*
X1007833Y885917D02*
X1507833D01*
X1519495Y874255D01*
X993750Y900000D02*
X1007833Y885917D01*
X1501489Y879761D02*
X1512186Y869064D01*
X981250Y887500D02*
X988989Y879761D01*
X1501489D01*
X1462947Y912053D02*
X1468824Y906176D01*
X1419763Y912053D02*
X1462947D01*
X1447901Y901717D02*
X1450472D01*
X1452189Y900000D02*
X1518750D01*
X1450472Y901717D02*
X1452189Y900000D01*
X1518750D02*
X1534250Y884500D01*
X1415972Y908263D02*
X1419763Y912053D01*
X1411308Y908263D02*
X1415972D01*
X1176483Y910983D02*
X1179054D01*
X1180307Y912236D01*
X1407334D01*
X1411308Y908263D01*
X1175000Y909500D02*
X1176483Y910983D01*
X826232Y903250D02*
X856605Y872878D01*
X1495872D01*
X1505055Y863695D01*
X812500Y862500D02*
X1062500D01*
X1100000D02*
X1493750D01*
X2286957Y874255D02*
X2292462Y868750D01*
X1519495Y874255D02*
X2286957D01*
X2304445Y879445D02*
X2306250Y881250D01*
X1526805Y879445D02*
X2304445D01*
X1512186Y869064D02*
X2268436D01*
X2281250Y856250D01*
X2248805Y863695D02*
X2268750Y843750D01*
X1505055Y863695D02*
X2248805D01*
X1525074Y906176D02*
X1540613Y890637D01*
X2097429Y893750D02*
X2100000D01*
X2094317Y890637D02*
X2097429Y893750D01*
X1540613Y890637D02*
X2094317D01*
X2248712Y918750D02*
X2250000D01*
X2242462Y925000D02*
X2248712Y918750D01*
X2212500Y925000D02*
X2242462D01*
X2268750Y843750D02*
Y843750D01*
X2065750Y897000D02*
X2074989Y906239D01*
X2237478D01*
X2292462Y868750D02*
X2293750D01*
X1468824Y906176D02*
X1525074D01*
X1492088Y920412D02*
X1499795Y912705D01*
X1531045D02*
X1546750Y897000D01*
X1499795Y912705D02*
X1531045D01*
X293715Y920412D02*
X1492088D01*
X287500Y925000D02*
X289127D01*
X293715Y920412D01*
X1300000Y940500D02*
X1301500Y939000D01*
X314214Y937500D02*
X326715Y925000D01*
X1301500Y939000D02*
X1929750D01*
X1212500Y931250D02*
X1387607D01*
X1389107Y929750D01*
X1137500Y925000D02*
X1143750Y931250D01*
X1929750Y939000D02*
X1931250Y937500D01*
X326715Y925000D02*
X1137500D01*
X1143750Y931250D02*
X1193750D01*
X1175000Y912467D02*
X1176483Y910983D01*
X687500Y912500D02*
X1175000D01*
Y912467D02*
Y912500D01*
X787500Y887500D02*
X812500Y862500D01*
X981250Y887500D02*
Y887500D01*
X968750Y900000D02*
X981250Y887500D01*
X525000Y862500D02*
X675000D01*
X687500Y850000D02*
X1200000D01*
X675000Y862500D02*
X687500Y850000D01*
X512500D02*
X525000Y862500D01*
X489717Y862500D02*
X495967Y868750D01*
X775000D01*
X212500Y862500D02*
X489717D01*
X537500Y887500D02*
X750000D01*
X787500D01*
X475000Y900000D02*
X675000D01*
X687500Y912500D01*
X1100000Y950000D02*
X1193750D01*
X1212500Y931250D01*
X1859250Y928000D02*
X2038179D01*
X2041179Y925000D01*
X2043750D01*
X2031250Y937500D02*
X2143750D01*
X2025000Y943750D02*
X2031250Y937500D01*
X1737500Y918750D02*
X2000000D01*
X1856250Y925000D02*
X1859250Y928000D01*
X1550000Y906250D02*
X1969041D01*
X1531250Y925000D02*
X1550000Y906250D01*
X1546750Y897000D02*
X2065750D01*
X1793750Y928000D02*
X1853250D01*
X1856250Y925000D01*
X1006250Y956250D02*
X1012500Y962500D01*
X950000Y956250D02*
X1006250D01*
X1012500Y962500D02*
X2175000D01*
X825000Y903250D02*
X826232D01*
X1043750Y900000D02*
X1045039D01*
X1300000Y1093750D02*
X1312500Y1081250D01*
X1856250Y925000D02*
Y928000D01*
X2168750Y925000D02*
X2175000Y931250D01*
X2068750Y925000D02*
X2168750D01*
X2175000Y962500D02*
X2212500Y925000D01*
X1893750Y356250D02*
X1912500Y375000D01*
Y568750D02*
X1993750D01*
X1518750Y925000D02*
X1531250D01*
X1731214Y1221254D02*
X1912042D01*
X1913523Y1218750D02*
X1987500D01*
X1912042Y1221254D02*
X1913523Y1219773D01*
X1060682Y945182D02*
Y948754D01*
X1062500Y950571D01*
X864068Y945182D02*
X1060682D01*
X862500Y946750D02*
X864068Y945182D01*
X2145712Y884500D02*
X2154962Y893750D01*
X1534250Y884500D02*
X2145712D01*
X2154962Y893750D02*
X2156250D01*
X1506250Y850000D02*
X1837500D01*
X1493750Y862500D02*
X1506250Y850000D01*
X1493750Y843750D02*
X1800000D01*
X1487500Y850000D02*
X1493750Y843750D01*
X1618202Y1204432D02*
X1618714Y1203920D01*
X1612500Y1206250D02*
X1614318Y1204432D01*
X1618202D01*
X1618714Y1203920D02*
X1845099D01*
X2299860Y1193750D02*
X2312430Y1181180D01*
X1845099Y1203920D02*
X1847429Y1206250D01*
X1788252Y1208960D02*
X1795332Y1216040D01*
X1700000Y1218750D02*
X1709790Y1208960D01*
X1788252D01*
X1847429Y1206250D02*
X1850000D01*
X575000Y437500D02*
X612500D01*
X1143750Y800000D02*
X1387500D01*
X1922746Y1306250D02*
X2025000D01*
X1781389Y1253540D02*
X1784929Y1250000D01*
X1787500D01*
X1750000Y1112500D02*
X1777522D01*
X482715Y1212500D02*
X1006250D01*
X1012500Y1218750D01*
X1012500Y1031250D02*
X1050000D01*
X587500Y1018750D02*
X725000D01*
X550000Y1293750D02*
X612500D01*
X325000Y700000D02*
X462500D01*
X262500Y775000D02*
X298179Y810679D01*
X1612500Y518750D02*
X1622739Y508511D01*
X2085682Y508932D02*
X2087500Y510750D01*
X2081707Y508932D02*
X2085682D01*
X2081286Y508511D02*
X2081707Y508932D01*
X1622739Y508511D02*
X2081286D01*
X1543750Y512500D02*
X1577029Y479221D01*
X2164529D02*
X2175000Y468750D01*
X1577029Y479221D02*
X2164529D01*
X1556100Y518899D02*
X1588433Y486567D01*
X2182183D01*
X2158910Y434840D02*
X2171332Y422418D01*
X1612500Y437500D02*
X1615071D01*
X1617730Y434840D01*
X2158910D01*
X2167802Y444698D02*
X2181250Y431250D01*
X1531250Y475000D02*
X1557354Y448896D01*
X2037500Y1093750D02*
X2075169Y1093581D01*
X2087575Y1081175D02*
X2124935D01*
X2075169Y1093581D02*
X2087575Y1081175D01*
X2037500Y1068750D02*
X2075169Y1068581D01*
X2087575Y1056175D02*
X2124935D01*
X2075169Y1068581D02*
X2087575Y1056175D01*
X2050010Y1056250D02*
X2075000D01*
X2087500Y1043750D02*
X2225000D01*
X2075000Y1056250D02*
X2087500Y1043750D01*
X2037500D02*
X2075000D01*
X2087575Y1031175D01*
X2124935D01*
X2037500Y1018750D02*
X2075169Y1018581D01*
X2081250Y1012500D01*
X2087500Y981250D02*
X2126554D01*
X2034271Y993764D02*
X2075169Y993581D01*
X2087500Y981250D01*
X2137500Y1218750D02*
X2231250D01*
X2247417Y1234917D01*
Y1241167D02*
X2250000Y1243750D01*
X2247417Y1234917D02*
Y1241167D01*
X2081250Y1231250D02*
X2231250D01*
X2237500Y1237500D02*
Y1250000D01*
X2231250Y1231250D02*
X2237500Y1237500D01*
X1611000Y501500D02*
X2164000D01*
X2187500Y525000D01*
X2225000D01*
X2181250Y493750D02*
X2193750Y506250D01*
X1600000Y493750D02*
X2181250D01*
X2193750Y506250D02*
X2225000D01*
X2171332Y300333D02*
Y422418D01*
X2167999Y297000D02*
X2171332Y300333D01*
X831250Y450000D02*
X1487500D01*
X1512500Y425000D01*
X1212500Y487500D02*
X1533644D01*
X1564894Y456250D02*
X1987500D01*
X1533644Y487500D02*
X1564894Y456250D01*
X1137500Y775000D02*
X1150000Y787500D01*
X1487500D01*
X1531250Y1231250D02*
X1541134Y1241134D01*
X1450000Y1268750D02*
X1687500D01*
X1700000Y1281250D01*
X1437500D02*
X1450000Y1268750D01*
X975000D02*
X1325000D01*
X1337500Y1256250D02*
X1400000D01*
X1325000Y1268750D02*
X1337500Y1256250D01*
X1650000Y1331250D02*
X1652571D01*
X1656111Y1334790D01*
X1683960D01*
X1712500Y1343750D02*
X1787500D01*
X1813710Y1369960D02*
X2080040D01*
X1787500Y1343750D02*
X1813710Y1369960D01*
X1500000Y1381250D02*
X1506250Y1375000D01*
X1750000D01*
X1500000Y1368750D02*
X1512500Y1356250D01*
X1275000Y1368750D02*
X1500000D01*
X1212500Y1393750D02*
X1213580Y1394830D01*
X1613580D02*
X1625000Y1406250D01*
X1213580Y1394830D02*
X1613580D01*
X1613330Y1383960D02*
X2103540D01*
X1612500Y1384790D02*
X1613330Y1383960D01*
X1031250Y1418750D02*
X1593750D01*
X1606250Y1431250D01*
X1375000Y687500D02*
X1712500D01*
X1362500Y675000D02*
X1375000Y687500D01*
X1712500D02*
X1725000Y675000D01*
X1262350Y518899D02*
X1556100D01*
X1256250Y525000D02*
X1262350Y518899D01*
X1318541Y543959D02*
X1325576Y536924D01*
X1613076D02*
X1618750Y531250D01*
X1325576Y536924D02*
X1613076D01*
X1612500Y562500D02*
X1662500D01*
Y561717D02*
Y562500D01*
Y561717D02*
X1667968Y556250D01*
X1775000D01*
X637500Y450000D02*
X762500D01*
X625000Y462500D02*
X637500Y450000D01*
X912500Y493750D02*
X918750D01*
X893750Y481250D02*
X942811D01*
X876179Y498821D02*
X893750Y481250D01*
X949061Y487500D02*
X1168750D01*
X942811Y481250D02*
X949061Y487500D01*
X706250Y543750D02*
X712583Y550083D01*
X1331167D02*
X1337500Y543750D01*
X712583Y550083D02*
X1331167D01*
X718690Y531250D02*
X731399Y543959D01*
X1318541D01*
X1337500Y543750D02*
X1625000D01*
X1306250Y537500D02*
X1312500Y531250D01*
X743750Y537500D02*
X1306250D01*
X1312500Y531250D02*
X1581250D01*
X762500D02*
X1293750D01*
X1300000Y525000D02*
X1568750D01*
X1293750Y531250D02*
X1300000Y525000D01*
X1568750D02*
X1600000Y493750D01*
X2450000Y1093750D02*
X2462500Y1106250D01*
X2168750Y1093750D02*
X2450000D01*
X2425000Y1256250D02*
X2437500Y1268750D01*
X2243750Y1256250D02*
X2425000D01*
X2325000Y1393750D02*
X2400000Y1318750D01*
X2412500D01*
X2225000Y1418750D02*
X2250000Y1393750D01*
X1612500Y1418750D02*
X2225000D01*
X1600000Y1406250D02*
X1612500Y1418750D01*
X2100000Y1293750D02*
X2250000D01*
X2087500Y1281250D02*
X2100000Y1293750D01*
X1812500Y1256250D02*
X2056250D01*
X2081250Y1231250D01*
X1787500Y1231250D02*
X1812500Y1256250D01*
X1950000Y1243750D02*
X2043750D01*
X2081250Y1206250D02*
X2162500D01*
X2043750Y1243750D02*
X2081250Y1206250D01*
X1937500Y1193750D02*
X1937500Y1193750D01*
X1475000Y1231250D02*
X1531250D01*
X1750000Y1262500D02*
X2156250D01*
X1462500Y1256250D02*
Y1257032D01*
X1467968Y1262500D01*
X1743889D01*
X1745612Y1260778D01*
X1748278D01*
X1750000Y1262500D01*
X1725000Y1218750D02*
X1726818Y1220568D01*
X1730528D01*
X1731214Y1221254D01*
X1795332Y1216040D02*
X1865210D01*
X1875000Y1206250D01*
X1813172Y1243077D02*
X1813509Y1243414D01*
X1924664D01*
X1825000Y1231250D02*
X1975000D01*
X2062500Y387500D02*
X2075000Y400000D01*
X1943750Y387500D02*
X2062500D01*
X1693750Y412500D02*
X2112500D01*
X2125000Y400000D01*
X2225000Y375000D02*
X2325000D01*
X2212500Y387500D02*
X2225000Y375000D01*
X2325000D02*
X2337500Y387500D01*
X1237500Y712500D02*
X1987500D01*
X2025000Y675000D01*
X2143750Y1118750D02*
X2168750Y1093750D01*
X1783251Y1118750D02*
X2143750D01*
X1928980Y993750D02*
X1962500D01*
X1975000Y981250D02*
X2012500D01*
X1962500Y993750D02*
X1975000Y981250D01*
X1787467D02*
X1800000D01*
X1701465Y993750D02*
X1737500D01*
X1750000Y981250D01*
X1787467D01*
X1737500Y1006250D02*
X1750000Y993750D01*
X1800000D01*
X1562500Y1081175D02*
X1574925D01*
X1475000Y1093750D02*
X1512669Y1093581D01*
X1525075Y1081175D02*
X1562500D01*
X1512669Y1093581D02*
X1525075Y1081175D01*
X1012500Y1081250D02*
X1050000D01*
X1062500Y1068750D02*
X1100000D01*
X1050000Y1081250D02*
X1062500Y1068750D01*
X500000Y1018750D02*
X568750D01*
X581250Y1031250D02*
X625000D01*
X568750Y1018750D02*
X581250Y1031250D01*
X349935Y1131175D02*
X362360Y1118750D01*
X1018750D01*
X425000Y1093750D02*
X587500D01*
X412500Y1081250D02*
X425000Y1093750D01*
X718750Y1068750D02*
X876464D01*
X893750Y1043750D02*
X918750D01*
X931250Y1056250D02*
Y1094889D01*
X918750Y1043750D02*
X931250Y1056250D01*
Y1094889D02*
X942611Y1106250D01*
X962500Y1000000D02*
Y1081250D01*
Y1000000D02*
X981250Y981250D01*
X1081250Y1018750D02*
X1125000D01*
X1006250Y1043750D02*
X1056250D01*
X1081250Y1018750D01*
X1012500Y1031250D02*
X1012500Y1031250D01*
X1125000Y1018750D02*
X1137500Y1031250D01*
Y1006250D02*
X1162500Y1031250D01*
X1212500D01*
X1112500Y1081250D02*
Y1093750D01*
X1100000Y1068750D02*
X1112500Y1081250D01*
X1037500Y1056250D02*
X1062500D01*
X1087500Y1031250D02*
X1087500D01*
X1062500Y1056250D02*
X1087500Y1031250D01*
X1131250Y1093750D02*
X1156250D01*
X1193750Y1056250D02*
X1212500D01*
X1156250Y1093750D02*
X1193750Y1056250D01*
X1183077Y1093750D02*
X1300000D01*
X1262575Y1106175D02*
X1299963Y1106287D01*
X1312500Y1093750D01*
Y1093750D02*
X1350000D01*
X1006250Y1206250D02*
X1018750Y1193750D01*
X462500Y1206250D02*
X1006250D01*
X1018750Y1193750D02*
X1225000D01*
X956250Y1231250D02*
X987500D01*
X512500Y1218750D02*
X943750D01*
X956250Y1231250D01*
X962500Y1281250D02*
X975000Y1268750D01*
X625000Y1268750D02*
X850000D01*
X862500Y1256250D01*
X1275000D01*
X643750Y1256250D02*
X843750D01*
X856250Y1243750D01*
X1250000D01*
X612500Y1256250D02*
X625000Y1268750D01*
X562500Y1256250D02*
X612500D01*
X543750Y1243750D02*
X631250D01*
X643750Y1256250D01*
X531250Y1231250D02*
X650000D01*
X662500Y1243750D01*
X837500D01*
X650000Y1143750D02*
X662500Y1156250D01*
X575000Y1143750D02*
X650000D01*
X500000Y1068750D02*
X612500D01*
X487500Y1081250D02*
X500000Y1068750D01*
X487500Y1031250D02*
X500000Y1018750D01*
X425000Y1043750D02*
X693750D01*
X412500Y1031250D02*
X425000Y1043750D01*
X575000Y837500D02*
X587500Y825000D01*
X400000Y837500D02*
X575000D01*
X300000Y712500D02*
X425000D01*
X431250Y718750D02*
X1056250D01*
X425000Y712500D02*
X431250Y718750D01*
X1056250D02*
X1062500Y725000D01*
X687500Y518750D02*
X725000D01*
X743750Y537500D01*
X750000Y518750D02*
X762500Y531250D01*
X1218750Y337500D02*
X1231250Y325000D01*
X1337500D01*
X1112500Y337500D02*
X1218750D01*
X818750Y437500D02*
X831250Y450000D01*
X1806250Y837500D02*
X2062500D01*
X2075000Y825000D01*
X1800000Y843750D02*
X1806250Y837500D01*
X2087500Y737500D02*
X2175000D01*
X2075000Y750000D02*
X2087500Y737500D01*
X1993750Y568750D02*
X2025000Y600000D01*
X1956250Y581250D02*
X1975000Y600000D01*
X1862500Y581250D02*
X1956250D01*
X1750000Y568750D02*
X1850000D01*
X1862500Y581250D01*
X1611790Y611790D02*
X1838210D01*
X1862500Y587500D02*
X1937500D01*
X1838210Y611790D02*
X1862500Y587500D01*
X1937500D02*
X1950000Y600000D01*
X1637500Y587500D02*
X1650000Y600000D01*
X1775000Y587500D02*
X1787500Y600000D01*
X1737500Y587500D02*
X1775000D01*
X1725000Y600000D02*
X1737500Y587500D01*
X1323712Y637500D02*
X1336212Y650000D01*
X975000Y637500D02*
X1323712D01*
X925000Y625000D02*
X1700000D01*
X1200000Y687500D02*
X1262500D01*
X1275000Y675000D01*
X387500Y725000D02*
X393750Y731250D01*
X1050000D02*
X1056250Y737500D01*
X393750Y731250D02*
X1050000D01*
X1056250Y737500D02*
X1290115D01*
X1062500Y725000D02*
X1600000D01*
X987500Y700000D02*
X1056250D01*
X900000Y687500D02*
X1062500D01*
X1075000Y700000D01*
X1212500D01*
X1081250Y687500D02*
X1200000D01*
X1037500Y675000D02*
X1068750D01*
X1081250Y687500D01*
X725000Y709500D02*
Y712500D01*
X881250Y700000D02*
X987500D01*
X868750Y712500D02*
X881250Y700000D01*
X725000Y712500D02*
X868750D01*
X887500Y675000D02*
X900000Y687500D01*
X750000Y676964D02*
X760536Y687500D01*
X825000D01*
X750000Y675000D02*
Y676964D01*
X618750Y700000D02*
X631250Y687500D01*
X662500D01*
X675000Y675000D01*
X762500Y587500D02*
X775000Y600000D01*
X507715Y587500D02*
X762500D01*
X482715Y562500D02*
X507715Y587500D01*
X237500Y562500D02*
X482715D01*
X268750Y556250D02*
X562500D01*
X250000Y537500D02*
X268750Y556250D01*
X350000Y581250D02*
X443750D01*
X293750D02*
X350000D01*
X275000Y600000D02*
X293750Y581250D01*
X443750D02*
X462500Y600000D01*
X312500Y612500D02*
X525000D01*
X537500Y600000D01*
X300000D02*
X312500Y612500D01*
X362500Y687500D02*
X475000D01*
X350000Y675000D02*
X362500Y687500D01*
X475000D02*
X500000Y712500D01*
X212500Y700000D02*
X275000D01*
X300000Y675000D01*
X250000Y737500D02*
Y750000D01*
Y737500D02*
X275000Y712500D01*
X300000D02*
Y750000D01*
X418750Y787500D02*
X431250Y775000D01*
X337500Y787500D02*
X418750D01*
X337500Y837500D02*
X350000Y825000D01*
X287500Y1343750D02*
X300000Y1356250D01*
X212500Y1343750D02*
X287500D01*
X337500Y1243750D02*
X350000D01*
X300000Y1281250D02*
X337500Y1243750D01*
X237500Y1218750D02*
X387500D01*
X425000Y1256250D01*
X500000Y1231250D02*
X512500Y1218750D01*
X450000Y1218750D02*
X476465D01*
X437500Y1206250D02*
X450000Y1218750D01*
X476465D02*
X482715Y1212500D01*
X487500Y1281250D02*
Y1312500D01*
X506250Y1331250D02*
X511035D01*
X487500Y1312500D02*
X506250Y1331250D01*
X511035D02*
X512500Y1332715D01*
X667286Y1431250D02*
X1018750D01*
X629785Y1393750D02*
X667286Y1431250D01*
X475000Y1393750D02*
X629785D01*
X762500Y1406250D02*
X1187500D01*
X1018750Y1431250D02*
X1031250Y1418750D01*
X937500D02*
X1000000D01*
X2275010Y1068750D02*
X2450000D01*
X2462500Y1081250D01*
X2262435Y1056175D02*
X2275010Y1068750D01*
X2274860Y993750D02*
X2425000D01*
X2262435Y1006175D02*
X2274860Y993750D01*
X631250Y843750D02*
Y843750D01*
X637500Y837500D02*
X875000D01*
X631250Y843750D02*
X637500Y837500D01*
X625000Y850000D02*
X631250Y843750D01*
X875000Y837500D02*
X887500Y825000D01*
X570038Y793750D02*
X806250D01*
X825000Y812500D01*
X887500Y750000D02*
X900000Y762500D01*
X918750D02*
X925000Y768750D01*
X900000Y762500D02*
X918750D01*
X1016433Y768750D02*
X1022683Y762500D01*
X925000Y768750D02*
X1016433D01*
X1062500Y775000D02*
X1137500D01*
X837500Y787500D02*
X1131250D01*
X1143750Y800000D01*
X1075000D02*
X1125000D01*
X1137500Y812500D02*
X1712500D01*
X1125000Y800000D02*
X1137500Y812500D01*
X1187500Y775000D02*
X1361155D01*
X1386155Y750000D01*
X349935Y1056175D02*
X350010Y1056250D01*
X1290115Y737500D02*
X1302615Y750000D01*
X1337500D01*
X1437500Y775000D02*
X1650000D01*
X1611790Y761790D02*
X1938210D01*
X1950000Y750000D01*
X2037500Y650000D02*
X2050000Y637500D01*
X1693750Y650000D02*
X2037500D01*
X2100000Y675000D02*
X2137500D01*
X2162500D01*
X2070019Y704981D02*
X2100000Y675000D01*
X2063769Y704981D02*
X2070019D01*
X2062500Y706250D02*
X2063769Y704981D01*
X2175000Y737500D02*
X2187500Y725000D01*
X2262500Y387500D02*
X2325000D01*
X2350000Y412500D01*
X2337500Y387500D02*
X2356250D01*
X2362500Y330676D02*
Y381250D01*
X2356250Y387500D02*
X2362500Y381250D01*
X2181250Y387500D02*
Y431250D01*
X2162500Y381250D02*
Y412500D01*
X2150000Y425000D02*
X2162500Y412500D01*
X1650000Y425000D02*
X2150000D01*
X2131250Y418750D02*
X2150000Y400000D01*
X1675000Y418750D02*
X2131250D01*
X1937500Y393750D02*
X1943750Y387500D01*
X1726465Y393750D02*
X1937500D01*
X1762500Y387500D02*
X1918750D01*
X1925000Y350000D02*
Y381250D01*
X1918750Y387500D02*
X1925000Y381250D01*
X1750000Y375000D02*
X1762500Y387500D01*
X1625000Y412500D02*
X1668750D01*
X1675000Y418750D01*
X1600000Y400000D02*
X1681250D01*
X1693750Y412500D01*
X1593750Y387500D02*
X1693750D01*
X1706250Y400000D02*
X1975000D01*
X1693750Y387500D02*
X1706250Y400000D01*
X1581250D02*
X1593750Y387500D01*
X1706250Y375000D02*
X1707715D01*
X1726465Y393750D01*
X1593750Y375000D02*
X1706250D01*
X1706250Y375000D01*
X1325000Y337500D02*
X1337500Y350000D01*
X1387500D01*
X1406250Y337500D02*
X1450000D01*
X1462500Y350000D01*
X1350000Y337500D02*
X1406250D01*
X1337500Y325000D02*
X1350000Y337500D01*
X1100000Y350000D02*
X1112500Y337500D01*
X1337500Y312500D02*
X1350000Y325000D01*
X350000Y312500D02*
X1337500D01*
X912500Y350000D02*
X925000Y337500D01*
X1075000D01*
X762500D02*
X825000D01*
X750000Y350000D02*
X762500Y337500D01*
X631250Y437500D02*
X818750D01*
X737500Y412500D02*
X813964D01*
X838964Y437500D01*
X1200000D01*
X618750Y450000D02*
X631250Y437500D01*
X562500Y425000D02*
X575000Y437500D01*
X487500Y325000D02*
X512500Y350000D01*
X293750Y368750D02*
X325000D01*
X356250Y400000D02*
X1581250D01*
X325000Y368750D02*
X356250Y400000D01*
X312500Y387500D02*
X350000Y425000D01*
X287500Y387500D02*
X312500D01*
X2081250Y800000D02*
X2237500D01*
X2237500Y800000D01*
X2271419Y931250D02*
X2312500D01*
X2212500Y962500D02*
X2240169D01*
X2271419Y931250D01*
X1581250Y531250D02*
X1611000Y501500D01*
X1250000Y512500D02*
X1543750D01*
X1537500Y500000D02*
X1568750Y468750D01*
X1225000Y500000D02*
X1537500D01*
X1568750Y468750D02*
X2150000D01*
X1200000Y475000D02*
X1531250D01*
X1618750Y531250D02*
X1650000D01*
X1700000D02*
X2112500D01*
X1687500Y543750D02*
X1700000Y531250D01*
X2100000Y625000D02*
X2187500D01*
X2075000Y600000D02*
X2100000Y625000D01*
X1902710Y1296460D02*
X1950000D01*
X1887500Y1281250D02*
X1902710Y1296460D01*
X1636155Y1331250D02*
X1654075Y1313330D01*
X1679055D01*
X1700000Y1356250D02*
X1712500Y1343750D01*
X1683960Y1334790D02*
X1697290Y1321460D01*
X1896460D01*
X1875000Y1343750D02*
X1887500Y1356250D01*
Y1331250D02*
X1912500Y1356250D01*
X1825000Y1331250D02*
X1887500D01*
X1750000Y1375000D02*
X2093750D01*
X2112500Y1356250D02*
X2150000D01*
X2093750Y1375000D02*
X2112500Y1356250D01*
X2080040Y1369960D02*
X2106250Y1343750D01*
X2118750Y1368750D02*
X2225000D01*
X2103540Y1383960D02*
X2118750Y1368750D01*
X2118750Y1381250D02*
X2137500D01*
X2106250Y1393750D02*
X2118750Y1381250D01*
X1637500Y1393750D02*
X2106250D01*
X2137500Y1381250D02*
X2150000Y1393750D01*
X793750Y525000D02*
X1256250D01*
X787500Y518750D02*
X793750Y525000D01*
X968750Y506250D02*
X975000Y512500D01*
X662500Y518750D02*
X687500D01*
X925000Y500000D02*
X1212500D01*
X918750Y493750D02*
X925000Y500000D01*
X512500Y543750D02*
X706250D01*
X337500Y531250D02*
X718690D01*
X518750Y500000D02*
X519929Y498821D01*
X876179D01*
X631250Y512500D02*
X637500Y506250D01*
X968750D01*
X400000Y500000D02*
X518750D01*
X1675000Y518750D02*
X2012500D01*
X975000Y512500D02*
X1225000D01*
Y500000D02*
Y512500D01*
X437500Y543750D02*
X512500D01*
X312500D02*
X437500D01*
X600000Y475000D02*
X1162500D01*
X525000D02*
X600000D01*
X1212500Y487500D02*
Y500000D01*
X1187500Y487500D02*
X1200000Y475000D01*
X1193750Y462500D02*
X1412500D01*
X1168750Y487500D02*
X1193750Y462500D01*
X487500Y487500D02*
X868750D01*
X1837500Y850000D02*
X2000000D01*
X312500Y937500D02*
X314214D01*
X1637500Y837500D02*
X1650000Y825000D01*
X1468750Y837500D02*
X1637500D01*
X1456250Y850000D02*
X1468750Y837500D01*
X1375000Y850000D02*
X1456250D01*
X800000Y956250D02*
X917187D01*
X917187Y956250D01*
X1975075Y1056175D02*
X2024925D01*
X1043750Y981250D02*
Y1006250D01*
X955959Y980959D02*
Y982829D01*
X950000Y988789D02*
X955959Y982829D01*
X950000Y988789D02*
Y1056250D01*
X991124Y1058876D02*
Y1092122D01*
Y1058876D02*
X1006250Y1043750D01*
X962500Y1081250D02*
X975000Y1093750D01*
X875000Y1025000D02*
X893750Y1043750D01*
X818750D02*
X850000D01*
X862500Y1056250D02*
X912500D01*
X850000Y1043750D02*
X862500Y1056250D01*
X781250Y1006250D02*
X818750Y1043750D01*
X1001101Y1067649D02*
Y1097434D01*
Y1067649D02*
X1012500Y1056250D01*
X976996Y1106250D02*
X991124Y1092122D01*
X942611Y1106250D02*
X976996D01*
X901464Y1093750D02*
X918750D01*
X937500Y1112500D02*
X986036D01*
X918750Y1093750D02*
X937500Y1112500D01*
X986036D02*
X1001101Y1097434D01*
X693750Y1043750D02*
X718750Y1068750D01*
X876464D02*
X901464Y1093750D01*
X800000Y1093750D02*
X887500D01*
X900000Y1106250D02*
X912500D01*
X887500Y1093750D02*
X900000Y1106250D01*
X1018750Y1118750D02*
X1031250Y1131250D01*
X650000Y850000D02*
X657460Y842540D01*
X1019960D01*
X1037500Y825000D01*
Y825000D02*
Y825000D01*
X1937435Y1106175D02*
X1937575D01*
X1824935D02*
X1825075D01*
X1712435D02*
X1712575D01*
X1487435D02*
X1487575D01*
X1599935D02*
X1600075D01*
X1262435D02*
X1262575D01*
X1374935D02*
X1375075D01*
X1937435Y1006175D02*
X1937575D01*
X1824935D02*
X1825075D01*
X1712435D02*
X1712575D01*
X1487435D02*
X1487575D01*
X1599935D02*
X1600075D01*
X1356289D02*
X1375075D01*
X1262435D02*
X1262575D01*
X2187360Y1081250D02*
X2187435Y1081175D01*
X1937435Y1031175D02*
X1937575D01*
X1824935D02*
X1825075D01*
X1599935D02*
X1600075D01*
X1712435D02*
X1712575D01*
X1487435D02*
X1487575D01*
X1262435D02*
X1262575D01*
X1374935D02*
X1375075D01*
X1637575Y1056175D02*
X1687425D01*
X1525075D02*
X1574925D01*
X1412575D02*
X1462425D01*
X1337435D02*
X1349925D01*
X1750075D02*
X1799925D01*
X1900033Y1006175D02*
X1912425D01*
X1637575D02*
X1687425D01*
X1562500D02*
X1574925D01*
X1412575D02*
X1462425D01*
X1337435D02*
X1349925D01*
X1975075Y1031175D02*
X2024925D01*
X1862575D02*
X1912425D01*
X1750075D02*
X1799925D01*
X1674935D02*
X1687425D01*
X1562500D02*
X1574925D01*
X1412575D02*
X1462425D01*
X1337435D02*
X1349925D01*
X2012500Y1081175D02*
X2024925D01*
X1862575D02*
X1912425D01*
X1750075D02*
X1799925D01*
X1637575D02*
X1687425D01*
X1412575D02*
X1462425D01*
X1337435D02*
X1349925D01*
X1899935Y1131185D02*
X1912500Y1143750D01*
X1787435Y1131185D02*
X1800000Y1143750D01*
X2012435Y1131185D02*
X2025000Y1143750D01*
X1781250Y1137360D02*
X1787435Y1131175D01*
X1562435Y1131185D02*
X1575000Y1143750D01*
X1449935Y1131185D02*
X1462500Y1143750D01*
X1674935Y1131185D02*
X1687500Y1143750D01*
X1662500Y1143610D02*
X1674935Y1131175D01*
X2118750Y1137360D02*
X2124935Y1131175D01*
X2006250Y1137360D02*
X2012435Y1131175D01*
X2124935D02*
X2149925D01*
X1887500Y1143610D02*
X1899935Y1131175D01*
X1550000Y1143610D02*
X1562435Y1131175D01*
X1437500Y1143610D02*
X1449935Y1131175D01*
X1337435Y1131185D02*
X1350000Y1143750D01*
X917187Y956250D02*
X950000D01*
X349935Y1106175D02*
X350010Y1106250D01*
X1987500Y1181250D02*
X2212500D01*
X1937435Y1081175D02*
X1937575D01*
X1824935D02*
X1825075D01*
X1712435D02*
X1712575D01*
X1599935D02*
X1600075D01*
X1487435D02*
X1487575D01*
X1374935D02*
X1375075D01*
X1262435D02*
X1262575D01*
X1847805Y993685D02*
X1860240Y981250D01*
X1900033D02*
X1916480D01*
X1860240D02*
X1900033D01*
X2012500D02*
X2015054Y983804D01*
X2024250D02*
X2034241Y993795D01*
X2015054Y983804D02*
X2024250D01*
X1518610Y981250D02*
X1575000D01*
X1406110D02*
X1462500D01*
X1631110D02*
X1688965D01*
X1800000D02*
X1812500Y993750D01*
X1618750Y993610D02*
X1631110Y981250D01*
X1587500Y993750D02*
X1618750Y993610D01*
X1688965Y981250D02*
X1701465Y993750D01*
X1687500D02*
X1700000Y1006250D01*
X1637500Y993750D02*
X1687500D01*
X1700000Y1006250D02*
X1712435Y1006175D01*
X1506250Y993610D02*
X1518610Y981250D01*
X1575000D02*
X1587500Y993750D01*
X1762500Y1068750D02*
X1800000D01*
X1750000D02*
X1762500D01*
X1393750Y993610D02*
X1406110Y981250D01*
X1462500D02*
X1475000Y993750D01*
X1356250Y993750D02*
X1360181D01*
X1337500Y981250D02*
X1340083Y983833D01*
X1346333D01*
X1356250Y993750D01*
X1362484D02*
X1393750Y993610D01*
X1360181Y993760D02*
X1362484Y993750D01*
X1287500Y1006250D02*
X1298250Y995500D01*
X1345614D01*
X1356289Y1006175D01*
X1916480Y981250D02*
X1928980Y993750D01*
X1812500D02*
X1847805Y993685D01*
X1937435Y1056175D02*
X1937575D01*
X1824935D02*
X1825075D01*
X1712435D02*
X1712575D01*
X1599935D02*
X1600075D01*
X1487435D02*
X1487575D01*
X1262435D02*
X1262575D01*
X1374935D02*
X1375075D01*
X2362500Y956250D02*
X2462773D01*
X2307847Y981250D02*
X2400000D01*
X1725000Y543750D02*
X2125000D01*
X2137500Y531250D01*
X962500Y761790D02*
X1000710D01*
X949290D02*
X962500D01*
Y750000D02*
Y761790D01*
X937500Y750000D02*
X949290Y761790D01*
X962500Y1356250D02*
X974290Y1344460D01*
X1000710D01*
X1012500Y1356250D01*
X1650000Y825000D02*
X1675000D01*
X1925000Y1018750D02*
X1962669Y1018581D01*
X1975075Y1006175D01*
X1937575Y1006175D02*
X1962500Y1006250D01*
X1975000Y993750D01*
X1925000Y1043750D02*
X1962669Y1043581D01*
X1975075Y1031175D01*
X1937575Y1031175D02*
X1962500Y1031250D01*
X1975000Y1018750D01*
X1925000Y1068750D02*
X1962669Y1068581D01*
X1975075Y1056175D01*
X1937575Y1056175D02*
X1962500Y1056250D01*
X1975000Y1043750D01*
X1962669Y1093581D02*
X1975075Y1081175D01*
X1925000Y1093750D02*
X1962669Y1093581D01*
X1975075Y1081175D02*
X2012500D01*
X1962500Y1106250D02*
X1975000Y1093750D01*
X2025000D01*
X1937575Y1081175D02*
X1962500Y1081250D01*
X1975000Y1068750D01*
X1862575Y1006175D02*
X1900033D01*
X1812500Y1018750D02*
X1850169Y1018581D01*
X1862575Y1006175D01*
X1850000Y1006250D02*
X1862500Y993750D01*
X1825075Y1006175D02*
X1850000Y1006250D01*
X1812500Y1043750D02*
X1850169Y1043581D01*
X1862575Y1031175D01*
X1850000Y1031250D02*
X1862500Y1018750D01*
X1825075Y1031175D02*
X1850000Y1031250D01*
X1812500Y1068750D02*
X1850169Y1068581D01*
X1862575Y1056175D02*
X1912425D01*
X1850169Y1068581D02*
X1862575Y1056175D01*
X1825075Y1056175D02*
X1850000Y1056250D01*
X1862500Y1043750D01*
X1812500Y1093750D02*
X1850169Y1093581D01*
X1862575Y1081175D01*
X1850000Y1081250D02*
X1862500Y1068750D01*
X1825075Y1081175D02*
X1850000Y1081250D01*
Y1106250D02*
X1862500Y1093750D01*
X1912500D01*
X1737669Y1018581D02*
X1750075Y1006175D01*
X1700000Y1018750D02*
X1737669Y1018581D01*
X1750075Y1006175D02*
X1799925D01*
X1712575D02*
X1737500Y1006250D01*
X1700000Y1043750D02*
X1737669Y1043581D01*
X1750075Y1031175D01*
X1737500Y1031250D02*
X1750000Y1018750D01*
X1712575Y1031175D02*
X1737500Y1031250D01*
X1700000Y1068750D02*
X1737669Y1068581D01*
X1750075Y1056175D01*
X1737500Y1056250D02*
X1750000Y1043750D01*
X1712575Y1056175D02*
X1737500Y1056250D01*
X1700000Y1093750D02*
X1737669Y1093581D01*
X1750075Y1081175D01*
X1712575Y1081175D02*
X1737500Y1081250D01*
X1750000Y1068750D01*
X1625169Y1018581D02*
X1637575Y1006175D01*
X1587500Y1018750D02*
X1625169Y1018581D01*
X1600075Y1006175D02*
X1625000Y1006250D01*
X1637500Y993750D01*
X1587500Y1043750D02*
X1625169Y1043581D01*
X1637575Y1031175D02*
X1674935D01*
X1625169Y1043581D02*
X1637575Y1031175D01*
X1600075Y1031175D02*
X1625000Y1031250D01*
X1637500Y1018750D01*
X1587500Y1068750D02*
X1625169Y1068581D01*
X1637575Y1056175D01*
X1625000Y1081250D02*
X1637500Y1068750D01*
X1687500D01*
X1625000Y1056250D02*
X1637500Y1043750D01*
X1600075Y1056175D02*
X1625000Y1056250D01*
X1587500Y1093750D02*
X1625169Y1093581D01*
X1637575Y1081175D01*
X1600075Y1081175D02*
X1625000Y1081250D01*
Y1106250D02*
X1637500Y1093750D01*
X1687500D01*
X1475000Y1018750D02*
X1512669Y1018581D01*
X1525075Y1006175D02*
X1562500D01*
X1512669Y1018581D02*
X1525075Y1006175D01*
X1512500Y1006250D02*
X1525000Y993750D01*
X1487575Y1006175D02*
X1512500Y1006250D01*
X1475000Y1043750D02*
X1512669Y1043581D01*
X1525075Y1031175D01*
Y1031175D02*
X1562500D01*
X1487575D02*
X1512500Y1031250D01*
X1525000Y1018750D01*
X1475000Y1068750D02*
X1512669Y1068581D01*
X1525075Y1056175D01*
X1525878Y1093750D02*
X1575000D01*
X1512500Y1106250D02*
X1513378D01*
X1525878Y1093750D01*
X1487575Y1081175D02*
X1512500Y1081250D01*
X1525000Y1068750D01*
X1362500Y1018750D02*
X1400169Y1018581D01*
X1412575Y1006175D01*
X1400000Y1006250D02*
X1412500Y993750D01*
X1375075Y1006175D02*
X1400000Y1006250D01*
X1362500Y1043750D02*
X1400169Y1043581D01*
X1412575Y1031175D01*
X1375075Y1031175D02*
X1400000Y1031250D01*
X1412500Y1018750D01*
X1362500Y1068750D02*
X1400169Y1068581D01*
X1412575Y1056175D01*
X1400000Y1056250D02*
X1412500Y1043750D01*
X1375075Y1056175D02*
X1400000Y1056250D01*
X1362500Y1093750D02*
X1400169Y1093581D01*
X1412575Y1081175D01*
X1368750Y581250D02*
X1412500D01*
X1418750Y575000D01*
X1625000D01*
X1400000Y568750D02*
X1606250D01*
X1231250Y700000D02*
X1487500D01*
X1250000Y1281250D02*
X1275000D01*
X687500Y1231250D02*
X912500D01*
X2237500Y1250000D02*
X2243750Y1256250D01*
X1675000Y650000D02*
X1687500Y662500D01*
X1512500Y650000D02*
X1675000D01*
X1687500Y662500D02*
X2062500D01*
X1362500Y637500D02*
X1681250D01*
X1693750Y650000D01*
X2062500Y662500D02*
X2075000Y675000D01*
X1783814Y1106207D02*
X1787467D01*
X1777522Y1112500D02*
X1783814Y1106207D01*
X1287500Y1143750D02*
X1311833Y1119417D01*
X1720224Y1122290D02*
X1779711D01*
X1717351Y1119417D02*
X1720224Y1122290D01*
X1311833Y1119417D02*
X1717351D01*
X1779711Y1122290D02*
X1783251Y1118750D01*
X1487500Y1331250D02*
X1636155D01*
X1275000D02*
X1487500D01*
X1675000Y1325000D02*
X1684295Y1315705D01*
X1903205D01*
X1679055Y1313330D02*
X1682855Y1309530D01*
X1909530D01*
X1675000Y1303540D02*
X1676250Y1302290D01*
X1918786D01*
X1875000Y1293750D02*
X1887500Y1281250D01*
X1662500Y1293750D02*
X1875000D01*
X1650000Y1281250D02*
X1662500Y1293750D01*
X1918786Y1302290D02*
X1922746Y1306250D01*
X1758425Y1253540D02*
X1781389D01*
X1500000Y1243750D02*
X1502571D01*
X1507991Y1249170D02*
X1754055D01*
X1758425Y1253540D01*
X1502571Y1243750D02*
X1507991Y1249170D01*
X1924664Y1243414D02*
X1925000Y1243750D01*
X1200000Y1318750D02*
X1200268Y1318482D01*
X1624619D01*
X1624888Y1318213D01*
X1175000Y1218750D02*
X1512500D01*
X1075000D02*
X1175000D01*
X1750000Y1356250D02*
Y1375000D01*
X1687500Y1343750D02*
X1700000Y1356250D01*
X1712500Y1268750D02*
X2016674D01*
X2025710Y1277786D01*
Y1286134D01*
X1700000Y1281250D02*
X1712500Y1268750D01*
X2037500Y1193750D02*
X2037500Y1193750D01*
X1937500Y1193750D02*
X2037500D01*
X1987500Y1218750D02*
X2000000Y1231250D01*
X275000Y1056250D02*
X275000Y1056250D01*
X1237500Y762500D02*
X1250000Y750000D01*
X1212500Y762500D02*
X1237500D01*
X1200000Y750000D02*
X1212500Y762500D01*
X1262500Y837500D02*
X1275000Y825000D01*
X1050000Y837500D02*
X1262500D01*
X1037500Y825000D02*
X1050000Y837500D01*
X1112500Y812500D02*
X1125000Y825000D01*
X1012500D02*
X1025000Y812500D01*
X1112500D01*
X2050000Y850000D02*
X2150000D01*
X2250000Y1118750D02*
X2262500Y1106250D01*
X2075000Y1106250D02*
X2087500Y1093750D01*
X2050000Y1056240D02*
X2050010Y1056250D01*
X2312500Y1131250D02*
X2312500Y1131250D01*
X2400000D01*
X2156250Y1262500D02*
X2175000Y1243750D01*
X2187500Y1281250D02*
X2275000D01*
X1662500Y662500D02*
X1675000Y675000D01*
X1337500Y650000D02*
X1487500D01*
X1600000Y600000D02*
X1611790Y611790D01*
X800000Y1356250D02*
X825000D01*
X675000D02*
X687500Y1343750D01*
X925000D02*
X937500Y1356250D01*
X437500Y350000D02*
X475000Y387500D01*
X1581250D01*
X487500Y350000D02*
X512500Y375000D01*
X1575000D01*
X275000Y350000D02*
X293750Y368750D01*
X2025000Y825000D02*
X2037500Y812500D01*
X2068750D02*
X2081250Y800000D01*
X2037500Y812500D02*
X2068750D01*
X1600000Y750000D02*
X1611790Y761790D01*
X1712500Y812500D02*
X1725000Y825000D01*
X1675000Y787500D02*
X1687500Y775000D01*
X1386155Y750000D02*
X1387500D01*
X1198655D02*
X1200000D01*
X1173655Y775000D02*
X1198655Y750000D01*
X1162500Y775000D02*
X1173655D01*
X1112500Y762500D02*
X1125000Y750000D01*
X1022683Y762500D02*
X1112500D01*
X1000710Y761790D02*
X1012500Y750000D01*
X975000Y812500D02*
X987500Y825000D01*
X725000Y800000D02*
X750000Y825000D01*
X550000Y800000D02*
X725000D01*
X706250Y806250D02*
X725000Y825000D01*
X520038Y806250D02*
X706250D01*
X687500Y762500D02*
X700000Y750000D01*
X612500Y762500D02*
X687500D01*
X587500Y775000D02*
X675000D01*
X912500D01*
X800000Y675000D02*
Y675000D01*
Y675000D02*
X812500Y662500D01*
X1150000Y650000D02*
X1150000Y650000D01*
X975000Y637500D02*
X975000Y637500D01*
X1336212Y650000D02*
X1337500D01*
X1500000Y612500D02*
X1512500Y600000D01*
X661211Y637500D02*
X662500D01*
X654961Y643750D02*
X661211Y637500D01*
X800000Y656250D02*
X806250Y650000D01*
X712500Y662500D02*
X725000Y675000D01*
X525000Y662500D02*
X712500D01*
X537500Y675000D02*
X562500D01*
X462500D02*
X487500D01*
X512500D02*
X525000Y662500D01*
X343750Y656250D02*
X800000D01*
X325000Y675000D02*
X343750Y656250D01*
X250000Y675000D02*
X281250Y643750D01*
X654961D01*
X575000Y762500D02*
X587500Y775000D01*
X537500Y750000D02*
X550000Y762500D01*
X575000D01*
X437500Y787500D02*
X537500D01*
X550000Y800000D01*
X562500Y787500D02*
X563788D01*
X570038Y793750D01*
X575000Y775000D02*
X587500Y787500D01*
X837500D01*
X431250Y775000D02*
X575000D01*
X512500Y800000D02*
X513788D01*
X520038Y806250D01*
X562500Y825000D02*
X575000Y812500D01*
X512500Y825000D02*
X537500D01*
X700000Y1143750D02*
X1262500D01*
X1068750Y1131250D02*
X1081250Y1118750D01*
X1031250Y1131250D02*
X1068750D01*
X1212500Y1031250D02*
X1212500Y1031250D01*
X1262500Y1143750D02*
X1287500D01*
X1262500Y1143750D02*
X1262500Y1143750D01*
X1312500Y1106250D02*
X1337500D01*
X1337500Y1106250D01*
X1137500D02*
X1170577D01*
X1183077Y1093750D01*
X637500Y1318750D02*
X1137500D01*
X1150000Y1306250D01*
X1387500D01*
X2212500Y487500D02*
X2237500D01*
X1012500Y1106250D02*
X1050000D01*
X1062500Y1093750D01*
X1075000Y1106250D02*
X1087500D01*
X1037500Y1118750D02*
X1062500D01*
X1075000Y1106250D01*
X612500Y1068750D02*
X625000Y1056250D01*
X2312500Y1031250D02*
X2312500Y1031250D01*
X2387500D01*
X2462500Y1006250D02*
X2462500Y1006250D01*
X2350000Y1006250D02*
X2462500D01*
Y1056250D02*
X2462500Y1056250D01*
X2337500Y1056250D02*
X2462500D01*
X837500Y1106250D02*
X837500Y1106250D01*
X875000D01*
X837500Y1081250D02*
X837500Y1081250D01*
X862500D01*
X587500Y1093750D02*
X600000Y1081250D01*
X412500Y1156250D02*
X412500Y1156250D01*
X450000D01*
X462500Y1143750D01*
X450000Y1131250D02*
Y1131250D01*
X437500Y1143750D02*
X450000Y1131250D01*
X287500Y1143750D02*
X437500D01*
X275000Y1156250D02*
X287500Y1143750D01*
X412500Y1106250D02*
X412500Y1106250D01*
X450000D01*
X487500Y1131250D02*
X487500Y1131250D01*
X450000Y1131250D02*
X487500D01*
X612500Y993750D02*
X625000Y981250D01*
X512500Y993750D02*
X612500D01*
X687500D02*
X937500D01*
X737500Y1006175D02*
X774925D01*
X725000Y1018750D02*
X737500Y1006250D01*
X912500Y1056250D02*
X912500Y1056250D01*
X412500D02*
X412500Y1056250D01*
X450000D01*
X487500Y1031250D02*
X487500Y1031250D01*
X450000Y1031250D02*
X487500D01*
X475000Y1018750D02*
X487500Y1006250D01*
X300000Y1018750D02*
X475000D01*
X298179Y823179D02*
X300000Y825000D01*
X298179Y810679D02*
Y823179D01*
X350000Y750000D02*
X375000Y775000D01*
X875710Y361790D02*
X887500Y350000D01*
X686790Y361790D02*
X875710D01*
X675000Y350000D02*
X686790Y361790D01*
X887500Y350000D02*
Y350000D01*
Y350000D02*
X900000Y362500D01*
X1425000D01*
X1437500Y350000D02*
Y350000D01*
X1425000Y362500D02*
X1437500Y350000D01*
Y350000D02*
X1450000Y362500D01*
X1137500Y412500D02*
X1150000Y425000D01*
X950000Y412500D02*
X1137500D01*
X937500Y425000D02*
X950000Y412500D01*
X725000Y425000D02*
X737500Y412500D01*
X525000D02*
X537500Y425000D01*
X387500Y412500D02*
X525000D01*
X375000Y425000D02*
X387500Y412500D01*
X250000Y350000D02*
X287500Y387500D01*
X1612500Y1293750D02*
X1625000Y1281250D01*
X1425000Y1293750D02*
X1612500D01*
X1412500Y1281250D02*
X1425000Y1293750D01*
X1250000Y1356250D02*
X1275000Y1331250D01*
X1337500Y1343750D02*
X1687500D01*
X1175000Y1281250D02*
X1187500Y1293750D01*
X900000Y1331250D02*
X1200000D01*
X1225000Y1331250D02*
X1250000Y1356250D01*
X1200000Y1331250D02*
X1200000Y1331250D01*
X1225000D01*
X775000Y1331250D02*
X900000D01*
X850000Y1368750D02*
X1275000D01*
X1275000Y1356250D02*
Y1368750D01*
X1275000Y1368750D02*
X1275000Y1368750D01*
X837500Y1381250D02*
X850000Y1368750D01*
X537500Y1281250D02*
X550000Y1293750D01*
X625000Y1106250D02*
X625000Y1106250D01*
X587500Y1106250D02*
X625000D01*
X1187500Y1343750D02*
X1200000Y1356250D01*
X937500Y1281250D02*
X950000Y1293750D01*
X850000Y1306250D02*
X1037500D01*
X712500Y1381250D02*
X837500D01*
X487500Y1281250D02*
X487500Y1281250D01*
X513965Y1331250D02*
X775000D01*
X512500Y1356250D02*
X512500Y1356250D01*
X512500Y1332715D02*
Y1356250D01*
Y1332715D02*
X513965Y1331250D01*
X700000Y1306250D02*
X725000Y1281250D01*
X500000Y1306250D02*
X700000D01*
X1606250Y1431250D02*
X1712500D01*
X1775000D02*
X2062500D01*
X1875000Y1206250D02*
X2000000D01*
X487500Y1356250D02*
X493750D01*
X506250Y1368750D01*
X625000D01*
X587500Y1356250D02*
Y1368750D01*
X518750Y1243750D02*
X531250Y1231250D01*
X450000Y1243750D02*
X518750D01*
X262500Y1206250D02*
X437500D01*
X531250Y1256250D02*
X543750Y1243750D01*
X425000Y1256250D02*
X531250D01*
X1187500Y1406250D02*
X1600000D01*
X762500Y1193750D02*
X775000Y1181250D01*
X675000Y1193750D02*
X762500D01*
X737500Y1393750D02*
X962500D01*
X862500Y1381250D02*
X968750D01*
X981250Y1393750D01*
X1062500D01*
X987500Y1381250D02*
X1462500D01*
X1100000Y1393750D02*
X1162500D01*
X1625000Y1406250D02*
X2162500D01*
X2175000Y1393750D01*
X275000Y712500D02*
X300000D01*
X2187500Y725000D02*
X2212500D01*
X2100000Y825000D02*
X2162500D01*
X1662500Y725000D02*
X1725000D01*
X1787500D01*
X500000Y712500D02*
X725000D01*
X1200000Y675000D02*
Y687500D01*
X1412500Y593750D02*
Y600000D01*
X1406250Y587500D02*
X1412500Y593750D01*
X1337500Y587500D02*
X1406250D01*
X1337500D02*
Y600000D01*
X1156250Y587500D02*
X1337500D01*
X1118750D02*
X1156250D01*
X1606250Y568750D02*
X1612500Y562500D01*
X562500Y556250D02*
X1600000D01*
X662500Y462500D02*
X687500D01*
X250000Y506250D02*
X325000D01*
Y481250D02*
X362500Y518750D01*
X493750D01*
X500000Y512500D01*
X362500Y475000D02*
X462500D01*
X575000Y512500D02*
X631250D01*
X425000Y462500D02*
X625000D01*
X1350000Y325000D02*
X1425000D01*
X1631250Y581250D02*
X1837500D01*
X1625000Y575000D02*
X1631250Y581250D01*
X1362500Y575000D02*
X1368750Y581250D01*
X1150000Y575000D02*
X1362500D01*
X575000Y700000D02*
X618750D01*
X587500Y675000D02*
X612500D01*
X375000Y775000D02*
X412500D01*
X600000Y812500D02*
X612500Y825000D01*
X575000Y812500D02*
X600000D01*
X350010Y1106250D02*
X387500D01*
X350010Y1056250D02*
X387500D01*
X462500Y1143750D02*
X512500D01*
X800000Y1193750D02*
X950000D01*
X1187500Y1293750D02*
X1337500Y1293750D01*
X1781250Y375000D02*
X1787500D01*
X1768750Y362500D02*
X1781250Y375000D01*
X1768750Y337500D02*
Y362500D01*
X1450000D02*
X1768750D01*
X1918750Y343750D02*
X1925000Y350000D01*
X1918750Y331250D02*
Y343750D01*
X1893750Y331250D02*
Y356250D01*
X1868750D02*
X1887500Y375000D01*
X1868750Y331250D02*
Y356250D01*
X1843750D02*
X1862500Y375000D01*
X1843750Y331250D02*
Y356250D01*
X1837500Y368750D02*
Y375000D01*
X1818750Y350000D02*
X1837500Y368750D01*
X1818750Y331250D02*
Y350000D01*
X1793750Y356250D02*
X1812500Y375000D01*
X1793750Y331250D02*
Y356250D01*
X1943750D02*
X1962500Y375000D01*
X1943750Y331250D02*
Y356250D01*
X1968750D02*
X1987500Y375000D01*
X1968750Y331250D02*
Y356250D01*
X1993750D02*
X2012500Y375000D01*
X1993750Y331250D02*
Y356250D01*
X2018750D02*
X2037500Y375000D01*
X2018750Y331250D02*
Y356250D01*
X2043750D02*
X2062500Y375000D01*
X2043750Y331250D02*
Y356250D01*
X2068750D02*
X2087500Y375000D01*
X2068750Y331250D02*
Y356250D01*
X2093750D02*
X2112500Y375000D01*
X2093750Y331250D02*
Y356250D01*
X2118750D02*
X2137500Y375000D01*
X2118750Y331250D02*
Y356250D01*
X2143750Y331250D02*
Y362500D01*
X2162500Y381250D01*
X1581250Y387500D02*
X1593750Y375000D01*
X1587500Y412500D02*
X1600000Y400000D01*
X237500Y450000D02*
X618750D01*
X1200000Y425000D02*
Y437500D01*
X774925Y1006175D02*
X775000Y1006250D01*
X781250D01*
X1081250Y1118750D02*
X1106250D01*
X1131250Y1093750D01*
X2149925Y1131175D02*
X2150000Y1131250D01*
X2162500Y1118750D01*
X2250000D01*
X2087500Y1093750D02*
X2143750D01*
X2156250Y1081250D01*
X2187360D01*
X2037500Y1193750D02*
X2299860D01*
X1750000Y675000D02*
X1787500D01*
X1750000Y825000D02*
X1787500D01*
X825000Y812500D02*
X975000D01*
X1512500Y787500D02*
X1675000D01*
X687500Y1343750D02*
X925000D01*
X1337435Y1131175D02*
Y1131185D01*
X1350000Y1143750D02*
X1437500D01*
Y1143610D02*
Y1143750D01*
X1449935Y1131175D02*
Y1131185D01*
X1462500Y1143750D02*
X1550000D01*
Y1143610D02*
Y1143750D01*
X1562435Y1131175D02*
Y1131185D01*
X1575000Y1143750D02*
X1662500D01*
Y1143610D02*
Y1143750D01*
X1674935Y1131175D02*
Y1131185D01*
X1687500Y1143750D02*
X1775000D01*
X1781250Y1137360D01*
X1787435Y1131175D02*
Y1131185D01*
X1800000Y1143750D02*
X1887500D01*
Y1143610D02*
Y1143750D01*
X1899935Y1131175D02*
Y1131185D01*
X1912500Y1143750D02*
X2000000D01*
X2006250Y1137360D01*
X2012435Y1131175D02*
Y1131185D01*
X2025000Y1143750D02*
X2112500D01*
X2118750Y1137360D01*
X1262575Y1006175D02*
X1287500Y1006250D01*
X1349925Y1006175D02*
X1362500Y1018750D01*
X1262575Y1031175D02*
X1287500Y1031250D01*
X1300000Y1018750D01*
X1350000D01*
X1362500Y1031250D01*
X1374935Y1031175D01*
X1349925D02*
X1362500Y1043750D01*
X1262575Y1056175D02*
X1287500Y1056250D01*
X1300000Y1043750D01*
X1350000D01*
X1362500Y1056250D01*
X1374935Y1056175D01*
X1349925D02*
X1362500Y1068750D01*
X1262575Y1081175D02*
X1287500Y1081250D01*
X1300000Y1068750D01*
X1350000D01*
X1362500Y1081250D01*
X1374935Y1081175D01*
X1349925D02*
X1362500Y1093750D01*
X1350000D02*
X1362500Y1106250D01*
X1374935Y1106175D01*
X1475000Y993750D02*
X1506250Y993610D01*
X1412500Y993750D02*
X1462500D01*
X1475000Y1006250D01*
X1487435Y1006175D01*
X1462425D02*
X1475000Y1018750D01*
X1412500D02*
X1462500D01*
X1475000Y1031250D01*
X1487435Y1031175D01*
X1462425D02*
X1475000Y1043750D01*
X1412500D02*
X1462500D01*
X1475000Y1056250D01*
X1487435Y1056175D01*
X1462425D02*
X1475000Y1068750D01*
X1375075Y1081175D02*
X1400000Y1081250D01*
X1412500Y1068750D01*
X1462500D01*
X1475000Y1081250D01*
X1487435Y1081175D01*
X1462425D02*
X1475000Y1093750D01*
X1375075Y1106175D02*
X1400000Y1106250D01*
X1412500Y1093750D01*
X1462500D01*
X1475000Y1106250D01*
X1487435Y1106175D01*
X1525000Y993750D02*
X1575000D01*
X1587500Y1006250D01*
X1599935Y1006175D01*
X1574925D02*
X1587500Y1018750D01*
X1525000D02*
X1575000D01*
X1587500Y1031250D01*
X1599935Y1031175D01*
X1574925D02*
X1587500Y1043750D01*
X1487575Y1056175D02*
X1512500Y1056250D01*
X1525000Y1043750D01*
X1575000D01*
X1587500Y1056250D01*
X1599935Y1056175D01*
X1574925D02*
X1587500Y1068750D01*
X1525000D02*
X1575000D01*
X1587500Y1081250D01*
X1599935Y1081175D01*
X1574925D02*
X1587500Y1093750D01*
X1487575Y1106175D02*
X1512500Y1106250D01*
X1575000Y1093750D02*
X1587500Y1106250D01*
X1599935Y1106175D01*
X1687425Y1006175D02*
X1700000Y1018750D01*
X1637500D02*
X1687500D01*
X1700000Y1031250D01*
X1712435Y1031175D01*
X1687425D02*
X1700000Y1043750D01*
X1637500D02*
X1687500D01*
X1700000Y1056250D01*
X1712435Y1056175D01*
X1687425D02*
X1700000Y1068750D01*
X1687500D02*
X1700000Y1081250D01*
X1712435Y1081175D01*
X1687425D02*
X1700000Y1093750D01*
X1600075Y1106175D02*
X1625000Y1106250D01*
X1687500Y1093750D02*
X1700000Y1106250D01*
X1712435Y1106175D01*
X1800000Y993750D02*
X1812500Y1006250D01*
X1824935Y1006175D01*
X1799925D02*
X1812500Y1018750D01*
X1750000D02*
X1800000D01*
X1812500Y1031250D01*
X1824935Y1031175D01*
X1799925D02*
X1812500Y1043750D01*
X1750000D02*
X1800000D01*
X1812500Y1056250D01*
X1824935Y1056175D01*
X1799925D02*
X1812500Y1068750D01*
X1800000D02*
X1812500Y1081250D01*
X1824935Y1081175D01*
X1799925D02*
X1812500Y1093750D01*
X1712575Y1106175D02*
X1737500Y1106250D01*
X1750000Y1093750D01*
X1800000D01*
X1812500Y1106250D01*
X1824935Y1106175D01*
X1862500Y993750D02*
X1912500D01*
X1925000Y1006250D01*
X1937435Y1006175D01*
X1912425D02*
X1925000Y1018750D01*
X1862500D02*
X1912500D01*
X1925000Y1031250D01*
X1937435Y1031175D01*
X1912425D02*
X1925000Y1043750D01*
X1862500D02*
X1912500D01*
X1925000Y1056250D01*
X1937435Y1056175D01*
X1912425D02*
X1925000Y1068750D01*
X1862500D02*
X1912500D01*
X1925000Y1081250D01*
X1937435Y1081175D01*
X1912425D02*
X1925000Y1093750D01*
X1825075Y1106175D02*
X1850000Y1106250D01*
X1912500Y1093750D02*
X1925000Y1106250D01*
X1937435Y1106175D01*
X1975000Y993750D02*
X2025000D01*
X2037500Y1006250D01*
X2049935Y1006175D01*
X2024925D02*
X2037500Y1018750D01*
X1975000D02*
X2025000D01*
X2037500Y1031250D01*
X2049935Y1031175D01*
X2024925D02*
X2037500Y1043750D01*
X1975000D02*
X2025000D01*
X2037500Y1056250D01*
X2049935Y1056175D01*
X2024925D02*
X2037500Y1068750D01*
X1975000D02*
X2025000D01*
X2037500Y1081250D01*
X2049935Y1081175D01*
X2024925D02*
X2037500Y1093750D01*
X1937575Y1106175D02*
X1962500Y1106250D01*
X2025000Y1093750D02*
X2037500Y1106250D01*
X2049935Y1106175D01*
X700000Y325000D02*
X1162500D01*
X812500Y662500D02*
X837500D01*
X806250Y650000D02*
X1150000D01*
X662500Y637500D02*
X975000D01*
X275000Y625000D02*
X400000D01*
D27*
X2393000Y122000D02*
D03*
X2418001D02*
D03*
X2367999D02*
D03*
X2293000D02*
D03*
X2317999D02*
D03*
X2343000D02*
D03*
X2443000D02*
D03*
X2243000D02*
D03*
X2117999D02*
D03*
X1993001D02*
D03*
X2018000D02*
D03*
X2043001D02*
D03*
X2068000D02*
D03*
X2093001D02*
D03*
X2143001D02*
D03*
X2167999D02*
D03*
X2193000D02*
D03*
X2217999D02*
D03*
X2267999D02*
D03*
X1943001D02*
D03*
X1718000D02*
D03*
X1742999D02*
D03*
X1768000D02*
D03*
X1793001D02*
D03*
X1818000D02*
D03*
X1843001D02*
D03*
X1868000D02*
D03*
X1893001D02*
D03*
X1918000D02*
D03*
X1968000D02*
D03*
D28*
X2443000Y297000D02*
D03*
X2418001D02*
D03*
X2393000D02*
D03*
X2367999D02*
D03*
X2343000D02*
D03*
X2317999D02*
D03*
X2293000D02*
D03*
X2267999D02*
D03*
X2243000D02*
D03*
X2217999D02*
D03*
X2193000D02*
D03*
X2167999D02*
D03*
X2143001D02*
D03*
X2117999D02*
D03*
X2093001D02*
D03*
X2068000D02*
D03*
X2043001D02*
D03*
X2018000D02*
D03*
X1993001D02*
D03*
X1968000D02*
D03*
X1943001D02*
D03*
X1918000D02*
D03*
X1893001D02*
D03*
X1868000D02*
D03*
X1843001D02*
D03*
X1818000D02*
D03*
X1793001D02*
D03*
X1768000D02*
D03*
X1742999D02*
D03*
X1718000D02*
D03*
D29*
X2187360Y1131250D02*
X2187435Y1131175D01*
X1900000Y1156240D02*
Y1168750D01*
X2012435Y1156175D02*
Y1168685D01*
X1899935Y1156175D02*
Y1168685D01*
X1787435Y1156175D02*
Y1168685D01*
X1675000Y1156240D02*
Y1168750D01*
X1923500Y639000D02*
X1925000Y637500D01*
X1450000Y1156240D02*
Y1168750D01*
X1337435Y1156175D02*
X1350010Y1168750D01*
X2262500Y487500D02*
X2325000D01*
X1562500Y1156250D02*
X1575000Y1168750D01*
X1675000D01*
X1550000D02*
X1562500Y1156250D01*
X1450000Y1168750D02*
X1550000D01*
X1562500Y1156240D02*
Y1156250D01*
X1562435Y1156175D02*
X1562500Y1156240D01*
X1512500Y750000D02*
X1575000D01*
X1175000Y600000D02*
X1187000Y612000D01*
X1175000Y600000D02*
X1175000Y600000D01*
X1263000Y612000D02*
X1275000Y600000D01*
X1187000Y612000D02*
X1263000D01*
X2230259Y643750D02*
X2230755Y644245D01*
X1868750Y618750D02*
X1887500Y637500D01*
X1922000D01*
X1925000D02*
X1950000D01*
X1712500Y981250D02*
X1725000Y968750D01*
X1700000D02*
X1712500Y981250D01*
X1074860Y1168750D02*
X1087435Y1156175D01*
X912435D02*
X968675D01*
X737435D02*
X806175D01*
X487500Y1156240D02*
Y1175000D01*
X625000Y1156250D02*
Y1175000D01*
X350000Y1156250D02*
Y1175000D01*
X537500Y1453750D02*
X540000Y1456250D01*
X1922000Y787500D02*
X1950000D01*
X1887500D02*
X1922000D01*
X1581250Y262500D02*
X1642500D01*
X1670000Y290000D01*
X1262500Y981250D02*
X1275000Y968750D01*
X1250000Y993750D02*
X1262500Y981250D01*
X1600000Y700000D02*
X1600000Y700000D01*
X1762500D01*
X1762500Y700000D01*
X2200000Y562500D02*
Y587500D01*
X2206250Y593750D02*
X2240407D01*
X2200000Y587500D02*
X2206250Y593750D01*
X2156250Y556250D02*
X2193750D01*
X2200000Y562500D01*
X2287500Y543750D02*
Y546657D01*
X2240407Y593750D02*
X2287500Y546657D01*
X2137500Y575000D02*
X2156250Y556250D01*
X1750000Y637500D02*
X1768750Y618750D01*
X1868750D01*
X1350010Y1168750D02*
X1450000D01*
X1787500D02*
X1900000D01*
X1675000D02*
X1787500D01*
X1900000D02*
X2012500D01*
X2112490D01*
X2125000Y1156240D01*
X837500Y981250D02*
X850000Y968750D01*
X1000000D01*
X662500Y962500D02*
Y981250D01*
X662500Y962500D02*
X662500Y962500D01*
X550000Y962500D02*
Y981250D01*
X212500Y937500D02*
X218000Y943000D01*
X1375000Y437500D02*
X1387500Y425000D01*
X1325000Y437500D02*
X1375000D01*
X987500Y737500D02*
X1025000D01*
X1037500Y750000D01*
X437500Y437500D02*
X543750D01*
X550000Y415429D02*
Y431250D01*
X543750Y437500D02*
X550000Y431250D01*
X1275000Y968750D02*
X1362500D01*
X1187500Y993750D02*
X1250000D01*
X1212500Y1156250D02*
X1237500D01*
X1250000Y1168750D01*
X1312500D01*
X681250Y1150000D02*
Y1175000D01*
X662500Y1131250D02*
X681250Y1150000D01*
X437500Y1281250D02*
X450000Y1268750D01*
X500000D01*
X512500Y1281250D01*
X493750Y1381250D02*
X637500D01*
X650000Y1368750D01*
X2137500Y725000D02*
X2187500Y675000D01*
X650000Y350000D02*
Y350000D01*
Y350000D02*
X655500Y344500D01*
X655500D01*
X662500Y337500D01*
X712500D01*
X725000Y350000D01*
X231250Y437500D02*
X437500D01*
X1475000Y331250D02*
X1475000Y331250D01*
X1581250Y262500D02*
X1587500Y268750D01*
X550000Y415429D02*
X552929Y412500D01*
X625000D01*
X2506250Y1156250D02*
X2506250Y1156250D01*
X2131250Y968750D02*
X2143750Y981250D01*
X2255483D02*
X2292983Y943750D01*
X2143750Y981250D02*
X2255483D01*
X2285395Y908355D02*
X2310395D01*
X2204356Y950000D02*
X2243750D01*
X2285395Y908355D01*
X1825033Y981283D02*
X1837565Y968750D01*
X1925000D02*
X1937500Y981250D01*
X1837565Y968750D02*
X1925000D01*
X1812500D02*
X1825033Y981283D01*
X1725000Y968750D02*
X1812500D01*
X1487500Y981250D02*
X1500000Y968750D01*
X1024500Y969250D02*
X1125500D01*
X1387500Y968750D02*
X1475000D01*
X1000000D02*
X1012500Y981250D01*
X1612565Y968750D02*
X1700000D01*
X1500000D02*
X1587500D01*
X1475000D02*
X1487500Y981250D01*
X1587500Y968750D02*
X1596875Y978125D01*
X1600033Y981283D02*
X1612565Y968750D01*
X1012500Y981250D02*
X1024500Y969250D01*
X1125500D02*
X1137500Y981250D01*
X1362500Y968750D02*
X1375000Y981250D01*
X1375000D02*
X1387500Y968750D01*
X1450500Y837000D02*
X1462500Y825000D01*
X1362500Y825000D02*
X1374500Y837000D01*
X1450500D01*
X1362500Y825000D02*
Y825000D01*
X2193750Y960606D02*
X2204356Y950000D01*
X2292983Y943750D02*
X2300000D01*
X2193750Y960606D02*
Y962500D01*
X2062490Y968750D02*
X2131250D01*
X2050000Y981240D02*
X2062490Y968750D01*
X2310395Y908355D02*
X2312500Y906250D01*
X1937500Y981250D02*
X1949500Y969250D01*
X2038010D01*
X2050000Y981240D01*
X2300000Y943750D02*
X2425000D01*
X2462500Y906250D01*
X1375000Y981250D02*
X1375000D01*
X2300000Y943750D02*
X2300000Y943750D01*
X1575000Y1454957D02*
Y1456250D01*
Y1431250D02*
Y1454957D01*
X1125000Y1456250D02*
Y1456250D01*
Y1454274D02*
Y1456250D01*
X437500D02*
Y1456250D01*
Y1455729D02*
Y1456250D01*
X225000Y793750D02*
Y825000D01*
X272895Y752105D02*
X275000Y750000D01*
X225000Y793750D02*
X266645Y752105D01*
X272895D01*
X1087500Y612500D02*
X1100000Y600000D01*
X1025000Y612500D02*
X1087500D01*
X1012500Y600000D02*
X1025000Y612500D01*
X818750Y1168750D02*
X862500D01*
X875000Y1156250D02*
X912500D01*
X862500Y1168750D02*
X875000Y1156250D01*
X2262500D02*
Y1168750D01*
X2262500Y1168750D01*
X2450000D02*
X2462500Y1181250D01*
X2262500Y1168750D02*
X2450000D01*
X2506250Y1181250D02*
X2506250Y1181250D01*
X2062500Y787500D02*
X2100000Y750000D01*
X1950000Y787500D02*
X2062500D01*
X1150000Y750000D02*
X1175000D01*
X1887500Y700000D02*
X1925000D01*
X1950000Y675000D01*
X637500Y425000D02*
X650000D01*
X625000Y412500D02*
X637500Y425000D01*
X375000Y825000D02*
X437500D01*
X1312500Y1168750D02*
X1312500Y1168750D01*
X1787467Y1156207D02*
X1787500Y1156240D01*
X1787435Y1156175D02*
X1787467Y1156207D01*
X650000Y1368750D02*
X837500D01*
X850000Y1356250D01*
X887500D01*
X650000D02*
Y1368750D01*
X2325000Y1431250D02*
Y1450288D01*
X437500Y1368750D02*
X481250D01*
X493750Y1381250D01*
X256250Y1375000D02*
X275000Y1356250D01*
X806175Y1156175D02*
X818750Y1168750D01*
X968675Y1156175D02*
X981250Y1168750D01*
X1074860D01*
X725000Y1168610D02*
Y1168750D01*
X412435Y987565D02*
Y1006175D01*
Y987565D02*
X412500Y987500D01*
X1887500Y725000D02*
X2137500D01*
X1575000Y700000D02*
X1600000D01*
X437500Y425000D02*
Y437500D01*
X1887500Y675000D02*
X1925000D01*
X181250Y668750D02*
X187500Y675000D01*
X225000Y425000D02*
Y431250D01*
X231250Y437500D01*
X912500Y743750D02*
Y750000D01*
Y743750D02*
X918750Y737500D01*
X987500D01*
Y750000D01*
X1150000Y600000D02*
X1175000D01*
X1887500Y825000D02*
X1925000D01*
X862500Y425000D02*
X887500D01*
X650000D02*
X675000D01*
X1787500Y1156240D02*
Y1168750D01*
X1787435Y1168685D02*
X1787500Y1168750D01*
X1899935Y1156175D02*
X1900000Y1156240D01*
X1899935Y1168685D02*
X1900000Y1168750D01*
X2012435Y1156175D02*
X2012500Y1156240D01*
X2012435Y1168685D02*
X2012500Y1168750D01*
X1537500Y425000D02*
X1562500D01*
D30*
X912500Y600000D02*
X987500D01*
X818750Y618750D02*
X893750D01*
X800000Y600000D02*
X818750Y618750D01*
X893750D02*
X912500Y600000D01*
X1550000Y600000D02*
X1575000D01*
X1575000Y600000D01*
X1306250Y262500D02*
Y300000D01*
X1887500Y600000D02*
X1906250Y618750D01*
X2062500D01*
X2087500Y643750D01*
X2230259D01*
X2230755Y644245D02*
X2237500Y650991D01*
X2165500Y578991D02*
X2230259Y643750D01*
X2183816Y700000D02*
X2237500D01*
X2162500Y725000D02*
X2165500Y722000D01*
Y718316D02*
Y722000D01*
Y718316D02*
X2183816Y700000D01*
X2237500Y650991D02*
Y675000D01*
X2162500Y575991D02*
X2163491D01*
X2165500Y578000D01*
Y578991D01*
X2237500Y700000D02*
Y762500D01*
Y675000D02*
Y700000D01*
X1050000Y262500D02*
Y287500D01*
X2350000Y1293750D02*
X2506250D01*
X725000Y1168610D02*
X737435Y1156175D01*
X1087435D02*
X1137435D01*
X625000Y1175000D02*
X681250D01*
X487500D02*
X625000D01*
X681250D02*
X718750D01*
X350000D02*
X487500D01*
X181250Y1175000D02*
X350000Y1175000D01*
X718750D02*
X725000Y1168750D01*
X537500Y1431250D02*
Y1453750D01*
X2443000Y297000D02*
X2443750Y297750D01*
X450000Y262500D02*
Y300000D01*
X550000Y962500D02*
X662500D01*
X762500D01*
X781250Y981250D02*
X837500D01*
X762500Y962500D02*
X781250Y981250D01*
X487500Y962500D02*
X550000D01*
X462500Y987500D02*
X487500Y962500D01*
X256250Y918750D02*
X306250Y968750D01*
X437500D01*
X218000Y949250D02*
X275000Y1006250D01*
X218000Y943000D02*
Y949250D01*
X2150010Y1156240D02*
X2175000Y1131250D01*
X2125000Y1156240D02*
X2150010D01*
X2175000Y1131250D02*
X2187360D01*
X2275000Y800000D02*
X2325000D01*
X2237500Y762500D02*
X2275000Y800000D01*
X275000Y1006110D02*
X293610Y987500D01*
X412500D01*
X462500D01*
X1437500Y462500D02*
X1525000D01*
X1475000Y268750D02*
Y331250D01*
X1587500Y268750D02*
Y331250D01*
X2062500Y1318750D02*
X2325000D01*
X2350000Y1293750D01*
X2462500Y850000D02*
Y906250D01*
Y1181250D02*
X2506250D01*
X2462500Y1156250D02*
X2506250D01*
X2212500Y675000D02*
X2237500D01*
X1137500Y1156250D02*
X1212500D01*
X250000Y262500D02*
Y300000D01*
X325000Y1306250D02*
X350000Y1281250D01*
X2125000Y1431250D02*
Y1456250D01*
X1125000Y1431250D02*
Y1454274D01*
X437500Y1368750D02*
Y1455729D01*
Y1356250D02*
Y1368750D01*
X181250Y425000D02*
X225000D01*
X181250Y1243750D02*
X212500D01*
X181250Y1306250D02*
X325000D01*
X2187500Y1206250D02*
X2400000D01*
Y1243750D01*
X181250Y887500D02*
X212500D01*
X181250Y918750D02*
X256250D01*
X937500Y262500D02*
Y287500D01*
X862500Y262500D02*
Y287500D01*
X181250Y600000D02*
X225000D01*
X187500Y675000D02*
X225000D01*
X2400000Y1243750D02*
X2462500D01*
X1075000Y750000D02*
X1100000D01*
X2212500Y825000D02*
X2325000D01*
X825000Y1281250D02*
X887500D01*
X181250Y475000D02*
X212500D01*
X1225000Y262500D02*
Y300000D01*
D31*
X2325000Y487500D02*
Y800000D01*
Y468750D02*
Y487500D01*
X1306250Y262500D02*
X1581250D01*
X1225000D02*
X1306250D01*
X937500D02*
X1050000D01*
X1225000D01*
X181250Y1175000D02*
Y1243750D01*
Y918750D02*
Y1175000D01*
X540000Y1456250D02*
X1123024D01*
X437500D02*
X540000D01*
X2442976Y368750D02*
X2488284D01*
X2418001D02*
X2442976D01*
X450000Y262500D02*
X862500D01*
X250000D02*
X450000D01*
X2325000Y825000D02*
Y850000D01*
Y800000D02*
Y825000D01*
Y850000D02*
X2462500D01*
X2325000Y468750D02*
X2500000D01*
X2125000Y1456250D02*
X2425000D01*
X2506250Y1156250D02*
X2506250Y850000D01*
X1125000Y1456250D02*
X1573707D01*
X1575000Y1456250D02*
X2125000D01*
X2431250Y1375000D02*
Y1450000D01*
X2506250Y1181250D02*
Y1293750D01*
Y1156250D02*
Y1181250D01*
X2500000Y380466D02*
Y468750D01*
X2488284Y368750D02*
X2500000Y380466D01*
X2462500Y850000D02*
X2506250D01*
X181250Y262500D02*
X250000D01*
X2506250Y1293750D02*
Y1375000D01*
X862500Y262500D02*
X937500D01*
X181250Y1306250D02*
Y1375000D01*
Y1243750D02*
Y1306250D01*
Y887500D02*
Y918750D01*
Y668750D02*
Y887500D01*
Y600000D02*
Y668750D01*
Y475000D02*
Y600000D01*
Y425000D02*
Y475000D01*
Y262500D02*
Y425000D01*
X256250Y1456250D02*
X437500Y1455729D01*
X181250Y1375000D02*
X256250D01*
Y1456250D01*
X2431250Y1375000D02*
X2506250D01*
D32*
X2442976Y297024D02*
Y368750D01*
X2418001Y297000D02*
Y368750D01*
D33*
Y158002D02*
Y245301D01*
X2443000Y158002D02*
Y245301D01*
D34*
X2367999Y159001D02*
Y245301D01*
X2393000Y158002D02*
Y245301D01*
X2243000Y159001D02*
Y245301D01*
X2167999Y158002D02*
Y245301D01*
X2193000Y158002D02*
Y245301D01*
X2217999Y158002D02*
Y245301D01*
X2267999Y158002D02*
Y245301D01*
X2293000Y160001D02*
Y245301D01*
X2317999Y158002D02*
Y245301D01*
X2343000Y158002D02*
Y245301D01*
X2143001Y158002D02*
Y245301D01*
X2117999Y158002D02*
Y245301D01*
X1843001Y160001D02*
Y245301D01*
X1818000Y158002D02*
Y250301D01*
X1789460D02*
X1793001Y246760D01*
X2093001Y158002D02*
Y245301D01*
X2068000Y158002D02*
Y245301D01*
X2043001Y158002D02*
Y245301D01*
X2018000Y158002D02*
Y245301D01*
X1993001Y158002D02*
Y245301D01*
X1968000Y161002D02*
Y245301D01*
X1943001Y160001D02*
Y245301D01*
X1918000Y163001D02*
Y245301D01*
X1893001Y158002D02*
Y245301D01*
X1868000Y159001D02*
Y245301D01*
X1793001Y158002D02*
Y246760D01*
X1768000Y159001D02*
Y250301D01*
X1742999Y158002D02*
Y250301D01*
X1718000Y160001D02*
Y250301D01*
D35*
X2506250Y1156250D02*
Y1162500D01*
X1123024Y1456250D02*
X1125000Y1454274D01*
X1573707Y1456250D02*
X1575000Y1454957D01*
X2425000Y1456250D02*
X2431250Y1450000D01*
D36*
X1925000Y825000D02*
D03*
X1950000D02*
D03*
X2000000D02*
D03*
X1975000D02*
D03*
X2025000D02*
D03*
X2050000D02*
D03*
X2075000D02*
D03*
X2100000D02*
D03*
Y750000D02*
D03*
X2075000D02*
D03*
X2050000D02*
D03*
X2025000D02*
D03*
X1975000D02*
D03*
X2000000D02*
D03*
X1950000D02*
D03*
X1925000Y675000D02*
D03*
X1950000D02*
D03*
X2000000D02*
D03*
X1975000D02*
D03*
X2025000D02*
D03*
X2050000D02*
D03*
X2075000D02*
D03*
X2100000D02*
D03*
Y600000D02*
D03*
X2075000D02*
D03*
X2050000D02*
D03*
X2025000D02*
D03*
X1975000D02*
D03*
X2000000D02*
D03*
X1950000D02*
D03*
X462500Y825000D02*
D03*
X437500D02*
D03*
X487500D02*
D03*
X512500D02*
D03*
X537500D02*
D03*
X562500D02*
D03*
X587500D02*
D03*
Y750000D02*
D03*
X562500D02*
D03*
X537500D02*
D03*
X487500D02*
D03*
X512500D02*
D03*
X462500D02*
D03*
X2012500Y1156250D02*
D03*
Y1131250D02*
D03*
Y1081250D02*
D03*
Y1106250D02*
D03*
Y1056250D02*
D03*
Y1031250D02*
D03*
Y1006250D02*
D03*
Y981250D02*
D03*
X1937500D02*
D03*
Y1006250D02*
D03*
Y1031250D02*
D03*
Y1056250D02*
D03*
Y1106250D02*
D03*
Y1081250D02*
D03*
Y1131250D02*
D03*
X250000Y350000D02*
D03*
X300000D02*
D03*
X275000D02*
D03*
X325000D02*
D03*
X350000D02*
D03*
X375000D02*
D03*
Y425000D02*
D03*
X350000D02*
D03*
X325000D02*
D03*
X300000D02*
D03*
X275000D02*
D03*
X225000D02*
D03*
X250000D02*
D03*
X1625000Y300000D02*
D03*
X1445000D02*
D03*
X2125000Y1393750D02*
D03*
X2150000D02*
D03*
X2200000D02*
D03*
X2175000D02*
D03*
X2225000D02*
D03*
X2250000D02*
D03*
X2300000D02*
D03*
X2275000D02*
D03*
X2150000Y1243750D02*
D03*
X2200000D02*
D03*
X2175000D02*
D03*
X2225000D02*
D03*
X2250000D02*
D03*
X2275000D02*
D03*
X2300000D02*
D03*
X2325000D02*
D03*
X2350000D02*
D03*
X2375000D02*
D03*
X2400000D02*
D03*
X2375000Y1393750D02*
D03*
X2400000D02*
D03*
X2350000D02*
D03*
X2325000D02*
D03*
X1837500Y1356250D02*
D03*
X1862500D02*
D03*
X1887500D02*
D03*
X1912500D02*
D03*
X1862500Y1281250D02*
D03*
X1912500D02*
D03*
X1887500D02*
D03*
X1937500D02*
D03*
X1962500D02*
D03*
X1987500D02*
D03*
X2012500D02*
D03*
X2037500D02*
D03*
X2062500D02*
D03*
Y1356250D02*
D03*
X2037500D02*
D03*
X1987500D02*
D03*
X2012500D02*
D03*
X1962500D02*
D03*
X1937500D02*
D03*
X1412500Y350000D02*
D03*
X1462500D02*
D03*
X1437500D02*
D03*
X1487500D02*
D03*
X1512500D02*
D03*
X1537500D02*
D03*
X1562500D02*
D03*
Y425000D02*
D03*
X1537500D02*
D03*
X1512500D02*
D03*
X1487500D02*
D03*
X1437500D02*
D03*
X1462500D02*
D03*
X1412500D02*
D03*
X1387500D02*
D03*
X1125000Y350000D02*
D03*
X1175000D02*
D03*
X1150000D02*
D03*
X1200000D02*
D03*
X1225000D02*
D03*
X1250000D02*
D03*
X1275000D02*
D03*
Y425000D02*
D03*
X1250000D02*
D03*
X1225000D02*
D03*
X1200000D02*
D03*
X1150000D02*
D03*
X1175000D02*
D03*
X1125000D02*
D03*
X1100000D02*
D03*
X675000D02*
D03*
X650000D02*
D03*
X700000D02*
D03*
X725000D02*
D03*
X750000D02*
D03*
X775000D02*
D03*
X800000D02*
D03*
Y350000D02*
D03*
X775000D02*
D03*
X750000D02*
D03*
X700000D02*
D03*
X725000D02*
D03*
X675000D02*
D03*
X887500Y425000D02*
D03*
X862500D02*
D03*
X912500D02*
D03*
X937500D02*
D03*
X962500D02*
D03*
X987500D02*
D03*
X1012500D02*
D03*
Y350000D02*
D03*
X987500D02*
D03*
X962500D02*
D03*
X912500D02*
D03*
X937500D02*
D03*
X887500D02*
D03*
X462500D02*
D03*
X512500D02*
D03*
X487500D02*
D03*
X537500D02*
D03*
X562500D02*
D03*
X587500D02*
D03*
Y425000D02*
D03*
X562500D02*
D03*
X537500D02*
D03*
X512500D02*
D03*
X487500D02*
D03*
X437500D02*
D03*
X462500D02*
D03*
Y675000D02*
D03*
X437500D02*
D03*
X487500D02*
D03*
X512500D02*
D03*
X537500D02*
D03*
X562500D02*
D03*
X587500D02*
D03*
Y600000D02*
D03*
X562500D02*
D03*
X537500D02*
D03*
X487500D02*
D03*
X512500D02*
D03*
X462500D02*
D03*
X250000D02*
D03*
X300000D02*
D03*
X275000D02*
D03*
X325000D02*
D03*
X350000D02*
D03*
X375000D02*
D03*
Y675000D02*
D03*
X350000D02*
D03*
X325000D02*
D03*
X300000D02*
D03*
X275000D02*
D03*
X225000D02*
D03*
X250000D02*
D03*
X675000D02*
D03*
X650000D02*
D03*
X700000D02*
D03*
X725000D02*
D03*
X750000D02*
D03*
X775000D02*
D03*
X800000D02*
D03*
Y600000D02*
D03*
X775000D02*
D03*
X750000D02*
D03*
X700000D02*
D03*
X725000D02*
D03*
X675000D02*
D03*
X1600000Y750000D02*
D03*
X1650000D02*
D03*
X1625000D02*
D03*
X1675000D02*
D03*
X1700000D02*
D03*
X1725000D02*
D03*
X1750000D02*
D03*
Y825000D02*
D03*
X1725000D02*
D03*
X1700000D02*
D03*
X1675000D02*
D03*
X1625000D02*
D03*
X1650000D02*
D03*
X1600000D02*
D03*
X1575000D02*
D03*
X1600000Y600000D02*
D03*
X1650000D02*
D03*
X1625000D02*
D03*
X1675000D02*
D03*
X1700000D02*
D03*
X1725000D02*
D03*
X1750000D02*
D03*
Y675000D02*
D03*
X1725000D02*
D03*
X1700000D02*
D03*
X1675000D02*
D03*
X1625000D02*
D03*
X1650000D02*
D03*
X1600000D02*
D03*
X1575000D02*
D03*
X1362500Y600000D02*
D03*
X1412500D02*
D03*
X1387500D02*
D03*
X1437500D02*
D03*
X1462500D02*
D03*
X1487500D02*
D03*
X1512500D02*
D03*
Y675000D02*
D03*
X1487500D02*
D03*
X1462500D02*
D03*
X1437500D02*
D03*
X1387500D02*
D03*
X1412500D02*
D03*
X1362500D02*
D03*
X1337500D02*
D03*
X1362500Y750000D02*
D03*
X1412500D02*
D03*
X1387500D02*
D03*
X1437500D02*
D03*
X1462500D02*
D03*
X1487500D02*
D03*
X1512500D02*
D03*
Y825000D02*
D03*
X1487500D02*
D03*
X1462500D02*
D03*
X1437500D02*
D03*
X1387500D02*
D03*
X1412500D02*
D03*
X1362500D02*
D03*
X1337500D02*
D03*
X887500Y600000D02*
D03*
X937500D02*
D03*
X912500D02*
D03*
X962500D02*
D03*
X987500D02*
D03*
X1012500D02*
D03*
X1037500D02*
D03*
Y675000D02*
D03*
X1012500D02*
D03*
X987500D02*
D03*
X962500D02*
D03*
X912500D02*
D03*
X937500D02*
D03*
X887500D02*
D03*
X862500D02*
D03*
X1125000Y600000D02*
D03*
X1175000D02*
D03*
X1150000D02*
D03*
X1200000D02*
D03*
X1225000D02*
D03*
X1250000D02*
D03*
X1275000D02*
D03*
Y675000D02*
D03*
X1250000D02*
D03*
X1225000D02*
D03*
X1200000D02*
D03*
X1150000D02*
D03*
X1175000D02*
D03*
X1125000D02*
D03*
X1100000D02*
D03*
X1125000Y750000D02*
D03*
X1175000D02*
D03*
X1150000D02*
D03*
X1200000D02*
D03*
X1225000D02*
D03*
X1250000D02*
D03*
X1275000D02*
D03*
Y825000D02*
D03*
X1250000D02*
D03*
X1225000D02*
D03*
X1200000D02*
D03*
X1150000D02*
D03*
X1175000D02*
D03*
X1125000D02*
D03*
X1100000D02*
D03*
X887500Y750000D02*
D03*
X937500D02*
D03*
X912500D02*
D03*
X962500D02*
D03*
X987500D02*
D03*
X1012500D02*
D03*
X1037500D02*
D03*
Y825000D02*
D03*
X1012500D02*
D03*
X987500D02*
D03*
X962500D02*
D03*
X912500D02*
D03*
X937500D02*
D03*
X887500D02*
D03*
X862500D02*
D03*
X675000Y750000D02*
D03*
X725000D02*
D03*
X700000D02*
D03*
X750000D02*
D03*
X775000D02*
D03*
X800000D02*
D03*
Y825000D02*
D03*
X775000D02*
D03*
X750000D02*
D03*
X725000D02*
D03*
X700000D02*
D03*
X650000D02*
D03*
X675000D02*
D03*
X250000Y750000D02*
D03*
X300000D02*
D03*
X275000D02*
D03*
X325000D02*
D03*
X350000D02*
D03*
X375000D02*
D03*
Y825000D02*
D03*
X350000D02*
D03*
X325000D02*
D03*
X300000D02*
D03*
X275000D02*
D03*
X225000D02*
D03*
X250000D02*
D03*
X2462500Y981250D02*
D03*
Y956250D02*
D03*
Y906250D02*
D03*
Y931250D02*
D03*
X2312500Y906250D02*
D03*
Y931250D02*
D03*
Y956250D02*
D03*
Y981250D02*
D03*
Y1006250D02*
D03*
Y1031250D02*
D03*
Y1056250D02*
D03*
Y1081250D02*
D03*
Y1131250D02*
D03*
Y1106250D02*
D03*
Y1156250D02*
D03*
X2462500Y1031250D02*
D03*
Y1006250D02*
D03*
Y1056250D02*
D03*
Y1081250D02*
D03*
Y1131250D02*
D03*
Y1106250D02*
D03*
Y1156250D02*
D03*
Y1181250D02*
D03*
X2187500Y1131250D02*
D03*
Y1081250D02*
D03*
Y1106250D02*
D03*
Y1056250D02*
D03*
Y1031250D02*
D03*
Y1006250D02*
D03*
X2262500D02*
D03*
Y1031250D02*
D03*
Y1056250D02*
D03*
Y1081250D02*
D03*
Y1106250D02*
D03*
Y1156250D02*
D03*
Y1131250D02*
D03*
X1600033Y1131283D02*
D03*
Y1081283D02*
D03*
Y1106283D02*
D03*
Y1056283D02*
D03*
Y1031283D02*
D03*
Y1006283D02*
D03*
Y981283D02*
D03*
X1675033D02*
D03*
Y1006283D02*
D03*
Y1031283D02*
D03*
Y1056283D02*
D03*
Y1106283D02*
D03*
Y1081283D02*
D03*
Y1131283D02*
D03*
Y1156283D02*
D03*
X1712467Y1131207D02*
D03*
Y1081207D02*
D03*
Y1106207D02*
D03*
Y1056207D02*
D03*
Y1031207D02*
D03*
Y1006207D02*
D03*
Y981207D02*
D03*
X1787467D02*
D03*
Y1006207D02*
D03*
Y1031207D02*
D03*
Y1056207D02*
D03*
Y1106207D02*
D03*
Y1081207D02*
D03*
Y1131207D02*
D03*
Y1156207D02*
D03*
X1825033Y1131283D02*
D03*
Y1081283D02*
D03*
Y1106283D02*
D03*
Y1056283D02*
D03*
Y1031283D02*
D03*
Y1006283D02*
D03*
Y981283D02*
D03*
X1900033D02*
D03*
Y1006283D02*
D03*
Y1031283D02*
D03*
Y1056283D02*
D03*
Y1106283D02*
D03*
Y1081283D02*
D03*
Y1131283D02*
D03*
Y1156283D02*
D03*
X2050000Y1131240D02*
D03*
Y1081240D02*
D03*
Y1106240D02*
D03*
Y1056240D02*
D03*
Y1031240D02*
D03*
Y1006240D02*
D03*
Y981240D02*
D03*
X2125000D02*
D03*
Y1006240D02*
D03*
Y1031240D02*
D03*
Y1056240D02*
D03*
Y1106240D02*
D03*
Y1081240D02*
D03*
Y1131240D02*
D03*
Y1156240D02*
D03*
X1487500Y1131250D02*
D03*
Y1081250D02*
D03*
Y1106250D02*
D03*
Y1056250D02*
D03*
Y1031250D02*
D03*
Y1006250D02*
D03*
Y981250D02*
D03*
X1562500D02*
D03*
Y1006250D02*
D03*
Y1031250D02*
D03*
Y1056250D02*
D03*
Y1106250D02*
D03*
Y1081250D02*
D03*
Y1131250D02*
D03*
Y1156250D02*
D03*
X1375000Y1131250D02*
D03*
Y1081250D02*
D03*
Y1106250D02*
D03*
Y1056250D02*
D03*
Y1031250D02*
D03*
Y1006250D02*
D03*
Y981250D02*
D03*
X1450000D02*
D03*
Y1006250D02*
D03*
Y1031250D02*
D03*
Y1056250D02*
D03*
Y1106250D02*
D03*
Y1081250D02*
D03*
Y1131250D02*
D03*
Y1156250D02*
D03*
X1262500Y1131250D02*
D03*
Y1081250D02*
D03*
Y1106250D02*
D03*
Y1056250D02*
D03*
Y1031250D02*
D03*
Y1006250D02*
D03*
Y981250D02*
D03*
X1337500D02*
D03*
Y1006250D02*
D03*
Y1031250D02*
D03*
Y1056250D02*
D03*
Y1106250D02*
D03*
Y1081250D02*
D03*
Y1131250D02*
D03*
Y1156250D02*
D03*
X1137500Y1131250D02*
D03*
Y1081250D02*
D03*
Y1106250D02*
D03*
Y1056250D02*
D03*
Y1031250D02*
D03*
Y1006250D02*
D03*
Y981250D02*
D03*
X1212500D02*
D03*
Y1006250D02*
D03*
Y1031250D02*
D03*
Y1056250D02*
D03*
Y1106250D02*
D03*
Y1081250D02*
D03*
Y1131250D02*
D03*
Y1156250D02*
D03*
X1012500Y1131250D02*
D03*
Y1081250D02*
D03*
Y1106250D02*
D03*
Y1056250D02*
D03*
Y1031250D02*
D03*
Y1006250D02*
D03*
Y981250D02*
D03*
X1087500D02*
D03*
Y1006250D02*
D03*
Y1031250D02*
D03*
Y1056250D02*
D03*
Y1106250D02*
D03*
Y1081250D02*
D03*
Y1131250D02*
D03*
Y1156250D02*
D03*
X837500Y1131250D02*
D03*
Y1081250D02*
D03*
Y1106250D02*
D03*
Y1056250D02*
D03*
Y1031250D02*
D03*
Y1006250D02*
D03*
Y981250D02*
D03*
X912500D02*
D03*
Y1006250D02*
D03*
Y1031250D02*
D03*
Y1056250D02*
D03*
Y1106250D02*
D03*
Y1081250D02*
D03*
Y1131250D02*
D03*
Y1156250D02*
D03*
X662500Y1131250D02*
D03*
Y1081250D02*
D03*
Y1106250D02*
D03*
Y1056250D02*
D03*
Y1031250D02*
D03*
Y1006250D02*
D03*
Y981250D02*
D03*
X737500D02*
D03*
Y1006250D02*
D03*
Y1031250D02*
D03*
Y1056250D02*
D03*
Y1106250D02*
D03*
Y1081250D02*
D03*
Y1131250D02*
D03*
Y1156250D02*
D03*
X550000Y1131250D02*
D03*
Y1081250D02*
D03*
Y1106250D02*
D03*
Y1056250D02*
D03*
Y1031250D02*
D03*
Y1006250D02*
D03*
Y981250D02*
D03*
X625000D02*
D03*
Y1006250D02*
D03*
Y1031250D02*
D03*
Y1056250D02*
D03*
Y1106250D02*
D03*
Y1081250D02*
D03*
Y1131250D02*
D03*
Y1156250D02*
D03*
X487500Y1131250D02*
D03*
Y1156250D02*
D03*
Y1106250D02*
D03*
Y1081250D02*
D03*
Y1056250D02*
D03*
Y1031250D02*
D03*
Y1006250D02*
D03*
X412500D02*
D03*
Y1031250D02*
D03*
Y1056250D02*
D03*
Y1106250D02*
D03*
Y1081250D02*
D03*
Y1131250D02*
D03*
X275000D02*
D03*
Y1081250D02*
D03*
Y1106250D02*
D03*
Y1056250D02*
D03*
Y1031250D02*
D03*
Y1006250D02*
D03*
X350000D02*
D03*
Y1031250D02*
D03*
Y1056250D02*
D03*
Y1081250D02*
D03*
Y1106250D02*
D03*
Y1156250D02*
D03*
Y1131250D02*
D03*
X1625000Y1281250D02*
D03*
X1675000D02*
D03*
X1650000D02*
D03*
X1700000D02*
D03*
X1725000D02*
D03*
X1750000D02*
D03*
X1775000D02*
D03*
Y1356250D02*
D03*
X1750000D02*
D03*
X1725000D02*
D03*
X1700000D02*
D03*
X1650000D02*
D03*
X1675000D02*
D03*
X1625000D02*
D03*
X1600000D02*
D03*
X1387500Y1281250D02*
D03*
X1437500D02*
D03*
X1412500D02*
D03*
X1462500D02*
D03*
X1487500D02*
D03*
X1512500D02*
D03*
X1537500D02*
D03*
Y1356250D02*
D03*
X1512500D02*
D03*
X1487500D02*
D03*
X1462500D02*
D03*
X1412500D02*
D03*
X1437500D02*
D03*
X1387500D02*
D03*
X1362500D02*
D03*
X1150000Y1281250D02*
D03*
X1200000D02*
D03*
X1175000D02*
D03*
X1225000D02*
D03*
X1250000D02*
D03*
X1275000D02*
D03*
X1300000D02*
D03*
Y1356250D02*
D03*
X1275000D02*
D03*
X1250000D02*
D03*
X1225000D02*
D03*
X1175000D02*
D03*
X1200000D02*
D03*
X1150000D02*
D03*
X1125000D02*
D03*
X912500Y1281250D02*
D03*
X962500D02*
D03*
X937500D02*
D03*
X987500D02*
D03*
X1012500D02*
D03*
X1037500D02*
D03*
X1062500D02*
D03*
Y1356250D02*
D03*
X1037500D02*
D03*
X1012500D02*
D03*
X987500D02*
D03*
X937500D02*
D03*
X962500D02*
D03*
X912500D02*
D03*
X887500D02*
D03*
X675000Y1281250D02*
D03*
X725000D02*
D03*
X700000D02*
D03*
X750000D02*
D03*
X775000D02*
D03*
X800000D02*
D03*
X825000D02*
D03*
Y1356250D02*
D03*
X800000D02*
D03*
X775000D02*
D03*
X750000D02*
D03*
X700000D02*
D03*
X725000D02*
D03*
X675000D02*
D03*
X650000D02*
D03*
X462500Y1281250D02*
D03*
X512500D02*
D03*
X487500D02*
D03*
X537500D02*
D03*
X562500D02*
D03*
X587500D02*
D03*
Y1356250D02*
D03*
X562500D02*
D03*
X537500D02*
D03*
X512500D02*
D03*
X487500D02*
D03*
X437500D02*
D03*
X462500D02*
D03*
X300000Y1281250D02*
D03*
X325000D02*
D03*
X350000D02*
D03*
X275000Y1356250D02*
D03*
X300000D02*
D03*
X325000D02*
D03*
X350000D02*
D03*
D37*
X1925000Y750000D02*
D03*
Y600000D02*
D03*
X437500Y750000D02*
D03*
X2112500Y950000D02*
D03*
X2062500D02*
D03*
X2000000D02*
D03*
X1950000D02*
D03*
X1887500D02*
D03*
X1837500D02*
D03*
X1775000D02*
D03*
X1725000D02*
D03*
X1662500D02*
D03*
X1612500D02*
D03*
X1550000D02*
D03*
X1500000D02*
D03*
X1437500D02*
D03*
X1387500D02*
D03*
X1325000D02*
D03*
X1275000D02*
D03*
X225000Y350000D02*
D03*
X1425000Y300000D02*
D03*
X2125000Y1243750D02*
D03*
X1887500Y825000D02*
D03*
X1787500D02*
D03*
X587500Y1431250D02*
D03*
X537500D02*
D03*
X1125000D02*
D03*
X1075000D02*
D03*
X1575000D02*
D03*
X1525000D02*
D03*
X2325000D02*
D03*
X2275000D02*
D03*
X1837500Y1281250D02*
D03*
X1275000Y300000D02*
D03*
X1225000D02*
D03*
X300000D02*
D03*
X250000D02*
D03*
X687500Y462500D02*
D03*
X787500D02*
D03*
X687500Y518750D02*
D03*
X787500D02*
D03*
X1787500Y700000D02*
D03*
X1887500D02*
D03*
X1787500Y675000D02*
D03*
X1887500D02*
D03*
X1787500Y637500D02*
D03*
X1887500D02*
D03*
X1787500Y600000D02*
D03*
X1887500D02*
D03*
X1787500Y787500D02*
D03*
X1887500D02*
D03*
X1787500Y725000D02*
D03*
X1887500D02*
D03*
X1787500Y750000D02*
D03*
X1887500D02*
D03*
X325000Y1431250D02*
D03*
X375000D02*
D03*
X250000Y1243750D02*
D03*
X350000D02*
D03*
X1387500Y350000D02*
D03*
X1100000D02*
D03*
X650000D02*
D03*
X862500D02*
D03*
X437500D02*
D03*
Y600000D02*
D03*
X225000D02*
D03*
X650000D02*
D03*
X1575000Y750000D02*
D03*
Y600000D02*
D03*
X1337500D02*
D03*
Y750000D02*
D03*
X862500Y600000D02*
D03*
X1100000D02*
D03*
Y750000D02*
D03*
X862500D02*
D03*
X650000D02*
D03*
X225000D02*
D03*
X1600000Y1281250D02*
D03*
X1362500D02*
D03*
X1125000D02*
D03*
X887500D02*
D03*
X650000D02*
D03*
X437500Y1281250D02*
D03*
D38*
X2490000Y540000D02*
D03*
X2400000D02*
D03*
X2490000Y780000D02*
D03*
X2400000D02*
D03*
D39*
X2490000Y1430000D02*
D03*
X190000D02*
D03*
D40*
X1937500Y1156250D02*
D03*
X212500Y525000D02*
D03*
Y475000D02*
D03*
Y937500D02*
D03*
Y887500D02*
D03*
Y1243750D02*
D03*
Y1343750D02*
D03*
X2462500Y1293750D02*
D03*
Y1243750D02*
D03*
X2237500Y575000D02*
D03*
Y675000D02*
D03*
X2262500Y387500D02*
D03*
Y487500D02*
D03*
X2237500Y387500D02*
D03*
Y487500D02*
D03*
X2212500Y387500D02*
D03*
Y487500D02*
D03*
X1325000Y337500D02*
D03*
Y437500D02*
D03*
X2212500Y575000D02*
D03*
Y675000D02*
D03*
X2187500Y575000D02*
D03*
Y675000D02*
D03*
X2162500Y575000D02*
D03*
Y675000D02*
D03*
X2137500Y575000D02*
D03*
Y675000D02*
D03*
X2212500Y725000D02*
D03*
Y825000D02*
D03*
X2187500Y725000D02*
D03*
Y825000D02*
D03*
X2162500Y725000D02*
D03*
Y825000D02*
D03*
X2137500Y725000D02*
D03*
Y825000D02*
D03*
X800000Y1193750D02*
D03*
Y1093750D02*
D03*
X950000Y1193750D02*
D03*
Y1093750D02*
D03*
Y1056250D02*
D03*
Y956250D02*
D03*
X800000Y1056250D02*
D03*
Y956250D02*
D03*
X2312500Y1181250D02*
D03*
X2187500Y1156250D02*
D03*
X1600033Y1156283D02*
D03*
X1712467Y1156207D02*
D03*
X1825033Y1156283D02*
D03*
X2050000Y1156240D02*
D03*
X1487500Y1156250D02*
D03*
X1375000D02*
D03*
X1262500D02*
D03*
X1137500D02*
D03*
X1012500D02*
D03*
X837500D02*
D03*
X662500D02*
D03*
X550000D02*
D03*
X412500D02*
D03*
X275000D02*
D03*
Y1281250D02*
D03*
D41*
X2287500Y656250D02*
D03*
Y693750D02*
D03*
Y731250D02*
D03*
Y618750D02*
D03*
Y581250D02*
D03*
Y543750D02*
D03*
Y768750D02*
D03*
D42*
X2412500Y412500D02*
D03*
X2325000D02*
D03*
D43*
X2437500D02*
D03*
X2462500D02*
D03*
X2350000D02*
D03*
X2375000D02*
D03*
D44*
X775000Y1093750D02*
D03*
Y1056250D02*
D03*
X975000Y1093750D02*
D03*
Y1056250D02*
D03*
X662500Y518750D02*
D03*
Y462500D02*
D03*
D45*
X687500Y625000D02*
D03*
X1412500Y800000D02*
D03*
X1913523Y1219773D02*
D03*
X1768750Y1243750D02*
D03*
X2343750Y375000D02*
D03*
X2262500Y462500D02*
D03*
X1100000Y1343750D02*
D03*
X1090571Y1293631D02*
D03*
X1537000Y587500D02*
D03*
X1556250Y1218750D02*
D03*
X1525000Y1193750D02*
D03*
X1806250Y1337500D02*
D03*
X204250Y836796D02*
D03*
X206250Y325000D02*
D03*
X1306572Y848608D02*
D03*
X1306462Y737378D02*
D03*
X1308757Y650843D02*
D03*
X1307992Y611836D02*
D03*
X1337500Y650000D02*
D03*
X1922000Y637500D02*
D03*
X1950000D02*
D03*
X349801Y949613D02*
D03*
X1180110Y1131365D02*
D03*
X1159787Y1118784D02*
D03*
X837000Y462500D02*
D03*
X325000Y1188000D02*
D03*
X675000Y1196750D02*
D03*
X375000D02*
D03*
X312500Y1056250D02*
D03*
X2201779Y1303134D02*
D03*
X2212448Y1333133D02*
D03*
X2125000Y1343750D02*
D03*
X1110586Y1231874D02*
D03*
X848550Y699737D02*
D03*
X847902Y575992D02*
D03*
X487500Y300000D02*
D03*
X1150903Y901568D02*
D03*
X1450472Y901717D02*
D03*
X1100000Y862500D02*
D03*
X1062500D02*
D03*
X2100000Y893750D02*
D03*
X2237478Y906239D02*
D03*
X1389107Y929750D02*
D03*
X1175000Y909500D02*
D03*
X775000Y868750D02*
D03*
X750000Y887500D02*
D03*
X537500D02*
D03*
X675000Y900000D02*
D03*
X475000D02*
D03*
X490500Y862500D02*
D03*
X1118750Y937500D02*
D03*
X1100000Y950000D02*
D03*
X2043750Y925000D02*
D03*
X2000000Y918750D02*
D03*
X1825000D02*
D03*
X1737500D02*
D03*
X2025000Y943750D02*
D03*
X1969041Y906250D02*
D03*
X1793750Y928000D02*
D03*
X1193750Y931250D02*
D03*
X1300000Y940500D02*
D03*
X1312500Y1081250D02*
D03*
X1850000Y906250D02*
D03*
X1856250Y928000D02*
D03*
X2175000Y931250D02*
D03*
X2068750Y925000D02*
D03*
X2143750Y937500D02*
D03*
X1922000Y787500D02*
D03*
X1931250Y937500D02*
D03*
X1912500Y375000D02*
D03*
Y568750D02*
D03*
X1518750Y925000D02*
D03*
X2090750Y993750D02*
D03*
X1062500Y950571D02*
D03*
X1413548Y908263D02*
D03*
X2156250Y893750D02*
D03*
X2150000Y543750D02*
D03*
X1625000Y1181250D02*
D03*
X1612500Y1206250D02*
D03*
X1300000Y1193750D02*
D03*
X437500Y968750D02*
D03*
X612500Y437500D02*
D03*
X1387500Y800000D02*
D03*
X2025000Y1306250D02*
D03*
X2100000Y1106250D02*
D03*
X1887209Y555959D02*
D03*
X1787500Y1250000D02*
D03*
X1750000Y1112500D02*
D03*
X1012500Y1218750D02*
D03*
X1050000Y1031250D02*
D03*
X587500Y1018750D02*
D03*
X612500Y1293750D02*
D03*
X462500Y700000D02*
D03*
X262500Y775000D02*
D03*
X1612500Y437500D02*
D03*
Y1384790D02*
D03*
X912500Y493750D02*
D03*
X1850000Y1206250D02*
D03*
X1825000Y1231250D02*
D03*
X1437500Y462500D02*
D03*
X725000Y709500D02*
D03*
X462500Y1206250D02*
D03*
X1187500Y1406250D02*
D03*
X937500Y1418750D02*
D03*
X762500Y1406250D02*
D03*
X1000000Y1418750D02*
D03*
X2150000Y400000D02*
D03*
X1650000Y425000D02*
D03*
X1475000Y331250D02*
D03*
X1587500D02*
D03*
X2237500Y800000D02*
D03*
X1612500Y518750D02*
D03*
X2087500Y510750D02*
D03*
X1250000Y512500D02*
D03*
X975000D02*
D03*
X950000Y487500D02*
D03*
X1675000Y518750D02*
D03*
X1987500Y456250D02*
D03*
X1412500Y462500D02*
D03*
X975000D02*
D03*
X868750Y487500D02*
D03*
X1625000Y543750D02*
D03*
X1650000Y531250D02*
D03*
X1525000Y462500D02*
D03*
X312500Y937500D02*
D03*
X287500Y925000D02*
D03*
X837500Y787500D02*
D03*
X862500Y946750D02*
D03*
X1200000Y850000D02*
D03*
X1487500D02*
D03*
X1375000D02*
D03*
X2212500Y962500D02*
D03*
X2193750D02*
D03*
X2225000Y1043750D02*
D03*
X875000Y1025000D02*
D03*
X650000Y850000D02*
D03*
X625000D02*
D03*
X2362500Y956250D02*
D03*
X2400000Y981250D02*
D03*
X1400000Y568750D02*
D03*
X1212500Y700000D02*
D03*
X1225000Y1193750D02*
D03*
X912500Y1231250D02*
D03*
X1925000Y1306250D02*
D03*
X1950000Y1296460D02*
D03*
X1825000Y1331250D02*
D03*
X1813172Y1243077D02*
D03*
X1624888Y1318213D02*
D03*
X2062500Y1318750D02*
D03*
X1462500Y1256250D02*
D03*
X1475000Y1231250D02*
D03*
X1425000D02*
D03*
X2050000Y850000D02*
D03*
X2000000D02*
D03*
X2400000Y1131250D02*
D03*
X1987500Y1181250D02*
D03*
X700000Y1143750D02*
D03*
X687500Y993750D02*
D03*
X1425000Y325000D02*
D03*
X1750000Y637500D02*
D03*
X1700000Y625000D02*
D03*
X1662500Y725000D02*
D03*
X1600000D02*
D03*
Y700000D02*
D03*
X1575000D02*
D03*
X1487500D02*
D03*
X1187500Y993750D02*
D03*
X437500Y543750D02*
D03*
X525000Y475000D02*
D03*
X762500Y450000D02*
D03*
X1150000Y575000D02*
D03*
X1162500Y475000D02*
D03*
X1187500Y487500D02*
D03*
X1575000Y375000D02*
D03*
X1587500Y412500D02*
D03*
X1625000D02*
D03*
X1150000Y650000D02*
D03*
X1237500Y712500D02*
D03*
X1725000Y725000D02*
D03*
X1975000Y400000D02*
D03*
X2075000D02*
D03*
X2125000D02*
D03*
X1750000Y375000D02*
D03*
X1787500D02*
D03*
X1812500D02*
D03*
X1837500D02*
D03*
X1862500D02*
D03*
X1887500D02*
D03*
X1962500D02*
D03*
X1987500D02*
D03*
X2012500D02*
D03*
X2037500D02*
D03*
X2062500D02*
D03*
X2087500D02*
D03*
X2112500D02*
D03*
X2137500D02*
D03*
X2150000Y468750D02*
D03*
X2175000D02*
D03*
X2212500Y1181250D02*
D03*
X2150000Y850000D02*
D03*
X1687500Y775000D02*
D03*
X1650000D02*
D03*
X1362500Y637500D02*
D03*
X1487500Y650000D02*
D03*
X1512500D02*
D03*
X1600000Y556250D02*
D03*
X1625000Y575000D02*
D03*
X1662500Y562500D02*
D03*
X1687500Y543750D02*
D03*
X1725000D02*
D03*
X1750000Y568750D02*
D03*
X1775000Y556250D02*
D03*
X1837500Y581250D02*
D03*
X2012500Y518750D02*
D03*
X2112500Y531250D02*
D03*
X2137500D02*
D03*
X2187500Y625000D02*
D03*
X2050000Y637500D02*
D03*
X2062500Y706250D02*
D03*
X2050000Y800000D02*
D03*
X1950000Y787500D02*
D03*
X2387500Y1031250D02*
D03*
X2425000Y993750D02*
D03*
X2350000Y1006250D02*
D03*
X2337500Y1056250D02*
D03*
X2437500Y1268750D02*
D03*
X2412500Y1318750D02*
D03*
X2275000Y1281250D02*
D03*
X2250000Y1293750D02*
D03*
X2225000Y1368750D02*
D03*
X2187500Y1281250D02*
D03*
X2150000Y1356250D02*
D03*
X2187500Y1206250D02*
D03*
X2162500D02*
D03*
X2137500Y1218750D02*
D03*
X2075000Y1106250D02*
D03*
X1362500Y787500D02*
D03*
X1437500Y775000D02*
D03*
X1487500Y787500D02*
D03*
X1512500D02*
D03*
X1762500Y1068750D02*
D03*
X2125000Y1431250D02*
D03*
X2062500D02*
D03*
X2087500Y1281250D02*
D03*
X2037500Y1193750D02*
D03*
X2000000Y1206250D02*
D03*
Y1231250D02*
D03*
X1975000D02*
D03*
X1950000Y1243750D02*
D03*
X1925000D02*
D03*
X1875000Y1206250D02*
D03*
X1837500Y850000D02*
D03*
X1700000Y1218750D02*
D03*
X1725000D02*
D03*
X1775000Y1431250D02*
D03*
X1712500D02*
D03*
X1637500Y1393750D02*
D03*
X1462500Y1381250D02*
D03*
X1500000D02*
D03*
X1487500Y1331250D02*
D03*
X1512500Y1218750D02*
D03*
X1500000Y1243750D02*
D03*
X1400000Y1256250D02*
D03*
X1387500Y1306250D02*
D03*
X1062500Y1093750D02*
D03*
X1337500Y1343750D02*
D03*
Y1293750D02*
D03*
X1187500Y775000D02*
D03*
X1162500D02*
D03*
X1075000Y750000D02*
D03*
X1062500Y775000D02*
D03*
X1075000Y800000D02*
D03*
X1312500Y1168750D02*
D03*
X1275000Y1306250D02*
D03*
Y1256250D02*
D03*
X1250000Y1243750D02*
D03*
X1112500Y1093750D02*
D03*
X1175000Y1218750D02*
D03*
X1162500Y1393750D02*
D03*
X1212500D02*
D03*
X1200000Y1318750D02*
D03*
X1137500D02*
D03*
X1100000Y1393750D02*
D03*
X1062500D02*
D03*
X962500D02*
D03*
X987500Y1381250D02*
D03*
X1037500Y1306250D02*
D03*
X1075000Y1218750D02*
D03*
X1050000Y1206250D02*
D03*
X987500Y1231250D02*
D03*
X1037500Y1118750D02*
D03*
Y1056250D02*
D03*
X937500Y993750D02*
D03*
X900000Y1331250D02*
D03*
X575000Y1143750D02*
D03*
X387500Y1056250D02*
D03*
Y1106250D02*
D03*
X512500Y1143750D02*
D03*
X862500Y1081250D02*
D03*
X875000Y1106250D02*
D03*
Y1156250D02*
D03*
X862500Y1381250D02*
D03*
X850000Y1306250D02*
D03*
X837500Y1243750D02*
D03*
X762500Y1193750D02*
D03*
X687500Y1231250D02*
D03*
X662500Y1243750D02*
D03*
X712500Y1381250D02*
D03*
X737500Y1393750D02*
D03*
X775000Y1331250D02*
D03*
X637500Y1318750D02*
D03*
X500000Y1306250D02*
D03*
X625000Y1368750D02*
D03*
X562500Y1256250D02*
D03*
X600000Y1081250D02*
D03*
X587500Y1106250D02*
D03*
X450000Y1031250D02*
D03*
Y1056250D02*
D03*
Y1106250D02*
D03*
Y1131250D02*
D03*
X500000Y1231250D02*
D03*
X475000Y1393750D02*
D03*
X450000Y1243750D02*
D03*
X237500Y1218750D02*
D03*
X262500Y1206250D02*
D03*
X300000Y1018750D02*
D03*
X912500Y775000D02*
D03*
X925000Y625000D02*
D03*
X975000Y637500D02*
D03*
X987500Y700000D02*
D03*
X1062500Y587500D02*
D03*
X987500Y575000D02*
D03*
X837500Y662500D02*
D03*
X825000Y687500D02*
D03*
X775000Y625000D02*
D03*
X800000Y581250D02*
D03*
X675000Y775000D02*
D03*
X650000Y700000D02*
D03*
X662500Y637500D02*
D03*
X612500Y675000D02*
D03*
Y762500D02*
D03*
Y825000D02*
D03*
X575000Y700000D02*
D03*
X562500Y787500D02*
D03*
X512500Y800000D02*
D03*
Y993750D02*
D03*
Y850000D02*
D03*
X437500Y787500D02*
D03*
X412500Y775000D02*
D03*
X400000Y837500D02*
D03*
X212500Y862500D02*
D03*
X337500Y787500D02*
D03*
X387500Y725000D02*
D03*
X212500Y700000D02*
D03*
X275000Y712500D02*
D03*
X325000Y700000D02*
D03*
X275000Y625000D02*
D03*
X400000D02*
D03*
X350000Y581250D02*
D03*
X237500Y562500D02*
D03*
X575000Y512500D02*
D03*
X600000Y475000D02*
D03*
X550000Y568750D02*
D03*
X512500Y543750D02*
D03*
X500000Y512500D02*
D03*
X487500Y487500D02*
D03*
X425000Y462500D02*
D03*
X462500Y475000D02*
D03*
X400000Y500000D02*
D03*
X362500Y475000D02*
D03*
X250000Y506250D02*
D03*
Y537500D02*
D03*
X312500Y543750D02*
D03*
X337500Y531250D02*
D03*
X325000Y506250D02*
D03*
Y481250D02*
D03*
X237500Y450000D02*
D03*
X1075000Y337500D02*
D03*
X1162500Y325000D02*
D03*
X1200000Y300000D02*
D03*
X937500Y287500D02*
D03*
X862500D02*
D03*
X825000Y337500D02*
D03*
X700000Y325000D02*
D03*
X350000Y312500D02*
D03*
D46*
X1550000Y600000D02*
D03*
X1306250Y300000D02*
D03*
X1050000Y287500D02*
D03*
X1670000Y290000D02*
D03*
X450000Y300000D02*
D03*
X2250000Y918750D02*
D03*
X2268750Y843750D02*
D03*
X968750Y900000D02*
D03*
X825000Y903250D02*
D03*
X1043750Y900000D02*
D03*
X1762500Y700000D02*
D03*
X2281250Y856250D02*
D03*
X2306250Y881250D02*
D03*
X2293750Y868750D02*
D03*
X2225000Y506250D02*
D03*
Y525000D02*
D03*
X750000Y518750D02*
D03*
X981250Y981250D02*
D03*
X993750Y900000D02*
D03*
X1043750Y981250D02*
D03*
Y1006250D02*
D03*
X955959Y980959D02*
D03*
X1650000Y1331250D02*
D03*
X1675000Y1325000D02*
D03*
Y1303540D02*
D03*
X1750000Y1258960D02*
D03*
M02*
