G04*
G04 #@! TF.GenerationSoftware,Altium Limited,Altium Designer,23.6.0 (18)*
G04*
G04 Layer_Color=8388736*
%FSLAX44Y44*%
%MOMM*%
G71*
G04*
G04 #@! TF.SameCoordinates,8006C624-1F22-46BB-959B-2378D66551BF*
G04*
G04*
G04 #@! TF.FilePolarity,Negative*
G04*
G01*
G75*
G04:AMPARAMS|DCode=14|XSize=1.4032mm|YSize=8.2032mm|CornerRadius=0.7016mm|HoleSize=0mm|Usage=FLASHONLY|Rotation=0.000|XOffset=0mm|YOffset=0mm|HoleType=Round|Shape=RoundedRectangle|*
%AMROUNDEDRECTD14*
21,1,1.4032,6.8000,0,0,0.0*
21,1,0.0000,8.2032,0,0,0.0*
1,1,1.4032,0.0000,-3.4000*
1,1,1.4032,0.0000,-3.4000*
1,1,1.4032,0.0000,3.4000*
1,1,1.4032,0.0000,3.4000*
%
%ADD14ROUNDEDRECTD14*%
%ADD15R,1.9032X11.2032*%
%ADD16C,1.8032*%
%ADD17R,1.8032X1.8032*%
%ADD18C,3.2032*%
%ADD19C,4.2032*%
%ADD20R,1.8032X1.8032*%
%ADD21C,2.2032*%
%ADD22R,2.0032X2.0032*%
%ADD23C,2.0032*%
%ADD24C,1.7032*%
%ADD25C,1.4032*%
%ADD26C,1.4032*%
D14*
X2393000Y122000D02*
D03*
X2418001D02*
D03*
X2367999D02*
D03*
X2293000D02*
D03*
X2317999D02*
D03*
X2343000D02*
D03*
X2443000D02*
D03*
X2243000D02*
D03*
X2117999D02*
D03*
X1993001D02*
D03*
X2018000D02*
D03*
X2043001D02*
D03*
X2068000D02*
D03*
X2093001D02*
D03*
X2143001D02*
D03*
X2167999D02*
D03*
X2193000D02*
D03*
X2217999D02*
D03*
X2267999D02*
D03*
X1943001D02*
D03*
X1718000D02*
D03*
X1742999D02*
D03*
X1768000D02*
D03*
X1793001D02*
D03*
X1818000D02*
D03*
X1843001D02*
D03*
X1868000D02*
D03*
X1893001D02*
D03*
X1918000D02*
D03*
X1968000D02*
D03*
D15*
X2443000Y297000D02*
D03*
X2418001D02*
D03*
X2393000D02*
D03*
X2367999D02*
D03*
X2343000D02*
D03*
X2317999D02*
D03*
X2293000D02*
D03*
X2267999D02*
D03*
X2243000D02*
D03*
X2217999D02*
D03*
X2193000D02*
D03*
X2167999D02*
D03*
X2143001D02*
D03*
X2117999D02*
D03*
X2093001D02*
D03*
X2068000D02*
D03*
X2043001D02*
D03*
X2018000D02*
D03*
X1993001D02*
D03*
X1968000D02*
D03*
X1943001D02*
D03*
X1918000D02*
D03*
X1893001D02*
D03*
X1868000D02*
D03*
X1843001D02*
D03*
X1818000D02*
D03*
X1793001D02*
D03*
X1768000D02*
D03*
X1742999D02*
D03*
X1718000D02*
D03*
D16*
X1925000Y825000D02*
D03*
X1950000D02*
D03*
X2000000D02*
D03*
X1975000D02*
D03*
X2025000D02*
D03*
X2050000D02*
D03*
X2075000D02*
D03*
X2100000D02*
D03*
Y750000D02*
D03*
X2075000D02*
D03*
X2050000D02*
D03*
X2025000D02*
D03*
X1975000D02*
D03*
X2000000D02*
D03*
X1950000D02*
D03*
X1925000Y675000D02*
D03*
X1950000D02*
D03*
X2000000D02*
D03*
X1975000D02*
D03*
X2025000D02*
D03*
X2050000D02*
D03*
X2075000D02*
D03*
X2100000D02*
D03*
Y600000D02*
D03*
X2075000D02*
D03*
X2050000D02*
D03*
X2025000D02*
D03*
X1975000D02*
D03*
X2000000D02*
D03*
X1950000D02*
D03*
X462500Y825000D02*
D03*
X437500D02*
D03*
X487500D02*
D03*
X512500D02*
D03*
X537500D02*
D03*
X562500D02*
D03*
X587500D02*
D03*
Y750000D02*
D03*
X562500D02*
D03*
X537500D02*
D03*
X487500D02*
D03*
X512500D02*
D03*
X462500D02*
D03*
X2012500Y1156250D02*
D03*
Y1131250D02*
D03*
Y1081250D02*
D03*
Y1106250D02*
D03*
Y1056250D02*
D03*
Y1031250D02*
D03*
Y1006250D02*
D03*
Y981250D02*
D03*
X1937500D02*
D03*
Y1006250D02*
D03*
Y1031250D02*
D03*
Y1056250D02*
D03*
Y1106250D02*
D03*
Y1081250D02*
D03*
Y1131250D02*
D03*
X250000Y350000D02*
D03*
X300000D02*
D03*
X275000D02*
D03*
X325000D02*
D03*
X350000D02*
D03*
X375000D02*
D03*
Y425000D02*
D03*
X350000D02*
D03*
X325000D02*
D03*
X300000D02*
D03*
X275000D02*
D03*
X225000D02*
D03*
X250000D02*
D03*
X1625000Y300000D02*
D03*
X1445000D02*
D03*
X2125000Y1393750D02*
D03*
X2150000D02*
D03*
X2200000D02*
D03*
X2175000D02*
D03*
X2225000D02*
D03*
X2250000D02*
D03*
X2300000D02*
D03*
X2275000D02*
D03*
X2150000Y1243750D02*
D03*
X2200000D02*
D03*
X2175000D02*
D03*
X2225000D02*
D03*
X2250000D02*
D03*
X2275000D02*
D03*
X2300000D02*
D03*
X2325000D02*
D03*
X2350000D02*
D03*
X2375000D02*
D03*
X2400000D02*
D03*
X2375000Y1393750D02*
D03*
X2400000D02*
D03*
X2350000D02*
D03*
X2325000D02*
D03*
X1837500Y1356250D02*
D03*
X1862500D02*
D03*
X1887500D02*
D03*
X1912500D02*
D03*
X1862500Y1281250D02*
D03*
X1912500D02*
D03*
X1887500D02*
D03*
X1937500D02*
D03*
X1962500D02*
D03*
X1987500D02*
D03*
X2012500D02*
D03*
X2037500D02*
D03*
X2062500D02*
D03*
Y1356250D02*
D03*
X2037500D02*
D03*
X1987500D02*
D03*
X2012500D02*
D03*
X1962500D02*
D03*
X1937500D02*
D03*
X1412500Y350000D02*
D03*
X1462500D02*
D03*
X1437500D02*
D03*
X1487500D02*
D03*
X1512500D02*
D03*
X1537500D02*
D03*
X1562500D02*
D03*
Y425000D02*
D03*
X1537500D02*
D03*
X1512500D02*
D03*
X1487500D02*
D03*
X1437500D02*
D03*
X1462500D02*
D03*
X1412500D02*
D03*
X1387500D02*
D03*
X1125000Y350000D02*
D03*
X1175000D02*
D03*
X1150000D02*
D03*
X1200000D02*
D03*
X1225000D02*
D03*
X1250000D02*
D03*
X1275000D02*
D03*
Y425000D02*
D03*
X1250000D02*
D03*
X1225000D02*
D03*
X1200000D02*
D03*
X1150000D02*
D03*
X1175000D02*
D03*
X1125000D02*
D03*
X1100000D02*
D03*
X675000D02*
D03*
X650000D02*
D03*
X700000D02*
D03*
X725000D02*
D03*
X750000D02*
D03*
X775000D02*
D03*
X800000D02*
D03*
Y350000D02*
D03*
X775000D02*
D03*
X750000D02*
D03*
X700000D02*
D03*
X725000D02*
D03*
X675000D02*
D03*
X887500Y425000D02*
D03*
X862500D02*
D03*
X912500D02*
D03*
X937500D02*
D03*
X962500D02*
D03*
X987500D02*
D03*
X1012500D02*
D03*
Y350000D02*
D03*
X987500D02*
D03*
X962500D02*
D03*
X912500D02*
D03*
X937500D02*
D03*
X887500D02*
D03*
X462500D02*
D03*
X512500D02*
D03*
X487500D02*
D03*
X537500D02*
D03*
X562500D02*
D03*
X587500D02*
D03*
Y425000D02*
D03*
X562500D02*
D03*
X537500D02*
D03*
X512500D02*
D03*
X487500D02*
D03*
X437500D02*
D03*
X462500D02*
D03*
Y675000D02*
D03*
X437500D02*
D03*
X487500D02*
D03*
X512500D02*
D03*
X537500D02*
D03*
X562500D02*
D03*
X587500D02*
D03*
Y600000D02*
D03*
X562500D02*
D03*
X537500D02*
D03*
X487500D02*
D03*
X512500D02*
D03*
X462500D02*
D03*
X250000D02*
D03*
X300000D02*
D03*
X275000D02*
D03*
X325000D02*
D03*
X350000D02*
D03*
X375000D02*
D03*
Y675000D02*
D03*
X350000D02*
D03*
X325000D02*
D03*
X300000D02*
D03*
X275000D02*
D03*
X225000D02*
D03*
X250000D02*
D03*
X675000D02*
D03*
X650000D02*
D03*
X700000D02*
D03*
X725000D02*
D03*
X750000D02*
D03*
X775000D02*
D03*
X800000D02*
D03*
Y600000D02*
D03*
X775000D02*
D03*
X750000D02*
D03*
X700000D02*
D03*
X725000D02*
D03*
X675000D02*
D03*
X1600000Y750000D02*
D03*
X1650000D02*
D03*
X1625000D02*
D03*
X1675000D02*
D03*
X1700000D02*
D03*
X1725000D02*
D03*
X1750000D02*
D03*
Y825000D02*
D03*
X1725000D02*
D03*
X1700000D02*
D03*
X1675000D02*
D03*
X1625000D02*
D03*
X1650000D02*
D03*
X1600000D02*
D03*
X1575000D02*
D03*
X1600000Y600000D02*
D03*
X1650000D02*
D03*
X1625000D02*
D03*
X1675000D02*
D03*
X1700000D02*
D03*
X1725000D02*
D03*
X1750000D02*
D03*
Y675000D02*
D03*
X1725000D02*
D03*
X1700000D02*
D03*
X1675000D02*
D03*
X1625000D02*
D03*
X1650000D02*
D03*
X1600000D02*
D03*
X1575000D02*
D03*
X1362500Y600000D02*
D03*
X1412500D02*
D03*
X1387500D02*
D03*
X1437500D02*
D03*
X1462500D02*
D03*
X1487500D02*
D03*
X1512500D02*
D03*
Y675000D02*
D03*
X1487500D02*
D03*
X1462500D02*
D03*
X1437500D02*
D03*
X1387500D02*
D03*
X1412500D02*
D03*
X1362500D02*
D03*
X1337500D02*
D03*
X1362500Y750000D02*
D03*
X1412500D02*
D03*
X1387500D02*
D03*
X1437500D02*
D03*
X1462500D02*
D03*
X1487500D02*
D03*
X1512500D02*
D03*
Y825000D02*
D03*
X1487500D02*
D03*
X1462500D02*
D03*
X1437500D02*
D03*
X1387500D02*
D03*
X1412500D02*
D03*
X1362500D02*
D03*
X1337500D02*
D03*
X887500Y600000D02*
D03*
X937500D02*
D03*
X912500D02*
D03*
X962500D02*
D03*
X987500D02*
D03*
X1012500D02*
D03*
X1037500D02*
D03*
Y675000D02*
D03*
X1012500D02*
D03*
X987500D02*
D03*
X962500D02*
D03*
X912500D02*
D03*
X937500D02*
D03*
X887500D02*
D03*
X862500D02*
D03*
X1125000Y600000D02*
D03*
X1175000D02*
D03*
X1150000D02*
D03*
X1200000D02*
D03*
X1225000D02*
D03*
X1250000D02*
D03*
X1275000D02*
D03*
Y675000D02*
D03*
X1250000D02*
D03*
X1225000D02*
D03*
X1200000D02*
D03*
X1150000D02*
D03*
X1175000D02*
D03*
X1125000D02*
D03*
X1100000D02*
D03*
X1125000Y750000D02*
D03*
X1175000D02*
D03*
X1150000D02*
D03*
X1200000D02*
D03*
X1225000D02*
D03*
X1250000D02*
D03*
X1275000D02*
D03*
Y825000D02*
D03*
X1250000D02*
D03*
X1225000D02*
D03*
X1200000D02*
D03*
X1150000D02*
D03*
X1175000D02*
D03*
X1125000D02*
D03*
X1100000D02*
D03*
X887500Y750000D02*
D03*
X937500D02*
D03*
X912500D02*
D03*
X962500D02*
D03*
X987500D02*
D03*
X1012500D02*
D03*
X1037500D02*
D03*
Y825000D02*
D03*
X1012500D02*
D03*
X987500D02*
D03*
X962500D02*
D03*
X912500D02*
D03*
X937500D02*
D03*
X887500D02*
D03*
X862500D02*
D03*
X675000Y750000D02*
D03*
X725000D02*
D03*
X700000D02*
D03*
X750000D02*
D03*
X775000D02*
D03*
X800000D02*
D03*
Y825000D02*
D03*
X775000D02*
D03*
X750000D02*
D03*
X725000D02*
D03*
X700000D02*
D03*
X650000D02*
D03*
X675000D02*
D03*
X250000Y750000D02*
D03*
X300000D02*
D03*
X275000D02*
D03*
X325000D02*
D03*
X350000D02*
D03*
X375000D02*
D03*
Y825000D02*
D03*
X350000D02*
D03*
X325000D02*
D03*
X300000D02*
D03*
X275000D02*
D03*
X225000D02*
D03*
X250000D02*
D03*
X2462500Y981250D02*
D03*
Y956250D02*
D03*
Y906250D02*
D03*
Y931250D02*
D03*
X2312500Y906250D02*
D03*
Y931250D02*
D03*
Y956250D02*
D03*
Y981250D02*
D03*
Y1006250D02*
D03*
Y1031250D02*
D03*
Y1056250D02*
D03*
Y1081250D02*
D03*
Y1131250D02*
D03*
Y1106250D02*
D03*
Y1156250D02*
D03*
X2462500Y1031250D02*
D03*
Y1006250D02*
D03*
Y1056250D02*
D03*
Y1081250D02*
D03*
Y1131250D02*
D03*
Y1106250D02*
D03*
Y1156250D02*
D03*
Y1181250D02*
D03*
X2187500Y1131250D02*
D03*
Y1081250D02*
D03*
Y1106250D02*
D03*
Y1056250D02*
D03*
Y1031250D02*
D03*
Y1006250D02*
D03*
X2262500D02*
D03*
Y1031250D02*
D03*
Y1056250D02*
D03*
Y1081250D02*
D03*
Y1106250D02*
D03*
Y1156250D02*
D03*
Y1131250D02*
D03*
X1600033Y1131283D02*
D03*
Y1081283D02*
D03*
Y1106283D02*
D03*
Y1056283D02*
D03*
Y1031283D02*
D03*
Y1006283D02*
D03*
Y981283D02*
D03*
X1675033D02*
D03*
Y1006283D02*
D03*
Y1031283D02*
D03*
Y1056283D02*
D03*
Y1106283D02*
D03*
Y1081283D02*
D03*
Y1131283D02*
D03*
Y1156283D02*
D03*
X1712467Y1131207D02*
D03*
Y1081207D02*
D03*
Y1106207D02*
D03*
Y1056207D02*
D03*
Y1031207D02*
D03*
Y1006207D02*
D03*
Y981207D02*
D03*
X1787467D02*
D03*
Y1006207D02*
D03*
Y1031207D02*
D03*
Y1056207D02*
D03*
Y1106207D02*
D03*
Y1081207D02*
D03*
Y1131207D02*
D03*
Y1156207D02*
D03*
X1825033Y1131283D02*
D03*
Y1081283D02*
D03*
Y1106283D02*
D03*
Y1056283D02*
D03*
Y1031283D02*
D03*
Y1006283D02*
D03*
Y981283D02*
D03*
X1900033D02*
D03*
Y1006283D02*
D03*
Y1031283D02*
D03*
Y1056283D02*
D03*
Y1106283D02*
D03*
Y1081283D02*
D03*
Y1131283D02*
D03*
Y1156283D02*
D03*
X2050000Y1131240D02*
D03*
Y1081240D02*
D03*
Y1106240D02*
D03*
Y1056240D02*
D03*
Y1031240D02*
D03*
Y1006240D02*
D03*
Y981240D02*
D03*
X2125000D02*
D03*
Y1006240D02*
D03*
Y1031240D02*
D03*
Y1056240D02*
D03*
Y1106240D02*
D03*
Y1081240D02*
D03*
Y1131240D02*
D03*
Y1156240D02*
D03*
X1487500Y1131250D02*
D03*
Y1081250D02*
D03*
Y1106250D02*
D03*
Y1056250D02*
D03*
Y1031250D02*
D03*
Y1006250D02*
D03*
Y981250D02*
D03*
X1562500D02*
D03*
Y1006250D02*
D03*
Y1031250D02*
D03*
Y1056250D02*
D03*
Y1106250D02*
D03*
Y1081250D02*
D03*
Y1131250D02*
D03*
Y1156250D02*
D03*
X1375000Y1131250D02*
D03*
Y1081250D02*
D03*
Y1106250D02*
D03*
Y1056250D02*
D03*
Y1031250D02*
D03*
Y1006250D02*
D03*
Y981250D02*
D03*
X1450000D02*
D03*
Y1006250D02*
D03*
Y1031250D02*
D03*
Y1056250D02*
D03*
Y1106250D02*
D03*
Y1081250D02*
D03*
Y1131250D02*
D03*
Y1156250D02*
D03*
X1262500Y1131250D02*
D03*
Y1081250D02*
D03*
Y1106250D02*
D03*
Y1056250D02*
D03*
Y1031250D02*
D03*
Y1006250D02*
D03*
Y981250D02*
D03*
X1337500D02*
D03*
Y1006250D02*
D03*
Y1031250D02*
D03*
Y1056250D02*
D03*
Y1106250D02*
D03*
Y1081250D02*
D03*
Y1131250D02*
D03*
Y1156250D02*
D03*
X1137500Y1131250D02*
D03*
Y1081250D02*
D03*
Y1106250D02*
D03*
Y1056250D02*
D03*
Y1031250D02*
D03*
Y1006250D02*
D03*
Y981250D02*
D03*
X1212500D02*
D03*
Y1006250D02*
D03*
Y1031250D02*
D03*
Y1056250D02*
D03*
Y1106250D02*
D03*
Y1081250D02*
D03*
Y1131250D02*
D03*
Y1156250D02*
D03*
X1012500Y1131250D02*
D03*
Y1081250D02*
D03*
Y1106250D02*
D03*
Y1056250D02*
D03*
Y1031250D02*
D03*
Y1006250D02*
D03*
Y981250D02*
D03*
X1087500D02*
D03*
Y1006250D02*
D03*
Y1031250D02*
D03*
Y1056250D02*
D03*
Y1106250D02*
D03*
Y1081250D02*
D03*
Y1131250D02*
D03*
Y1156250D02*
D03*
X837500Y1131250D02*
D03*
Y1081250D02*
D03*
Y1106250D02*
D03*
Y1056250D02*
D03*
Y1031250D02*
D03*
Y1006250D02*
D03*
Y981250D02*
D03*
X912500D02*
D03*
Y1006250D02*
D03*
Y1031250D02*
D03*
Y1056250D02*
D03*
Y1106250D02*
D03*
Y1081250D02*
D03*
Y1131250D02*
D03*
Y1156250D02*
D03*
X662500Y1131250D02*
D03*
Y1081250D02*
D03*
Y1106250D02*
D03*
Y1056250D02*
D03*
Y1031250D02*
D03*
Y1006250D02*
D03*
Y981250D02*
D03*
X737500D02*
D03*
Y1006250D02*
D03*
Y1031250D02*
D03*
Y1056250D02*
D03*
Y1106250D02*
D03*
Y1081250D02*
D03*
Y1131250D02*
D03*
Y1156250D02*
D03*
X550000Y1131250D02*
D03*
Y1081250D02*
D03*
Y1106250D02*
D03*
Y1056250D02*
D03*
Y1031250D02*
D03*
Y1006250D02*
D03*
Y981250D02*
D03*
X625000D02*
D03*
Y1006250D02*
D03*
Y1031250D02*
D03*
Y1056250D02*
D03*
Y1106250D02*
D03*
Y1081250D02*
D03*
Y1131250D02*
D03*
Y1156250D02*
D03*
X487500Y1131250D02*
D03*
Y1156250D02*
D03*
Y1106250D02*
D03*
Y1081250D02*
D03*
Y1056250D02*
D03*
Y1031250D02*
D03*
Y1006250D02*
D03*
X412500D02*
D03*
Y1031250D02*
D03*
Y1056250D02*
D03*
Y1106250D02*
D03*
Y1081250D02*
D03*
Y1131250D02*
D03*
X275000D02*
D03*
Y1081250D02*
D03*
Y1106250D02*
D03*
Y1056250D02*
D03*
Y1031250D02*
D03*
Y1006250D02*
D03*
X350000D02*
D03*
Y1031250D02*
D03*
Y1056250D02*
D03*
Y1081250D02*
D03*
Y1106250D02*
D03*
Y1156250D02*
D03*
Y1131250D02*
D03*
X1625000Y1281250D02*
D03*
X1675000D02*
D03*
X1650000D02*
D03*
X1700000D02*
D03*
X1725000D02*
D03*
X1750000D02*
D03*
X1775000D02*
D03*
Y1356250D02*
D03*
X1750000D02*
D03*
X1725000D02*
D03*
X1700000D02*
D03*
X1650000D02*
D03*
X1675000D02*
D03*
X1625000D02*
D03*
X1600000D02*
D03*
X1387500Y1281250D02*
D03*
X1437500D02*
D03*
X1412500D02*
D03*
X1462500D02*
D03*
X1487500D02*
D03*
X1512500D02*
D03*
X1537500D02*
D03*
Y1356250D02*
D03*
X1512500D02*
D03*
X1487500D02*
D03*
X1462500D02*
D03*
X1412500D02*
D03*
X1437500D02*
D03*
X1387500D02*
D03*
X1362500D02*
D03*
X1150000Y1281250D02*
D03*
X1200000D02*
D03*
X1175000D02*
D03*
X1225000D02*
D03*
X1250000D02*
D03*
X1275000D02*
D03*
X1300000D02*
D03*
Y1356250D02*
D03*
X1275000D02*
D03*
X1250000D02*
D03*
X1225000D02*
D03*
X1175000D02*
D03*
X1200000D02*
D03*
X1150000D02*
D03*
X1125000D02*
D03*
X912500Y1281250D02*
D03*
X962500D02*
D03*
X937500D02*
D03*
X987500D02*
D03*
X1012500D02*
D03*
X1037500D02*
D03*
X1062500D02*
D03*
Y1356250D02*
D03*
X1037500D02*
D03*
X1012500D02*
D03*
X987500D02*
D03*
X937500D02*
D03*
X962500D02*
D03*
X912500D02*
D03*
X887500D02*
D03*
X675000Y1281250D02*
D03*
X725000D02*
D03*
X700000D02*
D03*
X750000D02*
D03*
X775000D02*
D03*
X800000D02*
D03*
X825000D02*
D03*
Y1356250D02*
D03*
X800000D02*
D03*
X775000D02*
D03*
X750000D02*
D03*
X700000D02*
D03*
X725000D02*
D03*
X675000D02*
D03*
X650000D02*
D03*
X462500Y1281250D02*
D03*
X512500D02*
D03*
X487500D02*
D03*
X537500D02*
D03*
X562500D02*
D03*
X587500D02*
D03*
Y1356250D02*
D03*
X562500D02*
D03*
X537500D02*
D03*
X512500D02*
D03*
X487500D02*
D03*
X437500D02*
D03*
X462500D02*
D03*
X300000Y1281250D02*
D03*
X325000D02*
D03*
X350000D02*
D03*
X275000Y1356250D02*
D03*
X300000D02*
D03*
X325000D02*
D03*
X350000D02*
D03*
D17*
X1925000Y750000D02*
D03*
Y600000D02*
D03*
X437500Y750000D02*
D03*
X2112500Y950000D02*
D03*
X2062500D02*
D03*
X2000000D02*
D03*
X1950000D02*
D03*
X1887500D02*
D03*
X1837500D02*
D03*
X1775000D02*
D03*
X1725000D02*
D03*
X1662500D02*
D03*
X1612500D02*
D03*
X1550000D02*
D03*
X1500000D02*
D03*
X1437500D02*
D03*
X1387500D02*
D03*
X1325000D02*
D03*
X1275000D02*
D03*
X225000Y350000D02*
D03*
X1425000Y300000D02*
D03*
X2125000Y1243750D02*
D03*
X1887500Y825000D02*
D03*
X1787500D02*
D03*
X587500Y1431250D02*
D03*
X537500D02*
D03*
X1125000D02*
D03*
X1075000D02*
D03*
X1575000D02*
D03*
X1525000D02*
D03*
X2325000D02*
D03*
X2275000D02*
D03*
X1837500Y1281250D02*
D03*
X1275000Y300000D02*
D03*
X1225000D02*
D03*
X300000D02*
D03*
X250000D02*
D03*
X687500Y462500D02*
D03*
X787500D02*
D03*
X687500Y518750D02*
D03*
X787500D02*
D03*
X1787500Y700000D02*
D03*
X1887500D02*
D03*
X1787500Y675000D02*
D03*
X1887500D02*
D03*
X1787500Y637500D02*
D03*
X1887500D02*
D03*
X1787500Y600000D02*
D03*
X1887500D02*
D03*
X1787500Y787500D02*
D03*
X1887500D02*
D03*
X1787500Y725000D02*
D03*
X1887500D02*
D03*
X1787500Y750000D02*
D03*
X1887500D02*
D03*
X325000Y1431250D02*
D03*
X375000D02*
D03*
X250000Y1243750D02*
D03*
X350000D02*
D03*
X1387500Y350000D02*
D03*
X1100000D02*
D03*
X650000D02*
D03*
X862500D02*
D03*
X437500D02*
D03*
Y600000D02*
D03*
X225000D02*
D03*
X650000D02*
D03*
X1575000Y750000D02*
D03*
Y600000D02*
D03*
X1337500D02*
D03*
Y750000D02*
D03*
X862500Y600000D02*
D03*
X1100000D02*
D03*
Y750000D02*
D03*
X862500D02*
D03*
X650000D02*
D03*
X225000D02*
D03*
X1600000Y1281250D02*
D03*
X1362500D02*
D03*
X1125000D02*
D03*
X887500D02*
D03*
X650000D02*
D03*
X437500Y1281250D02*
D03*
D18*
X2490000Y540000D02*
D03*
X2400000D02*
D03*
X2490000Y780000D02*
D03*
X2400000D02*
D03*
D19*
X2490000Y1430000D02*
D03*
X190000D02*
D03*
D20*
X1937500Y1156250D02*
D03*
X212500Y525000D02*
D03*
Y475000D02*
D03*
Y937500D02*
D03*
Y887500D02*
D03*
Y1243750D02*
D03*
Y1343750D02*
D03*
X2462500Y1293750D02*
D03*
Y1243750D02*
D03*
X2237500Y575000D02*
D03*
Y675000D02*
D03*
X2262500Y387500D02*
D03*
Y487500D02*
D03*
X2237500Y387500D02*
D03*
Y487500D02*
D03*
X2212500Y387500D02*
D03*
Y487500D02*
D03*
X1325000Y337500D02*
D03*
Y437500D02*
D03*
X2212500Y575000D02*
D03*
Y675000D02*
D03*
X2187500Y575000D02*
D03*
Y675000D02*
D03*
X2162500Y575000D02*
D03*
Y675000D02*
D03*
X2137500Y575000D02*
D03*
Y675000D02*
D03*
X2212500Y725000D02*
D03*
Y825000D02*
D03*
X2187500Y725000D02*
D03*
Y825000D02*
D03*
X2162500Y725000D02*
D03*
Y825000D02*
D03*
X2137500Y725000D02*
D03*
Y825000D02*
D03*
X800000Y1193750D02*
D03*
Y1093750D02*
D03*
X950000Y1193750D02*
D03*
Y1093750D02*
D03*
Y1056250D02*
D03*
Y956250D02*
D03*
X800000Y1056250D02*
D03*
Y956250D02*
D03*
X2312500Y1181250D02*
D03*
X2187500Y1156250D02*
D03*
X1600033Y1156283D02*
D03*
X1712467Y1156207D02*
D03*
X1825033Y1156283D02*
D03*
X2050000Y1156240D02*
D03*
X1487500Y1156250D02*
D03*
X1375000D02*
D03*
X1262500D02*
D03*
X1137500D02*
D03*
X1012500D02*
D03*
X837500D02*
D03*
X662500D02*
D03*
X550000D02*
D03*
X412500D02*
D03*
X275000D02*
D03*
Y1281250D02*
D03*
D21*
X2287500Y656250D02*
D03*
Y693750D02*
D03*
Y731250D02*
D03*
Y618750D02*
D03*
Y581250D02*
D03*
Y543750D02*
D03*
Y768750D02*
D03*
D22*
X2412500Y412500D02*
D03*
X2325000D02*
D03*
D23*
X2437500D02*
D03*
X2462500D02*
D03*
X2350000D02*
D03*
X2375000D02*
D03*
D24*
X775000Y1093750D02*
D03*
Y1056250D02*
D03*
X975000Y1093750D02*
D03*
Y1056250D02*
D03*
X662500Y518750D02*
D03*
Y462500D02*
D03*
D25*
X687500Y625000D02*
D03*
X1412500Y800000D02*
D03*
X1913523Y1219773D02*
D03*
X1768750Y1243750D02*
D03*
X2343750Y375000D02*
D03*
X2262500Y462500D02*
D03*
X1100000Y1343750D02*
D03*
X1090571Y1293631D02*
D03*
X1537000Y587500D02*
D03*
X1556250Y1218750D02*
D03*
X1525000Y1193750D02*
D03*
X1806250Y1337500D02*
D03*
X204250Y836796D02*
D03*
X206250Y325000D02*
D03*
X1306572Y848608D02*
D03*
X1306462Y737378D02*
D03*
X1308757Y650843D02*
D03*
X1307992Y611836D02*
D03*
X1337500Y650000D02*
D03*
X1922000Y637500D02*
D03*
X1950000D02*
D03*
X349801Y949613D02*
D03*
X1180110Y1131365D02*
D03*
X1159787Y1118784D02*
D03*
X837000Y462500D02*
D03*
X325000Y1188000D02*
D03*
X675000Y1196750D02*
D03*
X375000D02*
D03*
X312500Y1056250D02*
D03*
X2201779Y1303134D02*
D03*
X2212448Y1333133D02*
D03*
X2125000Y1343750D02*
D03*
X1110586Y1231874D02*
D03*
X848550Y699737D02*
D03*
X847902Y575992D02*
D03*
X487500Y300000D02*
D03*
X1150903Y901568D02*
D03*
X1450472Y901717D02*
D03*
X1100000Y862500D02*
D03*
X1062500D02*
D03*
X2100000Y893750D02*
D03*
X2237478Y906239D02*
D03*
X1389107Y929750D02*
D03*
X1175000Y909500D02*
D03*
X775000Y868750D02*
D03*
X750000Y887500D02*
D03*
X537500D02*
D03*
X675000Y900000D02*
D03*
X475000D02*
D03*
X490500Y862500D02*
D03*
X1118750Y937500D02*
D03*
X1100000Y950000D02*
D03*
X2043750Y925000D02*
D03*
X2000000Y918750D02*
D03*
X1825000D02*
D03*
X1737500D02*
D03*
X2025000Y943750D02*
D03*
X1969041Y906250D02*
D03*
X1793750Y928000D02*
D03*
X1193750Y931250D02*
D03*
X1300000Y940500D02*
D03*
X1312500Y1081250D02*
D03*
X1850000Y906250D02*
D03*
X1856250Y928000D02*
D03*
X2175000Y931250D02*
D03*
X2068750Y925000D02*
D03*
X2143750Y937500D02*
D03*
X1922000Y787500D02*
D03*
X1931250Y937500D02*
D03*
X1912500Y375000D02*
D03*
Y568750D02*
D03*
X1518750Y925000D02*
D03*
X2090750Y993750D02*
D03*
X1062500Y950571D02*
D03*
X1413548Y908263D02*
D03*
X2156250Y893750D02*
D03*
X2150000Y543750D02*
D03*
X1625000Y1181250D02*
D03*
X1612500Y1206250D02*
D03*
X1300000Y1193750D02*
D03*
X437500Y968750D02*
D03*
X612500Y437500D02*
D03*
X1387500Y800000D02*
D03*
X2025000Y1306250D02*
D03*
X2100000Y1106250D02*
D03*
X1887209Y555959D02*
D03*
X1787500Y1250000D02*
D03*
X1750000Y1112500D02*
D03*
X1012500Y1218750D02*
D03*
X1050000Y1031250D02*
D03*
X587500Y1018750D02*
D03*
X612500Y1293750D02*
D03*
X462500Y700000D02*
D03*
X262500Y775000D02*
D03*
X1612500Y437500D02*
D03*
Y1384790D02*
D03*
X912500Y493750D02*
D03*
X1850000Y1206250D02*
D03*
X1825000Y1231250D02*
D03*
X1437500Y462500D02*
D03*
X725000Y709500D02*
D03*
X462500Y1206250D02*
D03*
X1187500Y1406250D02*
D03*
X937500Y1418750D02*
D03*
X762500Y1406250D02*
D03*
X1000000Y1418750D02*
D03*
X2150000Y400000D02*
D03*
X1650000Y425000D02*
D03*
X1475000Y331250D02*
D03*
X1587500D02*
D03*
X2237500Y800000D02*
D03*
X1612500Y518750D02*
D03*
X2087500Y510750D02*
D03*
X1250000Y512500D02*
D03*
X975000D02*
D03*
X950000Y487500D02*
D03*
X1675000Y518750D02*
D03*
X1987500Y456250D02*
D03*
X1412500Y462500D02*
D03*
X975000D02*
D03*
X868750Y487500D02*
D03*
X1625000Y543750D02*
D03*
X1650000Y531250D02*
D03*
X1525000Y462500D02*
D03*
X312500Y937500D02*
D03*
X287500Y925000D02*
D03*
X837500Y787500D02*
D03*
X862500Y946750D02*
D03*
X1200000Y850000D02*
D03*
X1487500D02*
D03*
X1375000D02*
D03*
X2212500Y962500D02*
D03*
X2193750D02*
D03*
X2225000Y1043750D02*
D03*
X875000Y1025000D02*
D03*
X650000Y850000D02*
D03*
X625000D02*
D03*
X2362500Y956250D02*
D03*
X2400000Y981250D02*
D03*
X1400000Y568750D02*
D03*
X1212500Y700000D02*
D03*
X1225000Y1193750D02*
D03*
X912500Y1231250D02*
D03*
X1925000Y1306250D02*
D03*
X1950000Y1296460D02*
D03*
X1825000Y1331250D02*
D03*
X1813172Y1243077D02*
D03*
X1624888Y1318213D02*
D03*
X2062500Y1318750D02*
D03*
X1462500Y1256250D02*
D03*
X1475000Y1231250D02*
D03*
X1425000D02*
D03*
X2050000Y850000D02*
D03*
X2000000D02*
D03*
X2400000Y1131250D02*
D03*
X1987500Y1181250D02*
D03*
X700000Y1143750D02*
D03*
X687500Y993750D02*
D03*
X1425000Y325000D02*
D03*
X1750000Y637500D02*
D03*
X1700000Y625000D02*
D03*
X1662500Y725000D02*
D03*
X1600000D02*
D03*
Y700000D02*
D03*
X1575000D02*
D03*
X1487500D02*
D03*
X1187500Y993750D02*
D03*
X437500Y543750D02*
D03*
X525000Y475000D02*
D03*
X762500Y450000D02*
D03*
X1150000Y575000D02*
D03*
X1162500Y475000D02*
D03*
X1187500Y487500D02*
D03*
X1575000Y375000D02*
D03*
X1587500Y412500D02*
D03*
X1625000D02*
D03*
X1150000Y650000D02*
D03*
X1237500Y712500D02*
D03*
X1725000Y725000D02*
D03*
X1975000Y400000D02*
D03*
X2075000D02*
D03*
X2125000D02*
D03*
X1750000Y375000D02*
D03*
X1787500D02*
D03*
X1812500D02*
D03*
X1837500D02*
D03*
X1862500D02*
D03*
X1887500D02*
D03*
X1962500D02*
D03*
X1987500D02*
D03*
X2012500D02*
D03*
X2037500D02*
D03*
X2062500D02*
D03*
X2087500D02*
D03*
X2112500D02*
D03*
X2137500D02*
D03*
X2150000Y468750D02*
D03*
X2175000D02*
D03*
X2212500Y1181250D02*
D03*
X2150000Y850000D02*
D03*
X1687500Y775000D02*
D03*
X1650000D02*
D03*
X1362500Y637500D02*
D03*
X1487500Y650000D02*
D03*
X1512500D02*
D03*
X1600000Y556250D02*
D03*
X1625000Y575000D02*
D03*
X1662500Y562500D02*
D03*
X1687500Y543750D02*
D03*
X1725000D02*
D03*
X1750000Y568750D02*
D03*
X1775000Y556250D02*
D03*
X1837500Y581250D02*
D03*
X2012500Y518750D02*
D03*
X2112500Y531250D02*
D03*
X2137500D02*
D03*
X2187500Y625000D02*
D03*
X2050000Y637500D02*
D03*
X2062500Y706250D02*
D03*
X2050000Y800000D02*
D03*
X1950000Y787500D02*
D03*
X2387500Y1031250D02*
D03*
X2425000Y993750D02*
D03*
X2350000Y1006250D02*
D03*
X2337500Y1056250D02*
D03*
X2437500Y1268750D02*
D03*
X2412500Y1318750D02*
D03*
X2275000Y1281250D02*
D03*
X2250000Y1293750D02*
D03*
X2225000Y1368750D02*
D03*
X2187500Y1281250D02*
D03*
X2150000Y1356250D02*
D03*
X2187500Y1206250D02*
D03*
X2162500D02*
D03*
X2137500Y1218750D02*
D03*
X2075000Y1106250D02*
D03*
X1362500Y787500D02*
D03*
X1437500Y775000D02*
D03*
X1487500Y787500D02*
D03*
X1512500D02*
D03*
X1762500Y1068750D02*
D03*
X2125000Y1431250D02*
D03*
X2062500D02*
D03*
X2087500Y1281250D02*
D03*
X2037500Y1193750D02*
D03*
X2000000Y1206250D02*
D03*
Y1231250D02*
D03*
X1975000D02*
D03*
X1950000Y1243750D02*
D03*
X1925000D02*
D03*
X1875000Y1206250D02*
D03*
X1837500Y850000D02*
D03*
X1700000Y1218750D02*
D03*
X1725000D02*
D03*
X1775000Y1431250D02*
D03*
X1712500D02*
D03*
X1637500Y1393750D02*
D03*
X1462500Y1381250D02*
D03*
X1500000D02*
D03*
X1487500Y1331250D02*
D03*
X1512500Y1218750D02*
D03*
X1500000Y1243750D02*
D03*
X1400000Y1256250D02*
D03*
X1387500Y1306250D02*
D03*
X1062500Y1093750D02*
D03*
X1337500Y1343750D02*
D03*
Y1293750D02*
D03*
X1187500Y775000D02*
D03*
X1162500D02*
D03*
X1075000Y750000D02*
D03*
X1062500Y775000D02*
D03*
X1075000Y800000D02*
D03*
X1312500Y1168750D02*
D03*
X1275000Y1306250D02*
D03*
Y1256250D02*
D03*
X1250000Y1243750D02*
D03*
X1112500Y1093750D02*
D03*
X1175000Y1218750D02*
D03*
X1162500Y1393750D02*
D03*
X1212500D02*
D03*
X1200000Y1318750D02*
D03*
X1137500D02*
D03*
X1100000Y1393750D02*
D03*
X1062500D02*
D03*
X962500D02*
D03*
X987500Y1381250D02*
D03*
X1037500Y1306250D02*
D03*
X1075000Y1218750D02*
D03*
X1050000Y1206250D02*
D03*
X987500Y1231250D02*
D03*
X1037500Y1118750D02*
D03*
Y1056250D02*
D03*
X937500Y993750D02*
D03*
X900000Y1331250D02*
D03*
X575000Y1143750D02*
D03*
X387500Y1056250D02*
D03*
Y1106250D02*
D03*
X512500Y1143750D02*
D03*
X862500Y1081250D02*
D03*
X875000Y1106250D02*
D03*
Y1156250D02*
D03*
X862500Y1381250D02*
D03*
X850000Y1306250D02*
D03*
X837500Y1243750D02*
D03*
X762500Y1193750D02*
D03*
X687500Y1231250D02*
D03*
X662500Y1243750D02*
D03*
X712500Y1381250D02*
D03*
X737500Y1393750D02*
D03*
X775000Y1331250D02*
D03*
X637500Y1318750D02*
D03*
X500000Y1306250D02*
D03*
X625000Y1368750D02*
D03*
X562500Y1256250D02*
D03*
X600000Y1081250D02*
D03*
X587500Y1106250D02*
D03*
X450000Y1031250D02*
D03*
Y1056250D02*
D03*
Y1106250D02*
D03*
Y1131250D02*
D03*
X500000Y1231250D02*
D03*
X475000Y1393750D02*
D03*
X450000Y1243750D02*
D03*
X237500Y1218750D02*
D03*
X262500Y1206250D02*
D03*
X300000Y1018750D02*
D03*
X912500Y775000D02*
D03*
X925000Y625000D02*
D03*
X975000Y637500D02*
D03*
X987500Y700000D02*
D03*
X1062500Y587500D02*
D03*
X987500Y575000D02*
D03*
X837500Y662500D02*
D03*
X825000Y687500D02*
D03*
X775000Y625000D02*
D03*
X800000Y581250D02*
D03*
X675000Y775000D02*
D03*
X650000Y700000D02*
D03*
X662500Y637500D02*
D03*
X612500Y675000D02*
D03*
Y762500D02*
D03*
Y825000D02*
D03*
X575000Y700000D02*
D03*
X562500Y787500D02*
D03*
X512500Y800000D02*
D03*
Y993750D02*
D03*
Y850000D02*
D03*
X437500Y787500D02*
D03*
X412500Y775000D02*
D03*
X400000Y837500D02*
D03*
X212500Y862500D02*
D03*
X337500Y787500D02*
D03*
X387500Y725000D02*
D03*
X212500Y700000D02*
D03*
X275000Y712500D02*
D03*
X325000Y700000D02*
D03*
X275000Y625000D02*
D03*
X400000D02*
D03*
X350000Y581250D02*
D03*
X237500Y562500D02*
D03*
X575000Y512500D02*
D03*
X600000Y475000D02*
D03*
X550000Y568750D02*
D03*
X512500Y543750D02*
D03*
X500000Y512500D02*
D03*
X487500Y487500D02*
D03*
X425000Y462500D02*
D03*
X462500Y475000D02*
D03*
X400000Y500000D02*
D03*
X362500Y475000D02*
D03*
X250000Y506250D02*
D03*
Y537500D02*
D03*
X312500Y543750D02*
D03*
X337500Y531250D02*
D03*
X325000Y506250D02*
D03*
Y481250D02*
D03*
X237500Y450000D02*
D03*
X1075000Y337500D02*
D03*
X1162500Y325000D02*
D03*
X1200000Y300000D02*
D03*
X937500Y287500D02*
D03*
X862500D02*
D03*
X825000Y337500D02*
D03*
X700000Y325000D02*
D03*
X350000Y312500D02*
D03*
D26*
X1550000Y600000D02*
D03*
X1306250Y300000D02*
D03*
X1050000Y287500D02*
D03*
X1670000Y290000D02*
D03*
X450000Y300000D02*
D03*
X2250000Y918750D02*
D03*
X2268750Y843750D02*
D03*
X968750Y900000D02*
D03*
X825000Y903250D02*
D03*
X1043750Y900000D02*
D03*
X1762500Y700000D02*
D03*
X2281250Y856250D02*
D03*
X2306250Y881250D02*
D03*
X2293750Y868750D02*
D03*
X2225000Y506250D02*
D03*
Y525000D02*
D03*
X750000Y518750D02*
D03*
X981250Y981250D02*
D03*
X993750Y900000D02*
D03*
X1043750Y981250D02*
D03*
Y1006250D02*
D03*
X955959Y980959D02*
D03*
X1650000Y1331250D02*
D03*
X1675000Y1325000D02*
D03*
Y1303540D02*
D03*
X1750000Y1258960D02*
D03*
M02*
